G04 #@! TF.GenerationSoftware,KiCad,Pcbnew,(5.1.2)-2*
G04 #@! TF.CreationDate,2020-02-19T10:12:50-05:00*
G04 #@! TF.ProjectId,LoRaShield2,4c6f5261-5368-4696-956c-64322e6b6963,V2*
G04 #@! TF.SameCoordinates,PX437ae70PY8b896f8*
G04 #@! TF.FileFunction,Copper,L4,Bot*
G04 #@! TF.FilePolarity,Positive*
%FSLAX46Y46*%
G04 Gerber Fmt 4.6, Leading zero omitted, Abs format (unit mm)*
G04 Created by KiCad (PCBNEW (5.1.2)-2) date 2020-02-19 10:12:50*
%MOMM*%
%LPD*%
G04 APERTURE LIST*
%ADD10O,2.000000X2.000000*%
%ADD11R,2.000000X2.000000*%
%ADD12R,4.064000X2.000000*%
%ADD13R,1.700000X1.700000*%
%ADD14O,1.700000X1.700000*%
%ADD15R,0.600000X0.400000*%
%ADD16C,0.600000*%
%ADD17C,0.800000*%
%ADD18C,0.350000*%
%ADD19C,0.250000*%
%ADD20C,0.150000*%
G04 APERTURE END LIST*
D10*
X18936000Y50928000D03*
X21476000Y50928000D03*
D11*
X28076000Y2668000D03*
D10*
X58556000Y50928000D03*
X30616000Y2668000D03*
X56016000Y50928000D03*
X33156000Y2668000D03*
X53476000Y50928000D03*
X35696000Y2668000D03*
X50936000Y50928000D03*
X38236000Y2668000D03*
X48396000Y50928000D03*
X40776000Y2668000D03*
X45856000Y50928000D03*
X43316000Y2668000D03*
X41796000Y50928000D03*
X45856000Y2668000D03*
X39256000Y50928000D03*
X50936000Y2668000D03*
X36716000Y50928000D03*
X53476000Y2668000D03*
X34176000Y50928000D03*
X56016000Y2668000D03*
X31636000Y50928000D03*
X58556000Y2668000D03*
X29096000Y50928000D03*
X61096000Y2668000D03*
X26556000Y50928000D03*
X63636000Y2668000D03*
X24016000Y50928000D03*
X63636000Y50928000D03*
X61096000Y50928000D03*
D12*
X66500000Y39288000D03*
X66500000Y44812000D03*
D13*
X54242000Y11400000D03*
D14*
X54242000Y8860000D03*
X51702000Y11400000D03*
X51702000Y8860000D03*
X49162000Y11400000D03*
X49162000Y8860000D03*
X46622000Y11400000D03*
X46622000Y8860000D03*
X44082000Y11400000D03*
X44082000Y8860000D03*
X41542000Y11400000D03*
X41542000Y8860000D03*
X39002000Y11400000D03*
X39002000Y8860000D03*
X36462000Y11400000D03*
X36462000Y8860000D03*
X33922000Y11400000D03*
X33922000Y8860000D03*
X31382000Y11400000D03*
X31382000Y8860000D03*
X28842000Y11400000D03*
X28842000Y8860000D03*
X26302000Y11400000D03*
X26302000Y8860000D03*
X23762000Y11400000D03*
X23762000Y8860000D03*
X21222000Y11400000D03*
X21222000Y8860000D03*
X18682000Y11400000D03*
X18682000Y8860000D03*
X16142000Y11400000D03*
X16142000Y8860000D03*
X13602000Y11400000D03*
X13602000Y8860000D03*
X11062000Y11400000D03*
X11062000Y8860000D03*
X8522000Y11400000D03*
X8522000Y8860000D03*
X5982000Y11400000D03*
X5982000Y8860000D03*
D13*
X41450000Y42150000D03*
D14*
X41450000Y44690000D03*
X43990000Y42150000D03*
X43990000Y44690000D03*
X46530000Y42150000D03*
X46530000Y44690000D03*
X49070000Y42150000D03*
X49070000Y44690000D03*
X51610000Y42150000D03*
X51610000Y44690000D03*
X54150000Y42150000D03*
X54150000Y44690000D03*
D15*
X27440000Y35260000D03*
X27440000Y34360000D03*
D14*
X8520000Y15350000D03*
X11060000Y15350000D03*
X13600000Y15350000D03*
D13*
X16140000Y15350000D03*
D16*
X37750000Y39000000D03*
X55250000Y24190000D03*
X11500000Y42700000D03*
X52500000Y27500000D03*
X42500000Y27500000D03*
X5000000Y50000000D03*
X10000000Y50000000D03*
X2500000Y47500000D03*
X2500000Y42500000D03*
X2500000Y32500000D03*
X2500000Y27500000D03*
X2500000Y22500000D03*
X2500000Y17500000D03*
X2500000Y12500000D03*
X2500000Y5000000D03*
X10000000Y2500000D03*
X17500000Y2500000D03*
X22500000Y2500000D03*
X52500000Y5000000D03*
X57500000Y5000000D03*
X62500000Y5000000D03*
X62500000Y10000000D03*
X60000000Y15000000D03*
X67500000Y15000000D03*
X67500000Y17500000D03*
X67500000Y20000000D03*
X67500000Y22500000D03*
X67500000Y25000000D03*
X67500000Y27500000D03*
X67500000Y30000000D03*
X67500000Y32500000D03*
X67500000Y35000000D03*
X65000000Y37500000D03*
X62500000Y40000000D03*
X57500000Y40000000D03*
X57500000Y37500000D03*
X57500000Y35000000D03*
X60000000Y35000000D03*
X61500000Y33500000D03*
X62500000Y45000000D03*
X62500000Y47500000D03*
X60000000Y45000000D03*
X57500000Y42500000D03*
X67500000Y47500000D03*
X67500000Y52500000D03*
X25000000Y37500000D03*
X22500000Y37500000D03*
X17500000Y22500000D03*
X20000000Y20000000D03*
X22500000Y17500000D03*
X22500000Y22500000D03*
X35000000Y32500000D03*
X37500000Y27500000D03*
X37500000Y22500000D03*
X37500000Y17500000D03*
X42500000Y17500000D03*
X47500000Y17500000D03*
X52500000Y17500000D03*
X52500000Y22500000D03*
X47500000Y22500000D03*
X42500000Y22500000D03*
X47300000Y27300000D03*
X10000000Y45000000D03*
X10000000Y40000000D03*
X10000000Y35000000D03*
X10000000Y30000000D03*
X10000000Y25000000D03*
X12500000Y32500000D03*
X12500000Y27500000D03*
X12500000Y22500000D03*
X33300000Y43700000D03*
X30750000Y37500000D03*
X34000000Y39000000D03*
X38250000Y36000000D03*
X41500000Y36000000D03*
X46000000Y36000000D03*
X50250000Y36250000D03*
X52500000Y34000000D03*
X63750000Y33750000D03*
X64500000Y30000000D03*
X64500000Y27500000D03*
X64500000Y25000000D03*
X64500000Y22500000D03*
X64000000Y20000000D03*
X64500000Y15000000D03*
X64500000Y16500000D03*
X58500000Y20000000D03*
X58500000Y18500000D03*
X58500000Y17000000D03*
X58500000Y15000000D03*
X59000000Y13500000D03*
X59000000Y7500000D03*
X60500000Y11500000D03*
X60500000Y9500000D03*
X15000000Y44500000D03*
X13500000Y42500000D03*
X26500000Y46500000D03*
X23500000Y44000000D03*
X36000000Y43500000D03*
X19000000Y35000000D03*
X19000000Y31500000D03*
X33500000Y27500000D03*
X33500000Y23000000D03*
X33500000Y18500000D03*
X33000000Y14500000D03*
X23500000Y14500000D03*
X27000000Y15000000D03*
X33000000Y5750000D03*
X26500000Y5750000D03*
X16000000Y5750000D03*
X9500000Y6000000D03*
X43500000Y6500000D03*
X48500000Y6500000D03*
X48500000Y2500000D03*
X43500000Y51500000D03*
X52000000Y49500000D03*
X53000000Y47000000D03*
X29200000Y37450000D03*
X26370000Y35260000D03*
X27450000Y44950000D03*
X30745000Y29815000D03*
X31375000Y27825000D03*
X17510000Y37450000D03*
X17490000Y27810000D03*
X30080000Y25810000D03*
X24415000Y23815000D03*
X20065000Y23815000D03*
X18570000Y38010000D03*
X23700000Y40550000D03*
X23215000Y21815000D03*
X42750000Y37050000D03*
X35170000Y31250000D03*
X45710000Y33480000D03*
X56810000Y23820000D03*
X56250000Y31830000D03*
X26250000Y39900000D03*
X57830000Y29820000D03*
X58325000Y21815000D03*
X25100000Y42500000D03*
X16000000Y42500000D03*
X35419919Y14100000D03*
D17*
X38236000Y4186000D02*
X39200000Y5150000D01*
X39200000Y5150000D02*
X50200000Y5150000D01*
X50200000Y5150000D02*
X51702000Y6652000D01*
X51702000Y6652000D02*
X51702000Y8860000D01*
X38236000Y2668000D02*
X38236000Y4186000D01*
X51702000Y8860000D02*
X54242000Y8860000D01*
X55250000Y24190000D02*
X55250000Y26630000D01*
X55250000Y26630000D02*
X46930000Y34950000D01*
X11500000Y43124264D02*
X14375736Y46000000D01*
X11500000Y42700000D02*
X11500000Y43124264D01*
X14375736Y46000000D02*
X24450000Y46000000D01*
X35500000Y34950000D02*
X42500000Y34950000D01*
X24450000Y46000000D02*
X35500000Y34950000D01*
X46930000Y34950000D02*
X42500000Y34950000D01*
X42500000Y34950000D02*
X41990000Y34950000D01*
D18*
X29200000Y37450000D02*
X29200000Y36600000D01*
X27440000Y35260000D02*
X26370000Y35260000D01*
X27440000Y35260000D02*
X28360000Y35260000D01*
X29200000Y36100000D02*
X29200000Y36600000D01*
X28360000Y35260000D02*
X29200000Y36100000D01*
D19*
X33628000Y44950000D02*
X27450000Y44950000D01*
X58556000Y50928000D02*
X58556000Y50056000D01*
X30745000Y13303000D02*
X28842000Y11400000D01*
X30745000Y29815000D02*
X30745000Y13303000D01*
X31382000Y14418000D02*
X31382000Y11400000D01*
X31382000Y14418000D02*
X31382000Y27818000D01*
X31382000Y27818000D02*
X31375000Y27825000D01*
X17510000Y37450000D02*
X17510000Y27830000D01*
X17510000Y27830000D02*
X17490000Y27810000D01*
X30080000Y15178000D02*
X26302000Y11400000D01*
X30080000Y25810000D02*
X30080000Y15178000D01*
X26302000Y8860000D02*
X25050000Y10112000D01*
X25050000Y10112000D02*
X25050000Y14440000D01*
X25050000Y14440000D02*
X24400000Y15090000D01*
X24400000Y15090000D02*
X24400000Y23810000D01*
X20065000Y23815000D02*
X20065000Y35075000D01*
X20065000Y35820002D02*
X18570000Y37315002D01*
X20065000Y35075000D02*
X20065000Y35820002D01*
X18570000Y37315002D02*
X18570000Y38010000D01*
X23215000Y15933000D02*
X18682000Y11400000D01*
X23215000Y21815000D02*
X23215000Y15933000D01*
X23215000Y24645000D02*
X23215000Y21815000D01*
X23700000Y40550000D02*
X23700000Y25130000D01*
X23700000Y25130000D02*
X23215000Y24645000D01*
X41450000Y38350000D02*
X42750000Y37050000D01*
X41450000Y42150000D02*
X41450000Y38350000D01*
X35170000Y31250000D02*
X43480000Y31250000D01*
X43480000Y31250000D02*
X45710000Y33480000D01*
X43990000Y40060000D02*
X43990000Y42150000D01*
X43990000Y39853590D02*
X47660000Y36183590D01*
X43990000Y40060000D02*
X43990000Y39853590D01*
X47660000Y36183590D02*
X56810000Y27033590D01*
X56810000Y27033590D02*
X56810000Y23820000D01*
X49070000Y39010000D02*
X49070000Y39370000D01*
X56250000Y31830000D02*
X49070000Y39010000D01*
X49070000Y42150000D02*
X49070000Y39370000D01*
X51610000Y38790000D02*
X51610000Y42150000D01*
X57830000Y29820000D02*
X57830000Y32570000D01*
X57830000Y32570000D02*
X51610000Y38790000D01*
X58325000Y21815000D02*
X58325000Y26155000D01*
X46530000Y37950000D02*
X46530000Y42150000D01*
X58325000Y26155000D02*
X46530000Y37950000D01*
D17*
X25100000Y42500000D02*
X16000000Y42500000D01*
D18*
X35200000Y10122000D02*
X35200000Y7300000D01*
X33922000Y11400000D02*
X35200000Y10122000D01*
X35200000Y7300000D02*
X35696000Y6804000D01*
X35696000Y6804000D02*
X35696000Y2668000D01*
X35419919Y29290081D02*
X35419919Y14100000D01*
X27440000Y34360000D02*
X30350000Y34360000D01*
X30350000Y34360000D02*
X35419919Y29290081D01*
D19*
X37188000Y48860000D02*
X17760000Y48860000D01*
X39256000Y50928000D02*
X37188000Y48860000D01*
X17760000Y48860000D02*
X17050000Y48150000D01*
X17050000Y48150000D02*
X10850000Y48150000D01*
X10850000Y48150000D02*
X6700000Y44000000D01*
X6700000Y19710000D02*
X11060000Y15350000D01*
X6700000Y44000000D02*
X6700000Y19710000D01*
X39277990Y48409990D02*
X41796000Y50928000D01*
X7150010Y21799990D02*
X7150010Y43813600D01*
X13600000Y15350000D02*
X7150010Y21799990D01*
X7150010Y43813600D02*
X11036400Y47699990D01*
X11036400Y47699990D02*
X17236401Y47699991D01*
X17236401Y47699991D02*
X17946400Y48409990D01*
X17946400Y48409990D02*
X39277990Y48409990D01*
D20*
G36*
X68400001Y46397603D02*
G01*
X66824750Y46395000D01*
X66679000Y46249250D01*
X66679000Y44991000D01*
X66699000Y44991000D01*
X66699000Y44633000D01*
X66679000Y44633000D01*
X66679000Y43374750D01*
X66824750Y43229000D01*
X68400001Y43226397D01*
X68400001Y40873603D01*
X66824750Y40871000D01*
X66679000Y40725250D01*
X66679000Y39467000D01*
X66699000Y39467000D01*
X66699000Y39109000D01*
X66679000Y39109000D01*
X66679000Y37850750D01*
X66824750Y37705000D01*
X68400001Y37702397D01*
X68400000Y5386396D01*
X65997429Y2983824D01*
X65980264Y2969737D01*
X65966177Y2952572D01*
X65966172Y2952567D01*
X65924029Y2901216D01*
X65882243Y2823040D01*
X65856512Y2738215D01*
X65847824Y2650000D01*
X65850001Y2627896D01*
X65850000Y450000D01*
X450000Y450000D01*
X450000Y2862521D01*
X12131000Y2862521D01*
X12131000Y2473479D01*
X12206898Y2091914D01*
X12355778Y1732487D01*
X12571917Y1409011D01*
X12847011Y1133917D01*
X13170487Y917778D01*
X13529914Y768898D01*
X13911479Y693000D01*
X14300521Y693000D01*
X14682086Y768898D01*
X15041513Y917778D01*
X15364989Y1133917D01*
X15640083Y1409011D01*
X15856222Y1732487D01*
X16005102Y2091914D01*
X16081000Y2473479D01*
X16081000Y2862521D01*
X16005102Y3244086D01*
X15856222Y3603513D01*
X15640083Y3926989D01*
X15364989Y4202083D01*
X15041513Y4418222D01*
X14682086Y4567102D01*
X14300521Y4643000D01*
X13911479Y4643000D01*
X13529914Y4567102D01*
X13170487Y4418222D01*
X12847011Y4202083D01*
X12571917Y3926989D01*
X12355778Y3603513D01*
X12206898Y3244086D01*
X12131000Y2862521D01*
X450000Y2862521D01*
X450000Y11000788D01*
X4605723Y11000788D01*
X4710050Y10739960D01*
X4863258Y10504497D01*
X5059458Y10303448D01*
X5291111Y10144539D01*
X5549315Y10033877D01*
X5582789Y10023730D01*
X5802998Y10125255D01*
X5802998Y10073297D01*
X5741858Y10067275D01*
X5510945Y9997228D01*
X5298134Y9883478D01*
X5111603Y9730397D01*
X4958522Y9543866D01*
X4844772Y9331055D01*
X4774725Y9100142D01*
X4751073Y8860000D01*
X4774725Y8619858D01*
X4844772Y8388945D01*
X4958522Y8176134D01*
X5111603Y7989603D01*
X5298134Y7836522D01*
X5510945Y7722772D01*
X5741858Y7652725D01*
X5921822Y7635000D01*
X6042178Y7635000D01*
X6222142Y7652725D01*
X6453055Y7722772D01*
X6665866Y7836522D01*
X6852397Y7989603D01*
X7005478Y8176134D01*
X7119228Y8388945D01*
X7189275Y8619858D01*
X7212927Y8860000D01*
X7291073Y8860000D01*
X7314725Y8619858D01*
X7384772Y8388945D01*
X7498522Y8176134D01*
X7651603Y7989603D01*
X7838134Y7836522D01*
X8050945Y7722772D01*
X8281858Y7652725D01*
X8461822Y7635000D01*
X8582178Y7635000D01*
X8762142Y7652725D01*
X8993055Y7722772D01*
X9205866Y7836522D01*
X9392397Y7989603D01*
X9545478Y8176134D01*
X9659228Y8388945D01*
X9729275Y8619858D01*
X9752927Y8860000D01*
X9831073Y8860000D01*
X9854725Y8619858D01*
X9924772Y8388945D01*
X10038522Y8176134D01*
X10191603Y7989603D01*
X10378134Y7836522D01*
X10590945Y7722772D01*
X10821858Y7652725D01*
X11001822Y7635000D01*
X11122178Y7635000D01*
X11302142Y7652725D01*
X11533055Y7722772D01*
X11745866Y7836522D01*
X11932397Y7989603D01*
X12085478Y8176134D01*
X12199228Y8388945D01*
X12269275Y8619858D01*
X12275297Y8680998D01*
X12325966Y8680998D01*
X12225723Y8460788D01*
X12330050Y8199960D01*
X12483258Y7964497D01*
X12679458Y7763448D01*
X12911111Y7604539D01*
X13169315Y7493877D01*
X13202789Y7483730D01*
X13423000Y7585256D01*
X13423000Y8681000D01*
X13403000Y8681000D01*
X13403000Y9039000D01*
X13423000Y9039000D01*
X13423000Y9059000D01*
X13781000Y9059000D01*
X13781000Y9039000D01*
X13801000Y9039000D01*
X13801000Y8681000D01*
X13781000Y8681000D01*
X13781000Y7585256D01*
X14001211Y7483730D01*
X14034685Y7493877D01*
X14292889Y7604539D01*
X14524542Y7763448D01*
X14720742Y7964497D01*
X14873950Y8199960D01*
X14978277Y8460788D01*
X14878034Y8680998D01*
X14928703Y8680998D01*
X14934725Y8619858D01*
X15004772Y8388945D01*
X15118522Y8176134D01*
X15271603Y7989603D01*
X15458134Y7836522D01*
X15670945Y7722772D01*
X15901858Y7652725D01*
X16081822Y7635000D01*
X16202178Y7635000D01*
X16382142Y7652725D01*
X16613055Y7722772D01*
X16825866Y7836522D01*
X17012397Y7989603D01*
X17165478Y8176134D01*
X17279228Y8388945D01*
X17349275Y8619858D01*
X17355297Y8680998D01*
X17405966Y8680998D01*
X17305723Y8460788D01*
X17410050Y8199960D01*
X17563258Y7964497D01*
X17759458Y7763448D01*
X17991111Y7604539D01*
X18249315Y7493877D01*
X18282789Y7483730D01*
X18503000Y7585256D01*
X18503000Y8681000D01*
X18483000Y8681000D01*
X18483000Y9039000D01*
X18503000Y9039000D01*
X18503000Y9059000D01*
X18861000Y9059000D01*
X18861000Y9039000D01*
X18881000Y9039000D01*
X18881000Y8681000D01*
X18861000Y8681000D01*
X18861000Y7585256D01*
X19081211Y7483730D01*
X19114685Y7493877D01*
X19372889Y7604539D01*
X19604542Y7763448D01*
X19800742Y7964497D01*
X19953950Y8199960D01*
X20058277Y8460788D01*
X19958034Y8680998D01*
X20008703Y8680998D01*
X20014725Y8619858D01*
X20084772Y8388945D01*
X20198522Y8176134D01*
X20351603Y7989603D01*
X20538134Y7836522D01*
X20750945Y7722772D01*
X20981858Y7652725D01*
X21161822Y7635000D01*
X21282178Y7635000D01*
X21462142Y7652725D01*
X21693055Y7722772D01*
X21905866Y7836522D01*
X22092397Y7989603D01*
X22245478Y8176134D01*
X22359228Y8388945D01*
X22429275Y8619858D01*
X22452927Y8860000D01*
X22429275Y9100142D01*
X22359228Y9331055D01*
X22245478Y9543866D01*
X22092397Y9730397D01*
X21905866Y9883478D01*
X21693055Y9997228D01*
X21462142Y10067275D01*
X21282178Y10085000D01*
X21161822Y10085000D01*
X20981858Y10067275D01*
X20750945Y9997228D01*
X20538134Y9883478D01*
X20351603Y9730397D01*
X20198522Y9543866D01*
X20084772Y9331055D01*
X20014725Y9100142D01*
X20008703Y9039002D01*
X19958034Y9039002D01*
X20058277Y9259212D01*
X19953950Y9520040D01*
X19800742Y9755503D01*
X19604542Y9956552D01*
X19372889Y10115461D01*
X19114685Y10226123D01*
X19081211Y10236270D01*
X18861002Y10134745D01*
X18861002Y10186703D01*
X18922142Y10192725D01*
X19153055Y10262772D01*
X19365866Y10376522D01*
X19552397Y10529603D01*
X19705478Y10716134D01*
X19819228Y10928945D01*
X19889275Y11159858D01*
X19912927Y11400000D01*
X19991073Y11400000D01*
X20014725Y11159858D01*
X20084772Y10928945D01*
X20198522Y10716134D01*
X20351603Y10529603D01*
X20538134Y10376522D01*
X20750945Y10262772D01*
X20981858Y10192725D01*
X21161822Y10175000D01*
X21282178Y10175000D01*
X21462142Y10192725D01*
X21693055Y10262772D01*
X21905866Y10376522D01*
X22092397Y10529603D01*
X22245478Y10716134D01*
X22359228Y10928945D01*
X22429275Y11159858D01*
X22435297Y11220998D01*
X22485966Y11220998D01*
X22385723Y11000788D01*
X22490050Y10739960D01*
X22643258Y10504497D01*
X22839458Y10303448D01*
X23071111Y10144539D01*
X23329315Y10033877D01*
X23362789Y10023730D01*
X23582998Y10125255D01*
X23582998Y10073297D01*
X23521858Y10067275D01*
X23290945Y9997228D01*
X23078134Y9883478D01*
X22891603Y9730397D01*
X22738522Y9543866D01*
X22624772Y9331055D01*
X22554725Y9100142D01*
X22531073Y8860000D01*
X22554725Y8619858D01*
X22624772Y8388945D01*
X22738522Y8176134D01*
X22891603Y7989603D01*
X23078134Y7836522D01*
X23290945Y7722772D01*
X23521858Y7652725D01*
X23701822Y7635000D01*
X23822178Y7635000D01*
X24002142Y7652725D01*
X24233055Y7722772D01*
X24445866Y7836522D01*
X24632397Y7989603D01*
X24785478Y8176134D01*
X24899228Y8388945D01*
X24969275Y8619858D01*
X24992927Y8860000D01*
X24969275Y9100142D01*
X24899228Y9331055D01*
X24785478Y9543866D01*
X24632397Y9730397D01*
X24445866Y9883478D01*
X24233055Y9997228D01*
X24002142Y10067275D01*
X23941002Y10073297D01*
X23941002Y10125255D01*
X24161211Y10023730D01*
X24194685Y10033877D01*
X24452889Y10144539D01*
X24550000Y10211155D01*
X24550000Y10136560D01*
X24547581Y10112000D01*
X24550000Y10087441D01*
X24557235Y10013984D01*
X24585825Y9919734D01*
X24632254Y9832871D01*
X24694736Y9756736D01*
X24713824Y9741071D01*
X25155245Y9299649D01*
X25094725Y9100142D01*
X25071073Y8860000D01*
X25094725Y8619858D01*
X25164772Y8388945D01*
X25278522Y8176134D01*
X25431603Y7989603D01*
X25618134Y7836522D01*
X25830945Y7722772D01*
X26061858Y7652725D01*
X26241822Y7635000D01*
X26362178Y7635000D01*
X26542142Y7652725D01*
X26773055Y7722772D01*
X26985866Y7836522D01*
X27172397Y7989603D01*
X27325478Y8176134D01*
X27439228Y8388945D01*
X27509275Y8619858D01*
X27532927Y8860000D01*
X27509275Y9100142D01*
X27439228Y9331055D01*
X27325478Y9543866D01*
X27172397Y9730397D01*
X26985866Y9883478D01*
X26773055Y9997228D01*
X26542142Y10067275D01*
X26362178Y10085000D01*
X26241822Y10085000D01*
X26061858Y10067275D01*
X25862351Y10006755D01*
X25550000Y10319105D01*
X25550000Y10432438D01*
X25618134Y10376522D01*
X25830945Y10262772D01*
X26061858Y10192725D01*
X26241822Y10175000D01*
X26362178Y10175000D01*
X26542142Y10192725D01*
X26773055Y10262772D01*
X26985866Y10376522D01*
X27172397Y10529603D01*
X27325478Y10716134D01*
X27439228Y10928945D01*
X27509275Y11159858D01*
X27532927Y11400000D01*
X27509275Y11640142D01*
X27448755Y11839649D01*
X30245001Y14635894D01*
X30245001Y13510108D01*
X29281649Y12546755D01*
X29082142Y12607275D01*
X28902178Y12625000D01*
X28781822Y12625000D01*
X28601858Y12607275D01*
X28370945Y12537228D01*
X28158134Y12423478D01*
X27971603Y12270397D01*
X27818522Y12083866D01*
X27704772Y11871055D01*
X27634725Y11640142D01*
X27611073Y11400000D01*
X27634725Y11159858D01*
X27704772Y10928945D01*
X27818522Y10716134D01*
X27971603Y10529603D01*
X28158134Y10376522D01*
X28370945Y10262772D01*
X28601858Y10192725D01*
X28781822Y10175000D01*
X28902178Y10175000D01*
X29082142Y10192725D01*
X29313055Y10262772D01*
X29525866Y10376522D01*
X29712397Y10529603D01*
X29865478Y10716134D01*
X29979228Y10928945D01*
X30049275Y11159858D01*
X30072927Y11400000D01*
X30049275Y11640142D01*
X29988755Y11839649D01*
X30882001Y12732894D01*
X30882001Y12521757D01*
X30698134Y12423478D01*
X30511603Y12270397D01*
X30358522Y12083866D01*
X30244772Y11871055D01*
X30174725Y11640142D01*
X30151073Y11400000D01*
X30174725Y11159858D01*
X30244772Y10928945D01*
X30358522Y10716134D01*
X30511603Y10529603D01*
X30698134Y10376522D01*
X30910945Y10262772D01*
X31141858Y10192725D01*
X31202998Y10186703D01*
X31202998Y10134745D01*
X30982789Y10236270D01*
X30949315Y10226123D01*
X30691111Y10115461D01*
X30459458Y9956552D01*
X30263258Y9755503D01*
X30110050Y9520040D01*
X30005723Y9259212D01*
X30105966Y9039002D01*
X30055297Y9039002D01*
X30049275Y9100142D01*
X29979228Y9331055D01*
X29865478Y9543866D01*
X29712397Y9730397D01*
X29525866Y9883478D01*
X29313055Y9997228D01*
X29082142Y10067275D01*
X28902178Y10085000D01*
X28781822Y10085000D01*
X28601858Y10067275D01*
X28370945Y9997228D01*
X28158134Y9883478D01*
X27971603Y9730397D01*
X27818522Y9543866D01*
X27704772Y9331055D01*
X27634725Y9100142D01*
X27611073Y8860000D01*
X27634725Y8619858D01*
X27704772Y8388945D01*
X27818522Y8176134D01*
X27971603Y7989603D01*
X28158134Y7836522D01*
X28370945Y7722772D01*
X28601858Y7652725D01*
X28781822Y7635000D01*
X28902178Y7635000D01*
X29082142Y7652725D01*
X29313055Y7722772D01*
X29525866Y7836522D01*
X29712397Y7989603D01*
X29865478Y8176134D01*
X29979228Y8388945D01*
X30049275Y8619858D01*
X30055297Y8680998D01*
X30105966Y8680998D01*
X30005723Y8460788D01*
X30110050Y8199960D01*
X30263258Y7964497D01*
X30459458Y7763448D01*
X30691111Y7604539D01*
X30949315Y7493877D01*
X30982789Y7483730D01*
X31203000Y7585256D01*
X31203000Y8681000D01*
X31183000Y8681000D01*
X31183000Y9039000D01*
X31203000Y9039000D01*
X31203000Y9059000D01*
X31561000Y9059000D01*
X31561000Y9039000D01*
X31581000Y9039000D01*
X31581000Y8681000D01*
X31561000Y8681000D01*
X31561000Y7585256D01*
X31781211Y7483730D01*
X31814685Y7493877D01*
X32072889Y7604539D01*
X32304542Y7763448D01*
X32500742Y7964497D01*
X32653950Y8199960D01*
X32758277Y8460788D01*
X32658034Y8680998D01*
X32708703Y8680998D01*
X32714725Y8619858D01*
X32784772Y8388945D01*
X32898522Y8176134D01*
X33051603Y7989603D01*
X33238134Y7836522D01*
X33450945Y7722772D01*
X33681858Y7652725D01*
X33861822Y7635000D01*
X33982178Y7635000D01*
X34162142Y7652725D01*
X34393055Y7722772D01*
X34605866Y7836522D01*
X34650001Y7872742D01*
X34650001Y7327018D01*
X34647340Y7300000D01*
X34650001Y7272982D01*
X34657959Y7192181D01*
X34664107Y7171914D01*
X34689409Y7088506D01*
X34740479Y6992958D01*
X34791987Y6930196D01*
X34791993Y6930190D01*
X34809211Y6909210D01*
X34830191Y6891992D01*
X35146000Y6576182D01*
X35146001Y3933115D01*
X34928395Y3816802D01*
X34719024Y3644976D01*
X34547198Y3435605D01*
X34426000Y3208861D01*
X34304802Y3435605D01*
X34132976Y3644976D01*
X33923605Y3816802D01*
X33684736Y3944481D01*
X33425547Y4023105D01*
X33223549Y4043000D01*
X33088451Y4043000D01*
X32886453Y4023105D01*
X32627264Y3944481D01*
X32388395Y3816802D01*
X32179024Y3644976D01*
X32007198Y3435605D01*
X31886000Y3208861D01*
X31764802Y3435605D01*
X31592976Y3644976D01*
X31383605Y3816802D01*
X31144736Y3944481D01*
X30885547Y4023105D01*
X30683549Y4043000D01*
X30548451Y4043000D01*
X30346453Y4023105D01*
X30087264Y3944481D01*
X29848395Y3816802D01*
X29639024Y3644976D01*
X29467198Y3435605D01*
X29452814Y3408695D01*
X29452814Y3668000D01*
X29445574Y3741513D01*
X29424131Y3812200D01*
X29389309Y3877347D01*
X29342448Y3934448D01*
X29285347Y3981309D01*
X29220200Y4016131D01*
X29149513Y4037574D01*
X29076000Y4044814D01*
X27076000Y4044814D01*
X27002487Y4037574D01*
X26931800Y4016131D01*
X26866653Y3981309D01*
X26809552Y3934448D01*
X26762691Y3877347D01*
X26727869Y3812200D01*
X26706426Y3741513D01*
X26699186Y3668000D01*
X26699186Y1668000D01*
X26706426Y1594487D01*
X26727869Y1523800D01*
X26762691Y1458653D01*
X26809552Y1401552D01*
X26866653Y1354691D01*
X26931800Y1319869D01*
X27002487Y1298426D01*
X27076000Y1291186D01*
X29076000Y1291186D01*
X29149513Y1298426D01*
X29220200Y1319869D01*
X29285347Y1354691D01*
X29342448Y1401552D01*
X29389309Y1458653D01*
X29424131Y1523800D01*
X29445574Y1594487D01*
X29452814Y1668000D01*
X29452814Y1927305D01*
X29467198Y1900395D01*
X29639024Y1691024D01*
X29848395Y1519198D01*
X30087264Y1391519D01*
X30346453Y1312895D01*
X30548451Y1293000D01*
X30683549Y1293000D01*
X30885547Y1312895D01*
X31144736Y1391519D01*
X31383605Y1519198D01*
X31592976Y1691024D01*
X31764802Y1900395D01*
X31886000Y2127139D01*
X32007198Y1900395D01*
X32179024Y1691024D01*
X32388395Y1519198D01*
X32627264Y1391519D01*
X32886453Y1312895D01*
X33088451Y1293000D01*
X33223549Y1293000D01*
X33425547Y1312895D01*
X33684736Y1391519D01*
X33923605Y1519198D01*
X34132976Y1691024D01*
X34304802Y1900395D01*
X34426000Y2127139D01*
X34547198Y1900395D01*
X34719024Y1691024D01*
X34928395Y1519198D01*
X35167264Y1391519D01*
X35426453Y1312895D01*
X35628451Y1293000D01*
X35763549Y1293000D01*
X35965547Y1312895D01*
X36224736Y1391519D01*
X36463605Y1519198D01*
X36672976Y1691024D01*
X36844802Y1900395D01*
X36966000Y2127139D01*
X37087198Y1900395D01*
X37259024Y1691024D01*
X37468395Y1519198D01*
X37707264Y1391519D01*
X37966453Y1312895D01*
X38168451Y1293000D01*
X38303549Y1293000D01*
X38505547Y1312895D01*
X38764736Y1391519D01*
X39003605Y1519198D01*
X39212976Y1691024D01*
X39384802Y1900395D01*
X39390544Y1911138D01*
X39528449Y1693563D01*
X39742524Y1468901D01*
X39996315Y1290320D01*
X40280068Y1164683D01*
X40353156Y1142519D01*
X40597000Y1241940D01*
X40597000Y2489000D01*
X40955000Y2489000D01*
X40955000Y1241940D01*
X41198844Y1142519D01*
X41271932Y1164683D01*
X41555685Y1290320D01*
X41809476Y1468901D01*
X42023551Y1693563D01*
X42046000Y1728981D01*
X42068449Y1693563D01*
X42282524Y1468901D01*
X42536315Y1290320D01*
X42820068Y1164683D01*
X42893156Y1142519D01*
X43137000Y1241940D01*
X43137000Y2489000D01*
X40955000Y2489000D01*
X40597000Y2489000D01*
X40577000Y2489000D01*
X40577000Y2847000D01*
X40597000Y2847000D01*
X40597000Y4094060D01*
X40955000Y4094060D01*
X40955000Y2847000D01*
X43137000Y2847000D01*
X43137000Y4094060D01*
X43495000Y4094060D01*
X43495000Y2847000D01*
X43515000Y2847000D01*
X43515000Y2489000D01*
X43495000Y2489000D01*
X43495000Y1241940D01*
X43738844Y1142519D01*
X43811932Y1164683D01*
X44095685Y1290320D01*
X44349476Y1468901D01*
X44563551Y1693563D01*
X44701456Y1911138D01*
X44707198Y1900395D01*
X44879024Y1691024D01*
X45088395Y1519198D01*
X45327264Y1391519D01*
X45586453Y1312895D01*
X45788451Y1293000D01*
X45923549Y1293000D01*
X46125547Y1312895D01*
X46384736Y1391519D01*
X46623605Y1519198D01*
X46832976Y1691024D01*
X47004802Y1900395D01*
X47132481Y2139264D01*
X47211105Y2398453D01*
X47237653Y2668000D01*
X49554347Y2668000D01*
X49580895Y2398453D01*
X49659519Y2139264D01*
X49787198Y1900395D01*
X49959024Y1691024D01*
X50168395Y1519198D01*
X50407264Y1391519D01*
X50666453Y1312895D01*
X50868451Y1293000D01*
X51003549Y1293000D01*
X51205547Y1312895D01*
X51464736Y1391519D01*
X51703605Y1519198D01*
X51912976Y1691024D01*
X52084802Y1900395D01*
X52206000Y2127139D01*
X52327198Y1900395D01*
X52499024Y1691024D01*
X52708395Y1519198D01*
X52947264Y1391519D01*
X53206453Y1312895D01*
X53408451Y1293000D01*
X53543549Y1293000D01*
X53745547Y1312895D01*
X54004736Y1391519D01*
X54243605Y1519198D01*
X54452976Y1691024D01*
X54624802Y1900395D01*
X54746000Y2127139D01*
X54867198Y1900395D01*
X55039024Y1691024D01*
X55248395Y1519198D01*
X55487264Y1391519D01*
X55746453Y1312895D01*
X55948451Y1293000D01*
X56083549Y1293000D01*
X56285547Y1312895D01*
X56544736Y1391519D01*
X56783605Y1519198D01*
X56992976Y1691024D01*
X57164802Y1900395D01*
X57286000Y2127139D01*
X57407198Y1900395D01*
X57579024Y1691024D01*
X57788395Y1519198D01*
X58027264Y1391519D01*
X58286453Y1312895D01*
X58488451Y1293000D01*
X58623549Y1293000D01*
X58825547Y1312895D01*
X59084736Y1391519D01*
X59323605Y1519198D01*
X59532976Y1691024D01*
X59704802Y1900395D01*
X59826000Y2127139D01*
X59947198Y1900395D01*
X60119024Y1691024D01*
X60328395Y1519198D01*
X60567264Y1391519D01*
X60826453Y1312895D01*
X61028451Y1293000D01*
X61163549Y1293000D01*
X61365547Y1312895D01*
X61624736Y1391519D01*
X61863605Y1519198D01*
X62072976Y1691024D01*
X62244802Y1900395D01*
X62366000Y2127139D01*
X62487198Y1900395D01*
X62659024Y1691024D01*
X62868395Y1519198D01*
X63107264Y1391519D01*
X63366453Y1312895D01*
X63568451Y1293000D01*
X63703549Y1293000D01*
X63905547Y1312895D01*
X64164736Y1391519D01*
X64403605Y1519198D01*
X64612976Y1691024D01*
X64784802Y1900395D01*
X64912481Y2139264D01*
X64991105Y2398453D01*
X65017653Y2668000D01*
X64991105Y2937547D01*
X64912481Y3196736D01*
X64784802Y3435605D01*
X64612976Y3644976D01*
X64403605Y3816802D01*
X64164736Y3944481D01*
X63905547Y4023105D01*
X63703549Y4043000D01*
X63568451Y4043000D01*
X63366453Y4023105D01*
X63107264Y3944481D01*
X62868395Y3816802D01*
X62659024Y3644976D01*
X62487198Y3435605D01*
X62366000Y3208861D01*
X62244802Y3435605D01*
X62072976Y3644976D01*
X61863605Y3816802D01*
X61624736Y3944481D01*
X61365547Y4023105D01*
X61163549Y4043000D01*
X61028451Y4043000D01*
X60826453Y4023105D01*
X60567264Y3944481D01*
X60328395Y3816802D01*
X60119024Y3644976D01*
X59947198Y3435605D01*
X59826000Y3208861D01*
X59704802Y3435605D01*
X59532976Y3644976D01*
X59323605Y3816802D01*
X59084736Y3944481D01*
X58825547Y4023105D01*
X58623549Y4043000D01*
X58488451Y4043000D01*
X58286453Y4023105D01*
X58027264Y3944481D01*
X57788395Y3816802D01*
X57579024Y3644976D01*
X57407198Y3435605D01*
X57286000Y3208861D01*
X57164802Y3435605D01*
X56992976Y3644976D01*
X56783605Y3816802D01*
X56544736Y3944481D01*
X56285547Y4023105D01*
X56083549Y4043000D01*
X55948451Y4043000D01*
X55746453Y4023105D01*
X55487264Y3944481D01*
X55248395Y3816802D01*
X55039024Y3644976D01*
X54867198Y3435605D01*
X54746000Y3208861D01*
X54624802Y3435605D01*
X54452976Y3644976D01*
X54243605Y3816802D01*
X54004736Y3944481D01*
X53745547Y4023105D01*
X53543549Y4043000D01*
X53408451Y4043000D01*
X53206453Y4023105D01*
X52947264Y3944481D01*
X52708395Y3816802D01*
X52499024Y3644976D01*
X52327198Y3435605D01*
X52206000Y3208861D01*
X52084802Y3435605D01*
X51912976Y3644976D01*
X51703605Y3816802D01*
X51464736Y3944481D01*
X51205547Y4023105D01*
X51003549Y4043000D01*
X50868451Y4043000D01*
X50666453Y4023105D01*
X50407264Y3944481D01*
X50168395Y3816802D01*
X49959024Y3644976D01*
X49787198Y3435605D01*
X49659519Y3196736D01*
X49580895Y2937547D01*
X49554347Y2668000D01*
X47237653Y2668000D01*
X47211105Y2937547D01*
X47132481Y3196736D01*
X47004802Y3435605D01*
X46832976Y3644976D01*
X46623605Y3816802D01*
X46384736Y3944481D01*
X46125547Y4023105D01*
X45923549Y4043000D01*
X45788451Y4043000D01*
X45586453Y4023105D01*
X45327264Y3944481D01*
X45088395Y3816802D01*
X44879024Y3644976D01*
X44707198Y3435605D01*
X44701456Y3424862D01*
X44563551Y3642437D01*
X44349476Y3867099D01*
X44095685Y4045680D01*
X43811932Y4171317D01*
X43738844Y4193481D01*
X43495000Y4094060D01*
X43137000Y4094060D01*
X42893156Y4193481D01*
X42820068Y4171317D01*
X42536315Y4045680D01*
X42282524Y3867099D01*
X42068449Y3642437D01*
X42046000Y3607019D01*
X42023551Y3642437D01*
X41809476Y3867099D01*
X41555685Y4045680D01*
X41271932Y4171317D01*
X41198844Y4193481D01*
X40955000Y4094060D01*
X40597000Y4094060D01*
X40353156Y4193481D01*
X40280068Y4171317D01*
X39996315Y4045680D01*
X39742524Y3867099D01*
X39528449Y3642437D01*
X39390544Y3424862D01*
X39384802Y3435605D01*
X39212976Y3644976D01*
X39011000Y3810733D01*
X39011000Y3864986D01*
X39521015Y4375000D01*
X50161937Y4375000D01*
X50200000Y4371251D01*
X50238063Y4375000D01*
X50238065Y4375000D01*
X50351926Y4386214D01*
X50498014Y4430530D01*
X50632650Y4502494D01*
X50750659Y4599341D01*
X50774932Y4628918D01*
X52223088Y6077073D01*
X52252659Y6101341D01*
X52314658Y6176888D01*
X52349506Y6219349D01*
X52421469Y6353985D01*
X52421470Y6353986D01*
X52465786Y6500074D01*
X52477000Y6613935D01*
X52477000Y6613937D01*
X52480749Y6652000D01*
X52477000Y6690063D01*
X52477000Y7911313D01*
X52572397Y7989603D01*
X52650687Y8085000D01*
X53293313Y8085000D01*
X53371603Y7989603D01*
X53558134Y7836522D01*
X53770945Y7722772D01*
X54001858Y7652725D01*
X54181822Y7635000D01*
X54302178Y7635000D01*
X54482142Y7652725D01*
X54713055Y7722772D01*
X54925866Y7836522D01*
X55055027Y7942521D01*
X64201000Y7942521D01*
X64201000Y7553479D01*
X64276898Y7171914D01*
X64425778Y6812487D01*
X64641917Y6489011D01*
X64917011Y6213917D01*
X65240487Y5997778D01*
X65599914Y5848898D01*
X65981479Y5773000D01*
X66370521Y5773000D01*
X66752086Y5848898D01*
X67111513Y5997778D01*
X67434989Y6213917D01*
X67710083Y6489011D01*
X67926222Y6812487D01*
X68075102Y7171914D01*
X68151000Y7553479D01*
X68151000Y7942521D01*
X68075102Y8324086D01*
X67926222Y8683513D01*
X67710083Y9006989D01*
X67434989Y9282083D01*
X67111513Y9498222D01*
X66752086Y9647102D01*
X66370521Y9723000D01*
X65981479Y9723000D01*
X65599914Y9647102D01*
X65240487Y9498222D01*
X64917011Y9282083D01*
X64641917Y9006989D01*
X64425778Y8683513D01*
X64276898Y8324086D01*
X64201000Y7942521D01*
X55055027Y7942521D01*
X55112397Y7989603D01*
X55265478Y8176134D01*
X55379228Y8388945D01*
X55449275Y8619858D01*
X55472927Y8860000D01*
X55449275Y9100142D01*
X55379228Y9331055D01*
X55265478Y9543866D01*
X55112397Y9730397D01*
X54925866Y9883478D01*
X54713055Y9997228D01*
X54482142Y10067275D01*
X54302178Y10085000D01*
X54181822Y10085000D01*
X54001858Y10067275D01*
X53770945Y9997228D01*
X53558134Y9883478D01*
X53371603Y9730397D01*
X53293313Y9635000D01*
X52650687Y9635000D01*
X52572397Y9730397D01*
X52385866Y9883478D01*
X52173055Y9997228D01*
X51942142Y10067275D01*
X51762178Y10085000D01*
X51641822Y10085000D01*
X51461858Y10067275D01*
X51230945Y9997228D01*
X51018134Y9883478D01*
X50831603Y9730397D01*
X50678522Y9543866D01*
X50564772Y9331055D01*
X50494725Y9100142D01*
X50488703Y9039002D01*
X50438034Y9039002D01*
X50538277Y9259212D01*
X50433950Y9520040D01*
X50280742Y9755503D01*
X50084542Y9956552D01*
X49852889Y10115461D01*
X49594685Y10226123D01*
X49561211Y10236270D01*
X49341002Y10134745D01*
X49341002Y10186703D01*
X49402142Y10192725D01*
X49633055Y10262772D01*
X49845866Y10376522D01*
X50032397Y10529603D01*
X50185478Y10716134D01*
X50299228Y10928945D01*
X50369275Y11159858D01*
X50392927Y11400000D01*
X50471073Y11400000D01*
X50494725Y11159858D01*
X50564772Y10928945D01*
X50678522Y10716134D01*
X50831603Y10529603D01*
X51018134Y10376522D01*
X51230945Y10262772D01*
X51461858Y10192725D01*
X51641822Y10175000D01*
X51762178Y10175000D01*
X51942142Y10192725D01*
X52173055Y10262772D01*
X52385866Y10376522D01*
X52572397Y10529603D01*
X52725478Y10716134D01*
X52839228Y10928945D01*
X52909275Y11159858D01*
X52932927Y11400000D01*
X52909275Y11640142D01*
X52839228Y11871055D01*
X52725478Y12083866D01*
X52589137Y12250000D01*
X53015186Y12250000D01*
X53015186Y10550000D01*
X53022426Y10476487D01*
X53043869Y10405800D01*
X53078691Y10340653D01*
X53125552Y10283552D01*
X53182653Y10236691D01*
X53247800Y10201869D01*
X53318487Y10180426D01*
X53392000Y10173186D01*
X55092000Y10173186D01*
X55165513Y10180426D01*
X55236200Y10201869D01*
X55301347Y10236691D01*
X55358448Y10283552D01*
X55405309Y10340653D01*
X55440131Y10405800D01*
X55461574Y10476487D01*
X55468814Y10550000D01*
X55468814Y12250000D01*
X55461574Y12323513D01*
X55440131Y12394200D01*
X55405309Y12459347D01*
X55358448Y12516448D01*
X55301347Y12563309D01*
X55236200Y12598131D01*
X55165513Y12619574D01*
X55092000Y12626814D01*
X53392000Y12626814D01*
X53318487Y12619574D01*
X53247800Y12598131D01*
X53182653Y12563309D01*
X53125552Y12516448D01*
X53078691Y12459347D01*
X53043869Y12394200D01*
X53022426Y12323513D01*
X53015186Y12250000D01*
X52589137Y12250000D01*
X52572397Y12270397D01*
X52385866Y12423478D01*
X52173055Y12537228D01*
X51942142Y12607275D01*
X51762178Y12625000D01*
X51641822Y12625000D01*
X51461858Y12607275D01*
X51230945Y12537228D01*
X51018134Y12423478D01*
X50831603Y12270397D01*
X50678522Y12083866D01*
X50564772Y11871055D01*
X50494725Y11640142D01*
X50471073Y11400000D01*
X50392927Y11400000D01*
X50369275Y11640142D01*
X50299228Y11871055D01*
X50185478Y12083866D01*
X50032397Y12270397D01*
X49845866Y12423478D01*
X49633055Y12537228D01*
X49402142Y12607275D01*
X49222178Y12625000D01*
X49101822Y12625000D01*
X48921858Y12607275D01*
X48690945Y12537228D01*
X48478134Y12423478D01*
X48291603Y12270397D01*
X48138522Y12083866D01*
X48024772Y11871055D01*
X47954725Y11640142D01*
X47931073Y11400000D01*
X47954725Y11159858D01*
X48024772Y10928945D01*
X48138522Y10716134D01*
X48291603Y10529603D01*
X48478134Y10376522D01*
X48690945Y10262772D01*
X48921858Y10192725D01*
X48982998Y10186703D01*
X48982998Y10134745D01*
X48762789Y10236270D01*
X48729315Y10226123D01*
X48471111Y10115461D01*
X48239458Y9956552D01*
X48043258Y9755503D01*
X47890050Y9520040D01*
X47785723Y9259212D01*
X47885966Y9039002D01*
X47835297Y9039002D01*
X47829275Y9100142D01*
X47759228Y9331055D01*
X47645478Y9543866D01*
X47492397Y9730397D01*
X47305866Y9883478D01*
X47093055Y9997228D01*
X46862142Y10067275D01*
X46682178Y10085000D01*
X46561822Y10085000D01*
X46381858Y10067275D01*
X46150945Y9997228D01*
X45938134Y9883478D01*
X45751603Y9730397D01*
X45598522Y9543866D01*
X45484772Y9331055D01*
X45414725Y9100142D01*
X45391073Y8860000D01*
X45414725Y8619858D01*
X45484772Y8388945D01*
X45598522Y8176134D01*
X45751603Y7989603D01*
X45938134Y7836522D01*
X46150945Y7722772D01*
X46381858Y7652725D01*
X46561822Y7635000D01*
X46682178Y7635000D01*
X46862142Y7652725D01*
X47093055Y7722772D01*
X47305866Y7836522D01*
X47492397Y7989603D01*
X47645478Y8176134D01*
X47759228Y8388945D01*
X47829275Y8619858D01*
X47835297Y8680998D01*
X47885966Y8680998D01*
X47785723Y8460788D01*
X47890050Y8199960D01*
X48043258Y7964497D01*
X48239458Y7763448D01*
X48471111Y7604539D01*
X48729315Y7493877D01*
X48762789Y7483730D01*
X48983000Y7585256D01*
X48983000Y8681000D01*
X48963000Y8681000D01*
X48963000Y9039000D01*
X48983000Y9039000D01*
X48983000Y9059000D01*
X49341000Y9059000D01*
X49341000Y9039000D01*
X49361000Y9039000D01*
X49361000Y8681000D01*
X49341000Y8681000D01*
X49341000Y7585256D01*
X49561211Y7483730D01*
X49594685Y7493877D01*
X49852889Y7604539D01*
X50084542Y7763448D01*
X50280742Y7964497D01*
X50433950Y8199960D01*
X50538277Y8460788D01*
X50438034Y8680998D01*
X50488703Y8680998D01*
X50494725Y8619858D01*
X50564772Y8388945D01*
X50678522Y8176134D01*
X50831603Y7989603D01*
X50927001Y7911313D01*
X50927000Y6973015D01*
X49878986Y5925000D01*
X39238063Y5925000D01*
X39200000Y5928749D01*
X39161937Y5925000D01*
X39161935Y5925000D01*
X39048074Y5913786D01*
X38901986Y5869470D01*
X38839313Y5835971D01*
X38767349Y5797506D01*
X38737489Y5773000D01*
X38649341Y5700659D01*
X38625072Y5671087D01*
X37714914Y4760928D01*
X37685342Y4736659D01*
X37630956Y4670389D01*
X37588494Y4618650D01*
X37516531Y4484014D01*
X37472215Y4337926D01*
X37457251Y4186000D01*
X37461001Y4147928D01*
X37461001Y3810734D01*
X37259024Y3644976D01*
X37087198Y3435605D01*
X36966000Y3208861D01*
X36844802Y3435605D01*
X36672976Y3644976D01*
X36463605Y3816802D01*
X36246000Y3933115D01*
X36246000Y6776992D01*
X36248660Y6804000D01*
X36246000Y6831008D01*
X36246000Y6831018D01*
X36238042Y6911819D01*
X36206592Y7015494D01*
X36155521Y7111042D01*
X36104013Y7173805D01*
X36104008Y7173810D01*
X36086790Y7194790D01*
X36065809Y7212009D01*
X35750000Y7527817D01*
X35750000Y7859611D01*
X35778134Y7836522D01*
X35990945Y7722772D01*
X36221858Y7652725D01*
X36401822Y7635000D01*
X36522178Y7635000D01*
X36702142Y7652725D01*
X36933055Y7722772D01*
X37145866Y7836522D01*
X37332397Y7989603D01*
X37485478Y8176134D01*
X37599228Y8388945D01*
X37669275Y8619858D01*
X37675297Y8680998D01*
X37725966Y8680998D01*
X37625723Y8460788D01*
X37730050Y8199960D01*
X37883258Y7964497D01*
X38079458Y7763448D01*
X38311111Y7604539D01*
X38569315Y7493877D01*
X38602789Y7483730D01*
X38823000Y7585256D01*
X38823000Y8681000D01*
X38803000Y8681000D01*
X38803000Y9039000D01*
X38823000Y9039000D01*
X38823000Y9059000D01*
X39181000Y9059000D01*
X39181000Y9039000D01*
X39201000Y9039000D01*
X39201000Y8681000D01*
X39181000Y8681000D01*
X39181000Y7585256D01*
X39401211Y7483730D01*
X39434685Y7493877D01*
X39692889Y7604539D01*
X39924542Y7763448D01*
X40120742Y7964497D01*
X40273950Y8199960D01*
X40378277Y8460788D01*
X40278034Y8680998D01*
X40328703Y8680998D01*
X40334725Y8619858D01*
X40404772Y8388945D01*
X40518522Y8176134D01*
X40671603Y7989603D01*
X40858134Y7836522D01*
X41070945Y7722772D01*
X41301858Y7652725D01*
X41481822Y7635000D01*
X41602178Y7635000D01*
X41782142Y7652725D01*
X42013055Y7722772D01*
X42225866Y7836522D01*
X42412397Y7989603D01*
X42565478Y8176134D01*
X42679228Y8388945D01*
X42749275Y8619858D01*
X42772927Y8860000D01*
X42749275Y9100142D01*
X42679228Y9331055D01*
X42565478Y9543866D01*
X42412397Y9730397D01*
X42225866Y9883478D01*
X42013055Y9997228D01*
X41782142Y10067275D01*
X41602178Y10085000D01*
X41481822Y10085000D01*
X41301858Y10067275D01*
X41070945Y9997228D01*
X40858134Y9883478D01*
X40671603Y9730397D01*
X40518522Y9543866D01*
X40404772Y9331055D01*
X40334725Y9100142D01*
X40328703Y9039002D01*
X40278034Y9039002D01*
X40378277Y9259212D01*
X40273950Y9520040D01*
X40120742Y9755503D01*
X39924542Y9956552D01*
X39692889Y10115461D01*
X39434685Y10226123D01*
X39401211Y10236270D01*
X39181002Y10134745D01*
X39181002Y10186703D01*
X39242142Y10192725D01*
X39473055Y10262772D01*
X39685866Y10376522D01*
X39872397Y10529603D01*
X40025478Y10716134D01*
X40139228Y10928945D01*
X40209275Y11159858D01*
X40232927Y11400000D01*
X40311073Y11400000D01*
X40334725Y11159858D01*
X40404772Y10928945D01*
X40518522Y10716134D01*
X40671603Y10529603D01*
X40858134Y10376522D01*
X41070945Y10262772D01*
X41301858Y10192725D01*
X41481822Y10175000D01*
X41602178Y10175000D01*
X41782142Y10192725D01*
X42013055Y10262772D01*
X42225866Y10376522D01*
X42412397Y10529603D01*
X42565478Y10716134D01*
X42679228Y10928945D01*
X42749275Y11159858D01*
X42755297Y11220998D01*
X42805966Y11220998D01*
X42705723Y11000788D01*
X42810050Y10739960D01*
X42963258Y10504497D01*
X43159458Y10303448D01*
X43391111Y10144539D01*
X43649315Y10033877D01*
X43682789Y10023730D01*
X43902998Y10125255D01*
X43902998Y10073297D01*
X43841858Y10067275D01*
X43610945Y9997228D01*
X43398134Y9883478D01*
X43211603Y9730397D01*
X43058522Y9543866D01*
X42944772Y9331055D01*
X42874725Y9100142D01*
X42851073Y8860000D01*
X42874725Y8619858D01*
X42944772Y8388945D01*
X43058522Y8176134D01*
X43211603Y7989603D01*
X43398134Y7836522D01*
X43610945Y7722772D01*
X43841858Y7652725D01*
X44021822Y7635000D01*
X44142178Y7635000D01*
X44322142Y7652725D01*
X44553055Y7722772D01*
X44765866Y7836522D01*
X44952397Y7989603D01*
X45105478Y8176134D01*
X45219228Y8388945D01*
X45289275Y8619858D01*
X45312927Y8860000D01*
X45289275Y9100142D01*
X45219228Y9331055D01*
X45105478Y9543866D01*
X44952397Y9730397D01*
X44765866Y9883478D01*
X44553055Y9997228D01*
X44322142Y10067275D01*
X44261002Y10073297D01*
X44261002Y10125255D01*
X44481211Y10023730D01*
X44514685Y10033877D01*
X44772889Y10144539D01*
X45004542Y10303448D01*
X45200742Y10504497D01*
X45353950Y10739960D01*
X45458277Y11000788D01*
X45358034Y11220998D01*
X45408703Y11220998D01*
X45414725Y11159858D01*
X45484772Y10928945D01*
X45598522Y10716134D01*
X45751603Y10529603D01*
X45938134Y10376522D01*
X46150945Y10262772D01*
X46381858Y10192725D01*
X46561822Y10175000D01*
X46682178Y10175000D01*
X46862142Y10192725D01*
X47093055Y10262772D01*
X47305866Y10376522D01*
X47492397Y10529603D01*
X47645478Y10716134D01*
X47759228Y10928945D01*
X47829275Y11159858D01*
X47852927Y11400000D01*
X47829275Y11640142D01*
X47759228Y11871055D01*
X47645478Y12083866D01*
X47492397Y12270397D01*
X47305866Y12423478D01*
X47093055Y12537228D01*
X46862142Y12607275D01*
X46682178Y12625000D01*
X46561822Y12625000D01*
X46381858Y12607275D01*
X46150945Y12537228D01*
X45938134Y12423478D01*
X45751603Y12270397D01*
X45598522Y12083866D01*
X45484772Y11871055D01*
X45414725Y11640142D01*
X45408703Y11579002D01*
X45358034Y11579002D01*
X45458277Y11799212D01*
X45353950Y12060040D01*
X45200742Y12295503D01*
X45004542Y12496552D01*
X44772889Y12655461D01*
X44514685Y12766123D01*
X44481211Y12776270D01*
X44261000Y12674744D01*
X44261000Y11579000D01*
X44281000Y11579000D01*
X44281000Y11221000D01*
X44261000Y11221000D01*
X44261000Y11201000D01*
X43903000Y11201000D01*
X43903000Y11221000D01*
X43883000Y11221000D01*
X43883000Y11579000D01*
X43903000Y11579000D01*
X43903000Y12674744D01*
X43682789Y12776270D01*
X43649315Y12766123D01*
X43391111Y12655461D01*
X43159458Y12496552D01*
X42963258Y12295503D01*
X42810050Y12060040D01*
X42705723Y11799212D01*
X42805966Y11579002D01*
X42755297Y11579002D01*
X42749275Y11640142D01*
X42679228Y11871055D01*
X42565478Y12083866D01*
X42412397Y12270397D01*
X42225866Y12423478D01*
X42013055Y12537228D01*
X41782142Y12607275D01*
X41602178Y12625000D01*
X41481822Y12625000D01*
X41301858Y12607275D01*
X41070945Y12537228D01*
X40858134Y12423478D01*
X40671603Y12270397D01*
X40518522Y12083866D01*
X40404772Y11871055D01*
X40334725Y11640142D01*
X40311073Y11400000D01*
X40232927Y11400000D01*
X40209275Y11640142D01*
X40139228Y11871055D01*
X40025478Y12083866D01*
X39872397Y12270397D01*
X39685866Y12423478D01*
X39473055Y12537228D01*
X39242142Y12607275D01*
X39062178Y12625000D01*
X38941822Y12625000D01*
X38761858Y12607275D01*
X38530945Y12537228D01*
X38318134Y12423478D01*
X38131603Y12270397D01*
X37978522Y12083866D01*
X37864772Y11871055D01*
X37794725Y11640142D01*
X37771073Y11400000D01*
X37794725Y11159858D01*
X37864772Y10928945D01*
X37978522Y10716134D01*
X38131603Y10529603D01*
X38318134Y10376522D01*
X38530945Y10262772D01*
X38761858Y10192725D01*
X38822998Y10186703D01*
X38822998Y10134745D01*
X38602789Y10236270D01*
X38569315Y10226123D01*
X38311111Y10115461D01*
X38079458Y9956552D01*
X37883258Y9755503D01*
X37730050Y9520040D01*
X37625723Y9259212D01*
X37725966Y9039002D01*
X37675297Y9039002D01*
X37669275Y9100142D01*
X37599228Y9331055D01*
X37485478Y9543866D01*
X37332397Y9730397D01*
X37145866Y9883478D01*
X36933055Y9997228D01*
X36702142Y10067275D01*
X36522178Y10085000D01*
X36401822Y10085000D01*
X36221858Y10067275D01*
X35990945Y9997228D01*
X35778134Y9883478D01*
X35750000Y9860389D01*
X35750000Y10094992D01*
X35752660Y10122000D01*
X35750000Y10149008D01*
X35750000Y10149018D01*
X35742042Y10229819D01*
X35710592Y10333494D01*
X35659521Y10429042D01*
X35608013Y10491805D01*
X35608008Y10491810D01*
X35590790Y10512790D01*
X35569810Y10530008D01*
X35085213Y11014605D01*
X35129275Y11159858D01*
X35152927Y11400000D01*
X35231073Y11400000D01*
X35254725Y11159858D01*
X35324772Y10928945D01*
X35438522Y10716134D01*
X35591603Y10529603D01*
X35778134Y10376522D01*
X35990945Y10262772D01*
X36221858Y10192725D01*
X36401822Y10175000D01*
X36522178Y10175000D01*
X36702142Y10192725D01*
X36933055Y10262772D01*
X37145866Y10376522D01*
X37332397Y10529603D01*
X37485478Y10716134D01*
X37599228Y10928945D01*
X37669275Y11159858D01*
X37692927Y11400000D01*
X37669275Y11640142D01*
X37599228Y11871055D01*
X37485478Y12083866D01*
X37332397Y12270397D01*
X37145866Y12423478D01*
X36933055Y12537228D01*
X36702142Y12607275D01*
X36522178Y12625000D01*
X36401822Y12625000D01*
X36221858Y12607275D01*
X35990945Y12537228D01*
X35778134Y12423478D01*
X35591603Y12270397D01*
X35438522Y12083866D01*
X35324772Y11871055D01*
X35254725Y11640142D01*
X35231073Y11400000D01*
X35152927Y11400000D01*
X35129275Y11640142D01*
X35059228Y11871055D01*
X34945478Y12083866D01*
X34792397Y12270397D01*
X34605866Y12423478D01*
X34393055Y12537228D01*
X34162142Y12607275D01*
X33982178Y12625000D01*
X33861822Y12625000D01*
X33681858Y12607275D01*
X33450945Y12537228D01*
X33238134Y12423478D01*
X33051603Y12270397D01*
X32898522Y12083866D01*
X32784772Y11871055D01*
X32714725Y11640142D01*
X32691073Y11400000D01*
X32714725Y11159858D01*
X32784772Y10928945D01*
X32898522Y10716134D01*
X33051603Y10529603D01*
X33238134Y10376522D01*
X33450945Y10262772D01*
X33681858Y10192725D01*
X33861822Y10175000D01*
X33982178Y10175000D01*
X34162142Y10192725D01*
X34307395Y10236787D01*
X34650000Y9894182D01*
X34650000Y9847258D01*
X34605866Y9883478D01*
X34393055Y9997228D01*
X34162142Y10067275D01*
X33982178Y10085000D01*
X33861822Y10085000D01*
X33681858Y10067275D01*
X33450945Y9997228D01*
X33238134Y9883478D01*
X33051603Y9730397D01*
X32898522Y9543866D01*
X32784772Y9331055D01*
X32714725Y9100142D01*
X32708703Y9039002D01*
X32658034Y9039002D01*
X32758277Y9259212D01*
X32653950Y9520040D01*
X32500742Y9755503D01*
X32304542Y9956552D01*
X32072889Y10115461D01*
X31814685Y10226123D01*
X31781211Y10236270D01*
X31561002Y10134745D01*
X31561002Y10186703D01*
X31622142Y10192725D01*
X31853055Y10262772D01*
X32065866Y10376522D01*
X32252397Y10529603D01*
X32405478Y10716134D01*
X32519228Y10928945D01*
X32589275Y11159858D01*
X32612927Y11400000D01*
X32589275Y11640142D01*
X32519228Y11871055D01*
X32405478Y12083866D01*
X32252397Y12270397D01*
X32065866Y12423478D01*
X31882000Y12521757D01*
X31882000Y27377406D01*
X31899307Y27394713D01*
X31973177Y27505268D01*
X32024060Y27628110D01*
X32050000Y27758518D01*
X32050000Y27891482D01*
X32024060Y28021890D01*
X31973177Y28144732D01*
X31899307Y28255287D01*
X31805287Y28349307D01*
X31694732Y28423177D01*
X31571890Y28474060D01*
X31441482Y28500000D01*
X31308518Y28500000D01*
X31245000Y28487365D01*
X31245000Y29360406D01*
X31269307Y29384713D01*
X31343177Y29495268D01*
X31394060Y29618110D01*
X31420000Y29748518D01*
X31420000Y29881482D01*
X31394060Y30011890D01*
X31343177Y30134732D01*
X31269307Y30245287D01*
X31175287Y30339307D01*
X31064732Y30413177D01*
X30941890Y30464060D01*
X30811482Y30490000D01*
X30678518Y30490000D01*
X30548110Y30464060D01*
X30425268Y30413177D01*
X30314713Y30339307D01*
X30220693Y30245287D01*
X30146823Y30134732D01*
X30095940Y30011890D01*
X30070000Y29881482D01*
X30070000Y29748518D01*
X30095940Y29618110D01*
X30146823Y29495268D01*
X30220693Y29384713D01*
X30245000Y29360406D01*
X30245000Y26465403D01*
X30146482Y26485000D01*
X30013518Y26485000D01*
X29883110Y26459060D01*
X29760268Y26408177D01*
X29649713Y26334307D01*
X29555693Y26240287D01*
X29481823Y26129732D01*
X29430940Y26006890D01*
X29405000Y25876482D01*
X29405000Y25743518D01*
X29430940Y25613110D01*
X29481823Y25490268D01*
X29555693Y25379713D01*
X29580000Y25355406D01*
X29580001Y15385108D01*
X26741649Y12546755D01*
X26542142Y12607275D01*
X26362178Y12625000D01*
X26241822Y12625000D01*
X26061858Y12607275D01*
X25830945Y12537228D01*
X25618134Y12423478D01*
X25550000Y12367562D01*
X25550000Y14415440D01*
X25552419Y14440000D01*
X25542765Y14538017D01*
X25527730Y14587581D01*
X25514175Y14632267D01*
X25467746Y14719129D01*
X25405264Y14795264D01*
X25386186Y14810920D01*
X24900000Y15297105D01*
X24900000Y23345406D01*
X24939307Y23384713D01*
X25013177Y23495268D01*
X25064060Y23618110D01*
X25090000Y23748518D01*
X25090000Y23881482D01*
X25064060Y24011890D01*
X25013177Y24134732D01*
X24939307Y24245287D01*
X24845287Y24339307D01*
X24734732Y24413177D01*
X24611890Y24464060D01*
X24481482Y24490000D01*
X24348518Y24490000D01*
X24218110Y24464060D01*
X24095268Y24413177D01*
X23984713Y24339307D01*
X23890693Y24245287D01*
X23816823Y24134732D01*
X23765940Y24011890D01*
X23740000Y23881482D01*
X23740000Y23748518D01*
X23765940Y23618110D01*
X23816823Y23495268D01*
X23890693Y23384713D01*
X23900001Y23375405D01*
X23900000Y15114560D01*
X23897581Y15090000D01*
X23900000Y15065441D01*
X23907235Y14991984D01*
X23935825Y14897734D01*
X23982254Y14810871D01*
X24044736Y14734736D01*
X24063824Y14719071D01*
X24550001Y14232893D01*
X24550001Y12588845D01*
X24452889Y12655461D01*
X24194685Y12766123D01*
X24161211Y12776270D01*
X23941000Y12674744D01*
X23941000Y11579000D01*
X23961000Y11579000D01*
X23961000Y11221000D01*
X23941000Y11221000D01*
X23941000Y11201000D01*
X23583000Y11201000D01*
X23583000Y11221000D01*
X23563000Y11221000D01*
X23563000Y11579000D01*
X23583000Y11579000D01*
X23583000Y12674744D01*
X23362789Y12776270D01*
X23329315Y12766123D01*
X23071111Y12655461D01*
X22839458Y12496552D01*
X22643258Y12295503D01*
X22490050Y12060040D01*
X22385723Y11799212D01*
X22485966Y11579002D01*
X22435297Y11579002D01*
X22429275Y11640142D01*
X22359228Y11871055D01*
X22245478Y12083866D01*
X22092397Y12270397D01*
X21905866Y12423478D01*
X21693055Y12537228D01*
X21462142Y12607275D01*
X21282178Y12625000D01*
X21161822Y12625000D01*
X20981858Y12607275D01*
X20750945Y12537228D01*
X20538134Y12423478D01*
X20351603Y12270397D01*
X20198522Y12083866D01*
X20084772Y11871055D01*
X20014725Y11640142D01*
X19991073Y11400000D01*
X19912927Y11400000D01*
X19889275Y11640142D01*
X19828755Y11839650D01*
X23551181Y15562075D01*
X23570264Y15577736D01*
X23632746Y15653871D01*
X23679175Y15740733D01*
X23707765Y15834983D01*
X23715000Y15908440D01*
X23715000Y15908441D01*
X23717419Y15932999D01*
X23715000Y15957557D01*
X23715000Y21360406D01*
X23739307Y21384713D01*
X23813177Y21495268D01*
X23864060Y21618110D01*
X23890000Y21748518D01*
X23890000Y21881482D01*
X23864060Y22011890D01*
X23813177Y22134732D01*
X23739307Y22245287D01*
X23715000Y22269594D01*
X23715000Y24437894D01*
X24036186Y24759079D01*
X24055264Y24774736D01*
X24117746Y24850871D01*
X24164175Y24937733D01*
X24192765Y25031983D01*
X24200000Y25105440D01*
X24202419Y25130000D01*
X24200000Y25154560D01*
X24200000Y35326482D01*
X25695000Y35326482D01*
X25695000Y35193518D01*
X25720940Y35063110D01*
X25771823Y34940268D01*
X25845693Y34829713D01*
X25939713Y34735693D01*
X26050268Y34661823D01*
X26173110Y34610940D01*
X26303518Y34585000D01*
X26436482Y34585000D01*
X26566890Y34610940D01*
X26689732Y34661823D01*
X26761834Y34710000D01*
X26794969Y34710000D01*
X26791869Y34704200D01*
X26770426Y34633513D01*
X26763186Y34560000D01*
X26763186Y34160000D01*
X26770426Y34086487D01*
X26791869Y34015800D01*
X26826691Y33950653D01*
X26873552Y33893552D01*
X26930653Y33846691D01*
X26995800Y33811869D01*
X27066487Y33790426D01*
X27140000Y33783186D01*
X27740000Y33783186D01*
X27813513Y33790426D01*
X27878039Y33810000D01*
X30122183Y33810000D01*
X34869919Y29062263D01*
X34869920Y14491836D01*
X34821742Y14419732D01*
X34770859Y14296890D01*
X34744919Y14166482D01*
X34744919Y14033518D01*
X34770859Y13903110D01*
X34821742Y13780268D01*
X34895612Y13669713D01*
X34989632Y13575693D01*
X35100187Y13501823D01*
X35223029Y13450940D01*
X35353437Y13425000D01*
X35486401Y13425000D01*
X35616809Y13450940D01*
X35739651Y13501823D01*
X35850206Y13575693D01*
X35944226Y13669713D01*
X36018096Y13780268D01*
X36068979Y13903110D01*
X36094919Y14033518D01*
X36094919Y14166482D01*
X36068979Y14296890D01*
X36018096Y14419732D01*
X35969919Y14491834D01*
X35969919Y29263074D01*
X35972579Y29290082D01*
X35969919Y29317090D01*
X35969919Y29317099D01*
X35961961Y29397900D01*
X35930511Y29501575D01*
X35879440Y29597123D01*
X35854318Y29627734D01*
X35827932Y29659886D01*
X35827927Y29659891D01*
X35810709Y29680871D01*
X35789729Y29698089D01*
X34807254Y30680564D01*
X34850268Y30651823D01*
X34973110Y30600940D01*
X35103518Y30575000D01*
X35236482Y30575000D01*
X35366890Y30600940D01*
X35489732Y30651823D01*
X35600287Y30725693D01*
X35624594Y30750000D01*
X43455440Y30750000D01*
X43480000Y30747581D01*
X43504560Y30750000D01*
X43578017Y30757235D01*
X43672267Y30785825D01*
X43759129Y30832254D01*
X43835264Y30894736D01*
X43850929Y30913824D01*
X45742107Y32805000D01*
X45776482Y32805000D01*
X45906890Y32830940D01*
X46029732Y32881823D01*
X46140287Y32955693D01*
X46234307Y33049713D01*
X46308177Y33160268D01*
X46359060Y33283110D01*
X46385000Y33413518D01*
X46385000Y33546482D01*
X46359060Y33676890D01*
X46308177Y33799732D01*
X46234307Y33910287D01*
X46140287Y34004307D01*
X46029732Y34078177D01*
X45906890Y34129060D01*
X45776482Y34155000D01*
X45643518Y34155000D01*
X45513110Y34129060D01*
X45390268Y34078177D01*
X45279713Y34004307D01*
X45185693Y33910287D01*
X45111823Y33799732D01*
X45060940Y33676890D01*
X45035000Y33546482D01*
X45035000Y33512107D01*
X43272895Y31750000D01*
X35624594Y31750000D01*
X35600287Y31774307D01*
X35489732Y31848177D01*
X35366890Y31899060D01*
X35236482Y31925000D01*
X35103518Y31925000D01*
X34973110Y31899060D01*
X34850268Y31848177D01*
X34739713Y31774307D01*
X34645693Y31680287D01*
X34571823Y31569732D01*
X34520940Y31446890D01*
X34495000Y31316482D01*
X34495000Y31183518D01*
X34520940Y31053110D01*
X34571823Y30930268D01*
X34600564Y30887254D01*
X30758013Y34729804D01*
X30740790Y34750790D01*
X30718179Y34769347D01*
X30657042Y34819521D01*
X30637974Y34829713D01*
X30561494Y34870592D01*
X30457819Y34902042D01*
X30377018Y34910000D01*
X30377008Y34910000D01*
X30350000Y34912660D01*
X30322992Y34910000D01*
X28787817Y34910000D01*
X29569810Y35691992D01*
X29590790Y35709210D01*
X29608008Y35730190D01*
X29608013Y35730195D01*
X29659520Y35792957D01*
X29670057Y35812670D01*
X29710592Y35888506D01*
X29742042Y35992181D01*
X29750000Y36072982D01*
X29750000Y36072991D01*
X29752660Y36099999D01*
X29750000Y36127007D01*
X29750000Y37058166D01*
X29798177Y37130268D01*
X29849060Y37253110D01*
X29875000Y37383518D01*
X29875000Y37516482D01*
X29849060Y37646890D01*
X29798177Y37769732D01*
X29724307Y37880287D01*
X29630287Y37974307D01*
X29519732Y38048177D01*
X29396890Y38099060D01*
X29266482Y38125000D01*
X29133518Y38125000D01*
X29003110Y38099060D01*
X28880268Y38048177D01*
X28769713Y37974307D01*
X28675693Y37880287D01*
X28601823Y37769732D01*
X28550940Y37646890D01*
X28525000Y37516482D01*
X28525000Y37383518D01*
X28550940Y37253110D01*
X28601823Y37130268D01*
X28650000Y37058166D01*
X28650000Y36327818D01*
X28132183Y35810000D01*
X27878039Y35810000D01*
X27813513Y35829574D01*
X27740000Y35836814D01*
X27140000Y35836814D01*
X27066487Y35829574D01*
X27001961Y35810000D01*
X26761834Y35810000D01*
X26689732Y35858177D01*
X26566890Y35909060D01*
X26436482Y35935000D01*
X26303518Y35935000D01*
X26173110Y35909060D01*
X26050268Y35858177D01*
X25939713Y35784307D01*
X25845693Y35690287D01*
X25771823Y35579732D01*
X25720940Y35456890D01*
X25695000Y35326482D01*
X24200000Y35326482D01*
X24200000Y39966482D01*
X25575000Y39966482D01*
X25575000Y39833518D01*
X25600940Y39703110D01*
X25651823Y39580268D01*
X25725693Y39469713D01*
X25819713Y39375693D01*
X25930268Y39301823D01*
X26053110Y39250940D01*
X26183518Y39225000D01*
X26316482Y39225000D01*
X26446890Y39250940D01*
X26569732Y39301823D01*
X26680287Y39375693D01*
X26774307Y39469713D01*
X26848177Y39580268D01*
X26899060Y39703110D01*
X26925000Y39833518D01*
X26925000Y39966482D01*
X26899060Y40096890D01*
X26848177Y40219732D01*
X26774307Y40330287D01*
X26680287Y40424307D01*
X26569732Y40498177D01*
X26446890Y40549060D01*
X26316482Y40575000D01*
X26183518Y40575000D01*
X26053110Y40549060D01*
X25930268Y40498177D01*
X25819713Y40424307D01*
X25725693Y40330287D01*
X25651823Y40219732D01*
X25600940Y40096890D01*
X25575000Y39966482D01*
X24200000Y39966482D01*
X24200000Y40095406D01*
X24224307Y40119713D01*
X24298177Y40230268D01*
X24349060Y40353110D01*
X24375000Y40483518D01*
X24375000Y40616482D01*
X24349060Y40746890D01*
X24298177Y40869732D01*
X24224307Y40980287D01*
X24130287Y41074307D01*
X24019732Y41148177D01*
X23896890Y41199060D01*
X23766482Y41225000D01*
X23633518Y41225000D01*
X23503110Y41199060D01*
X23380268Y41148177D01*
X23269713Y41074307D01*
X23175693Y40980287D01*
X23101823Y40869732D01*
X23050940Y40746890D01*
X23025000Y40616482D01*
X23025000Y40483518D01*
X23050940Y40353110D01*
X23101823Y40230268D01*
X23175693Y40119713D01*
X23200000Y40095406D01*
X23200001Y25337107D01*
X22878823Y25015929D01*
X22859736Y25000264D01*
X22797254Y24924129D01*
X22750825Y24837266D01*
X22737644Y24793813D01*
X22722235Y24743017D01*
X22712581Y24645000D01*
X22715000Y24620440D01*
X22715001Y22269595D01*
X22690693Y22245287D01*
X22616823Y22134732D01*
X22565940Y22011890D01*
X22540000Y21881482D01*
X22540000Y21748518D01*
X22565940Y21618110D01*
X22616823Y21495268D01*
X22690693Y21384713D01*
X22715000Y21360406D01*
X22715001Y16140107D01*
X19121650Y12546755D01*
X18922142Y12607275D01*
X18742178Y12625000D01*
X18621822Y12625000D01*
X18441858Y12607275D01*
X18210945Y12537228D01*
X17998134Y12423478D01*
X17811603Y12270397D01*
X17658522Y12083866D01*
X17544772Y11871055D01*
X17474725Y11640142D01*
X17451073Y11400000D01*
X17474725Y11159858D01*
X17544772Y10928945D01*
X17658522Y10716134D01*
X17811603Y10529603D01*
X17998134Y10376522D01*
X18210945Y10262772D01*
X18441858Y10192725D01*
X18502998Y10186703D01*
X18502998Y10134745D01*
X18282789Y10236270D01*
X18249315Y10226123D01*
X17991111Y10115461D01*
X17759458Y9956552D01*
X17563258Y9755503D01*
X17410050Y9520040D01*
X17305723Y9259212D01*
X17405966Y9039002D01*
X17355297Y9039002D01*
X17349275Y9100142D01*
X17279228Y9331055D01*
X17165478Y9543866D01*
X17012397Y9730397D01*
X16825866Y9883478D01*
X16613055Y9997228D01*
X16382142Y10067275D01*
X16202178Y10085000D01*
X16081822Y10085000D01*
X15901858Y10067275D01*
X15670945Y9997228D01*
X15458134Y9883478D01*
X15271603Y9730397D01*
X15118522Y9543866D01*
X15004772Y9331055D01*
X14934725Y9100142D01*
X14928703Y9039002D01*
X14878034Y9039002D01*
X14978277Y9259212D01*
X14873950Y9520040D01*
X14720742Y9755503D01*
X14524542Y9956552D01*
X14292889Y10115461D01*
X14034685Y10226123D01*
X14001211Y10236270D01*
X13781002Y10134745D01*
X13781002Y10186703D01*
X13842142Y10192725D01*
X14073055Y10262772D01*
X14285866Y10376522D01*
X14472397Y10529603D01*
X14625478Y10716134D01*
X14739228Y10928945D01*
X14809275Y11159858D01*
X14832927Y11400000D01*
X14911073Y11400000D01*
X14934725Y11159858D01*
X15004772Y10928945D01*
X15118522Y10716134D01*
X15271603Y10529603D01*
X15458134Y10376522D01*
X15670945Y10262772D01*
X15901858Y10192725D01*
X16081822Y10175000D01*
X16202178Y10175000D01*
X16382142Y10192725D01*
X16613055Y10262772D01*
X16825866Y10376522D01*
X17012397Y10529603D01*
X17165478Y10716134D01*
X17279228Y10928945D01*
X17349275Y11159858D01*
X17372927Y11400000D01*
X17349275Y11640142D01*
X17279228Y11871055D01*
X17165478Y12083866D01*
X17012397Y12270397D01*
X16825866Y12423478D01*
X16613055Y12537228D01*
X16382142Y12607275D01*
X16202178Y12625000D01*
X16081822Y12625000D01*
X15901858Y12607275D01*
X15670945Y12537228D01*
X15458134Y12423478D01*
X15271603Y12270397D01*
X15118522Y12083866D01*
X15004772Y11871055D01*
X14934725Y11640142D01*
X14911073Y11400000D01*
X14832927Y11400000D01*
X14809275Y11640142D01*
X14739228Y11871055D01*
X14625478Y12083866D01*
X14472397Y12270397D01*
X14285866Y12423478D01*
X14073055Y12537228D01*
X13842142Y12607275D01*
X13662178Y12625000D01*
X13541822Y12625000D01*
X13361858Y12607275D01*
X13130945Y12537228D01*
X12918134Y12423478D01*
X12731603Y12270397D01*
X12578522Y12083866D01*
X12464772Y11871055D01*
X12394725Y11640142D01*
X12371073Y11400000D01*
X12394725Y11159858D01*
X12464772Y10928945D01*
X12578522Y10716134D01*
X12731603Y10529603D01*
X12918134Y10376522D01*
X13130945Y10262772D01*
X13361858Y10192725D01*
X13422998Y10186703D01*
X13422998Y10134745D01*
X13202789Y10236270D01*
X13169315Y10226123D01*
X12911111Y10115461D01*
X12679458Y9956552D01*
X12483258Y9755503D01*
X12330050Y9520040D01*
X12225723Y9259212D01*
X12325966Y9039002D01*
X12275297Y9039002D01*
X12269275Y9100142D01*
X12199228Y9331055D01*
X12085478Y9543866D01*
X11932397Y9730397D01*
X11745866Y9883478D01*
X11533055Y9997228D01*
X11302142Y10067275D01*
X11122178Y10085000D01*
X11001822Y10085000D01*
X10821858Y10067275D01*
X10590945Y9997228D01*
X10378134Y9883478D01*
X10191603Y9730397D01*
X10038522Y9543866D01*
X9924772Y9331055D01*
X9854725Y9100142D01*
X9831073Y8860000D01*
X9752927Y8860000D01*
X9729275Y9100142D01*
X9659228Y9331055D01*
X9545478Y9543866D01*
X9392397Y9730397D01*
X9205866Y9883478D01*
X8993055Y9997228D01*
X8762142Y10067275D01*
X8582178Y10085000D01*
X8461822Y10085000D01*
X8281858Y10067275D01*
X8050945Y9997228D01*
X7838134Y9883478D01*
X7651603Y9730397D01*
X7498522Y9543866D01*
X7384772Y9331055D01*
X7314725Y9100142D01*
X7291073Y8860000D01*
X7212927Y8860000D01*
X7189275Y9100142D01*
X7119228Y9331055D01*
X7005478Y9543866D01*
X6852397Y9730397D01*
X6665866Y9883478D01*
X6453055Y9997228D01*
X6222142Y10067275D01*
X6161002Y10073297D01*
X6161002Y10125255D01*
X6381211Y10023730D01*
X6414685Y10033877D01*
X6672889Y10144539D01*
X6904542Y10303448D01*
X7100742Y10504497D01*
X7253950Y10739960D01*
X7358277Y11000788D01*
X7258034Y11220998D01*
X7308703Y11220998D01*
X7314725Y11159858D01*
X7384772Y10928945D01*
X7498522Y10716134D01*
X7651603Y10529603D01*
X7838134Y10376522D01*
X8050945Y10262772D01*
X8281858Y10192725D01*
X8461822Y10175000D01*
X8582178Y10175000D01*
X8762142Y10192725D01*
X8993055Y10262772D01*
X9205866Y10376522D01*
X9392397Y10529603D01*
X9545478Y10716134D01*
X9659228Y10928945D01*
X9729275Y11159858D01*
X9752927Y11400000D01*
X9831073Y11400000D01*
X9854725Y11159858D01*
X9924772Y10928945D01*
X10038522Y10716134D01*
X10191603Y10529603D01*
X10378134Y10376522D01*
X10590945Y10262772D01*
X10821858Y10192725D01*
X11001822Y10175000D01*
X11122178Y10175000D01*
X11302142Y10192725D01*
X11533055Y10262772D01*
X11745866Y10376522D01*
X11932397Y10529603D01*
X12085478Y10716134D01*
X12199228Y10928945D01*
X12269275Y11159858D01*
X12292927Y11400000D01*
X12269275Y11640142D01*
X12199228Y11871055D01*
X12085478Y12083866D01*
X11932397Y12270397D01*
X11745866Y12423478D01*
X11533055Y12537228D01*
X11302142Y12607275D01*
X11122178Y12625000D01*
X11001822Y12625000D01*
X10821858Y12607275D01*
X10590945Y12537228D01*
X10378134Y12423478D01*
X10191603Y12270397D01*
X10038522Y12083866D01*
X9924772Y11871055D01*
X9854725Y11640142D01*
X9831073Y11400000D01*
X9752927Y11400000D01*
X9729275Y11640142D01*
X9659228Y11871055D01*
X9545478Y12083866D01*
X9392397Y12270397D01*
X9205866Y12423478D01*
X8993055Y12537228D01*
X8762142Y12607275D01*
X8582178Y12625000D01*
X8461822Y12625000D01*
X8281858Y12607275D01*
X8050945Y12537228D01*
X7838134Y12423478D01*
X7651603Y12270397D01*
X7498522Y12083866D01*
X7384772Y11871055D01*
X7314725Y11640142D01*
X7308703Y11579002D01*
X7258034Y11579002D01*
X7358277Y11799212D01*
X7253950Y12060040D01*
X7100742Y12295503D01*
X6904542Y12496552D01*
X6672889Y12655461D01*
X6414685Y12766123D01*
X6381211Y12776270D01*
X6161000Y12674744D01*
X6161000Y11579000D01*
X6181000Y11579000D01*
X6181000Y11221000D01*
X6161000Y11221000D01*
X6161000Y11201000D01*
X5803000Y11201000D01*
X5803000Y11221000D01*
X4705967Y11221000D01*
X4605723Y11000788D01*
X450000Y11000788D01*
X450000Y11799212D01*
X4605723Y11799212D01*
X4705967Y11579000D01*
X5803000Y11579000D01*
X5803000Y12674744D01*
X5582789Y12776270D01*
X5549315Y12766123D01*
X5291111Y12655461D01*
X5059458Y12496552D01*
X4863258Y12295503D01*
X4710050Y12060040D01*
X4605723Y11799212D01*
X450000Y11799212D01*
X450000Y14950788D01*
X7143723Y14950788D01*
X7248050Y14689960D01*
X7401258Y14454497D01*
X7597458Y14253448D01*
X7829111Y14094539D01*
X8087315Y13983877D01*
X8120789Y13973730D01*
X8341000Y14075256D01*
X8341000Y15171000D01*
X7243967Y15171000D01*
X7143723Y14950788D01*
X450000Y14950788D01*
X450000Y15749212D01*
X7143723Y15749212D01*
X7243967Y15529000D01*
X8341000Y15529000D01*
X8341000Y16624744D01*
X8120789Y16726270D01*
X8087315Y16716123D01*
X7829111Y16605461D01*
X7597458Y16446552D01*
X7401258Y16245503D01*
X7248050Y16010040D01*
X7143723Y15749212D01*
X450000Y15749212D01*
X450000Y44000000D01*
X6197581Y44000000D01*
X6200000Y43975440D01*
X6200001Y19734570D01*
X6197581Y19710000D01*
X6207235Y19611983D01*
X6235826Y19517733D01*
X6282255Y19430871D01*
X6344737Y19354736D01*
X6363819Y19339075D01*
X9012337Y16690557D01*
X8952685Y16716123D01*
X8919211Y16726270D01*
X8699000Y16624744D01*
X8699000Y15529000D01*
X8719000Y15529000D01*
X8719000Y15171000D01*
X8699000Y15171000D01*
X8699000Y14075256D01*
X8919211Y13973730D01*
X8952685Y13983877D01*
X9210889Y14094539D01*
X9442542Y14253448D01*
X9638742Y14454497D01*
X9791950Y14689960D01*
X9896277Y14950788D01*
X9796034Y15170998D01*
X9846703Y15170998D01*
X9852725Y15109858D01*
X9922772Y14878945D01*
X10036522Y14666134D01*
X10189603Y14479603D01*
X10376134Y14326522D01*
X10588945Y14212772D01*
X10819858Y14142725D01*
X10999822Y14125000D01*
X11120178Y14125000D01*
X11300142Y14142725D01*
X11531055Y14212772D01*
X11743866Y14326522D01*
X11930397Y14479603D01*
X12083478Y14666134D01*
X12197228Y14878945D01*
X12267275Y15109858D01*
X12290927Y15350000D01*
X12267275Y15590142D01*
X12197228Y15821055D01*
X12083478Y16033866D01*
X11930397Y16220397D01*
X11743866Y16373478D01*
X11531055Y16487228D01*
X11300142Y16557275D01*
X11120178Y16575000D01*
X10999822Y16575000D01*
X10819858Y16557275D01*
X10620351Y16496755D01*
X7200000Y19917105D01*
X7200000Y21042895D01*
X12453245Y15789648D01*
X12392725Y15590142D01*
X12369073Y15350000D01*
X12392725Y15109858D01*
X12462772Y14878945D01*
X12576522Y14666134D01*
X12729603Y14479603D01*
X12916134Y14326522D01*
X13128945Y14212772D01*
X13359858Y14142725D01*
X13539822Y14125000D01*
X13660178Y14125000D01*
X13840142Y14142725D01*
X14071055Y14212772D01*
X14283866Y14326522D01*
X14470397Y14479603D01*
X14623478Y14666134D01*
X14737228Y14878945D01*
X14807275Y15109858D01*
X14830927Y15350000D01*
X14807275Y15590142D01*
X14737228Y15821055D01*
X14623478Y16033866D01*
X14487137Y16200000D01*
X14913186Y16200000D01*
X14913186Y14500000D01*
X14920426Y14426487D01*
X14941869Y14355800D01*
X14976691Y14290653D01*
X15023552Y14233552D01*
X15080653Y14186691D01*
X15145800Y14151869D01*
X15216487Y14130426D01*
X15290000Y14123186D01*
X16990000Y14123186D01*
X17063513Y14130426D01*
X17134200Y14151869D01*
X17199347Y14186691D01*
X17256448Y14233552D01*
X17303309Y14290653D01*
X17338131Y14355800D01*
X17359574Y14426487D01*
X17366814Y14500000D01*
X17366814Y16200000D01*
X17359574Y16273513D01*
X17338131Y16344200D01*
X17303309Y16409347D01*
X17256448Y16466448D01*
X17199347Y16513309D01*
X17134200Y16548131D01*
X17063513Y16569574D01*
X16990000Y16576814D01*
X15290000Y16576814D01*
X15216487Y16569574D01*
X15145800Y16548131D01*
X15080653Y16513309D01*
X15023552Y16466448D01*
X14976691Y16409347D01*
X14941869Y16344200D01*
X14920426Y16273513D01*
X14913186Y16200000D01*
X14487137Y16200000D01*
X14470397Y16220397D01*
X14283866Y16373478D01*
X14071055Y16487228D01*
X13840142Y16557275D01*
X13660178Y16575000D01*
X13539822Y16575000D01*
X13359858Y16557275D01*
X13160352Y16496755D01*
X7650010Y22007095D01*
X7650010Y27876482D01*
X16815000Y27876482D01*
X16815000Y27743518D01*
X16840940Y27613110D01*
X16891823Y27490268D01*
X16965693Y27379713D01*
X17059713Y27285693D01*
X17170268Y27211823D01*
X17293110Y27160940D01*
X17423518Y27135000D01*
X17556482Y27135000D01*
X17686890Y27160940D01*
X17809732Y27211823D01*
X17920287Y27285693D01*
X18014307Y27379713D01*
X18088177Y27490268D01*
X18139060Y27613110D01*
X18165000Y27743518D01*
X18165000Y27876482D01*
X18139060Y28006890D01*
X18088177Y28129732D01*
X18014307Y28240287D01*
X18010000Y28244594D01*
X18010000Y36995406D01*
X18034307Y37019713D01*
X18104988Y37125495D01*
X18105825Y37122736D01*
X18152254Y37035873D01*
X18214736Y36959738D01*
X18233824Y36944073D01*
X19565001Y35612895D01*
X19565000Y35050441D01*
X19565001Y35050431D01*
X19565000Y24269594D01*
X19540693Y24245287D01*
X19466823Y24134732D01*
X19415940Y24011890D01*
X19390000Y23881482D01*
X19390000Y23748518D01*
X19415940Y23618110D01*
X19466823Y23495268D01*
X19540693Y23384713D01*
X19634713Y23290693D01*
X19745268Y23216823D01*
X19868110Y23165940D01*
X19998518Y23140000D01*
X20131482Y23140000D01*
X20261890Y23165940D01*
X20384732Y23216823D01*
X20495287Y23290693D01*
X20589307Y23384713D01*
X20663177Y23495268D01*
X20714060Y23618110D01*
X20740000Y23748518D01*
X20740000Y23881482D01*
X20714060Y24011890D01*
X20663177Y24134732D01*
X20589307Y24245287D01*
X20565000Y24269594D01*
X20565000Y35795453D01*
X20567418Y35820003D01*
X20565000Y35844553D01*
X20565000Y35844562D01*
X20557765Y35918019D01*
X20529175Y36012269D01*
X20482746Y36099131D01*
X20420264Y36175266D01*
X20401187Y36190922D01*
X19070000Y37522107D01*
X19070000Y37555406D01*
X19094307Y37579713D01*
X19168177Y37690268D01*
X19219060Y37813110D01*
X19245000Y37943518D01*
X19245000Y38076482D01*
X19219060Y38206890D01*
X19168177Y38329732D01*
X19094307Y38440287D01*
X19000287Y38534307D01*
X18889732Y38608177D01*
X18766890Y38659060D01*
X18636482Y38685000D01*
X18503518Y38685000D01*
X18373110Y38659060D01*
X18250268Y38608177D01*
X18139713Y38534307D01*
X18045693Y38440287D01*
X17971823Y38329732D01*
X17920940Y38206890D01*
X17895000Y38076482D01*
X17895000Y38004567D01*
X17829732Y38048177D01*
X17706890Y38099060D01*
X17576482Y38125000D01*
X17443518Y38125000D01*
X17313110Y38099060D01*
X17190268Y38048177D01*
X17079713Y37974307D01*
X16985693Y37880287D01*
X16911823Y37769732D01*
X16860940Y37646890D01*
X16835000Y37516482D01*
X16835000Y37383518D01*
X16860940Y37253110D01*
X16911823Y37130268D01*
X16985693Y37019713D01*
X17010000Y36995406D01*
X17010001Y28284595D01*
X16965693Y28240287D01*
X16891823Y28129732D01*
X16840940Y28006890D01*
X16815000Y27876482D01*
X7650010Y27876482D01*
X7650010Y43124264D01*
X10721251Y43124264D01*
X10725000Y43086201D01*
X10725000Y42661936D01*
X10736214Y42548075D01*
X10780530Y42401987D01*
X10852494Y42267351D01*
X10949341Y42149341D01*
X11067350Y42052494D01*
X11201986Y41980530D01*
X11348074Y41936214D01*
X11500000Y41921251D01*
X11651925Y41936214D01*
X11798013Y41980530D01*
X11932649Y42052494D01*
X12050659Y42149341D01*
X12147506Y42267350D01*
X12219470Y42401986D01*
X12249202Y42500000D01*
X15221251Y42500000D01*
X15236214Y42348074D01*
X15280530Y42201986D01*
X15352494Y42067350D01*
X15449341Y41949341D01*
X15567350Y41852494D01*
X15701986Y41780530D01*
X15848074Y41736214D01*
X15961935Y41725000D01*
X25138065Y41725000D01*
X25251926Y41736214D01*
X25398014Y41780530D01*
X25532650Y41852494D01*
X25650659Y41949341D01*
X25747506Y42067350D01*
X25819470Y42201986D01*
X25863786Y42348074D01*
X25878749Y42500000D01*
X25863786Y42651926D01*
X25819470Y42798014D01*
X25747506Y42932650D01*
X25650659Y43050659D01*
X25532650Y43147506D01*
X25398014Y43219470D01*
X25251926Y43263786D01*
X25138065Y43275000D01*
X15961935Y43275000D01*
X15848074Y43263786D01*
X15701986Y43219470D01*
X15567350Y43147506D01*
X15449341Y43050659D01*
X15352494Y42932650D01*
X15280530Y42798014D01*
X15236214Y42651926D01*
X15221251Y42500000D01*
X12249202Y42500000D01*
X12263786Y42548074D01*
X12275000Y42661935D01*
X12275000Y42803250D01*
X14696751Y45225000D01*
X24128986Y45225000D01*
X34925072Y34428913D01*
X34949341Y34399341D01*
X35024888Y34337342D01*
X35067349Y34302494D01*
X35139313Y34264029D01*
X35201986Y34230530D01*
X35348074Y34186214D01*
X35461935Y34175000D01*
X35461937Y34175000D01*
X35500000Y34171251D01*
X35538063Y34175000D01*
X46608986Y34175000D01*
X54475001Y26308984D01*
X54475000Y24151936D01*
X54486214Y24038075D01*
X54530530Y23891987D01*
X54602494Y23757351D01*
X54699341Y23639341D01*
X54817350Y23542494D01*
X54951986Y23470530D01*
X55098074Y23426214D01*
X55250000Y23411251D01*
X55401925Y23426214D01*
X55548013Y23470530D01*
X55682649Y23542494D01*
X55800659Y23639341D01*
X55897506Y23757350D01*
X55969470Y23891986D01*
X56013786Y24038074D01*
X56025000Y24151935D01*
X56025000Y26591937D01*
X56028749Y26630000D01*
X56023989Y26678327D01*
X56013786Y26781926D01*
X55969470Y26928014D01*
X55935971Y26990687D01*
X55897506Y27062651D01*
X55862658Y27105112D01*
X55800659Y27180659D01*
X55771087Y27204928D01*
X47504933Y35471082D01*
X47480659Y35500659D01*
X47362650Y35597506D01*
X47228014Y35669470D01*
X47081926Y35713786D01*
X46968065Y35725000D01*
X46968063Y35725000D01*
X46930000Y35728749D01*
X46891937Y35725000D01*
X35821015Y35725000D01*
X32479533Y39066482D01*
X37075000Y39066482D01*
X37075000Y38933518D01*
X37100940Y38803110D01*
X37151823Y38680268D01*
X37225693Y38569713D01*
X37319713Y38475693D01*
X37430268Y38401823D01*
X37553110Y38350940D01*
X37683518Y38325000D01*
X37816482Y38325000D01*
X37946890Y38350940D01*
X38069732Y38401823D01*
X38180287Y38475693D01*
X38274307Y38569713D01*
X38348177Y38680268D01*
X38399060Y38803110D01*
X38425000Y38933518D01*
X38425000Y39066482D01*
X38399060Y39196890D01*
X38348177Y39319732D01*
X38274307Y39430287D01*
X38180287Y39524307D01*
X38069732Y39598177D01*
X37946890Y39649060D01*
X37816482Y39675000D01*
X37683518Y39675000D01*
X37553110Y39649060D01*
X37430268Y39598177D01*
X37319713Y39524307D01*
X37225693Y39430287D01*
X37151823Y39319732D01*
X37100940Y39196890D01*
X37075000Y39066482D01*
X32479533Y39066482D01*
X28546015Y43000000D01*
X40223186Y43000000D01*
X40223186Y41300000D01*
X40230426Y41226487D01*
X40251869Y41155800D01*
X40286691Y41090653D01*
X40333552Y41033552D01*
X40390653Y40986691D01*
X40455800Y40951869D01*
X40526487Y40930426D01*
X40600000Y40923186D01*
X40950000Y40923186D01*
X40950001Y38374570D01*
X40947581Y38350000D01*
X40957235Y38251983D01*
X40980979Y38173712D01*
X40985826Y38157733D01*
X41032255Y38070871D01*
X41094737Y37994736D01*
X41113819Y37979076D01*
X42075000Y37017894D01*
X42075000Y36983518D01*
X42100940Y36853110D01*
X42151823Y36730268D01*
X42225693Y36619713D01*
X42319713Y36525693D01*
X42430268Y36451823D01*
X42553110Y36400940D01*
X42683518Y36375000D01*
X42816482Y36375000D01*
X42946890Y36400940D01*
X43069732Y36451823D01*
X43180287Y36525693D01*
X43274307Y36619713D01*
X43348177Y36730268D01*
X43399060Y36853110D01*
X43425000Y36983518D01*
X43425000Y37116482D01*
X43399060Y37246890D01*
X43348177Y37369732D01*
X43274307Y37480287D01*
X43180287Y37574307D01*
X43069732Y37648177D01*
X42946890Y37699060D01*
X42816482Y37725000D01*
X42782106Y37725000D01*
X41950000Y38557105D01*
X41950000Y40923186D01*
X42300000Y40923186D01*
X42373513Y40930426D01*
X42444200Y40951869D01*
X42509347Y40986691D01*
X42566448Y41033552D01*
X42613309Y41090653D01*
X42648131Y41155800D01*
X42669574Y41226487D01*
X42676814Y41300000D01*
X42676814Y42150000D01*
X42759073Y42150000D01*
X42782725Y41909858D01*
X42852772Y41678945D01*
X42966522Y41466134D01*
X43119603Y41279603D01*
X43306134Y41126522D01*
X43490000Y41028243D01*
X43490000Y39878150D01*
X43487581Y39853590D01*
X43490000Y39829031D01*
X43490000Y39829030D01*
X43497235Y39755573D01*
X43525825Y39661323D01*
X43572255Y39574461D01*
X43634737Y39498326D01*
X43653819Y39482666D01*
X47323813Y35812670D01*
X47323824Y35812661D01*
X56310000Y26826484D01*
X56310001Y24274595D01*
X56285693Y24250287D01*
X56211823Y24139732D01*
X56160940Y24016890D01*
X56135000Y23886482D01*
X56135000Y23753518D01*
X56160940Y23623110D01*
X56211823Y23500268D01*
X56285693Y23389713D01*
X56379713Y23295693D01*
X56490268Y23221823D01*
X56613110Y23170940D01*
X56743518Y23145000D01*
X56876482Y23145000D01*
X57006890Y23170940D01*
X57129732Y23221823D01*
X57240287Y23295693D01*
X57334307Y23389713D01*
X57408177Y23500268D01*
X57459060Y23623110D01*
X57485000Y23753518D01*
X57485000Y23886482D01*
X57459060Y24016890D01*
X57408177Y24139732D01*
X57334307Y24250287D01*
X57310000Y24274594D01*
X57310000Y26462894D01*
X57825001Y25947893D01*
X57825000Y22269594D01*
X57800693Y22245287D01*
X57726823Y22134732D01*
X57675940Y22011890D01*
X57650000Y21881482D01*
X57650000Y21748518D01*
X57675940Y21618110D01*
X57726823Y21495268D01*
X57800693Y21384713D01*
X57894713Y21290693D01*
X58005268Y21216823D01*
X58128110Y21165940D01*
X58258518Y21140000D01*
X58391482Y21140000D01*
X58521890Y21165940D01*
X58644732Y21216823D01*
X58755287Y21290693D01*
X58849307Y21384713D01*
X58923177Y21495268D01*
X58974060Y21618110D01*
X59000000Y21748518D01*
X59000000Y21881482D01*
X58974060Y22011890D01*
X58923177Y22134732D01*
X58849307Y22245287D01*
X58825000Y22269594D01*
X58825000Y26130440D01*
X58827419Y26155000D01*
X58817765Y26253017D01*
X58802674Y26302765D01*
X58789175Y26347267D01*
X58742746Y26434129D01*
X58680264Y26510264D01*
X58661181Y26525925D01*
X47030000Y38157105D01*
X47030000Y41028243D01*
X47213866Y41126522D01*
X47400397Y41279603D01*
X47553478Y41466134D01*
X47667228Y41678945D01*
X47737275Y41909858D01*
X47760927Y42150000D01*
X47839073Y42150000D01*
X47862725Y41909858D01*
X47932772Y41678945D01*
X48046522Y41466134D01*
X48199603Y41279603D01*
X48386134Y41126522D01*
X48570000Y41028243D01*
X48570001Y39394570D01*
X48570000Y39394560D01*
X48570000Y39034560D01*
X48567581Y39010000D01*
X48570000Y38985441D01*
X48577235Y38911984D01*
X48605825Y38817734D01*
X48652254Y38730871D01*
X48714736Y38654736D01*
X48733824Y38639071D01*
X55575000Y31797893D01*
X55575000Y31763518D01*
X55600940Y31633110D01*
X55651823Y31510268D01*
X55725693Y31399713D01*
X55819713Y31305693D01*
X55930268Y31231823D01*
X56053110Y31180940D01*
X56183518Y31155000D01*
X56316482Y31155000D01*
X56446890Y31180940D01*
X56569732Y31231823D01*
X56680287Y31305693D01*
X56774307Y31399713D01*
X56848177Y31510268D01*
X56899060Y31633110D01*
X56925000Y31763518D01*
X56925000Y31896482D01*
X56899060Y32026890D01*
X56848177Y32149732D01*
X56774307Y32260287D01*
X56680287Y32354307D01*
X56569732Y32428177D01*
X56446890Y32479060D01*
X56316482Y32505000D01*
X56282107Y32505000D01*
X49570000Y39217105D01*
X49570000Y41028243D01*
X49753866Y41126522D01*
X49940397Y41279603D01*
X50093478Y41466134D01*
X50207228Y41678945D01*
X50277275Y41909858D01*
X50300927Y42150000D01*
X50277275Y42390142D01*
X50207228Y42621055D01*
X50093478Y42833866D01*
X49940397Y43020397D01*
X49753866Y43173478D01*
X49541055Y43287228D01*
X49310142Y43357275D01*
X49130178Y43375000D01*
X49009822Y43375000D01*
X48829858Y43357275D01*
X48598945Y43287228D01*
X48386134Y43173478D01*
X48199603Y43020397D01*
X48046522Y42833866D01*
X47932772Y42621055D01*
X47862725Y42390142D01*
X47839073Y42150000D01*
X47760927Y42150000D01*
X47737275Y42390142D01*
X47667228Y42621055D01*
X47553478Y42833866D01*
X47400397Y43020397D01*
X47213866Y43173478D01*
X47001055Y43287228D01*
X46770142Y43357275D01*
X46590178Y43375000D01*
X46469822Y43375000D01*
X46289858Y43357275D01*
X46058945Y43287228D01*
X45846134Y43173478D01*
X45659603Y43020397D01*
X45506522Y42833866D01*
X45392772Y42621055D01*
X45322725Y42390142D01*
X45299073Y42150000D01*
X45322725Y41909858D01*
X45392772Y41678945D01*
X45506522Y41466134D01*
X45659603Y41279603D01*
X45846134Y41126522D01*
X46030001Y41028243D01*
X46030000Y38520696D01*
X44490000Y40060695D01*
X44490000Y41028243D01*
X44673866Y41126522D01*
X44860397Y41279603D01*
X45013478Y41466134D01*
X45127228Y41678945D01*
X45197275Y41909858D01*
X45220927Y42150000D01*
X45197275Y42390142D01*
X45127228Y42621055D01*
X45013478Y42833866D01*
X44860397Y43020397D01*
X44673866Y43173478D01*
X44461055Y43287228D01*
X44230142Y43357275D01*
X44050178Y43375000D01*
X43929822Y43375000D01*
X43749858Y43357275D01*
X43518945Y43287228D01*
X43306134Y43173478D01*
X43119603Y43020397D01*
X42966522Y42833866D01*
X42852772Y42621055D01*
X42782725Y42390142D01*
X42759073Y42150000D01*
X42676814Y42150000D01*
X42676814Y43000000D01*
X42669574Y43073513D01*
X42648131Y43144200D01*
X42613309Y43209347D01*
X42566448Y43266448D01*
X42509347Y43313309D01*
X42444200Y43348131D01*
X42373513Y43369574D01*
X42300000Y43376814D01*
X40600000Y43376814D01*
X40526487Y43369574D01*
X40455800Y43348131D01*
X40390653Y43313309D01*
X40333552Y43266448D01*
X40286691Y43209347D01*
X40251869Y43144200D01*
X40230426Y43073513D01*
X40223186Y43000000D01*
X28546015Y43000000D01*
X27239392Y44306622D01*
X27253110Y44300940D01*
X27383518Y44275000D01*
X27516482Y44275000D01*
X27646890Y44300940D01*
X27769732Y44351823D01*
X27880287Y44425693D01*
X27904594Y44450000D01*
X33652560Y44450000D01*
X33726017Y44457235D01*
X33820267Y44485825D01*
X33907129Y44532254D01*
X33983264Y44594736D01*
X34045746Y44670871D01*
X34055970Y44690000D01*
X40219073Y44690000D01*
X40242725Y44449858D01*
X40312772Y44218945D01*
X40426522Y44006134D01*
X40579603Y43819603D01*
X40766134Y43666522D01*
X40978945Y43552772D01*
X41209858Y43482725D01*
X41389822Y43465000D01*
X41510178Y43465000D01*
X41690142Y43482725D01*
X41921055Y43552772D01*
X42133866Y43666522D01*
X42320397Y43819603D01*
X42473478Y44006134D01*
X42587228Y44218945D01*
X42657275Y44449858D01*
X42680927Y44690000D01*
X42759073Y44690000D01*
X42782725Y44449858D01*
X42852772Y44218945D01*
X42966522Y44006134D01*
X43119603Y43819603D01*
X43306134Y43666522D01*
X43518945Y43552772D01*
X43749858Y43482725D01*
X43929822Y43465000D01*
X44050178Y43465000D01*
X44230142Y43482725D01*
X44461055Y43552772D01*
X44673866Y43666522D01*
X44860397Y43819603D01*
X45013478Y44006134D01*
X45127228Y44218945D01*
X45197275Y44449858D01*
X45220927Y44690000D01*
X45299073Y44690000D01*
X45322725Y44449858D01*
X45392772Y44218945D01*
X45506522Y44006134D01*
X45659603Y43819603D01*
X45846134Y43666522D01*
X46058945Y43552772D01*
X46289858Y43482725D01*
X46469822Y43465000D01*
X46590178Y43465000D01*
X46770142Y43482725D01*
X47001055Y43552772D01*
X47213866Y43666522D01*
X47400397Y43819603D01*
X47553478Y44006134D01*
X47667228Y44218945D01*
X47737275Y44449858D01*
X47760927Y44690000D01*
X47839073Y44690000D01*
X47862725Y44449858D01*
X47932772Y44218945D01*
X48046522Y44006134D01*
X48199603Y43819603D01*
X48386134Y43666522D01*
X48598945Y43552772D01*
X48829858Y43482725D01*
X49009822Y43465000D01*
X49130178Y43465000D01*
X49310142Y43482725D01*
X49541055Y43552772D01*
X49753866Y43666522D01*
X49940397Y43819603D01*
X50093478Y44006134D01*
X50207228Y44218945D01*
X50277275Y44449858D01*
X50300927Y44690000D01*
X50379073Y44690000D01*
X50402725Y44449858D01*
X50472772Y44218945D01*
X50586522Y44006134D01*
X50739603Y43819603D01*
X50926134Y43666522D01*
X51138945Y43552772D01*
X51369858Y43482725D01*
X51549822Y43465000D01*
X51670178Y43465000D01*
X51850142Y43482725D01*
X52081055Y43552772D01*
X52293866Y43666522D01*
X52480397Y43819603D01*
X52633478Y44006134D01*
X52747228Y44218945D01*
X52817275Y44449858D01*
X52823297Y44510998D01*
X52873966Y44510998D01*
X52773723Y44290788D01*
X52878050Y44029960D01*
X53031258Y43794497D01*
X53227458Y43593448D01*
X53459111Y43434539D01*
X53493034Y43420000D01*
X53459111Y43405461D01*
X53227458Y43246552D01*
X53031258Y43045503D01*
X52878050Y42810040D01*
X52773723Y42549212D01*
X52873966Y42329002D01*
X52823297Y42329002D01*
X52817275Y42390142D01*
X52747228Y42621055D01*
X52633478Y42833866D01*
X52480397Y43020397D01*
X52293866Y43173478D01*
X52081055Y43287228D01*
X51850142Y43357275D01*
X51670178Y43375000D01*
X51549822Y43375000D01*
X51369858Y43357275D01*
X51138945Y43287228D01*
X50926134Y43173478D01*
X50739603Y43020397D01*
X50586522Y42833866D01*
X50472772Y42621055D01*
X50402725Y42390142D01*
X50379073Y42150000D01*
X50402725Y41909858D01*
X50472772Y41678945D01*
X50586522Y41466134D01*
X50739603Y41279603D01*
X50926134Y41126522D01*
X51110001Y41028243D01*
X51110000Y38814560D01*
X51107581Y38790000D01*
X51117235Y38691983D01*
X51120789Y38680268D01*
X51145825Y38597734D01*
X51192254Y38510871D01*
X51254736Y38434736D01*
X51273824Y38419071D01*
X57330001Y32362892D01*
X57330000Y30274594D01*
X57305693Y30250287D01*
X57231823Y30139732D01*
X57180940Y30016890D01*
X57155000Y29886482D01*
X57155000Y29753518D01*
X57180940Y29623110D01*
X57231823Y29500268D01*
X57305693Y29389713D01*
X57399713Y29295693D01*
X57510268Y29221823D01*
X57633110Y29170940D01*
X57763518Y29145000D01*
X57896482Y29145000D01*
X58026890Y29170940D01*
X58149732Y29221823D01*
X58260287Y29295693D01*
X58354307Y29389713D01*
X58428177Y29500268D01*
X58479060Y29623110D01*
X58505000Y29753518D01*
X58505000Y29886482D01*
X58479060Y30016890D01*
X58428177Y30139732D01*
X58354307Y30250287D01*
X58330000Y30274594D01*
X58330000Y32545451D01*
X58332418Y32570001D01*
X58330000Y32594551D01*
X58330000Y32594560D01*
X58322765Y32668017D01*
X58294175Y32762267D01*
X58247746Y32849129D01*
X58185264Y32925264D01*
X58166187Y32940920D01*
X52819106Y38288000D01*
X63882179Y38288000D01*
X63893435Y38173712D01*
X63926772Y38063816D01*
X63980908Y37962535D01*
X64053762Y37873762D01*
X64142535Y37800908D01*
X64243816Y37746772D01*
X64353712Y37713435D01*
X64468000Y37702179D01*
X66175250Y37705000D01*
X66321000Y37850750D01*
X66321000Y39109000D01*
X64030750Y39109000D01*
X63885000Y38963250D01*
X63882179Y38288000D01*
X52819106Y38288000D01*
X52110000Y38997105D01*
X52110000Y40288000D01*
X63882179Y40288000D01*
X63885000Y39612750D01*
X64030750Y39467000D01*
X66321000Y39467000D01*
X66321000Y40725250D01*
X66175250Y40871000D01*
X64468000Y40873821D01*
X64353712Y40862565D01*
X64243816Y40829228D01*
X64142535Y40775092D01*
X64053762Y40702238D01*
X63980908Y40613465D01*
X63926772Y40512184D01*
X63893435Y40402288D01*
X63882179Y40288000D01*
X52110000Y40288000D01*
X52110000Y41028243D01*
X52293866Y41126522D01*
X52480397Y41279603D01*
X52633478Y41466134D01*
X52747228Y41678945D01*
X52817275Y41909858D01*
X52823297Y41970998D01*
X52873966Y41970998D01*
X52773723Y41750788D01*
X52878050Y41489960D01*
X53031258Y41254497D01*
X53227458Y41053448D01*
X53459111Y40894539D01*
X53717315Y40783877D01*
X53750789Y40773730D01*
X53971000Y40875256D01*
X53971000Y41971000D01*
X54329000Y41971000D01*
X54329000Y40875256D01*
X54549211Y40773730D01*
X54582685Y40783877D01*
X54840889Y40894539D01*
X55072542Y41053448D01*
X55268742Y41254497D01*
X55421950Y41489960D01*
X55526277Y41750788D01*
X55426033Y41971000D01*
X54329000Y41971000D01*
X53971000Y41971000D01*
X53951000Y41971000D01*
X53951000Y42329000D01*
X53971000Y42329000D01*
X53971000Y44511000D01*
X54329000Y44511000D01*
X54329000Y42329000D01*
X55426033Y42329000D01*
X55526277Y42549212D01*
X55421950Y42810040D01*
X55268742Y43045503D01*
X55072542Y43246552D01*
X54840889Y43405461D01*
X54806966Y43420000D01*
X54840889Y43434539D01*
X55072542Y43593448D01*
X55268742Y43794497D01*
X55280130Y43812000D01*
X63882179Y43812000D01*
X63893435Y43697712D01*
X63926772Y43587816D01*
X63980908Y43486535D01*
X64053762Y43397762D01*
X64142535Y43324908D01*
X64243816Y43270772D01*
X64353712Y43237435D01*
X64468000Y43226179D01*
X66175250Y43229000D01*
X66321000Y43374750D01*
X66321000Y44633000D01*
X64030750Y44633000D01*
X63885000Y44487250D01*
X63882179Y43812000D01*
X55280130Y43812000D01*
X55421950Y44029960D01*
X55526277Y44290788D01*
X55426033Y44511000D01*
X54329000Y44511000D01*
X53971000Y44511000D01*
X53951000Y44511000D01*
X53951000Y44869000D01*
X53971000Y44869000D01*
X53971000Y45964744D01*
X54329000Y45964744D01*
X54329000Y44869000D01*
X55426033Y44869000D01*
X55526277Y45089212D01*
X55421950Y45350040D01*
X55268742Y45585503D01*
X55072542Y45786552D01*
X55035445Y45812000D01*
X63882179Y45812000D01*
X63885000Y45136750D01*
X64030750Y44991000D01*
X66321000Y44991000D01*
X66321000Y46249250D01*
X66175250Y46395000D01*
X64468000Y46397821D01*
X64353712Y46386565D01*
X64243816Y46353228D01*
X64142535Y46299092D01*
X64053762Y46226238D01*
X63980908Y46137465D01*
X63926772Y46036184D01*
X63893435Y45926288D01*
X63882179Y45812000D01*
X55035445Y45812000D01*
X54840889Y45945461D01*
X54582685Y46056123D01*
X54549211Y46066270D01*
X54329000Y45964744D01*
X53971000Y45964744D01*
X53750789Y46066270D01*
X53717315Y46056123D01*
X53459111Y45945461D01*
X53227458Y45786552D01*
X53031258Y45585503D01*
X52878050Y45350040D01*
X52773723Y45089212D01*
X52873966Y44869002D01*
X52823297Y44869002D01*
X52817275Y44930142D01*
X52747228Y45161055D01*
X52633478Y45373866D01*
X52480397Y45560397D01*
X52293866Y45713478D01*
X52081055Y45827228D01*
X51850142Y45897275D01*
X51670178Y45915000D01*
X51549822Y45915000D01*
X51369858Y45897275D01*
X51138945Y45827228D01*
X50926134Y45713478D01*
X50739603Y45560397D01*
X50586522Y45373866D01*
X50472772Y45161055D01*
X50402725Y44930142D01*
X50379073Y44690000D01*
X50300927Y44690000D01*
X50277275Y44930142D01*
X50207228Y45161055D01*
X50093478Y45373866D01*
X49940397Y45560397D01*
X49753866Y45713478D01*
X49541055Y45827228D01*
X49310142Y45897275D01*
X49130178Y45915000D01*
X49009822Y45915000D01*
X48829858Y45897275D01*
X48598945Y45827228D01*
X48386134Y45713478D01*
X48199603Y45560397D01*
X48046522Y45373866D01*
X47932772Y45161055D01*
X47862725Y44930142D01*
X47839073Y44690000D01*
X47760927Y44690000D01*
X47737275Y44930142D01*
X47667228Y45161055D01*
X47553478Y45373866D01*
X47400397Y45560397D01*
X47213866Y45713478D01*
X47001055Y45827228D01*
X46770142Y45897275D01*
X46590178Y45915000D01*
X46469822Y45915000D01*
X46289858Y45897275D01*
X46058945Y45827228D01*
X45846134Y45713478D01*
X45659603Y45560397D01*
X45506522Y45373866D01*
X45392772Y45161055D01*
X45322725Y44930142D01*
X45299073Y44690000D01*
X45220927Y44690000D01*
X45197275Y44930142D01*
X45127228Y45161055D01*
X45013478Y45373866D01*
X44860397Y45560397D01*
X44673866Y45713478D01*
X44461055Y45827228D01*
X44230142Y45897275D01*
X44050178Y45915000D01*
X43929822Y45915000D01*
X43749858Y45897275D01*
X43518945Y45827228D01*
X43306134Y45713478D01*
X43119603Y45560397D01*
X42966522Y45373866D01*
X42852772Y45161055D01*
X42782725Y44930142D01*
X42759073Y44690000D01*
X42680927Y44690000D01*
X42657275Y44930142D01*
X42587228Y45161055D01*
X42473478Y45373866D01*
X42320397Y45560397D01*
X42133866Y45713478D01*
X41921055Y45827228D01*
X41690142Y45897275D01*
X41510178Y45915000D01*
X41389822Y45915000D01*
X41209858Y45897275D01*
X40978945Y45827228D01*
X40766134Y45713478D01*
X40579603Y45560397D01*
X40426522Y45373866D01*
X40312772Y45161055D01*
X40242725Y44930142D01*
X40219073Y44690000D01*
X34055970Y44690000D01*
X34092175Y44757733D01*
X34120765Y44851983D01*
X34130419Y44950000D01*
X34120765Y45048017D01*
X34092175Y45142267D01*
X34045746Y45229129D01*
X33983264Y45305264D01*
X33907129Y45367746D01*
X33820267Y45414175D01*
X33726017Y45442765D01*
X33652560Y45450000D01*
X27904594Y45450000D01*
X27880287Y45474307D01*
X27769732Y45548177D01*
X27646890Y45599060D01*
X27516482Y45625000D01*
X27383518Y45625000D01*
X27253110Y45599060D01*
X27130268Y45548177D01*
X27019713Y45474307D01*
X26925693Y45380287D01*
X26851823Y45269732D01*
X26800940Y45146890D01*
X26775000Y45016482D01*
X26775000Y44883518D01*
X26800940Y44753110D01*
X26806622Y44739392D01*
X25024933Y46521081D01*
X25000659Y46550659D01*
X24882650Y46647506D01*
X24748014Y46719470D01*
X24601926Y46763786D01*
X24488065Y46775000D01*
X24488063Y46775000D01*
X24450000Y46778749D01*
X24411937Y46775000D01*
X14413799Y46775000D01*
X14375736Y46778749D01*
X14337673Y46775000D01*
X14337671Y46775000D01*
X14223810Y46763786D01*
X14077722Y46719470D01*
X14015049Y46685971D01*
X13943085Y46647506D01*
X13900624Y46612658D01*
X13825077Y46550659D01*
X13800808Y46521087D01*
X10978914Y43699192D01*
X10949342Y43674923D01*
X10852494Y43556914D01*
X10780530Y43422278D01*
X10736214Y43276190D01*
X10730628Y43219470D01*
X10721251Y43124264D01*
X7650010Y43124264D01*
X7650010Y43606495D01*
X11243507Y47199990D01*
X17211831Y47199992D01*
X17236401Y47197572D01*
X17334418Y47207226D01*
X17428668Y47235817D01*
X17515530Y47282246D01*
X17591665Y47344728D01*
X17607325Y47363810D01*
X18153507Y47909990D01*
X39253430Y47909990D01*
X39277990Y47907571D01*
X39302550Y47909990D01*
X39376007Y47917225D01*
X39470257Y47945815D01*
X39557119Y47992244D01*
X39633254Y48054726D01*
X39648919Y48073814D01*
X41240781Y49665675D01*
X41267264Y49651519D01*
X41526453Y49572895D01*
X41728451Y49553000D01*
X41863549Y49553000D01*
X42065547Y49572895D01*
X42324736Y49651519D01*
X42563605Y49779198D01*
X42772976Y49951024D01*
X42944802Y50160395D01*
X43072481Y50399264D01*
X43151105Y50658453D01*
X43177653Y50928000D01*
X44474347Y50928000D01*
X44500895Y50658453D01*
X44579519Y50399264D01*
X44707198Y50160395D01*
X44879024Y49951024D01*
X45088395Y49779198D01*
X45327264Y49651519D01*
X45586453Y49572895D01*
X45788451Y49553000D01*
X45923549Y49553000D01*
X46125547Y49572895D01*
X46384736Y49651519D01*
X46623605Y49779198D01*
X46832976Y49951024D01*
X47004802Y50160395D01*
X47126000Y50387139D01*
X47247198Y50160395D01*
X47419024Y49951024D01*
X47628395Y49779198D01*
X47867264Y49651519D01*
X48126453Y49572895D01*
X48328451Y49553000D01*
X48463549Y49553000D01*
X48665547Y49572895D01*
X48924736Y49651519D01*
X49163605Y49779198D01*
X49372976Y49951024D01*
X49544802Y50160395D01*
X49666000Y50387139D01*
X49787198Y50160395D01*
X49959024Y49951024D01*
X50168395Y49779198D01*
X50407264Y49651519D01*
X50666453Y49572895D01*
X50868451Y49553000D01*
X51003549Y49553000D01*
X51205547Y49572895D01*
X51464736Y49651519D01*
X51703605Y49779198D01*
X51912976Y49951024D01*
X52084802Y50160395D01*
X52206000Y50387139D01*
X52327198Y50160395D01*
X52499024Y49951024D01*
X52708395Y49779198D01*
X52947264Y49651519D01*
X53206453Y49572895D01*
X53408451Y49553000D01*
X53543549Y49553000D01*
X53745547Y49572895D01*
X54004736Y49651519D01*
X54243605Y49779198D01*
X54452976Y49951024D01*
X54624802Y50160395D01*
X54746000Y50387139D01*
X54867198Y50160395D01*
X55039024Y49951024D01*
X55248395Y49779198D01*
X55487264Y49651519D01*
X55746453Y49572895D01*
X55948451Y49553000D01*
X56083549Y49553000D01*
X56285547Y49572895D01*
X56544736Y49651519D01*
X56783605Y49779198D01*
X56992976Y49951024D01*
X57164802Y50160395D01*
X57286000Y50387139D01*
X57407198Y50160395D01*
X57579024Y49951024D01*
X57788395Y49779198D01*
X58027264Y49651519D01*
X58286453Y49572895D01*
X58488451Y49553000D01*
X58623549Y49553000D01*
X58825547Y49572895D01*
X59084736Y49651519D01*
X59323605Y49779198D01*
X59532976Y49951024D01*
X59704802Y50160395D01*
X59826000Y50387139D01*
X59947198Y50160395D01*
X60119024Y49951024D01*
X60328395Y49779198D01*
X60567264Y49651519D01*
X60826453Y49572895D01*
X61028451Y49553000D01*
X61163549Y49553000D01*
X61365547Y49572895D01*
X61624736Y49651519D01*
X61863605Y49779198D01*
X62072976Y49951024D01*
X62244802Y50160395D01*
X62366000Y50387139D01*
X62487198Y50160395D01*
X62659024Y49951024D01*
X62868395Y49779198D01*
X63107264Y49651519D01*
X63366453Y49572895D01*
X63568451Y49553000D01*
X63703549Y49553000D01*
X63905547Y49572895D01*
X64164736Y49651519D01*
X64403605Y49779198D01*
X64612976Y49951024D01*
X64784802Y50160395D01*
X64912481Y50399264D01*
X64991105Y50658453D01*
X65017653Y50928000D01*
X64991105Y51197547D01*
X64912481Y51456736D01*
X64784802Y51695605D01*
X64612976Y51904976D01*
X64403605Y52076802D01*
X64164736Y52204481D01*
X63905547Y52283105D01*
X63703549Y52303000D01*
X63568451Y52303000D01*
X63366453Y52283105D01*
X63107264Y52204481D01*
X62868395Y52076802D01*
X62659024Y51904976D01*
X62487198Y51695605D01*
X62366000Y51468861D01*
X62244802Y51695605D01*
X62072976Y51904976D01*
X61863605Y52076802D01*
X61624736Y52204481D01*
X61365547Y52283105D01*
X61163549Y52303000D01*
X61028451Y52303000D01*
X60826453Y52283105D01*
X60567264Y52204481D01*
X60328395Y52076802D01*
X60119024Y51904976D01*
X59947198Y51695605D01*
X59826000Y51468861D01*
X59704802Y51695605D01*
X59532976Y51904976D01*
X59323605Y52076802D01*
X59084736Y52204481D01*
X58825547Y52283105D01*
X58623549Y52303000D01*
X58488451Y52303000D01*
X58286453Y52283105D01*
X58027264Y52204481D01*
X57788395Y52076802D01*
X57579024Y51904976D01*
X57407198Y51695605D01*
X57286000Y51468861D01*
X57164802Y51695605D01*
X56992976Y51904976D01*
X56783605Y52076802D01*
X56544736Y52204481D01*
X56285547Y52283105D01*
X56083549Y52303000D01*
X55948451Y52303000D01*
X55746453Y52283105D01*
X55487264Y52204481D01*
X55248395Y52076802D01*
X55039024Y51904976D01*
X54867198Y51695605D01*
X54746000Y51468861D01*
X54624802Y51695605D01*
X54452976Y51904976D01*
X54243605Y52076802D01*
X54004736Y52204481D01*
X53745547Y52283105D01*
X53543549Y52303000D01*
X53408451Y52303000D01*
X53206453Y52283105D01*
X52947264Y52204481D01*
X52708395Y52076802D01*
X52499024Y51904976D01*
X52327198Y51695605D01*
X52206000Y51468861D01*
X52084802Y51695605D01*
X51912976Y51904976D01*
X51703605Y52076802D01*
X51464736Y52204481D01*
X51205547Y52283105D01*
X51003549Y52303000D01*
X50868451Y52303000D01*
X50666453Y52283105D01*
X50407264Y52204481D01*
X50168395Y52076802D01*
X49959024Y51904976D01*
X49787198Y51695605D01*
X49666000Y51468861D01*
X49544802Y51695605D01*
X49372976Y51904976D01*
X49163605Y52076802D01*
X48924736Y52204481D01*
X48665547Y52283105D01*
X48463549Y52303000D01*
X48328451Y52303000D01*
X48126453Y52283105D01*
X47867264Y52204481D01*
X47628395Y52076802D01*
X47419024Y51904976D01*
X47247198Y51695605D01*
X47126000Y51468861D01*
X47004802Y51695605D01*
X46832976Y51904976D01*
X46623605Y52076802D01*
X46384736Y52204481D01*
X46125547Y52283105D01*
X45923549Y52303000D01*
X45788451Y52303000D01*
X45586453Y52283105D01*
X45327264Y52204481D01*
X45088395Y52076802D01*
X44879024Y51904976D01*
X44707198Y51695605D01*
X44579519Y51456736D01*
X44500895Y51197547D01*
X44474347Y50928000D01*
X43177653Y50928000D01*
X43151105Y51197547D01*
X43072481Y51456736D01*
X42944802Y51695605D01*
X42772976Y51904976D01*
X42563605Y52076802D01*
X42324736Y52204481D01*
X42065547Y52283105D01*
X41863549Y52303000D01*
X41728451Y52303000D01*
X41526453Y52283105D01*
X41267264Y52204481D01*
X41028395Y52076802D01*
X40819024Y51904976D01*
X40647198Y51695605D01*
X40526000Y51468861D01*
X40404802Y51695605D01*
X40232976Y51904976D01*
X40023605Y52076802D01*
X39784736Y52204481D01*
X39525547Y52283105D01*
X39323549Y52303000D01*
X39188451Y52303000D01*
X38986453Y52283105D01*
X38727264Y52204481D01*
X38488395Y52076802D01*
X38279024Y51904976D01*
X38107198Y51695605D01*
X37986000Y51468861D01*
X37864802Y51695605D01*
X37692976Y51904976D01*
X37483605Y52076802D01*
X37244736Y52204481D01*
X36985547Y52283105D01*
X36783549Y52303000D01*
X36648451Y52303000D01*
X36446453Y52283105D01*
X36187264Y52204481D01*
X35948395Y52076802D01*
X35739024Y51904976D01*
X35567198Y51695605D01*
X35446000Y51468861D01*
X35324802Y51695605D01*
X35152976Y51904976D01*
X34943605Y52076802D01*
X34704736Y52204481D01*
X34445547Y52283105D01*
X34243549Y52303000D01*
X34108451Y52303000D01*
X33906453Y52283105D01*
X33647264Y52204481D01*
X33408395Y52076802D01*
X33199024Y51904976D01*
X33027198Y51695605D01*
X32906000Y51468861D01*
X32784802Y51695605D01*
X32612976Y51904976D01*
X32403605Y52076802D01*
X32164736Y52204481D01*
X31905547Y52283105D01*
X31703549Y52303000D01*
X31568451Y52303000D01*
X31366453Y52283105D01*
X31107264Y52204481D01*
X30868395Y52076802D01*
X30659024Y51904976D01*
X30487198Y51695605D01*
X30366000Y51468861D01*
X30244802Y51695605D01*
X30072976Y51904976D01*
X29863605Y52076802D01*
X29624736Y52204481D01*
X29365547Y52283105D01*
X29163549Y52303000D01*
X29028451Y52303000D01*
X28826453Y52283105D01*
X28567264Y52204481D01*
X28328395Y52076802D01*
X28119024Y51904976D01*
X27947198Y51695605D01*
X27826000Y51468861D01*
X27704802Y51695605D01*
X27532976Y51904976D01*
X27323605Y52076802D01*
X27084736Y52204481D01*
X26825547Y52283105D01*
X26623549Y52303000D01*
X26488451Y52303000D01*
X26286453Y52283105D01*
X26027264Y52204481D01*
X25788395Y52076802D01*
X25579024Y51904976D01*
X25407198Y51695605D01*
X25286000Y51468861D01*
X25164802Y51695605D01*
X24992976Y51904976D01*
X24783605Y52076802D01*
X24544736Y52204481D01*
X24285547Y52283105D01*
X24083549Y52303000D01*
X23948451Y52303000D01*
X23746453Y52283105D01*
X23487264Y52204481D01*
X23248395Y52076802D01*
X23039024Y51904976D01*
X22867198Y51695605D01*
X22746000Y51468861D01*
X22624802Y51695605D01*
X22452976Y51904976D01*
X22243605Y52076802D01*
X22004736Y52204481D01*
X21745547Y52283105D01*
X21543549Y52303000D01*
X21408451Y52303000D01*
X21206453Y52283105D01*
X20947264Y52204481D01*
X20708395Y52076802D01*
X20499024Y51904976D01*
X20327198Y51695605D01*
X20206000Y51468861D01*
X20084802Y51695605D01*
X19912976Y51904976D01*
X19703605Y52076802D01*
X19464736Y52204481D01*
X19205547Y52283105D01*
X19003549Y52303000D01*
X18868451Y52303000D01*
X18666453Y52283105D01*
X18407264Y52204481D01*
X18168395Y52076802D01*
X17959024Y51904976D01*
X17787198Y51695605D01*
X17659519Y51456736D01*
X17580895Y51197547D01*
X17554347Y50928000D01*
X17580895Y50658453D01*
X17659519Y50399264D01*
X17787198Y50160395D01*
X17959024Y49951024D01*
X18168395Y49779198D01*
X18407264Y49651519D01*
X18666453Y49572895D01*
X18868451Y49553000D01*
X19003549Y49553000D01*
X19205547Y49572895D01*
X19464736Y49651519D01*
X19703605Y49779198D01*
X19912976Y49951024D01*
X20084802Y50160395D01*
X20206000Y50387139D01*
X20327198Y50160395D01*
X20499024Y49951024D01*
X20708395Y49779198D01*
X20947264Y49651519D01*
X21206453Y49572895D01*
X21408451Y49553000D01*
X21543549Y49553000D01*
X21745547Y49572895D01*
X22004736Y49651519D01*
X22243605Y49779198D01*
X22452976Y49951024D01*
X22624802Y50160395D01*
X22746000Y50387139D01*
X22867198Y50160395D01*
X23039024Y49951024D01*
X23248395Y49779198D01*
X23487264Y49651519D01*
X23746453Y49572895D01*
X23948451Y49553000D01*
X24083549Y49553000D01*
X24285547Y49572895D01*
X24544736Y49651519D01*
X24783605Y49779198D01*
X24992976Y49951024D01*
X25164802Y50160395D01*
X25286000Y50387139D01*
X25407198Y50160395D01*
X25579024Y49951024D01*
X25788395Y49779198D01*
X26027264Y49651519D01*
X26286453Y49572895D01*
X26488451Y49553000D01*
X26623549Y49553000D01*
X26825547Y49572895D01*
X27084736Y49651519D01*
X27323605Y49779198D01*
X27532976Y49951024D01*
X27704802Y50160395D01*
X27826000Y50387139D01*
X27947198Y50160395D01*
X28119024Y49951024D01*
X28328395Y49779198D01*
X28567264Y49651519D01*
X28826453Y49572895D01*
X29028451Y49553000D01*
X29163549Y49553000D01*
X29365547Y49572895D01*
X29624736Y49651519D01*
X29863605Y49779198D01*
X30072976Y49951024D01*
X30244802Y50160395D01*
X30366000Y50387139D01*
X30487198Y50160395D01*
X30659024Y49951024D01*
X30868395Y49779198D01*
X31107264Y49651519D01*
X31366453Y49572895D01*
X31568451Y49553000D01*
X31703549Y49553000D01*
X31905547Y49572895D01*
X32164736Y49651519D01*
X32403605Y49779198D01*
X32612976Y49951024D01*
X32784802Y50160395D01*
X32906000Y50387139D01*
X33027198Y50160395D01*
X33199024Y49951024D01*
X33408395Y49779198D01*
X33647264Y49651519D01*
X33906453Y49572895D01*
X34108451Y49553000D01*
X34243549Y49553000D01*
X34445547Y49572895D01*
X34704736Y49651519D01*
X34943605Y49779198D01*
X35152976Y49951024D01*
X35324802Y50160395D01*
X35446000Y50387139D01*
X35567198Y50160395D01*
X35739024Y49951024D01*
X35948395Y49779198D01*
X36187264Y49651519D01*
X36446453Y49572895D01*
X36648451Y49553000D01*
X36783549Y49553000D01*
X36985547Y49572895D01*
X37244736Y49651519D01*
X37304196Y49683301D01*
X36980895Y49360000D01*
X17784560Y49360000D01*
X17760000Y49362419D01*
X17735440Y49360000D01*
X17661983Y49352765D01*
X17567733Y49324175D01*
X17480871Y49277746D01*
X17404736Y49215264D01*
X17389080Y49196187D01*
X16842895Y48650000D01*
X10874549Y48650000D01*
X10849999Y48652418D01*
X10825449Y48650000D01*
X10825440Y48650000D01*
X10751983Y48642765D01*
X10657733Y48614175D01*
X10570871Y48567746D01*
X10494736Y48505264D01*
X10479080Y48486187D01*
X6363824Y44370929D01*
X6344736Y44355264D01*
X6282254Y44279129D01*
X6235825Y44192266D01*
X6222939Y44149786D01*
X6207235Y44098017D01*
X6197581Y44000000D01*
X450000Y44000000D01*
X450000Y51122521D01*
X13401000Y51122521D01*
X13401000Y50733479D01*
X13476898Y50351914D01*
X13625778Y49992487D01*
X13841917Y49669011D01*
X14117011Y49393917D01*
X14440487Y49177778D01*
X14799914Y49028898D01*
X15181479Y48953000D01*
X15570521Y48953000D01*
X15952086Y49028898D01*
X16311513Y49177778D01*
X16634989Y49393917D01*
X16910083Y49669011D01*
X17126222Y49992487D01*
X17275102Y50351914D01*
X17351000Y50733479D01*
X17351000Y51122521D01*
X17275102Y51504086D01*
X17126222Y51863513D01*
X16910083Y52186989D01*
X16634989Y52462083D01*
X16311513Y52678222D01*
X15952086Y52827102D01*
X15570521Y52903000D01*
X15181479Y52903000D01*
X14799914Y52827102D01*
X14440487Y52678222D01*
X14117011Y52462083D01*
X13841917Y52186989D01*
X13625778Y51863513D01*
X13476898Y51504086D01*
X13401000Y51122521D01*
X450000Y51122521D01*
X450000Y53150000D01*
X68400001Y53150000D01*
X68400001Y46397603D01*
X68400001Y46397603D01*
G37*
X68400001Y46397603D02*
X66824750Y46395000D01*
X66679000Y46249250D01*
X66679000Y44991000D01*
X66699000Y44991000D01*
X66699000Y44633000D01*
X66679000Y44633000D01*
X66679000Y43374750D01*
X66824750Y43229000D01*
X68400001Y43226397D01*
X68400001Y40873603D01*
X66824750Y40871000D01*
X66679000Y40725250D01*
X66679000Y39467000D01*
X66699000Y39467000D01*
X66699000Y39109000D01*
X66679000Y39109000D01*
X66679000Y37850750D01*
X66824750Y37705000D01*
X68400001Y37702397D01*
X68400000Y5386396D01*
X65997429Y2983824D01*
X65980264Y2969737D01*
X65966177Y2952572D01*
X65966172Y2952567D01*
X65924029Y2901216D01*
X65882243Y2823040D01*
X65856512Y2738215D01*
X65847824Y2650000D01*
X65850001Y2627896D01*
X65850000Y450000D01*
X450000Y450000D01*
X450000Y2862521D01*
X12131000Y2862521D01*
X12131000Y2473479D01*
X12206898Y2091914D01*
X12355778Y1732487D01*
X12571917Y1409011D01*
X12847011Y1133917D01*
X13170487Y917778D01*
X13529914Y768898D01*
X13911479Y693000D01*
X14300521Y693000D01*
X14682086Y768898D01*
X15041513Y917778D01*
X15364989Y1133917D01*
X15640083Y1409011D01*
X15856222Y1732487D01*
X16005102Y2091914D01*
X16081000Y2473479D01*
X16081000Y2862521D01*
X16005102Y3244086D01*
X15856222Y3603513D01*
X15640083Y3926989D01*
X15364989Y4202083D01*
X15041513Y4418222D01*
X14682086Y4567102D01*
X14300521Y4643000D01*
X13911479Y4643000D01*
X13529914Y4567102D01*
X13170487Y4418222D01*
X12847011Y4202083D01*
X12571917Y3926989D01*
X12355778Y3603513D01*
X12206898Y3244086D01*
X12131000Y2862521D01*
X450000Y2862521D01*
X450000Y11000788D01*
X4605723Y11000788D01*
X4710050Y10739960D01*
X4863258Y10504497D01*
X5059458Y10303448D01*
X5291111Y10144539D01*
X5549315Y10033877D01*
X5582789Y10023730D01*
X5802998Y10125255D01*
X5802998Y10073297D01*
X5741858Y10067275D01*
X5510945Y9997228D01*
X5298134Y9883478D01*
X5111603Y9730397D01*
X4958522Y9543866D01*
X4844772Y9331055D01*
X4774725Y9100142D01*
X4751073Y8860000D01*
X4774725Y8619858D01*
X4844772Y8388945D01*
X4958522Y8176134D01*
X5111603Y7989603D01*
X5298134Y7836522D01*
X5510945Y7722772D01*
X5741858Y7652725D01*
X5921822Y7635000D01*
X6042178Y7635000D01*
X6222142Y7652725D01*
X6453055Y7722772D01*
X6665866Y7836522D01*
X6852397Y7989603D01*
X7005478Y8176134D01*
X7119228Y8388945D01*
X7189275Y8619858D01*
X7212927Y8860000D01*
X7291073Y8860000D01*
X7314725Y8619858D01*
X7384772Y8388945D01*
X7498522Y8176134D01*
X7651603Y7989603D01*
X7838134Y7836522D01*
X8050945Y7722772D01*
X8281858Y7652725D01*
X8461822Y7635000D01*
X8582178Y7635000D01*
X8762142Y7652725D01*
X8993055Y7722772D01*
X9205866Y7836522D01*
X9392397Y7989603D01*
X9545478Y8176134D01*
X9659228Y8388945D01*
X9729275Y8619858D01*
X9752927Y8860000D01*
X9831073Y8860000D01*
X9854725Y8619858D01*
X9924772Y8388945D01*
X10038522Y8176134D01*
X10191603Y7989603D01*
X10378134Y7836522D01*
X10590945Y7722772D01*
X10821858Y7652725D01*
X11001822Y7635000D01*
X11122178Y7635000D01*
X11302142Y7652725D01*
X11533055Y7722772D01*
X11745866Y7836522D01*
X11932397Y7989603D01*
X12085478Y8176134D01*
X12199228Y8388945D01*
X12269275Y8619858D01*
X12275297Y8680998D01*
X12325966Y8680998D01*
X12225723Y8460788D01*
X12330050Y8199960D01*
X12483258Y7964497D01*
X12679458Y7763448D01*
X12911111Y7604539D01*
X13169315Y7493877D01*
X13202789Y7483730D01*
X13423000Y7585256D01*
X13423000Y8681000D01*
X13403000Y8681000D01*
X13403000Y9039000D01*
X13423000Y9039000D01*
X13423000Y9059000D01*
X13781000Y9059000D01*
X13781000Y9039000D01*
X13801000Y9039000D01*
X13801000Y8681000D01*
X13781000Y8681000D01*
X13781000Y7585256D01*
X14001211Y7483730D01*
X14034685Y7493877D01*
X14292889Y7604539D01*
X14524542Y7763448D01*
X14720742Y7964497D01*
X14873950Y8199960D01*
X14978277Y8460788D01*
X14878034Y8680998D01*
X14928703Y8680998D01*
X14934725Y8619858D01*
X15004772Y8388945D01*
X15118522Y8176134D01*
X15271603Y7989603D01*
X15458134Y7836522D01*
X15670945Y7722772D01*
X15901858Y7652725D01*
X16081822Y7635000D01*
X16202178Y7635000D01*
X16382142Y7652725D01*
X16613055Y7722772D01*
X16825866Y7836522D01*
X17012397Y7989603D01*
X17165478Y8176134D01*
X17279228Y8388945D01*
X17349275Y8619858D01*
X17355297Y8680998D01*
X17405966Y8680998D01*
X17305723Y8460788D01*
X17410050Y8199960D01*
X17563258Y7964497D01*
X17759458Y7763448D01*
X17991111Y7604539D01*
X18249315Y7493877D01*
X18282789Y7483730D01*
X18503000Y7585256D01*
X18503000Y8681000D01*
X18483000Y8681000D01*
X18483000Y9039000D01*
X18503000Y9039000D01*
X18503000Y9059000D01*
X18861000Y9059000D01*
X18861000Y9039000D01*
X18881000Y9039000D01*
X18881000Y8681000D01*
X18861000Y8681000D01*
X18861000Y7585256D01*
X19081211Y7483730D01*
X19114685Y7493877D01*
X19372889Y7604539D01*
X19604542Y7763448D01*
X19800742Y7964497D01*
X19953950Y8199960D01*
X20058277Y8460788D01*
X19958034Y8680998D01*
X20008703Y8680998D01*
X20014725Y8619858D01*
X20084772Y8388945D01*
X20198522Y8176134D01*
X20351603Y7989603D01*
X20538134Y7836522D01*
X20750945Y7722772D01*
X20981858Y7652725D01*
X21161822Y7635000D01*
X21282178Y7635000D01*
X21462142Y7652725D01*
X21693055Y7722772D01*
X21905866Y7836522D01*
X22092397Y7989603D01*
X22245478Y8176134D01*
X22359228Y8388945D01*
X22429275Y8619858D01*
X22452927Y8860000D01*
X22429275Y9100142D01*
X22359228Y9331055D01*
X22245478Y9543866D01*
X22092397Y9730397D01*
X21905866Y9883478D01*
X21693055Y9997228D01*
X21462142Y10067275D01*
X21282178Y10085000D01*
X21161822Y10085000D01*
X20981858Y10067275D01*
X20750945Y9997228D01*
X20538134Y9883478D01*
X20351603Y9730397D01*
X20198522Y9543866D01*
X20084772Y9331055D01*
X20014725Y9100142D01*
X20008703Y9039002D01*
X19958034Y9039002D01*
X20058277Y9259212D01*
X19953950Y9520040D01*
X19800742Y9755503D01*
X19604542Y9956552D01*
X19372889Y10115461D01*
X19114685Y10226123D01*
X19081211Y10236270D01*
X18861002Y10134745D01*
X18861002Y10186703D01*
X18922142Y10192725D01*
X19153055Y10262772D01*
X19365866Y10376522D01*
X19552397Y10529603D01*
X19705478Y10716134D01*
X19819228Y10928945D01*
X19889275Y11159858D01*
X19912927Y11400000D01*
X19991073Y11400000D01*
X20014725Y11159858D01*
X20084772Y10928945D01*
X20198522Y10716134D01*
X20351603Y10529603D01*
X20538134Y10376522D01*
X20750945Y10262772D01*
X20981858Y10192725D01*
X21161822Y10175000D01*
X21282178Y10175000D01*
X21462142Y10192725D01*
X21693055Y10262772D01*
X21905866Y10376522D01*
X22092397Y10529603D01*
X22245478Y10716134D01*
X22359228Y10928945D01*
X22429275Y11159858D01*
X22435297Y11220998D01*
X22485966Y11220998D01*
X22385723Y11000788D01*
X22490050Y10739960D01*
X22643258Y10504497D01*
X22839458Y10303448D01*
X23071111Y10144539D01*
X23329315Y10033877D01*
X23362789Y10023730D01*
X23582998Y10125255D01*
X23582998Y10073297D01*
X23521858Y10067275D01*
X23290945Y9997228D01*
X23078134Y9883478D01*
X22891603Y9730397D01*
X22738522Y9543866D01*
X22624772Y9331055D01*
X22554725Y9100142D01*
X22531073Y8860000D01*
X22554725Y8619858D01*
X22624772Y8388945D01*
X22738522Y8176134D01*
X22891603Y7989603D01*
X23078134Y7836522D01*
X23290945Y7722772D01*
X23521858Y7652725D01*
X23701822Y7635000D01*
X23822178Y7635000D01*
X24002142Y7652725D01*
X24233055Y7722772D01*
X24445866Y7836522D01*
X24632397Y7989603D01*
X24785478Y8176134D01*
X24899228Y8388945D01*
X24969275Y8619858D01*
X24992927Y8860000D01*
X24969275Y9100142D01*
X24899228Y9331055D01*
X24785478Y9543866D01*
X24632397Y9730397D01*
X24445866Y9883478D01*
X24233055Y9997228D01*
X24002142Y10067275D01*
X23941002Y10073297D01*
X23941002Y10125255D01*
X24161211Y10023730D01*
X24194685Y10033877D01*
X24452889Y10144539D01*
X24550000Y10211155D01*
X24550000Y10136560D01*
X24547581Y10112000D01*
X24550000Y10087441D01*
X24557235Y10013984D01*
X24585825Y9919734D01*
X24632254Y9832871D01*
X24694736Y9756736D01*
X24713824Y9741071D01*
X25155245Y9299649D01*
X25094725Y9100142D01*
X25071073Y8860000D01*
X25094725Y8619858D01*
X25164772Y8388945D01*
X25278522Y8176134D01*
X25431603Y7989603D01*
X25618134Y7836522D01*
X25830945Y7722772D01*
X26061858Y7652725D01*
X26241822Y7635000D01*
X26362178Y7635000D01*
X26542142Y7652725D01*
X26773055Y7722772D01*
X26985866Y7836522D01*
X27172397Y7989603D01*
X27325478Y8176134D01*
X27439228Y8388945D01*
X27509275Y8619858D01*
X27532927Y8860000D01*
X27509275Y9100142D01*
X27439228Y9331055D01*
X27325478Y9543866D01*
X27172397Y9730397D01*
X26985866Y9883478D01*
X26773055Y9997228D01*
X26542142Y10067275D01*
X26362178Y10085000D01*
X26241822Y10085000D01*
X26061858Y10067275D01*
X25862351Y10006755D01*
X25550000Y10319105D01*
X25550000Y10432438D01*
X25618134Y10376522D01*
X25830945Y10262772D01*
X26061858Y10192725D01*
X26241822Y10175000D01*
X26362178Y10175000D01*
X26542142Y10192725D01*
X26773055Y10262772D01*
X26985866Y10376522D01*
X27172397Y10529603D01*
X27325478Y10716134D01*
X27439228Y10928945D01*
X27509275Y11159858D01*
X27532927Y11400000D01*
X27509275Y11640142D01*
X27448755Y11839649D01*
X30245001Y14635894D01*
X30245001Y13510108D01*
X29281649Y12546755D01*
X29082142Y12607275D01*
X28902178Y12625000D01*
X28781822Y12625000D01*
X28601858Y12607275D01*
X28370945Y12537228D01*
X28158134Y12423478D01*
X27971603Y12270397D01*
X27818522Y12083866D01*
X27704772Y11871055D01*
X27634725Y11640142D01*
X27611073Y11400000D01*
X27634725Y11159858D01*
X27704772Y10928945D01*
X27818522Y10716134D01*
X27971603Y10529603D01*
X28158134Y10376522D01*
X28370945Y10262772D01*
X28601858Y10192725D01*
X28781822Y10175000D01*
X28902178Y10175000D01*
X29082142Y10192725D01*
X29313055Y10262772D01*
X29525866Y10376522D01*
X29712397Y10529603D01*
X29865478Y10716134D01*
X29979228Y10928945D01*
X30049275Y11159858D01*
X30072927Y11400000D01*
X30049275Y11640142D01*
X29988755Y11839649D01*
X30882001Y12732894D01*
X30882001Y12521757D01*
X30698134Y12423478D01*
X30511603Y12270397D01*
X30358522Y12083866D01*
X30244772Y11871055D01*
X30174725Y11640142D01*
X30151073Y11400000D01*
X30174725Y11159858D01*
X30244772Y10928945D01*
X30358522Y10716134D01*
X30511603Y10529603D01*
X30698134Y10376522D01*
X30910945Y10262772D01*
X31141858Y10192725D01*
X31202998Y10186703D01*
X31202998Y10134745D01*
X30982789Y10236270D01*
X30949315Y10226123D01*
X30691111Y10115461D01*
X30459458Y9956552D01*
X30263258Y9755503D01*
X30110050Y9520040D01*
X30005723Y9259212D01*
X30105966Y9039002D01*
X30055297Y9039002D01*
X30049275Y9100142D01*
X29979228Y9331055D01*
X29865478Y9543866D01*
X29712397Y9730397D01*
X29525866Y9883478D01*
X29313055Y9997228D01*
X29082142Y10067275D01*
X28902178Y10085000D01*
X28781822Y10085000D01*
X28601858Y10067275D01*
X28370945Y9997228D01*
X28158134Y9883478D01*
X27971603Y9730397D01*
X27818522Y9543866D01*
X27704772Y9331055D01*
X27634725Y9100142D01*
X27611073Y8860000D01*
X27634725Y8619858D01*
X27704772Y8388945D01*
X27818522Y8176134D01*
X27971603Y7989603D01*
X28158134Y7836522D01*
X28370945Y7722772D01*
X28601858Y7652725D01*
X28781822Y7635000D01*
X28902178Y7635000D01*
X29082142Y7652725D01*
X29313055Y7722772D01*
X29525866Y7836522D01*
X29712397Y7989603D01*
X29865478Y8176134D01*
X29979228Y8388945D01*
X30049275Y8619858D01*
X30055297Y8680998D01*
X30105966Y8680998D01*
X30005723Y8460788D01*
X30110050Y8199960D01*
X30263258Y7964497D01*
X30459458Y7763448D01*
X30691111Y7604539D01*
X30949315Y7493877D01*
X30982789Y7483730D01*
X31203000Y7585256D01*
X31203000Y8681000D01*
X31183000Y8681000D01*
X31183000Y9039000D01*
X31203000Y9039000D01*
X31203000Y9059000D01*
X31561000Y9059000D01*
X31561000Y9039000D01*
X31581000Y9039000D01*
X31581000Y8681000D01*
X31561000Y8681000D01*
X31561000Y7585256D01*
X31781211Y7483730D01*
X31814685Y7493877D01*
X32072889Y7604539D01*
X32304542Y7763448D01*
X32500742Y7964497D01*
X32653950Y8199960D01*
X32758277Y8460788D01*
X32658034Y8680998D01*
X32708703Y8680998D01*
X32714725Y8619858D01*
X32784772Y8388945D01*
X32898522Y8176134D01*
X33051603Y7989603D01*
X33238134Y7836522D01*
X33450945Y7722772D01*
X33681858Y7652725D01*
X33861822Y7635000D01*
X33982178Y7635000D01*
X34162142Y7652725D01*
X34393055Y7722772D01*
X34605866Y7836522D01*
X34650001Y7872742D01*
X34650001Y7327018D01*
X34647340Y7300000D01*
X34650001Y7272982D01*
X34657959Y7192181D01*
X34664107Y7171914D01*
X34689409Y7088506D01*
X34740479Y6992958D01*
X34791987Y6930196D01*
X34791993Y6930190D01*
X34809211Y6909210D01*
X34830191Y6891992D01*
X35146000Y6576182D01*
X35146001Y3933115D01*
X34928395Y3816802D01*
X34719024Y3644976D01*
X34547198Y3435605D01*
X34426000Y3208861D01*
X34304802Y3435605D01*
X34132976Y3644976D01*
X33923605Y3816802D01*
X33684736Y3944481D01*
X33425547Y4023105D01*
X33223549Y4043000D01*
X33088451Y4043000D01*
X32886453Y4023105D01*
X32627264Y3944481D01*
X32388395Y3816802D01*
X32179024Y3644976D01*
X32007198Y3435605D01*
X31886000Y3208861D01*
X31764802Y3435605D01*
X31592976Y3644976D01*
X31383605Y3816802D01*
X31144736Y3944481D01*
X30885547Y4023105D01*
X30683549Y4043000D01*
X30548451Y4043000D01*
X30346453Y4023105D01*
X30087264Y3944481D01*
X29848395Y3816802D01*
X29639024Y3644976D01*
X29467198Y3435605D01*
X29452814Y3408695D01*
X29452814Y3668000D01*
X29445574Y3741513D01*
X29424131Y3812200D01*
X29389309Y3877347D01*
X29342448Y3934448D01*
X29285347Y3981309D01*
X29220200Y4016131D01*
X29149513Y4037574D01*
X29076000Y4044814D01*
X27076000Y4044814D01*
X27002487Y4037574D01*
X26931800Y4016131D01*
X26866653Y3981309D01*
X26809552Y3934448D01*
X26762691Y3877347D01*
X26727869Y3812200D01*
X26706426Y3741513D01*
X26699186Y3668000D01*
X26699186Y1668000D01*
X26706426Y1594487D01*
X26727869Y1523800D01*
X26762691Y1458653D01*
X26809552Y1401552D01*
X26866653Y1354691D01*
X26931800Y1319869D01*
X27002487Y1298426D01*
X27076000Y1291186D01*
X29076000Y1291186D01*
X29149513Y1298426D01*
X29220200Y1319869D01*
X29285347Y1354691D01*
X29342448Y1401552D01*
X29389309Y1458653D01*
X29424131Y1523800D01*
X29445574Y1594487D01*
X29452814Y1668000D01*
X29452814Y1927305D01*
X29467198Y1900395D01*
X29639024Y1691024D01*
X29848395Y1519198D01*
X30087264Y1391519D01*
X30346453Y1312895D01*
X30548451Y1293000D01*
X30683549Y1293000D01*
X30885547Y1312895D01*
X31144736Y1391519D01*
X31383605Y1519198D01*
X31592976Y1691024D01*
X31764802Y1900395D01*
X31886000Y2127139D01*
X32007198Y1900395D01*
X32179024Y1691024D01*
X32388395Y1519198D01*
X32627264Y1391519D01*
X32886453Y1312895D01*
X33088451Y1293000D01*
X33223549Y1293000D01*
X33425547Y1312895D01*
X33684736Y1391519D01*
X33923605Y1519198D01*
X34132976Y1691024D01*
X34304802Y1900395D01*
X34426000Y2127139D01*
X34547198Y1900395D01*
X34719024Y1691024D01*
X34928395Y1519198D01*
X35167264Y1391519D01*
X35426453Y1312895D01*
X35628451Y1293000D01*
X35763549Y1293000D01*
X35965547Y1312895D01*
X36224736Y1391519D01*
X36463605Y1519198D01*
X36672976Y1691024D01*
X36844802Y1900395D01*
X36966000Y2127139D01*
X37087198Y1900395D01*
X37259024Y1691024D01*
X37468395Y1519198D01*
X37707264Y1391519D01*
X37966453Y1312895D01*
X38168451Y1293000D01*
X38303549Y1293000D01*
X38505547Y1312895D01*
X38764736Y1391519D01*
X39003605Y1519198D01*
X39212976Y1691024D01*
X39384802Y1900395D01*
X39390544Y1911138D01*
X39528449Y1693563D01*
X39742524Y1468901D01*
X39996315Y1290320D01*
X40280068Y1164683D01*
X40353156Y1142519D01*
X40597000Y1241940D01*
X40597000Y2489000D01*
X40955000Y2489000D01*
X40955000Y1241940D01*
X41198844Y1142519D01*
X41271932Y1164683D01*
X41555685Y1290320D01*
X41809476Y1468901D01*
X42023551Y1693563D01*
X42046000Y1728981D01*
X42068449Y1693563D01*
X42282524Y1468901D01*
X42536315Y1290320D01*
X42820068Y1164683D01*
X42893156Y1142519D01*
X43137000Y1241940D01*
X43137000Y2489000D01*
X40955000Y2489000D01*
X40597000Y2489000D01*
X40577000Y2489000D01*
X40577000Y2847000D01*
X40597000Y2847000D01*
X40597000Y4094060D01*
X40955000Y4094060D01*
X40955000Y2847000D01*
X43137000Y2847000D01*
X43137000Y4094060D01*
X43495000Y4094060D01*
X43495000Y2847000D01*
X43515000Y2847000D01*
X43515000Y2489000D01*
X43495000Y2489000D01*
X43495000Y1241940D01*
X43738844Y1142519D01*
X43811932Y1164683D01*
X44095685Y1290320D01*
X44349476Y1468901D01*
X44563551Y1693563D01*
X44701456Y1911138D01*
X44707198Y1900395D01*
X44879024Y1691024D01*
X45088395Y1519198D01*
X45327264Y1391519D01*
X45586453Y1312895D01*
X45788451Y1293000D01*
X45923549Y1293000D01*
X46125547Y1312895D01*
X46384736Y1391519D01*
X46623605Y1519198D01*
X46832976Y1691024D01*
X47004802Y1900395D01*
X47132481Y2139264D01*
X47211105Y2398453D01*
X47237653Y2668000D01*
X49554347Y2668000D01*
X49580895Y2398453D01*
X49659519Y2139264D01*
X49787198Y1900395D01*
X49959024Y1691024D01*
X50168395Y1519198D01*
X50407264Y1391519D01*
X50666453Y1312895D01*
X50868451Y1293000D01*
X51003549Y1293000D01*
X51205547Y1312895D01*
X51464736Y1391519D01*
X51703605Y1519198D01*
X51912976Y1691024D01*
X52084802Y1900395D01*
X52206000Y2127139D01*
X52327198Y1900395D01*
X52499024Y1691024D01*
X52708395Y1519198D01*
X52947264Y1391519D01*
X53206453Y1312895D01*
X53408451Y1293000D01*
X53543549Y1293000D01*
X53745547Y1312895D01*
X54004736Y1391519D01*
X54243605Y1519198D01*
X54452976Y1691024D01*
X54624802Y1900395D01*
X54746000Y2127139D01*
X54867198Y1900395D01*
X55039024Y1691024D01*
X55248395Y1519198D01*
X55487264Y1391519D01*
X55746453Y1312895D01*
X55948451Y1293000D01*
X56083549Y1293000D01*
X56285547Y1312895D01*
X56544736Y1391519D01*
X56783605Y1519198D01*
X56992976Y1691024D01*
X57164802Y1900395D01*
X57286000Y2127139D01*
X57407198Y1900395D01*
X57579024Y1691024D01*
X57788395Y1519198D01*
X58027264Y1391519D01*
X58286453Y1312895D01*
X58488451Y1293000D01*
X58623549Y1293000D01*
X58825547Y1312895D01*
X59084736Y1391519D01*
X59323605Y1519198D01*
X59532976Y1691024D01*
X59704802Y1900395D01*
X59826000Y2127139D01*
X59947198Y1900395D01*
X60119024Y1691024D01*
X60328395Y1519198D01*
X60567264Y1391519D01*
X60826453Y1312895D01*
X61028451Y1293000D01*
X61163549Y1293000D01*
X61365547Y1312895D01*
X61624736Y1391519D01*
X61863605Y1519198D01*
X62072976Y1691024D01*
X62244802Y1900395D01*
X62366000Y2127139D01*
X62487198Y1900395D01*
X62659024Y1691024D01*
X62868395Y1519198D01*
X63107264Y1391519D01*
X63366453Y1312895D01*
X63568451Y1293000D01*
X63703549Y1293000D01*
X63905547Y1312895D01*
X64164736Y1391519D01*
X64403605Y1519198D01*
X64612976Y1691024D01*
X64784802Y1900395D01*
X64912481Y2139264D01*
X64991105Y2398453D01*
X65017653Y2668000D01*
X64991105Y2937547D01*
X64912481Y3196736D01*
X64784802Y3435605D01*
X64612976Y3644976D01*
X64403605Y3816802D01*
X64164736Y3944481D01*
X63905547Y4023105D01*
X63703549Y4043000D01*
X63568451Y4043000D01*
X63366453Y4023105D01*
X63107264Y3944481D01*
X62868395Y3816802D01*
X62659024Y3644976D01*
X62487198Y3435605D01*
X62366000Y3208861D01*
X62244802Y3435605D01*
X62072976Y3644976D01*
X61863605Y3816802D01*
X61624736Y3944481D01*
X61365547Y4023105D01*
X61163549Y4043000D01*
X61028451Y4043000D01*
X60826453Y4023105D01*
X60567264Y3944481D01*
X60328395Y3816802D01*
X60119024Y3644976D01*
X59947198Y3435605D01*
X59826000Y3208861D01*
X59704802Y3435605D01*
X59532976Y3644976D01*
X59323605Y3816802D01*
X59084736Y3944481D01*
X58825547Y4023105D01*
X58623549Y4043000D01*
X58488451Y4043000D01*
X58286453Y4023105D01*
X58027264Y3944481D01*
X57788395Y3816802D01*
X57579024Y3644976D01*
X57407198Y3435605D01*
X57286000Y3208861D01*
X57164802Y3435605D01*
X56992976Y3644976D01*
X56783605Y3816802D01*
X56544736Y3944481D01*
X56285547Y4023105D01*
X56083549Y4043000D01*
X55948451Y4043000D01*
X55746453Y4023105D01*
X55487264Y3944481D01*
X55248395Y3816802D01*
X55039024Y3644976D01*
X54867198Y3435605D01*
X54746000Y3208861D01*
X54624802Y3435605D01*
X54452976Y3644976D01*
X54243605Y3816802D01*
X54004736Y3944481D01*
X53745547Y4023105D01*
X53543549Y4043000D01*
X53408451Y4043000D01*
X53206453Y4023105D01*
X52947264Y3944481D01*
X52708395Y3816802D01*
X52499024Y3644976D01*
X52327198Y3435605D01*
X52206000Y3208861D01*
X52084802Y3435605D01*
X51912976Y3644976D01*
X51703605Y3816802D01*
X51464736Y3944481D01*
X51205547Y4023105D01*
X51003549Y4043000D01*
X50868451Y4043000D01*
X50666453Y4023105D01*
X50407264Y3944481D01*
X50168395Y3816802D01*
X49959024Y3644976D01*
X49787198Y3435605D01*
X49659519Y3196736D01*
X49580895Y2937547D01*
X49554347Y2668000D01*
X47237653Y2668000D01*
X47211105Y2937547D01*
X47132481Y3196736D01*
X47004802Y3435605D01*
X46832976Y3644976D01*
X46623605Y3816802D01*
X46384736Y3944481D01*
X46125547Y4023105D01*
X45923549Y4043000D01*
X45788451Y4043000D01*
X45586453Y4023105D01*
X45327264Y3944481D01*
X45088395Y3816802D01*
X44879024Y3644976D01*
X44707198Y3435605D01*
X44701456Y3424862D01*
X44563551Y3642437D01*
X44349476Y3867099D01*
X44095685Y4045680D01*
X43811932Y4171317D01*
X43738844Y4193481D01*
X43495000Y4094060D01*
X43137000Y4094060D01*
X42893156Y4193481D01*
X42820068Y4171317D01*
X42536315Y4045680D01*
X42282524Y3867099D01*
X42068449Y3642437D01*
X42046000Y3607019D01*
X42023551Y3642437D01*
X41809476Y3867099D01*
X41555685Y4045680D01*
X41271932Y4171317D01*
X41198844Y4193481D01*
X40955000Y4094060D01*
X40597000Y4094060D01*
X40353156Y4193481D01*
X40280068Y4171317D01*
X39996315Y4045680D01*
X39742524Y3867099D01*
X39528449Y3642437D01*
X39390544Y3424862D01*
X39384802Y3435605D01*
X39212976Y3644976D01*
X39011000Y3810733D01*
X39011000Y3864986D01*
X39521015Y4375000D01*
X50161937Y4375000D01*
X50200000Y4371251D01*
X50238063Y4375000D01*
X50238065Y4375000D01*
X50351926Y4386214D01*
X50498014Y4430530D01*
X50632650Y4502494D01*
X50750659Y4599341D01*
X50774932Y4628918D01*
X52223088Y6077073D01*
X52252659Y6101341D01*
X52314658Y6176888D01*
X52349506Y6219349D01*
X52421469Y6353985D01*
X52421470Y6353986D01*
X52465786Y6500074D01*
X52477000Y6613935D01*
X52477000Y6613937D01*
X52480749Y6652000D01*
X52477000Y6690063D01*
X52477000Y7911313D01*
X52572397Y7989603D01*
X52650687Y8085000D01*
X53293313Y8085000D01*
X53371603Y7989603D01*
X53558134Y7836522D01*
X53770945Y7722772D01*
X54001858Y7652725D01*
X54181822Y7635000D01*
X54302178Y7635000D01*
X54482142Y7652725D01*
X54713055Y7722772D01*
X54925866Y7836522D01*
X55055027Y7942521D01*
X64201000Y7942521D01*
X64201000Y7553479D01*
X64276898Y7171914D01*
X64425778Y6812487D01*
X64641917Y6489011D01*
X64917011Y6213917D01*
X65240487Y5997778D01*
X65599914Y5848898D01*
X65981479Y5773000D01*
X66370521Y5773000D01*
X66752086Y5848898D01*
X67111513Y5997778D01*
X67434989Y6213917D01*
X67710083Y6489011D01*
X67926222Y6812487D01*
X68075102Y7171914D01*
X68151000Y7553479D01*
X68151000Y7942521D01*
X68075102Y8324086D01*
X67926222Y8683513D01*
X67710083Y9006989D01*
X67434989Y9282083D01*
X67111513Y9498222D01*
X66752086Y9647102D01*
X66370521Y9723000D01*
X65981479Y9723000D01*
X65599914Y9647102D01*
X65240487Y9498222D01*
X64917011Y9282083D01*
X64641917Y9006989D01*
X64425778Y8683513D01*
X64276898Y8324086D01*
X64201000Y7942521D01*
X55055027Y7942521D01*
X55112397Y7989603D01*
X55265478Y8176134D01*
X55379228Y8388945D01*
X55449275Y8619858D01*
X55472927Y8860000D01*
X55449275Y9100142D01*
X55379228Y9331055D01*
X55265478Y9543866D01*
X55112397Y9730397D01*
X54925866Y9883478D01*
X54713055Y9997228D01*
X54482142Y10067275D01*
X54302178Y10085000D01*
X54181822Y10085000D01*
X54001858Y10067275D01*
X53770945Y9997228D01*
X53558134Y9883478D01*
X53371603Y9730397D01*
X53293313Y9635000D01*
X52650687Y9635000D01*
X52572397Y9730397D01*
X52385866Y9883478D01*
X52173055Y9997228D01*
X51942142Y10067275D01*
X51762178Y10085000D01*
X51641822Y10085000D01*
X51461858Y10067275D01*
X51230945Y9997228D01*
X51018134Y9883478D01*
X50831603Y9730397D01*
X50678522Y9543866D01*
X50564772Y9331055D01*
X50494725Y9100142D01*
X50488703Y9039002D01*
X50438034Y9039002D01*
X50538277Y9259212D01*
X50433950Y9520040D01*
X50280742Y9755503D01*
X50084542Y9956552D01*
X49852889Y10115461D01*
X49594685Y10226123D01*
X49561211Y10236270D01*
X49341002Y10134745D01*
X49341002Y10186703D01*
X49402142Y10192725D01*
X49633055Y10262772D01*
X49845866Y10376522D01*
X50032397Y10529603D01*
X50185478Y10716134D01*
X50299228Y10928945D01*
X50369275Y11159858D01*
X50392927Y11400000D01*
X50471073Y11400000D01*
X50494725Y11159858D01*
X50564772Y10928945D01*
X50678522Y10716134D01*
X50831603Y10529603D01*
X51018134Y10376522D01*
X51230945Y10262772D01*
X51461858Y10192725D01*
X51641822Y10175000D01*
X51762178Y10175000D01*
X51942142Y10192725D01*
X52173055Y10262772D01*
X52385866Y10376522D01*
X52572397Y10529603D01*
X52725478Y10716134D01*
X52839228Y10928945D01*
X52909275Y11159858D01*
X52932927Y11400000D01*
X52909275Y11640142D01*
X52839228Y11871055D01*
X52725478Y12083866D01*
X52589137Y12250000D01*
X53015186Y12250000D01*
X53015186Y10550000D01*
X53022426Y10476487D01*
X53043869Y10405800D01*
X53078691Y10340653D01*
X53125552Y10283552D01*
X53182653Y10236691D01*
X53247800Y10201869D01*
X53318487Y10180426D01*
X53392000Y10173186D01*
X55092000Y10173186D01*
X55165513Y10180426D01*
X55236200Y10201869D01*
X55301347Y10236691D01*
X55358448Y10283552D01*
X55405309Y10340653D01*
X55440131Y10405800D01*
X55461574Y10476487D01*
X55468814Y10550000D01*
X55468814Y12250000D01*
X55461574Y12323513D01*
X55440131Y12394200D01*
X55405309Y12459347D01*
X55358448Y12516448D01*
X55301347Y12563309D01*
X55236200Y12598131D01*
X55165513Y12619574D01*
X55092000Y12626814D01*
X53392000Y12626814D01*
X53318487Y12619574D01*
X53247800Y12598131D01*
X53182653Y12563309D01*
X53125552Y12516448D01*
X53078691Y12459347D01*
X53043869Y12394200D01*
X53022426Y12323513D01*
X53015186Y12250000D01*
X52589137Y12250000D01*
X52572397Y12270397D01*
X52385866Y12423478D01*
X52173055Y12537228D01*
X51942142Y12607275D01*
X51762178Y12625000D01*
X51641822Y12625000D01*
X51461858Y12607275D01*
X51230945Y12537228D01*
X51018134Y12423478D01*
X50831603Y12270397D01*
X50678522Y12083866D01*
X50564772Y11871055D01*
X50494725Y11640142D01*
X50471073Y11400000D01*
X50392927Y11400000D01*
X50369275Y11640142D01*
X50299228Y11871055D01*
X50185478Y12083866D01*
X50032397Y12270397D01*
X49845866Y12423478D01*
X49633055Y12537228D01*
X49402142Y12607275D01*
X49222178Y12625000D01*
X49101822Y12625000D01*
X48921858Y12607275D01*
X48690945Y12537228D01*
X48478134Y12423478D01*
X48291603Y12270397D01*
X48138522Y12083866D01*
X48024772Y11871055D01*
X47954725Y11640142D01*
X47931073Y11400000D01*
X47954725Y11159858D01*
X48024772Y10928945D01*
X48138522Y10716134D01*
X48291603Y10529603D01*
X48478134Y10376522D01*
X48690945Y10262772D01*
X48921858Y10192725D01*
X48982998Y10186703D01*
X48982998Y10134745D01*
X48762789Y10236270D01*
X48729315Y10226123D01*
X48471111Y10115461D01*
X48239458Y9956552D01*
X48043258Y9755503D01*
X47890050Y9520040D01*
X47785723Y9259212D01*
X47885966Y9039002D01*
X47835297Y9039002D01*
X47829275Y9100142D01*
X47759228Y9331055D01*
X47645478Y9543866D01*
X47492397Y9730397D01*
X47305866Y9883478D01*
X47093055Y9997228D01*
X46862142Y10067275D01*
X46682178Y10085000D01*
X46561822Y10085000D01*
X46381858Y10067275D01*
X46150945Y9997228D01*
X45938134Y9883478D01*
X45751603Y9730397D01*
X45598522Y9543866D01*
X45484772Y9331055D01*
X45414725Y9100142D01*
X45391073Y8860000D01*
X45414725Y8619858D01*
X45484772Y8388945D01*
X45598522Y8176134D01*
X45751603Y7989603D01*
X45938134Y7836522D01*
X46150945Y7722772D01*
X46381858Y7652725D01*
X46561822Y7635000D01*
X46682178Y7635000D01*
X46862142Y7652725D01*
X47093055Y7722772D01*
X47305866Y7836522D01*
X47492397Y7989603D01*
X47645478Y8176134D01*
X47759228Y8388945D01*
X47829275Y8619858D01*
X47835297Y8680998D01*
X47885966Y8680998D01*
X47785723Y8460788D01*
X47890050Y8199960D01*
X48043258Y7964497D01*
X48239458Y7763448D01*
X48471111Y7604539D01*
X48729315Y7493877D01*
X48762789Y7483730D01*
X48983000Y7585256D01*
X48983000Y8681000D01*
X48963000Y8681000D01*
X48963000Y9039000D01*
X48983000Y9039000D01*
X48983000Y9059000D01*
X49341000Y9059000D01*
X49341000Y9039000D01*
X49361000Y9039000D01*
X49361000Y8681000D01*
X49341000Y8681000D01*
X49341000Y7585256D01*
X49561211Y7483730D01*
X49594685Y7493877D01*
X49852889Y7604539D01*
X50084542Y7763448D01*
X50280742Y7964497D01*
X50433950Y8199960D01*
X50538277Y8460788D01*
X50438034Y8680998D01*
X50488703Y8680998D01*
X50494725Y8619858D01*
X50564772Y8388945D01*
X50678522Y8176134D01*
X50831603Y7989603D01*
X50927001Y7911313D01*
X50927000Y6973015D01*
X49878986Y5925000D01*
X39238063Y5925000D01*
X39200000Y5928749D01*
X39161937Y5925000D01*
X39161935Y5925000D01*
X39048074Y5913786D01*
X38901986Y5869470D01*
X38839313Y5835971D01*
X38767349Y5797506D01*
X38737489Y5773000D01*
X38649341Y5700659D01*
X38625072Y5671087D01*
X37714914Y4760928D01*
X37685342Y4736659D01*
X37630956Y4670389D01*
X37588494Y4618650D01*
X37516531Y4484014D01*
X37472215Y4337926D01*
X37457251Y4186000D01*
X37461001Y4147928D01*
X37461001Y3810734D01*
X37259024Y3644976D01*
X37087198Y3435605D01*
X36966000Y3208861D01*
X36844802Y3435605D01*
X36672976Y3644976D01*
X36463605Y3816802D01*
X36246000Y3933115D01*
X36246000Y6776992D01*
X36248660Y6804000D01*
X36246000Y6831008D01*
X36246000Y6831018D01*
X36238042Y6911819D01*
X36206592Y7015494D01*
X36155521Y7111042D01*
X36104013Y7173805D01*
X36104008Y7173810D01*
X36086790Y7194790D01*
X36065809Y7212009D01*
X35750000Y7527817D01*
X35750000Y7859611D01*
X35778134Y7836522D01*
X35990945Y7722772D01*
X36221858Y7652725D01*
X36401822Y7635000D01*
X36522178Y7635000D01*
X36702142Y7652725D01*
X36933055Y7722772D01*
X37145866Y7836522D01*
X37332397Y7989603D01*
X37485478Y8176134D01*
X37599228Y8388945D01*
X37669275Y8619858D01*
X37675297Y8680998D01*
X37725966Y8680998D01*
X37625723Y8460788D01*
X37730050Y8199960D01*
X37883258Y7964497D01*
X38079458Y7763448D01*
X38311111Y7604539D01*
X38569315Y7493877D01*
X38602789Y7483730D01*
X38823000Y7585256D01*
X38823000Y8681000D01*
X38803000Y8681000D01*
X38803000Y9039000D01*
X38823000Y9039000D01*
X38823000Y9059000D01*
X39181000Y9059000D01*
X39181000Y9039000D01*
X39201000Y9039000D01*
X39201000Y8681000D01*
X39181000Y8681000D01*
X39181000Y7585256D01*
X39401211Y7483730D01*
X39434685Y7493877D01*
X39692889Y7604539D01*
X39924542Y7763448D01*
X40120742Y7964497D01*
X40273950Y8199960D01*
X40378277Y8460788D01*
X40278034Y8680998D01*
X40328703Y8680998D01*
X40334725Y8619858D01*
X40404772Y8388945D01*
X40518522Y8176134D01*
X40671603Y7989603D01*
X40858134Y7836522D01*
X41070945Y7722772D01*
X41301858Y7652725D01*
X41481822Y7635000D01*
X41602178Y7635000D01*
X41782142Y7652725D01*
X42013055Y7722772D01*
X42225866Y7836522D01*
X42412397Y7989603D01*
X42565478Y8176134D01*
X42679228Y8388945D01*
X42749275Y8619858D01*
X42772927Y8860000D01*
X42749275Y9100142D01*
X42679228Y9331055D01*
X42565478Y9543866D01*
X42412397Y9730397D01*
X42225866Y9883478D01*
X42013055Y9997228D01*
X41782142Y10067275D01*
X41602178Y10085000D01*
X41481822Y10085000D01*
X41301858Y10067275D01*
X41070945Y9997228D01*
X40858134Y9883478D01*
X40671603Y9730397D01*
X40518522Y9543866D01*
X40404772Y9331055D01*
X40334725Y9100142D01*
X40328703Y9039002D01*
X40278034Y9039002D01*
X40378277Y9259212D01*
X40273950Y9520040D01*
X40120742Y9755503D01*
X39924542Y9956552D01*
X39692889Y10115461D01*
X39434685Y10226123D01*
X39401211Y10236270D01*
X39181002Y10134745D01*
X39181002Y10186703D01*
X39242142Y10192725D01*
X39473055Y10262772D01*
X39685866Y10376522D01*
X39872397Y10529603D01*
X40025478Y10716134D01*
X40139228Y10928945D01*
X40209275Y11159858D01*
X40232927Y11400000D01*
X40311073Y11400000D01*
X40334725Y11159858D01*
X40404772Y10928945D01*
X40518522Y10716134D01*
X40671603Y10529603D01*
X40858134Y10376522D01*
X41070945Y10262772D01*
X41301858Y10192725D01*
X41481822Y10175000D01*
X41602178Y10175000D01*
X41782142Y10192725D01*
X42013055Y10262772D01*
X42225866Y10376522D01*
X42412397Y10529603D01*
X42565478Y10716134D01*
X42679228Y10928945D01*
X42749275Y11159858D01*
X42755297Y11220998D01*
X42805966Y11220998D01*
X42705723Y11000788D01*
X42810050Y10739960D01*
X42963258Y10504497D01*
X43159458Y10303448D01*
X43391111Y10144539D01*
X43649315Y10033877D01*
X43682789Y10023730D01*
X43902998Y10125255D01*
X43902998Y10073297D01*
X43841858Y10067275D01*
X43610945Y9997228D01*
X43398134Y9883478D01*
X43211603Y9730397D01*
X43058522Y9543866D01*
X42944772Y9331055D01*
X42874725Y9100142D01*
X42851073Y8860000D01*
X42874725Y8619858D01*
X42944772Y8388945D01*
X43058522Y8176134D01*
X43211603Y7989603D01*
X43398134Y7836522D01*
X43610945Y7722772D01*
X43841858Y7652725D01*
X44021822Y7635000D01*
X44142178Y7635000D01*
X44322142Y7652725D01*
X44553055Y7722772D01*
X44765866Y7836522D01*
X44952397Y7989603D01*
X45105478Y8176134D01*
X45219228Y8388945D01*
X45289275Y8619858D01*
X45312927Y8860000D01*
X45289275Y9100142D01*
X45219228Y9331055D01*
X45105478Y9543866D01*
X44952397Y9730397D01*
X44765866Y9883478D01*
X44553055Y9997228D01*
X44322142Y10067275D01*
X44261002Y10073297D01*
X44261002Y10125255D01*
X44481211Y10023730D01*
X44514685Y10033877D01*
X44772889Y10144539D01*
X45004542Y10303448D01*
X45200742Y10504497D01*
X45353950Y10739960D01*
X45458277Y11000788D01*
X45358034Y11220998D01*
X45408703Y11220998D01*
X45414725Y11159858D01*
X45484772Y10928945D01*
X45598522Y10716134D01*
X45751603Y10529603D01*
X45938134Y10376522D01*
X46150945Y10262772D01*
X46381858Y10192725D01*
X46561822Y10175000D01*
X46682178Y10175000D01*
X46862142Y10192725D01*
X47093055Y10262772D01*
X47305866Y10376522D01*
X47492397Y10529603D01*
X47645478Y10716134D01*
X47759228Y10928945D01*
X47829275Y11159858D01*
X47852927Y11400000D01*
X47829275Y11640142D01*
X47759228Y11871055D01*
X47645478Y12083866D01*
X47492397Y12270397D01*
X47305866Y12423478D01*
X47093055Y12537228D01*
X46862142Y12607275D01*
X46682178Y12625000D01*
X46561822Y12625000D01*
X46381858Y12607275D01*
X46150945Y12537228D01*
X45938134Y12423478D01*
X45751603Y12270397D01*
X45598522Y12083866D01*
X45484772Y11871055D01*
X45414725Y11640142D01*
X45408703Y11579002D01*
X45358034Y11579002D01*
X45458277Y11799212D01*
X45353950Y12060040D01*
X45200742Y12295503D01*
X45004542Y12496552D01*
X44772889Y12655461D01*
X44514685Y12766123D01*
X44481211Y12776270D01*
X44261000Y12674744D01*
X44261000Y11579000D01*
X44281000Y11579000D01*
X44281000Y11221000D01*
X44261000Y11221000D01*
X44261000Y11201000D01*
X43903000Y11201000D01*
X43903000Y11221000D01*
X43883000Y11221000D01*
X43883000Y11579000D01*
X43903000Y11579000D01*
X43903000Y12674744D01*
X43682789Y12776270D01*
X43649315Y12766123D01*
X43391111Y12655461D01*
X43159458Y12496552D01*
X42963258Y12295503D01*
X42810050Y12060040D01*
X42705723Y11799212D01*
X42805966Y11579002D01*
X42755297Y11579002D01*
X42749275Y11640142D01*
X42679228Y11871055D01*
X42565478Y12083866D01*
X42412397Y12270397D01*
X42225866Y12423478D01*
X42013055Y12537228D01*
X41782142Y12607275D01*
X41602178Y12625000D01*
X41481822Y12625000D01*
X41301858Y12607275D01*
X41070945Y12537228D01*
X40858134Y12423478D01*
X40671603Y12270397D01*
X40518522Y12083866D01*
X40404772Y11871055D01*
X40334725Y11640142D01*
X40311073Y11400000D01*
X40232927Y11400000D01*
X40209275Y11640142D01*
X40139228Y11871055D01*
X40025478Y12083866D01*
X39872397Y12270397D01*
X39685866Y12423478D01*
X39473055Y12537228D01*
X39242142Y12607275D01*
X39062178Y12625000D01*
X38941822Y12625000D01*
X38761858Y12607275D01*
X38530945Y12537228D01*
X38318134Y12423478D01*
X38131603Y12270397D01*
X37978522Y12083866D01*
X37864772Y11871055D01*
X37794725Y11640142D01*
X37771073Y11400000D01*
X37794725Y11159858D01*
X37864772Y10928945D01*
X37978522Y10716134D01*
X38131603Y10529603D01*
X38318134Y10376522D01*
X38530945Y10262772D01*
X38761858Y10192725D01*
X38822998Y10186703D01*
X38822998Y10134745D01*
X38602789Y10236270D01*
X38569315Y10226123D01*
X38311111Y10115461D01*
X38079458Y9956552D01*
X37883258Y9755503D01*
X37730050Y9520040D01*
X37625723Y9259212D01*
X37725966Y9039002D01*
X37675297Y9039002D01*
X37669275Y9100142D01*
X37599228Y9331055D01*
X37485478Y9543866D01*
X37332397Y9730397D01*
X37145866Y9883478D01*
X36933055Y9997228D01*
X36702142Y10067275D01*
X36522178Y10085000D01*
X36401822Y10085000D01*
X36221858Y10067275D01*
X35990945Y9997228D01*
X35778134Y9883478D01*
X35750000Y9860389D01*
X35750000Y10094992D01*
X35752660Y10122000D01*
X35750000Y10149008D01*
X35750000Y10149018D01*
X35742042Y10229819D01*
X35710592Y10333494D01*
X35659521Y10429042D01*
X35608013Y10491805D01*
X35608008Y10491810D01*
X35590790Y10512790D01*
X35569810Y10530008D01*
X35085213Y11014605D01*
X35129275Y11159858D01*
X35152927Y11400000D01*
X35231073Y11400000D01*
X35254725Y11159858D01*
X35324772Y10928945D01*
X35438522Y10716134D01*
X35591603Y10529603D01*
X35778134Y10376522D01*
X35990945Y10262772D01*
X36221858Y10192725D01*
X36401822Y10175000D01*
X36522178Y10175000D01*
X36702142Y10192725D01*
X36933055Y10262772D01*
X37145866Y10376522D01*
X37332397Y10529603D01*
X37485478Y10716134D01*
X37599228Y10928945D01*
X37669275Y11159858D01*
X37692927Y11400000D01*
X37669275Y11640142D01*
X37599228Y11871055D01*
X37485478Y12083866D01*
X37332397Y12270397D01*
X37145866Y12423478D01*
X36933055Y12537228D01*
X36702142Y12607275D01*
X36522178Y12625000D01*
X36401822Y12625000D01*
X36221858Y12607275D01*
X35990945Y12537228D01*
X35778134Y12423478D01*
X35591603Y12270397D01*
X35438522Y12083866D01*
X35324772Y11871055D01*
X35254725Y11640142D01*
X35231073Y11400000D01*
X35152927Y11400000D01*
X35129275Y11640142D01*
X35059228Y11871055D01*
X34945478Y12083866D01*
X34792397Y12270397D01*
X34605866Y12423478D01*
X34393055Y12537228D01*
X34162142Y12607275D01*
X33982178Y12625000D01*
X33861822Y12625000D01*
X33681858Y12607275D01*
X33450945Y12537228D01*
X33238134Y12423478D01*
X33051603Y12270397D01*
X32898522Y12083866D01*
X32784772Y11871055D01*
X32714725Y11640142D01*
X32691073Y11400000D01*
X32714725Y11159858D01*
X32784772Y10928945D01*
X32898522Y10716134D01*
X33051603Y10529603D01*
X33238134Y10376522D01*
X33450945Y10262772D01*
X33681858Y10192725D01*
X33861822Y10175000D01*
X33982178Y10175000D01*
X34162142Y10192725D01*
X34307395Y10236787D01*
X34650000Y9894182D01*
X34650000Y9847258D01*
X34605866Y9883478D01*
X34393055Y9997228D01*
X34162142Y10067275D01*
X33982178Y10085000D01*
X33861822Y10085000D01*
X33681858Y10067275D01*
X33450945Y9997228D01*
X33238134Y9883478D01*
X33051603Y9730397D01*
X32898522Y9543866D01*
X32784772Y9331055D01*
X32714725Y9100142D01*
X32708703Y9039002D01*
X32658034Y9039002D01*
X32758277Y9259212D01*
X32653950Y9520040D01*
X32500742Y9755503D01*
X32304542Y9956552D01*
X32072889Y10115461D01*
X31814685Y10226123D01*
X31781211Y10236270D01*
X31561002Y10134745D01*
X31561002Y10186703D01*
X31622142Y10192725D01*
X31853055Y10262772D01*
X32065866Y10376522D01*
X32252397Y10529603D01*
X32405478Y10716134D01*
X32519228Y10928945D01*
X32589275Y11159858D01*
X32612927Y11400000D01*
X32589275Y11640142D01*
X32519228Y11871055D01*
X32405478Y12083866D01*
X32252397Y12270397D01*
X32065866Y12423478D01*
X31882000Y12521757D01*
X31882000Y27377406D01*
X31899307Y27394713D01*
X31973177Y27505268D01*
X32024060Y27628110D01*
X32050000Y27758518D01*
X32050000Y27891482D01*
X32024060Y28021890D01*
X31973177Y28144732D01*
X31899307Y28255287D01*
X31805287Y28349307D01*
X31694732Y28423177D01*
X31571890Y28474060D01*
X31441482Y28500000D01*
X31308518Y28500000D01*
X31245000Y28487365D01*
X31245000Y29360406D01*
X31269307Y29384713D01*
X31343177Y29495268D01*
X31394060Y29618110D01*
X31420000Y29748518D01*
X31420000Y29881482D01*
X31394060Y30011890D01*
X31343177Y30134732D01*
X31269307Y30245287D01*
X31175287Y30339307D01*
X31064732Y30413177D01*
X30941890Y30464060D01*
X30811482Y30490000D01*
X30678518Y30490000D01*
X30548110Y30464060D01*
X30425268Y30413177D01*
X30314713Y30339307D01*
X30220693Y30245287D01*
X30146823Y30134732D01*
X30095940Y30011890D01*
X30070000Y29881482D01*
X30070000Y29748518D01*
X30095940Y29618110D01*
X30146823Y29495268D01*
X30220693Y29384713D01*
X30245000Y29360406D01*
X30245000Y26465403D01*
X30146482Y26485000D01*
X30013518Y26485000D01*
X29883110Y26459060D01*
X29760268Y26408177D01*
X29649713Y26334307D01*
X29555693Y26240287D01*
X29481823Y26129732D01*
X29430940Y26006890D01*
X29405000Y25876482D01*
X29405000Y25743518D01*
X29430940Y25613110D01*
X29481823Y25490268D01*
X29555693Y25379713D01*
X29580000Y25355406D01*
X29580001Y15385108D01*
X26741649Y12546755D01*
X26542142Y12607275D01*
X26362178Y12625000D01*
X26241822Y12625000D01*
X26061858Y12607275D01*
X25830945Y12537228D01*
X25618134Y12423478D01*
X25550000Y12367562D01*
X25550000Y14415440D01*
X25552419Y14440000D01*
X25542765Y14538017D01*
X25527730Y14587581D01*
X25514175Y14632267D01*
X25467746Y14719129D01*
X25405264Y14795264D01*
X25386186Y14810920D01*
X24900000Y15297105D01*
X24900000Y23345406D01*
X24939307Y23384713D01*
X25013177Y23495268D01*
X25064060Y23618110D01*
X25090000Y23748518D01*
X25090000Y23881482D01*
X25064060Y24011890D01*
X25013177Y24134732D01*
X24939307Y24245287D01*
X24845287Y24339307D01*
X24734732Y24413177D01*
X24611890Y24464060D01*
X24481482Y24490000D01*
X24348518Y24490000D01*
X24218110Y24464060D01*
X24095268Y24413177D01*
X23984713Y24339307D01*
X23890693Y24245287D01*
X23816823Y24134732D01*
X23765940Y24011890D01*
X23740000Y23881482D01*
X23740000Y23748518D01*
X23765940Y23618110D01*
X23816823Y23495268D01*
X23890693Y23384713D01*
X23900001Y23375405D01*
X23900000Y15114560D01*
X23897581Y15090000D01*
X23900000Y15065441D01*
X23907235Y14991984D01*
X23935825Y14897734D01*
X23982254Y14810871D01*
X24044736Y14734736D01*
X24063824Y14719071D01*
X24550001Y14232893D01*
X24550001Y12588845D01*
X24452889Y12655461D01*
X24194685Y12766123D01*
X24161211Y12776270D01*
X23941000Y12674744D01*
X23941000Y11579000D01*
X23961000Y11579000D01*
X23961000Y11221000D01*
X23941000Y11221000D01*
X23941000Y11201000D01*
X23583000Y11201000D01*
X23583000Y11221000D01*
X23563000Y11221000D01*
X23563000Y11579000D01*
X23583000Y11579000D01*
X23583000Y12674744D01*
X23362789Y12776270D01*
X23329315Y12766123D01*
X23071111Y12655461D01*
X22839458Y12496552D01*
X22643258Y12295503D01*
X22490050Y12060040D01*
X22385723Y11799212D01*
X22485966Y11579002D01*
X22435297Y11579002D01*
X22429275Y11640142D01*
X22359228Y11871055D01*
X22245478Y12083866D01*
X22092397Y12270397D01*
X21905866Y12423478D01*
X21693055Y12537228D01*
X21462142Y12607275D01*
X21282178Y12625000D01*
X21161822Y12625000D01*
X20981858Y12607275D01*
X20750945Y12537228D01*
X20538134Y12423478D01*
X20351603Y12270397D01*
X20198522Y12083866D01*
X20084772Y11871055D01*
X20014725Y11640142D01*
X19991073Y11400000D01*
X19912927Y11400000D01*
X19889275Y11640142D01*
X19828755Y11839650D01*
X23551181Y15562075D01*
X23570264Y15577736D01*
X23632746Y15653871D01*
X23679175Y15740733D01*
X23707765Y15834983D01*
X23715000Y15908440D01*
X23715000Y15908441D01*
X23717419Y15932999D01*
X23715000Y15957557D01*
X23715000Y21360406D01*
X23739307Y21384713D01*
X23813177Y21495268D01*
X23864060Y21618110D01*
X23890000Y21748518D01*
X23890000Y21881482D01*
X23864060Y22011890D01*
X23813177Y22134732D01*
X23739307Y22245287D01*
X23715000Y22269594D01*
X23715000Y24437894D01*
X24036186Y24759079D01*
X24055264Y24774736D01*
X24117746Y24850871D01*
X24164175Y24937733D01*
X24192765Y25031983D01*
X24200000Y25105440D01*
X24202419Y25130000D01*
X24200000Y25154560D01*
X24200000Y35326482D01*
X25695000Y35326482D01*
X25695000Y35193518D01*
X25720940Y35063110D01*
X25771823Y34940268D01*
X25845693Y34829713D01*
X25939713Y34735693D01*
X26050268Y34661823D01*
X26173110Y34610940D01*
X26303518Y34585000D01*
X26436482Y34585000D01*
X26566890Y34610940D01*
X26689732Y34661823D01*
X26761834Y34710000D01*
X26794969Y34710000D01*
X26791869Y34704200D01*
X26770426Y34633513D01*
X26763186Y34560000D01*
X26763186Y34160000D01*
X26770426Y34086487D01*
X26791869Y34015800D01*
X26826691Y33950653D01*
X26873552Y33893552D01*
X26930653Y33846691D01*
X26995800Y33811869D01*
X27066487Y33790426D01*
X27140000Y33783186D01*
X27740000Y33783186D01*
X27813513Y33790426D01*
X27878039Y33810000D01*
X30122183Y33810000D01*
X34869919Y29062263D01*
X34869920Y14491836D01*
X34821742Y14419732D01*
X34770859Y14296890D01*
X34744919Y14166482D01*
X34744919Y14033518D01*
X34770859Y13903110D01*
X34821742Y13780268D01*
X34895612Y13669713D01*
X34989632Y13575693D01*
X35100187Y13501823D01*
X35223029Y13450940D01*
X35353437Y13425000D01*
X35486401Y13425000D01*
X35616809Y13450940D01*
X35739651Y13501823D01*
X35850206Y13575693D01*
X35944226Y13669713D01*
X36018096Y13780268D01*
X36068979Y13903110D01*
X36094919Y14033518D01*
X36094919Y14166482D01*
X36068979Y14296890D01*
X36018096Y14419732D01*
X35969919Y14491834D01*
X35969919Y29263074D01*
X35972579Y29290082D01*
X35969919Y29317090D01*
X35969919Y29317099D01*
X35961961Y29397900D01*
X35930511Y29501575D01*
X35879440Y29597123D01*
X35854318Y29627734D01*
X35827932Y29659886D01*
X35827927Y29659891D01*
X35810709Y29680871D01*
X35789729Y29698089D01*
X34807254Y30680564D01*
X34850268Y30651823D01*
X34973110Y30600940D01*
X35103518Y30575000D01*
X35236482Y30575000D01*
X35366890Y30600940D01*
X35489732Y30651823D01*
X35600287Y30725693D01*
X35624594Y30750000D01*
X43455440Y30750000D01*
X43480000Y30747581D01*
X43504560Y30750000D01*
X43578017Y30757235D01*
X43672267Y30785825D01*
X43759129Y30832254D01*
X43835264Y30894736D01*
X43850929Y30913824D01*
X45742107Y32805000D01*
X45776482Y32805000D01*
X45906890Y32830940D01*
X46029732Y32881823D01*
X46140287Y32955693D01*
X46234307Y33049713D01*
X46308177Y33160268D01*
X46359060Y33283110D01*
X46385000Y33413518D01*
X46385000Y33546482D01*
X46359060Y33676890D01*
X46308177Y33799732D01*
X46234307Y33910287D01*
X46140287Y34004307D01*
X46029732Y34078177D01*
X45906890Y34129060D01*
X45776482Y34155000D01*
X45643518Y34155000D01*
X45513110Y34129060D01*
X45390268Y34078177D01*
X45279713Y34004307D01*
X45185693Y33910287D01*
X45111823Y33799732D01*
X45060940Y33676890D01*
X45035000Y33546482D01*
X45035000Y33512107D01*
X43272895Y31750000D01*
X35624594Y31750000D01*
X35600287Y31774307D01*
X35489732Y31848177D01*
X35366890Y31899060D01*
X35236482Y31925000D01*
X35103518Y31925000D01*
X34973110Y31899060D01*
X34850268Y31848177D01*
X34739713Y31774307D01*
X34645693Y31680287D01*
X34571823Y31569732D01*
X34520940Y31446890D01*
X34495000Y31316482D01*
X34495000Y31183518D01*
X34520940Y31053110D01*
X34571823Y30930268D01*
X34600564Y30887254D01*
X30758013Y34729804D01*
X30740790Y34750790D01*
X30718179Y34769347D01*
X30657042Y34819521D01*
X30637974Y34829713D01*
X30561494Y34870592D01*
X30457819Y34902042D01*
X30377018Y34910000D01*
X30377008Y34910000D01*
X30350000Y34912660D01*
X30322992Y34910000D01*
X28787817Y34910000D01*
X29569810Y35691992D01*
X29590790Y35709210D01*
X29608008Y35730190D01*
X29608013Y35730195D01*
X29659520Y35792957D01*
X29670057Y35812670D01*
X29710592Y35888506D01*
X29742042Y35992181D01*
X29750000Y36072982D01*
X29750000Y36072991D01*
X29752660Y36099999D01*
X29750000Y36127007D01*
X29750000Y37058166D01*
X29798177Y37130268D01*
X29849060Y37253110D01*
X29875000Y37383518D01*
X29875000Y37516482D01*
X29849060Y37646890D01*
X29798177Y37769732D01*
X29724307Y37880287D01*
X29630287Y37974307D01*
X29519732Y38048177D01*
X29396890Y38099060D01*
X29266482Y38125000D01*
X29133518Y38125000D01*
X29003110Y38099060D01*
X28880268Y38048177D01*
X28769713Y37974307D01*
X28675693Y37880287D01*
X28601823Y37769732D01*
X28550940Y37646890D01*
X28525000Y37516482D01*
X28525000Y37383518D01*
X28550940Y37253110D01*
X28601823Y37130268D01*
X28650000Y37058166D01*
X28650000Y36327818D01*
X28132183Y35810000D01*
X27878039Y35810000D01*
X27813513Y35829574D01*
X27740000Y35836814D01*
X27140000Y35836814D01*
X27066487Y35829574D01*
X27001961Y35810000D01*
X26761834Y35810000D01*
X26689732Y35858177D01*
X26566890Y35909060D01*
X26436482Y35935000D01*
X26303518Y35935000D01*
X26173110Y35909060D01*
X26050268Y35858177D01*
X25939713Y35784307D01*
X25845693Y35690287D01*
X25771823Y35579732D01*
X25720940Y35456890D01*
X25695000Y35326482D01*
X24200000Y35326482D01*
X24200000Y39966482D01*
X25575000Y39966482D01*
X25575000Y39833518D01*
X25600940Y39703110D01*
X25651823Y39580268D01*
X25725693Y39469713D01*
X25819713Y39375693D01*
X25930268Y39301823D01*
X26053110Y39250940D01*
X26183518Y39225000D01*
X26316482Y39225000D01*
X26446890Y39250940D01*
X26569732Y39301823D01*
X26680287Y39375693D01*
X26774307Y39469713D01*
X26848177Y39580268D01*
X26899060Y39703110D01*
X26925000Y39833518D01*
X26925000Y39966482D01*
X26899060Y40096890D01*
X26848177Y40219732D01*
X26774307Y40330287D01*
X26680287Y40424307D01*
X26569732Y40498177D01*
X26446890Y40549060D01*
X26316482Y40575000D01*
X26183518Y40575000D01*
X26053110Y40549060D01*
X25930268Y40498177D01*
X25819713Y40424307D01*
X25725693Y40330287D01*
X25651823Y40219732D01*
X25600940Y40096890D01*
X25575000Y39966482D01*
X24200000Y39966482D01*
X24200000Y40095406D01*
X24224307Y40119713D01*
X24298177Y40230268D01*
X24349060Y40353110D01*
X24375000Y40483518D01*
X24375000Y40616482D01*
X24349060Y40746890D01*
X24298177Y40869732D01*
X24224307Y40980287D01*
X24130287Y41074307D01*
X24019732Y41148177D01*
X23896890Y41199060D01*
X23766482Y41225000D01*
X23633518Y41225000D01*
X23503110Y41199060D01*
X23380268Y41148177D01*
X23269713Y41074307D01*
X23175693Y40980287D01*
X23101823Y40869732D01*
X23050940Y40746890D01*
X23025000Y40616482D01*
X23025000Y40483518D01*
X23050940Y40353110D01*
X23101823Y40230268D01*
X23175693Y40119713D01*
X23200000Y40095406D01*
X23200001Y25337107D01*
X22878823Y25015929D01*
X22859736Y25000264D01*
X22797254Y24924129D01*
X22750825Y24837266D01*
X22737644Y24793813D01*
X22722235Y24743017D01*
X22712581Y24645000D01*
X22715000Y24620440D01*
X22715001Y22269595D01*
X22690693Y22245287D01*
X22616823Y22134732D01*
X22565940Y22011890D01*
X22540000Y21881482D01*
X22540000Y21748518D01*
X22565940Y21618110D01*
X22616823Y21495268D01*
X22690693Y21384713D01*
X22715000Y21360406D01*
X22715001Y16140107D01*
X19121650Y12546755D01*
X18922142Y12607275D01*
X18742178Y12625000D01*
X18621822Y12625000D01*
X18441858Y12607275D01*
X18210945Y12537228D01*
X17998134Y12423478D01*
X17811603Y12270397D01*
X17658522Y12083866D01*
X17544772Y11871055D01*
X17474725Y11640142D01*
X17451073Y11400000D01*
X17474725Y11159858D01*
X17544772Y10928945D01*
X17658522Y10716134D01*
X17811603Y10529603D01*
X17998134Y10376522D01*
X18210945Y10262772D01*
X18441858Y10192725D01*
X18502998Y10186703D01*
X18502998Y10134745D01*
X18282789Y10236270D01*
X18249315Y10226123D01*
X17991111Y10115461D01*
X17759458Y9956552D01*
X17563258Y9755503D01*
X17410050Y9520040D01*
X17305723Y9259212D01*
X17405966Y9039002D01*
X17355297Y9039002D01*
X17349275Y9100142D01*
X17279228Y9331055D01*
X17165478Y9543866D01*
X17012397Y9730397D01*
X16825866Y9883478D01*
X16613055Y9997228D01*
X16382142Y10067275D01*
X16202178Y10085000D01*
X16081822Y10085000D01*
X15901858Y10067275D01*
X15670945Y9997228D01*
X15458134Y9883478D01*
X15271603Y9730397D01*
X15118522Y9543866D01*
X15004772Y9331055D01*
X14934725Y9100142D01*
X14928703Y9039002D01*
X14878034Y9039002D01*
X14978277Y9259212D01*
X14873950Y9520040D01*
X14720742Y9755503D01*
X14524542Y9956552D01*
X14292889Y10115461D01*
X14034685Y10226123D01*
X14001211Y10236270D01*
X13781002Y10134745D01*
X13781002Y10186703D01*
X13842142Y10192725D01*
X14073055Y10262772D01*
X14285866Y10376522D01*
X14472397Y10529603D01*
X14625478Y10716134D01*
X14739228Y10928945D01*
X14809275Y11159858D01*
X14832927Y11400000D01*
X14911073Y11400000D01*
X14934725Y11159858D01*
X15004772Y10928945D01*
X15118522Y10716134D01*
X15271603Y10529603D01*
X15458134Y10376522D01*
X15670945Y10262772D01*
X15901858Y10192725D01*
X16081822Y10175000D01*
X16202178Y10175000D01*
X16382142Y10192725D01*
X16613055Y10262772D01*
X16825866Y10376522D01*
X17012397Y10529603D01*
X17165478Y10716134D01*
X17279228Y10928945D01*
X17349275Y11159858D01*
X17372927Y11400000D01*
X17349275Y11640142D01*
X17279228Y11871055D01*
X17165478Y12083866D01*
X17012397Y12270397D01*
X16825866Y12423478D01*
X16613055Y12537228D01*
X16382142Y12607275D01*
X16202178Y12625000D01*
X16081822Y12625000D01*
X15901858Y12607275D01*
X15670945Y12537228D01*
X15458134Y12423478D01*
X15271603Y12270397D01*
X15118522Y12083866D01*
X15004772Y11871055D01*
X14934725Y11640142D01*
X14911073Y11400000D01*
X14832927Y11400000D01*
X14809275Y11640142D01*
X14739228Y11871055D01*
X14625478Y12083866D01*
X14472397Y12270397D01*
X14285866Y12423478D01*
X14073055Y12537228D01*
X13842142Y12607275D01*
X13662178Y12625000D01*
X13541822Y12625000D01*
X13361858Y12607275D01*
X13130945Y12537228D01*
X12918134Y12423478D01*
X12731603Y12270397D01*
X12578522Y12083866D01*
X12464772Y11871055D01*
X12394725Y11640142D01*
X12371073Y11400000D01*
X12394725Y11159858D01*
X12464772Y10928945D01*
X12578522Y10716134D01*
X12731603Y10529603D01*
X12918134Y10376522D01*
X13130945Y10262772D01*
X13361858Y10192725D01*
X13422998Y10186703D01*
X13422998Y10134745D01*
X13202789Y10236270D01*
X13169315Y10226123D01*
X12911111Y10115461D01*
X12679458Y9956552D01*
X12483258Y9755503D01*
X12330050Y9520040D01*
X12225723Y9259212D01*
X12325966Y9039002D01*
X12275297Y9039002D01*
X12269275Y9100142D01*
X12199228Y9331055D01*
X12085478Y9543866D01*
X11932397Y9730397D01*
X11745866Y9883478D01*
X11533055Y9997228D01*
X11302142Y10067275D01*
X11122178Y10085000D01*
X11001822Y10085000D01*
X10821858Y10067275D01*
X10590945Y9997228D01*
X10378134Y9883478D01*
X10191603Y9730397D01*
X10038522Y9543866D01*
X9924772Y9331055D01*
X9854725Y9100142D01*
X9831073Y8860000D01*
X9752927Y8860000D01*
X9729275Y9100142D01*
X9659228Y9331055D01*
X9545478Y9543866D01*
X9392397Y9730397D01*
X9205866Y9883478D01*
X8993055Y9997228D01*
X8762142Y10067275D01*
X8582178Y10085000D01*
X8461822Y10085000D01*
X8281858Y10067275D01*
X8050945Y9997228D01*
X7838134Y9883478D01*
X7651603Y9730397D01*
X7498522Y9543866D01*
X7384772Y9331055D01*
X7314725Y9100142D01*
X7291073Y8860000D01*
X7212927Y8860000D01*
X7189275Y9100142D01*
X7119228Y9331055D01*
X7005478Y9543866D01*
X6852397Y9730397D01*
X6665866Y9883478D01*
X6453055Y9997228D01*
X6222142Y10067275D01*
X6161002Y10073297D01*
X6161002Y10125255D01*
X6381211Y10023730D01*
X6414685Y10033877D01*
X6672889Y10144539D01*
X6904542Y10303448D01*
X7100742Y10504497D01*
X7253950Y10739960D01*
X7358277Y11000788D01*
X7258034Y11220998D01*
X7308703Y11220998D01*
X7314725Y11159858D01*
X7384772Y10928945D01*
X7498522Y10716134D01*
X7651603Y10529603D01*
X7838134Y10376522D01*
X8050945Y10262772D01*
X8281858Y10192725D01*
X8461822Y10175000D01*
X8582178Y10175000D01*
X8762142Y10192725D01*
X8993055Y10262772D01*
X9205866Y10376522D01*
X9392397Y10529603D01*
X9545478Y10716134D01*
X9659228Y10928945D01*
X9729275Y11159858D01*
X9752927Y11400000D01*
X9831073Y11400000D01*
X9854725Y11159858D01*
X9924772Y10928945D01*
X10038522Y10716134D01*
X10191603Y10529603D01*
X10378134Y10376522D01*
X10590945Y10262772D01*
X10821858Y10192725D01*
X11001822Y10175000D01*
X11122178Y10175000D01*
X11302142Y10192725D01*
X11533055Y10262772D01*
X11745866Y10376522D01*
X11932397Y10529603D01*
X12085478Y10716134D01*
X12199228Y10928945D01*
X12269275Y11159858D01*
X12292927Y11400000D01*
X12269275Y11640142D01*
X12199228Y11871055D01*
X12085478Y12083866D01*
X11932397Y12270397D01*
X11745866Y12423478D01*
X11533055Y12537228D01*
X11302142Y12607275D01*
X11122178Y12625000D01*
X11001822Y12625000D01*
X10821858Y12607275D01*
X10590945Y12537228D01*
X10378134Y12423478D01*
X10191603Y12270397D01*
X10038522Y12083866D01*
X9924772Y11871055D01*
X9854725Y11640142D01*
X9831073Y11400000D01*
X9752927Y11400000D01*
X9729275Y11640142D01*
X9659228Y11871055D01*
X9545478Y12083866D01*
X9392397Y12270397D01*
X9205866Y12423478D01*
X8993055Y12537228D01*
X8762142Y12607275D01*
X8582178Y12625000D01*
X8461822Y12625000D01*
X8281858Y12607275D01*
X8050945Y12537228D01*
X7838134Y12423478D01*
X7651603Y12270397D01*
X7498522Y12083866D01*
X7384772Y11871055D01*
X7314725Y11640142D01*
X7308703Y11579002D01*
X7258034Y11579002D01*
X7358277Y11799212D01*
X7253950Y12060040D01*
X7100742Y12295503D01*
X6904542Y12496552D01*
X6672889Y12655461D01*
X6414685Y12766123D01*
X6381211Y12776270D01*
X6161000Y12674744D01*
X6161000Y11579000D01*
X6181000Y11579000D01*
X6181000Y11221000D01*
X6161000Y11221000D01*
X6161000Y11201000D01*
X5803000Y11201000D01*
X5803000Y11221000D01*
X4705967Y11221000D01*
X4605723Y11000788D01*
X450000Y11000788D01*
X450000Y11799212D01*
X4605723Y11799212D01*
X4705967Y11579000D01*
X5803000Y11579000D01*
X5803000Y12674744D01*
X5582789Y12776270D01*
X5549315Y12766123D01*
X5291111Y12655461D01*
X5059458Y12496552D01*
X4863258Y12295503D01*
X4710050Y12060040D01*
X4605723Y11799212D01*
X450000Y11799212D01*
X450000Y14950788D01*
X7143723Y14950788D01*
X7248050Y14689960D01*
X7401258Y14454497D01*
X7597458Y14253448D01*
X7829111Y14094539D01*
X8087315Y13983877D01*
X8120789Y13973730D01*
X8341000Y14075256D01*
X8341000Y15171000D01*
X7243967Y15171000D01*
X7143723Y14950788D01*
X450000Y14950788D01*
X450000Y15749212D01*
X7143723Y15749212D01*
X7243967Y15529000D01*
X8341000Y15529000D01*
X8341000Y16624744D01*
X8120789Y16726270D01*
X8087315Y16716123D01*
X7829111Y16605461D01*
X7597458Y16446552D01*
X7401258Y16245503D01*
X7248050Y16010040D01*
X7143723Y15749212D01*
X450000Y15749212D01*
X450000Y44000000D01*
X6197581Y44000000D01*
X6200000Y43975440D01*
X6200001Y19734570D01*
X6197581Y19710000D01*
X6207235Y19611983D01*
X6235826Y19517733D01*
X6282255Y19430871D01*
X6344737Y19354736D01*
X6363819Y19339075D01*
X9012337Y16690557D01*
X8952685Y16716123D01*
X8919211Y16726270D01*
X8699000Y16624744D01*
X8699000Y15529000D01*
X8719000Y15529000D01*
X8719000Y15171000D01*
X8699000Y15171000D01*
X8699000Y14075256D01*
X8919211Y13973730D01*
X8952685Y13983877D01*
X9210889Y14094539D01*
X9442542Y14253448D01*
X9638742Y14454497D01*
X9791950Y14689960D01*
X9896277Y14950788D01*
X9796034Y15170998D01*
X9846703Y15170998D01*
X9852725Y15109858D01*
X9922772Y14878945D01*
X10036522Y14666134D01*
X10189603Y14479603D01*
X10376134Y14326522D01*
X10588945Y14212772D01*
X10819858Y14142725D01*
X10999822Y14125000D01*
X11120178Y14125000D01*
X11300142Y14142725D01*
X11531055Y14212772D01*
X11743866Y14326522D01*
X11930397Y14479603D01*
X12083478Y14666134D01*
X12197228Y14878945D01*
X12267275Y15109858D01*
X12290927Y15350000D01*
X12267275Y15590142D01*
X12197228Y15821055D01*
X12083478Y16033866D01*
X11930397Y16220397D01*
X11743866Y16373478D01*
X11531055Y16487228D01*
X11300142Y16557275D01*
X11120178Y16575000D01*
X10999822Y16575000D01*
X10819858Y16557275D01*
X10620351Y16496755D01*
X7200000Y19917105D01*
X7200000Y21042895D01*
X12453245Y15789648D01*
X12392725Y15590142D01*
X12369073Y15350000D01*
X12392725Y15109858D01*
X12462772Y14878945D01*
X12576522Y14666134D01*
X12729603Y14479603D01*
X12916134Y14326522D01*
X13128945Y14212772D01*
X13359858Y14142725D01*
X13539822Y14125000D01*
X13660178Y14125000D01*
X13840142Y14142725D01*
X14071055Y14212772D01*
X14283866Y14326522D01*
X14470397Y14479603D01*
X14623478Y14666134D01*
X14737228Y14878945D01*
X14807275Y15109858D01*
X14830927Y15350000D01*
X14807275Y15590142D01*
X14737228Y15821055D01*
X14623478Y16033866D01*
X14487137Y16200000D01*
X14913186Y16200000D01*
X14913186Y14500000D01*
X14920426Y14426487D01*
X14941869Y14355800D01*
X14976691Y14290653D01*
X15023552Y14233552D01*
X15080653Y14186691D01*
X15145800Y14151869D01*
X15216487Y14130426D01*
X15290000Y14123186D01*
X16990000Y14123186D01*
X17063513Y14130426D01*
X17134200Y14151869D01*
X17199347Y14186691D01*
X17256448Y14233552D01*
X17303309Y14290653D01*
X17338131Y14355800D01*
X17359574Y14426487D01*
X17366814Y14500000D01*
X17366814Y16200000D01*
X17359574Y16273513D01*
X17338131Y16344200D01*
X17303309Y16409347D01*
X17256448Y16466448D01*
X17199347Y16513309D01*
X17134200Y16548131D01*
X17063513Y16569574D01*
X16990000Y16576814D01*
X15290000Y16576814D01*
X15216487Y16569574D01*
X15145800Y16548131D01*
X15080653Y16513309D01*
X15023552Y16466448D01*
X14976691Y16409347D01*
X14941869Y16344200D01*
X14920426Y16273513D01*
X14913186Y16200000D01*
X14487137Y16200000D01*
X14470397Y16220397D01*
X14283866Y16373478D01*
X14071055Y16487228D01*
X13840142Y16557275D01*
X13660178Y16575000D01*
X13539822Y16575000D01*
X13359858Y16557275D01*
X13160352Y16496755D01*
X7650010Y22007095D01*
X7650010Y27876482D01*
X16815000Y27876482D01*
X16815000Y27743518D01*
X16840940Y27613110D01*
X16891823Y27490268D01*
X16965693Y27379713D01*
X17059713Y27285693D01*
X17170268Y27211823D01*
X17293110Y27160940D01*
X17423518Y27135000D01*
X17556482Y27135000D01*
X17686890Y27160940D01*
X17809732Y27211823D01*
X17920287Y27285693D01*
X18014307Y27379713D01*
X18088177Y27490268D01*
X18139060Y27613110D01*
X18165000Y27743518D01*
X18165000Y27876482D01*
X18139060Y28006890D01*
X18088177Y28129732D01*
X18014307Y28240287D01*
X18010000Y28244594D01*
X18010000Y36995406D01*
X18034307Y37019713D01*
X18104988Y37125495D01*
X18105825Y37122736D01*
X18152254Y37035873D01*
X18214736Y36959738D01*
X18233824Y36944073D01*
X19565001Y35612895D01*
X19565000Y35050441D01*
X19565001Y35050431D01*
X19565000Y24269594D01*
X19540693Y24245287D01*
X19466823Y24134732D01*
X19415940Y24011890D01*
X19390000Y23881482D01*
X19390000Y23748518D01*
X19415940Y23618110D01*
X19466823Y23495268D01*
X19540693Y23384713D01*
X19634713Y23290693D01*
X19745268Y23216823D01*
X19868110Y23165940D01*
X19998518Y23140000D01*
X20131482Y23140000D01*
X20261890Y23165940D01*
X20384732Y23216823D01*
X20495287Y23290693D01*
X20589307Y23384713D01*
X20663177Y23495268D01*
X20714060Y23618110D01*
X20740000Y23748518D01*
X20740000Y23881482D01*
X20714060Y24011890D01*
X20663177Y24134732D01*
X20589307Y24245287D01*
X20565000Y24269594D01*
X20565000Y35795453D01*
X20567418Y35820003D01*
X20565000Y35844553D01*
X20565000Y35844562D01*
X20557765Y35918019D01*
X20529175Y36012269D01*
X20482746Y36099131D01*
X20420264Y36175266D01*
X20401187Y36190922D01*
X19070000Y37522107D01*
X19070000Y37555406D01*
X19094307Y37579713D01*
X19168177Y37690268D01*
X19219060Y37813110D01*
X19245000Y37943518D01*
X19245000Y38076482D01*
X19219060Y38206890D01*
X19168177Y38329732D01*
X19094307Y38440287D01*
X19000287Y38534307D01*
X18889732Y38608177D01*
X18766890Y38659060D01*
X18636482Y38685000D01*
X18503518Y38685000D01*
X18373110Y38659060D01*
X18250268Y38608177D01*
X18139713Y38534307D01*
X18045693Y38440287D01*
X17971823Y38329732D01*
X17920940Y38206890D01*
X17895000Y38076482D01*
X17895000Y38004567D01*
X17829732Y38048177D01*
X17706890Y38099060D01*
X17576482Y38125000D01*
X17443518Y38125000D01*
X17313110Y38099060D01*
X17190268Y38048177D01*
X17079713Y37974307D01*
X16985693Y37880287D01*
X16911823Y37769732D01*
X16860940Y37646890D01*
X16835000Y37516482D01*
X16835000Y37383518D01*
X16860940Y37253110D01*
X16911823Y37130268D01*
X16985693Y37019713D01*
X17010000Y36995406D01*
X17010001Y28284595D01*
X16965693Y28240287D01*
X16891823Y28129732D01*
X16840940Y28006890D01*
X16815000Y27876482D01*
X7650010Y27876482D01*
X7650010Y43124264D01*
X10721251Y43124264D01*
X10725000Y43086201D01*
X10725000Y42661936D01*
X10736214Y42548075D01*
X10780530Y42401987D01*
X10852494Y42267351D01*
X10949341Y42149341D01*
X11067350Y42052494D01*
X11201986Y41980530D01*
X11348074Y41936214D01*
X11500000Y41921251D01*
X11651925Y41936214D01*
X11798013Y41980530D01*
X11932649Y42052494D01*
X12050659Y42149341D01*
X12147506Y42267350D01*
X12219470Y42401986D01*
X12249202Y42500000D01*
X15221251Y42500000D01*
X15236214Y42348074D01*
X15280530Y42201986D01*
X15352494Y42067350D01*
X15449341Y41949341D01*
X15567350Y41852494D01*
X15701986Y41780530D01*
X15848074Y41736214D01*
X15961935Y41725000D01*
X25138065Y41725000D01*
X25251926Y41736214D01*
X25398014Y41780530D01*
X25532650Y41852494D01*
X25650659Y41949341D01*
X25747506Y42067350D01*
X25819470Y42201986D01*
X25863786Y42348074D01*
X25878749Y42500000D01*
X25863786Y42651926D01*
X25819470Y42798014D01*
X25747506Y42932650D01*
X25650659Y43050659D01*
X25532650Y43147506D01*
X25398014Y43219470D01*
X25251926Y43263786D01*
X25138065Y43275000D01*
X15961935Y43275000D01*
X15848074Y43263786D01*
X15701986Y43219470D01*
X15567350Y43147506D01*
X15449341Y43050659D01*
X15352494Y42932650D01*
X15280530Y42798014D01*
X15236214Y42651926D01*
X15221251Y42500000D01*
X12249202Y42500000D01*
X12263786Y42548074D01*
X12275000Y42661935D01*
X12275000Y42803250D01*
X14696751Y45225000D01*
X24128986Y45225000D01*
X34925072Y34428913D01*
X34949341Y34399341D01*
X35024888Y34337342D01*
X35067349Y34302494D01*
X35139313Y34264029D01*
X35201986Y34230530D01*
X35348074Y34186214D01*
X35461935Y34175000D01*
X35461937Y34175000D01*
X35500000Y34171251D01*
X35538063Y34175000D01*
X46608986Y34175000D01*
X54475001Y26308984D01*
X54475000Y24151936D01*
X54486214Y24038075D01*
X54530530Y23891987D01*
X54602494Y23757351D01*
X54699341Y23639341D01*
X54817350Y23542494D01*
X54951986Y23470530D01*
X55098074Y23426214D01*
X55250000Y23411251D01*
X55401925Y23426214D01*
X55548013Y23470530D01*
X55682649Y23542494D01*
X55800659Y23639341D01*
X55897506Y23757350D01*
X55969470Y23891986D01*
X56013786Y24038074D01*
X56025000Y24151935D01*
X56025000Y26591937D01*
X56028749Y26630000D01*
X56023989Y26678327D01*
X56013786Y26781926D01*
X55969470Y26928014D01*
X55935971Y26990687D01*
X55897506Y27062651D01*
X55862658Y27105112D01*
X55800659Y27180659D01*
X55771087Y27204928D01*
X47504933Y35471082D01*
X47480659Y35500659D01*
X47362650Y35597506D01*
X47228014Y35669470D01*
X47081926Y35713786D01*
X46968065Y35725000D01*
X46968063Y35725000D01*
X46930000Y35728749D01*
X46891937Y35725000D01*
X35821015Y35725000D01*
X32479533Y39066482D01*
X37075000Y39066482D01*
X37075000Y38933518D01*
X37100940Y38803110D01*
X37151823Y38680268D01*
X37225693Y38569713D01*
X37319713Y38475693D01*
X37430268Y38401823D01*
X37553110Y38350940D01*
X37683518Y38325000D01*
X37816482Y38325000D01*
X37946890Y38350940D01*
X38069732Y38401823D01*
X38180287Y38475693D01*
X38274307Y38569713D01*
X38348177Y38680268D01*
X38399060Y38803110D01*
X38425000Y38933518D01*
X38425000Y39066482D01*
X38399060Y39196890D01*
X38348177Y39319732D01*
X38274307Y39430287D01*
X38180287Y39524307D01*
X38069732Y39598177D01*
X37946890Y39649060D01*
X37816482Y39675000D01*
X37683518Y39675000D01*
X37553110Y39649060D01*
X37430268Y39598177D01*
X37319713Y39524307D01*
X37225693Y39430287D01*
X37151823Y39319732D01*
X37100940Y39196890D01*
X37075000Y39066482D01*
X32479533Y39066482D01*
X28546015Y43000000D01*
X40223186Y43000000D01*
X40223186Y41300000D01*
X40230426Y41226487D01*
X40251869Y41155800D01*
X40286691Y41090653D01*
X40333552Y41033552D01*
X40390653Y40986691D01*
X40455800Y40951869D01*
X40526487Y40930426D01*
X40600000Y40923186D01*
X40950000Y40923186D01*
X40950001Y38374570D01*
X40947581Y38350000D01*
X40957235Y38251983D01*
X40980979Y38173712D01*
X40985826Y38157733D01*
X41032255Y38070871D01*
X41094737Y37994736D01*
X41113819Y37979076D01*
X42075000Y37017894D01*
X42075000Y36983518D01*
X42100940Y36853110D01*
X42151823Y36730268D01*
X42225693Y36619713D01*
X42319713Y36525693D01*
X42430268Y36451823D01*
X42553110Y36400940D01*
X42683518Y36375000D01*
X42816482Y36375000D01*
X42946890Y36400940D01*
X43069732Y36451823D01*
X43180287Y36525693D01*
X43274307Y36619713D01*
X43348177Y36730268D01*
X43399060Y36853110D01*
X43425000Y36983518D01*
X43425000Y37116482D01*
X43399060Y37246890D01*
X43348177Y37369732D01*
X43274307Y37480287D01*
X43180287Y37574307D01*
X43069732Y37648177D01*
X42946890Y37699060D01*
X42816482Y37725000D01*
X42782106Y37725000D01*
X41950000Y38557105D01*
X41950000Y40923186D01*
X42300000Y40923186D01*
X42373513Y40930426D01*
X42444200Y40951869D01*
X42509347Y40986691D01*
X42566448Y41033552D01*
X42613309Y41090653D01*
X42648131Y41155800D01*
X42669574Y41226487D01*
X42676814Y41300000D01*
X42676814Y42150000D01*
X42759073Y42150000D01*
X42782725Y41909858D01*
X42852772Y41678945D01*
X42966522Y41466134D01*
X43119603Y41279603D01*
X43306134Y41126522D01*
X43490000Y41028243D01*
X43490000Y39878150D01*
X43487581Y39853590D01*
X43490000Y39829031D01*
X43490000Y39829030D01*
X43497235Y39755573D01*
X43525825Y39661323D01*
X43572255Y39574461D01*
X43634737Y39498326D01*
X43653819Y39482666D01*
X47323813Y35812670D01*
X47323824Y35812661D01*
X56310000Y26826484D01*
X56310001Y24274595D01*
X56285693Y24250287D01*
X56211823Y24139732D01*
X56160940Y24016890D01*
X56135000Y23886482D01*
X56135000Y23753518D01*
X56160940Y23623110D01*
X56211823Y23500268D01*
X56285693Y23389713D01*
X56379713Y23295693D01*
X56490268Y23221823D01*
X56613110Y23170940D01*
X56743518Y23145000D01*
X56876482Y23145000D01*
X57006890Y23170940D01*
X57129732Y23221823D01*
X57240287Y23295693D01*
X57334307Y23389713D01*
X57408177Y23500268D01*
X57459060Y23623110D01*
X57485000Y23753518D01*
X57485000Y23886482D01*
X57459060Y24016890D01*
X57408177Y24139732D01*
X57334307Y24250287D01*
X57310000Y24274594D01*
X57310000Y26462894D01*
X57825001Y25947893D01*
X57825000Y22269594D01*
X57800693Y22245287D01*
X57726823Y22134732D01*
X57675940Y22011890D01*
X57650000Y21881482D01*
X57650000Y21748518D01*
X57675940Y21618110D01*
X57726823Y21495268D01*
X57800693Y21384713D01*
X57894713Y21290693D01*
X58005268Y21216823D01*
X58128110Y21165940D01*
X58258518Y21140000D01*
X58391482Y21140000D01*
X58521890Y21165940D01*
X58644732Y21216823D01*
X58755287Y21290693D01*
X58849307Y21384713D01*
X58923177Y21495268D01*
X58974060Y21618110D01*
X59000000Y21748518D01*
X59000000Y21881482D01*
X58974060Y22011890D01*
X58923177Y22134732D01*
X58849307Y22245287D01*
X58825000Y22269594D01*
X58825000Y26130440D01*
X58827419Y26155000D01*
X58817765Y26253017D01*
X58802674Y26302765D01*
X58789175Y26347267D01*
X58742746Y26434129D01*
X58680264Y26510264D01*
X58661181Y26525925D01*
X47030000Y38157105D01*
X47030000Y41028243D01*
X47213866Y41126522D01*
X47400397Y41279603D01*
X47553478Y41466134D01*
X47667228Y41678945D01*
X47737275Y41909858D01*
X47760927Y42150000D01*
X47839073Y42150000D01*
X47862725Y41909858D01*
X47932772Y41678945D01*
X48046522Y41466134D01*
X48199603Y41279603D01*
X48386134Y41126522D01*
X48570000Y41028243D01*
X48570001Y39394570D01*
X48570000Y39394560D01*
X48570000Y39034560D01*
X48567581Y39010000D01*
X48570000Y38985441D01*
X48577235Y38911984D01*
X48605825Y38817734D01*
X48652254Y38730871D01*
X48714736Y38654736D01*
X48733824Y38639071D01*
X55575000Y31797893D01*
X55575000Y31763518D01*
X55600940Y31633110D01*
X55651823Y31510268D01*
X55725693Y31399713D01*
X55819713Y31305693D01*
X55930268Y31231823D01*
X56053110Y31180940D01*
X56183518Y31155000D01*
X56316482Y31155000D01*
X56446890Y31180940D01*
X56569732Y31231823D01*
X56680287Y31305693D01*
X56774307Y31399713D01*
X56848177Y31510268D01*
X56899060Y31633110D01*
X56925000Y31763518D01*
X56925000Y31896482D01*
X56899060Y32026890D01*
X56848177Y32149732D01*
X56774307Y32260287D01*
X56680287Y32354307D01*
X56569732Y32428177D01*
X56446890Y32479060D01*
X56316482Y32505000D01*
X56282107Y32505000D01*
X49570000Y39217105D01*
X49570000Y41028243D01*
X49753866Y41126522D01*
X49940397Y41279603D01*
X50093478Y41466134D01*
X50207228Y41678945D01*
X50277275Y41909858D01*
X50300927Y42150000D01*
X50277275Y42390142D01*
X50207228Y42621055D01*
X50093478Y42833866D01*
X49940397Y43020397D01*
X49753866Y43173478D01*
X49541055Y43287228D01*
X49310142Y43357275D01*
X49130178Y43375000D01*
X49009822Y43375000D01*
X48829858Y43357275D01*
X48598945Y43287228D01*
X48386134Y43173478D01*
X48199603Y43020397D01*
X48046522Y42833866D01*
X47932772Y42621055D01*
X47862725Y42390142D01*
X47839073Y42150000D01*
X47760927Y42150000D01*
X47737275Y42390142D01*
X47667228Y42621055D01*
X47553478Y42833866D01*
X47400397Y43020397D01*
X47213866Y43173478D01*
X47001055Y43287228D01*
X46770142Y43357275D01*
X46590178Y43375000D01*
X46469822Y43375000D01*
X46289858Y43357275D01*
X46058945Y43287228D01*
X45846134Y43173478D01*
X45659603Y43020397D01*
X45506522Y42833866D01*
X45392772Y42621055D01*
X45322725Y42390142D01*
X45299073Y42150000D01*
X45322725Y41909858D01*
X45392772Y41678945D01*
X45506522Y41466134D01*
X45659603Y41279603D01*
X45846134Y41126522D01*
X46030001Y41028243D01*
X46030000Y38520696D01*
X44490000Y40060695D01*
X44490000Y41028243D01*
X44673866Y41126522D01*
X44860397Y41279603D01*
X45013478Y41466134D01*
X45127228Y41678945D01*
X45197275Y41909858D01*
X45220927Y42150000D01*
X45197275Y42390142D01*
X45127228Y42621055D01*
X45013478Y42833866D01*
X44860397Y43020397D01*
X44673866Y43173478D01*
X44461055Y43287228D01*
X44230142Y43357275D01*
X44050178Y43375000D01*
X43929822Y43375000D01*
X43749858Y43357275D01*
X43518945Y43287228D01*
X43306134Y43173478D01*
X43119603Y43020397D01*
X42966522Y42833866D01*
X42852772Y42621055D01*
X42782725Y42390142D01*
X42759073Y42150000D01*
X42676814Y42150000D01*
X42676814Y43000000D01*
X42669574Y43073513D01*
X42648131Y43144200D01*
X42613309Y43209347D01*
X42566448Y43266448D01*
X42509347Y43313309D01*
X42444200Y43348131D01*
X42373513Y43369574D01*
X42300000Y43376814D01*
X40600000Y43376814D01*
X40526487Y43369574D01*
X40455800Y43348131D01*
X40390653Y43313309D01*
X40333552Y43266448D01*
X40286691Y43209347D01*
X40251869Y43144200D01*
X40230426Y43073513D01*
X40223186Y43000000D01*
X28546015Y43000000D01*
X27239392Y44306622D01*
X27253110Y44300940D01*
X27383518Y44275000D01*
X27516482Y44275000D01*
X27646890Y44300940D01*
X27769732Y44351823D01*
X27880287Y44425693D01*
X27904594Y44450000D01*
X33652560Y44450000D01*
X33726017Y44457235D01*
X33820267Y44485825D01*
X33907129Y44532254D01*
X33983264Y44594736D01*
X34045746Y44670871D01*
X34055970Y44690000D01*
X40219073Y44690000D01*
X40242725Y44449858D01*
X40312772Y44218945D01*
X40426522Y44006134D01*
X40579603Y43819603D01*
X40766134Y43666522D01*
X40978945Y43552772D01*
X41209858Y43482725D01*
X41389822Y43465000D01*
X41510178Y43465000D01*
X41690142Y43482725D01*
X41921055Y43552772D01*
X42133866Y43666522D01*
X42320397Y43819603D01*
X42473478Y44006134D01*
X42587228Y44218945D01*
X42657275Y44449858D01*
X42680927Y44690000D01*
X42759073Y44690000D01*
X42782725Y44449858D01*
X42852772Y44218945D01*
X42966522Y44006134D01*
X43119603Y43819603D01*
X43306134Y43666522D01*
X43518945Y43552772D01*
X43749858Y43482725D01*
X43929822Y43465000D01*
X44050178Y43465000D01*
X44230142Y43482725D01*
X44461055Y43552772D01*
X44673866Y43666522D01*
X44860397Y43819603D01*
X45013478Y44006134D01*
X45127228Y44218945D01*
X45197275Y44449858D01*
X45220927Y44690000D01*
X45299073Y44690000D01*
X45322725Y44449858D01*
X45392772Y44218945D01*
X45506522Y44006134D01*
X45659603Y43819603D01*
X45846134Y43666522D01*
X46058945Y43552772D01*
X46289858Y43482725D01*
X46469822Y43465000D01*
X46590178Y43465000D01*
X46770142Y43482725D01*
X47001055Y43552772D01*
X47213866Y43666522D01*
X47400397Y43819603D01*
X47553478Y44006134D01*
X47667228Y44218945D01*
X47737275Y44449858D01*
X47760927Y44690000D01*
X47839073Y44690000D01*
X47862725Y44449858D01*
X47932772Y44218945D01*
X48046522Y44006134D01*
X48199603Y43819603D01*
X48386134Y43666522D01*
X48598945Y43552772D01*
X48829858Y43482725D01*
X49009822Y43465000D01*
X49130178Y43465000D01*
X49310142Y43482725D01*
X49541055Y43552772D01*
X49753866Y43666522D01*
X49940397Y43819603D01*
X50093478Y44006134D01*
X50207228Y44218945D01*
X50277275Y44449858D01*
X50300927Y44690000D01*
X50379073Y44690000D01*
X50402725Y44449858D01*
X50472772Y44218945D01*
X50586522Y44006134D01*
X50739603Y43819603D01*
X50926134Y43666522D01*
X51138945Y43552772D01*
X51369858Y43482725D01*
X51549822Y43465000D01*
X51670178Y43465000D01*
X51850142Y43482725D01*
X52081055Y43552772D01*
X52293866Y43666522D01*
X52480397Y43819603D01*
X52633478Y44006134D01*
X52747228Y44218945D01*
X52817275Y44449858D01*
X52823297Y44510998D01*
X52873966Y44510998D01*
X52773723Y44290788D01*
X52878050Y44029960D01*
X53031258Y43794497D01*
X53227458Y43593448D01*
X53459111Y43434539D01*
X53493034Y43420000D01*
X53459111Y43405461D01*
X53227458Y43246552D01*
X53031258Y43045503D01*
X52878050Y42810040D01*
X52773723Y42549212D01*
X52873966Y42329002D01*
X52823297Y42329002D01*
X52817275Y42390142D01*
X52747228Y42621055D01*
X52633478Y42833866D01*
X52480397Y43020397D01*
X52293866Y43173478D01*
X52081055Y43287228D01*
X51850142Y43357275D01*
X51670178Y43375000D01*
X51549822Y43375000D01*
X51369858Y43357275D01*
X51138945Y43287228D01*
X50926134Y43173478D01*
X50739603Y43020397D01*
X50586522Y42833866D01*
X50472772Y42621055D01*
X50402725Y42390142D01*
X50379073Y42150000D01*
X50402725Y41909858D01*
X50472772Y41678945D01*
X50586522Y41466134D01*
X50739603Y41279603D01*
X50926134Y41126522D01*
X51110001Y41028243D01*
X51110000Y38814560D01*
X51107581Y38790000D01*
X51117235Y38691983D01*
X51120789Y38680268D01*
X51145825Y38597734D01*
X51192254Y38510871D01*
X51254736Y38434736D01*
X51273824Y38419071D01*
X57330001Y32362892D01*
X57330000Y30274594D01*
X57305693Y30250287D01*
X57231823Y30139732D01*
X57180940Y30016890D01*
X57155000Y29886482D01*
X57155000Y29753518D01*
X57180940Y29623110D01*
X57231823Y29500268D01*
X57305693Y29389713D01*
X57399713Y29295693D01*
X57510268Y29221823D01*
X57633110Y29170940D01*
X57763518Y29145000D01*
X57896482Y29145000D01*
X58026890Y29170940D01*
X58149732Y29221823D01*
X58260287Y29295693D01*
X58354307Y29389713D01*
X58428177Y29500268D01*
X58479060Y29623110D01*
X58505000Y29753518D01*
X58505000Y29886482D01*
X58479060Y30016890D01*
X58428177Y30139732D01*
X58354307Y30250287D01*
X58330000Y30274594D01*
X58330000Y32545451D01*
X58332418Y32570001D01*
X58330000Y32594551D01*
X58330000Y32594560D01*
X58322765Y32668017D01*
X58294175Y32762267D01*
X58247746Y32849129D01*
X58185264Y32925264D01*
X58166187Y32940920D01*
X52819106Y38288000D01*
X63882179Y38288000D01*
X63893435Y38173712D01*
X63926772Y38063816D01*
X63980908Y37962535D01*
X64053762Y37873762D01*
X64142535Y37800908D01*
X64243816Y37746772D01*
X64353712Y37713435D01*
X64468000Y37702179D01*
X66175250Y37705000D01*
X66321000Y37850750D01*
X66321000Y39109000D01*
X64030750Y39109000D01*
X63885000Y38963250D01*
X63882179Y38288000D01*
X52819106Y38288000D01*
X52110000Y38997105D01*
X52110000Y40288000D01*
X63882179Y40288000D01*
X63885000Y39612750D01*
X64030750Y39467000D01*
X66321000Y39467000D01*
X66321000Y40725250D01*
X66175250Y40871000D01*
X64468000Y40873821D01*
X64353712Y40862565D01*
X64243816Y40829228D01*
X64142535Y40775092D01*
X64053762Y40702238D01*
X63980908Y40613465D01*
X63926772Y40512184D01*
X63893435Y40402288D01*
X63882179Y40288000D01*
X52110000Y40288000D01*
X52110000Y41028243D01*
X52293866Y41126522D01*
X52480397Y41279603D01*
X52633478Y41466134D01*
X52747228Y41678945D01*
X52817275Y41909858D01*
X52823297Y41970998D01*
X52873966Y41970998D01*
X52773723Y41750788D01*
X52878050Y41489960D01*
X53031258Y41254497D01*
X53227458Y41053448D01*
X53459111Y40894539D01*
X53717315Y40783877D01*
X53750789Y40773730D01*
X53971000Y40875256D01*
X53971000Y41971000D01*
X54329000Y41971000D01*
X54329000Y40875256D01*
X54549211Y40773730D01*
X54582685Y40783877D01*
X54840889Y40894539D01*
X55072542Y41053448D01*
X55268742Y41254497D01*
X55421950Y41489960D01*
X55526277Y41750788D01*
X55426033Y41971000D01*
X54329000Y41971000D01*
X53971000Y41971000D01*
X53951000Y41971000D01*
X53951000Y42329000D01*
X53971000Y42329000D01*
X53971000Y44511000D01*
X54329000Y44511000D01*
X54329000Y42329000D01*
X55426033Y42329000D01*
X55526277Y42549212D01*
X55421950Y42810040D01*
X55268742Y43045503D01*
X55072542Y43246552D01*
X54840889Y43405461D01*
X54806966Y43420000D01*
X54840889Y43434539D01*
X55072542Y43593448D01*
X55268742Y43794497D01*
X55280130Y43812000D01*
X63882179Y43812000D01*
X63893435Y43697712D01*
X63926772Y43587816D01*
X63980908Y43486535D01*
X64053762Y43397762D01*
X64142535Y43324908D01*
X64243816Y43270772D01*
X64353712Y43237435D01*
X64468000Y43226179D01*
X66175250Y43229000D01*
X66321000Y43374750D01*
X66321000Y44633000D01*
X64030750Y44633000D01*
X63885000Y44487250D01*
X63882179Y43812000D01*
X55280130Y43812000D01*
X55421950Y44029960D01*
X55526277Y44290788D01*
X55426033Y44511000D01*
X54329000Y44511000D01*
X53971000Y44511000D01*
X53951000Y44511000D01*
X53951000Y44869000D01*
X53971000Y44869000D01*
X53971000Y45964744D01*
X54329000Y45964744D01*
X54329000Y44869000D01*
X55426033Y44869000D01*
X55526277Y45089212D01*
X55421950Y45350040D01*
X55268742Y45585503D01*
X55072542Y45786552D01*
X55035445Y45812000D01*
X63882179Y45812000D01*
X63885000Y45136750D01*
X64030750Y44991000D01*
X66321000Y44991000D01*
X66321000Y46249250D01*
X66175250Y46395000D01*
X64468000Y46397821D01*
X64353712Y46386565D01*
X64243816Y46353228D01*
X64142535Y46299092D01*
X64053762Y46226238D01*
X63980908Y46137465D01*
X63926772Y46036184D01*
X63893435Y45926288D01*
X63882179Y45812000D01*
X55035445Y45812000D01*
X54840889Y45945461D01*
X54582685Y46056123D01*
X54549211Y46066270D01*
X54329000Y45964744D01*
X53971000Y45964744D01*
X53750789Y46066270D01*
X53717315Y46056123D01*
X53459111Y45945461D01*
X53227458Y45786552D01*
X53031258Y45585503D01*
X52878050Y45350040D01*
X52773723Y45089212D01*
X52873966Y44869002D01*
X52823297Y44869002D01*
X52817275Y44930142D01*
X52747228Y45161055D01*
X52633478Y45373866D01*
X52480397Y45560397D01*
X52293866Y45713478D01*
X52081055Y45827228D01*
X51850142Y45897275D01*
X51670178Y45915000D01*
X51549822Y45915000D01*
X51369858Y45897275D01*
X51138945Y45827228D01*
X50926134Y45713478D01*
X50739603Y45560397D01*
X50586522Y45373866D01*
X50472772Y45161055D01*
X50402725Y44930142D01*
X50379073Y44690000D01*
X50300927Y44690000D01*
X50277275Y44930142D01*
X50207228Y45161055D01*
X50093478Y45373866D01*
X49940397Y45560397D01*
X49753866Y45713478D01*
X49541055Y45827228D01*
X49310142Y45897275D01*
X49130178Y45915000D01*
X49009822Y45915000D01*
X48829858Y45897275D01*
X48598945Y45827228D01*
X48386134Y45713478D01*
X48199603Y45560397D01*
X48046522Y45373866D01*
X47932772Y45161055D01*
X47862725Y44930142D01*
X47839073Y44690000D01*
X47760927Y44690000D01*
X47737275Y44930142D01*
X47667228Y45161055D01*
X47553478Y45373866D01*
X47400397Y45560397D01*
X47213866Y45713478D01*
X47001055Y45827228D01*
X46770142Y45897275D01*
X46590178Y45915000D01*
X46469822Y45915000D01*
X46289858Y45897275D01*
X46058945Y45827228D01*
X45846134Y45713478D01*
X45659603Y45560397D01*
X45506522Y45373866D01*
X45392772Y45161055D01*
X45322725Y44930142D01*
X45299073Y44690000D01*
X45220927Y44690000D01*
X45197275Y44930142D01*
X45127228Y45161055D01*
X45013478Y45373866D01*
X44860397Y45560397D01*
X44673866Y45713478D01*
X44461055Y45827228D01*
X44230142Y45897275D01*
X44050178Y45915000D01*
X43929822Y45915000D01*
X43749858Y45897275D01*
X43518945Y45827228D01*
X43306134Y45713478D01*
X43119603Y45560397D01*
X42966522Y45373866D01*
X42852772Y45161055D01*
X42782725Y44930142D01*
X42759073Y44690000D01*
X42680927Y44690000D01*
X42657275Y44930142D01*
X42587228Y45161055D01*
X42473478Y45373866D01*
X42320397Y45560397D01*
X42133866Y45713478D01*
X41921055Y45827228D01*
X41690142Y45897275D01*
X41510178Y45915000D01*
X41389822Y45915000D01*
X41209858Y45897275D01*
X40978945Y45827228D01*
X40766134Y45713478D01*
X40579603Y45560397D01*
X40426522Y45373866D01*
X40312772Y45161055D01*
X40242725Y44930142D01*
X40219073Y44690000D01*
X34055970Y44690000D01*
X34092175Y44757733D01*
X34120765Y44851983D01*
X34130419Y44950000D01*
X34120765Y45048017D01*
X34092175Y45142267D01*
X34045746Y45229129D01*
X33983264Y45305264D01*
X33907129Y45367746D01*
X33820267Y45414175D01*
X33726017Y45442765D01*
X33652560Y45450000D01*
X27904594Y45450000D01*
X27880287Y45474307D01*
X27769732Y45548177D01*
X27646890Y45599060D01*
X27516482Y45625000D01*
X27383518Y45625000D01*
X27253110Y45599060D01*
X27130268Y45548177D01*
X27019713Y45474307D01*
X26925693Y45380287D01*
X26851823Y45269732D01*
X26800940Y45146890D01*
X26775000Y45016482D01*
X26775000Y44883518D01*
X26800940Y44753110D01*
X26806622Y44739392D01*
X25024933Y46521081D01*
X25000659Y46550659D01*
X24882650Y46647506D01*
X24748014Y46719470D01*
X24601926Y46763786D01*
X24488065Y46775000D01*
X24488063Y46775000D01*
X24450000Y46778749D01*
X24411937Y46775000D01*
X14413799Y46775000D01*
X14375736Y46778749D01*
X14337673Y46775000D01*
X14337671Y46775000D01*
X14223810Y46763786D01*
X14077722Y46719470D01*
X14015049Y46685971D01*
X13943085Y46647506D01*
X13900624Y46612658D01*
X13825077Y46550659D01*
X13800808Y46521087D01*
X10978914Y43699192D01*
X10949342Y43674923D01*
X10852494Y43556914D01*
X10780530Y43422278D01*
X10736214Y43276190D01*
X10730628Y43219470D01*
X10721251Y43124264D01*
X7650010Y43124264D01*
X7650010Y43606495D01*
X11243507Y47199990D01*
X17211831Y47199992D01*
X17236401Y47197572D01*
X17334418Y47207226D01*
X17428668Y47235817D01*
X17515530Y47282246D01*
X17591665Y47344728D01*
X17607325Y47363810D01*
X18153507Y47909990D01*
X39253430Y47909990D01*
X39277990Y47907571D01*
X39302550Y47909990D01*
X39376007Y47917225D01*
X39470257Y47945815D01*
X39557119Y47992244D01*
X39633254Y48054726D01*
X39648919Y48073814D01*
X41240781Y49665675D01*
X41267264Y49651519D01*
X41526453Y49572895D01*
X41728451Y49553000D01*
X41863549Y49553000D01*
X42065547Y49572895D01*
X42324736Y49651519D01*
X42563605Y49779198D01*
X42772976Y49951024D01*
X42944802Y50160395D01*
X43072481Y50399264D01*
X43151105Y50658453D01*
X43177653Y50928000D01*
X44474347Y50928000D01*
X44500895Y50658453D01*
X44579519Y50399264D01*
X44707198Y50160395D01*
X44879024Y49951024D01*
X45088395Y49779198D01*
X45327264Y49651519D01*
X45586453Y49572895D01*
X45788451Y49553000D01*
X45923549Y49553000D01*
X46125547Y49572895D01*
X46384736Y49651519D01*
X46623605Y49779198D01*
X46832976Y49951024D01*
X47004802Y50160395D01*
X47126000Y50387139D01*
X47247198Y50160395D01*
X47419024Y49951024D01*
X47628395Y49779198D01*
X47867264Y49651519D01*
X48126453Y49572895D01*
X48328451Y49553000D01*
X48463549Y49553000D01*
X48665547Y49572895D01*
X48924736Y49651519D01*
X49163605Y49779198D01*
X49372976Y49951024D01*
X49544802Y50160395D01*
X49666000Y50387139D01*
X49787198Y50160395D01*
X49959024Y49951024D01*
X50168395Y49779198D01*
X50407264Y49651519D01*
X50666453Y49572895D01*
X50868451Y49553000D01*
X51003549Y49553000D01*
X51205547Y49572895D01*
X51464736Y49651519D01*
X51703605Y49779198D01*
X51912976Y49951024D01*
X52084802Y50160395D01*
X52206000Y50387139D01*
X52327198Y50160395D01*
X52499024Y49951024D01*
X52708395Y49779198D01*
X52947264Y49651519D01*
X53206453Y49572895D01*
X53408451Y49553000D01*
X53543549Y49553000D01*
X53745547Y49572895D01*
X54004736Y49651519D01*
X54243605Y49779198D01*
X54452976Y49951024D01*
X54624802Y50160395D01*
X54746000Y50387139D01*
X54867198Y50160395D01*
X55039024Y49951024D01*
X55248395Y49779198D01*
X55487264Y49651519D01*
X55746453Y49572895D01*
X55948451Y49553000D01*
X56083549Y49553000D01*
X56285547Y49572895D01*
X56544736Y49651519D01*
X56783605Y49779198D01*
X56992976Y49951024D01*
X57164802Y50160395D01*
X57286000Y50387139D01*
X57407198Y50160395D01*
X57579024Y49951024D01*
X57788395Y49779198D01*
X58027264Y49651519D01*
X58286453Y49572895D01*
X58488451Y49553000D01*
X58623549Y49553000D01*
X58825547Y49572895D01*
X59084736Y49651519D01*
X59323605Y49779198D01*
X59532976Y49951024D01*
X59704802Y50160395D01*
X59826000Y50387139D01*
X59947198Y50160395D01*
X60119024Y49951024D01*
X60328395Y49779198D01*
X60567264Y49651519D01*
X60826453Y49572895D01*
X61028451Y49553000D01*
X61163549Y49553000D01*
X61365547Y49572895D01*
X61624736Y49651519D01*
X61863605Y49779198D01*
X62072976Y49951024D01*
X62244802Y50160395D01*
X62366000Y50387139D01*
X62487198Y50160395D01*
X62659024Y49951024D01*
X62868395Y49779198D01*
X63107264Y49651519D01*
X63366453Y49572895D01*
X63568451Y49553000D01*
X63703549Y49553000D01*
X63905547Y49572895D01*
X64164736Y49651519D01*
X64403605Y49779198D01*
X64612976Y49951024D01*
X64784802Y50160395D01*
X64912481Y50399264D01*
X64991105Y50658453D01*
X65017653Y50928000D01*
X64991105Y51197547D01*
X64912481Y51456736D01*
X64784802Y51695605D01*
X64612976Y51904976D01*
X64403605Y52076802D01*
X64164736Y52204481D01*
X63905547Y52283105D01*
X63703549Y52303000D01*
X63568451Y52303000D01*
X63366453Y52283105D01*
X63107264Y52204481D01*
X62868395Y52076802D01*
X62659024Y51904976D01*
X62487198Y51695605D01*
X62366000Y51468861D01*
X62244802Y51695605D01*
X62072976Y51904976D01*
X61863605Y52076802D01*
X61624736Y52204481D01*
X61365547Y52283105D01*
X61163549Y52303000D01*
X61028451Y52303000D01*
X60826453Y52283105D01*
X60567264Y52204481D01*
X60328395Y52076802D01*
X60119024Y51904976D01*
X59947198Y51695605D01*
X59826000Y51468861D01*
X59704802Y51695605D01*
X59532976Y51904976D01*
X59323605Y52076802D01*
X59084736Y52204481D01*
X58825547Y52283105D01*
X58623549Y52303000D01*
X58488451Y52303000D01*
X58286453Y52283105D01*
X58027264Y52204481D01*
X57788395Y52076802D01*
X57579024Y51904976D01*
X57407198Y51695605D01*
X57286000Y51468861D01*
X57164802Y51695605D01*
X56992976Y51904976D01*
X56783605Y52076802D01*
X56544736Y52204481D01*
X56285547Y52283105D01*
X56083549Y52303000D01*
X55948451Y52303000D01*
X55746453Y52283105D01*
X55487264Y52204481D01*
X55248395Y52076802D01*
X55039024Y51904976D01*
X54867198Y51695605D01*
X54746000Y51468861D01*
X54624802Y51695605D01*
X54452976Y51904976D01*
X54243605Y52076802D01*
X54004736Y52204481D01*
X53745547Y52283105D01*
X53543549Y52303000D01*
X53408451Y52303000D01*
X53206453Y52283105D01*
X52947264Y52204481D01*
X52708395Y52076802D01*
X52499024Y51904976D01*
X52327198Y51695605D01*
X52206000Y51468861D01*
X52084802Y51695605D01*
X51912976Y51904976D01*
X51703605Y52076802D01*
X51464736Y52204481D01*
X51205547Y52283105D01*
X51003549Y52303000D01*
X50868451Y52303000D01*
X50666453Y52283105D01*
X50407264Y52204481D01*
X50168395Y52076802D01*
X49959024Y51904976D01*
X49787198Y51695605D01*
X49666000Y51468861D01*
X49544802Y51695605D01*
X49372976Y51904976D01*
X49163605Y52076802D01*
X48924736Y52204481D01*
X48665547Y52283105D01*
X48463549Y52303000D01*
X48328451Y52303000D01*
X48126453Y52283105D01*
X47867264Y52204481D01*
X47628395Y52076802D01*
X47419024Y51904976D01*
X47247198Y51695605D01*
X47126000Y51468861D01*
X47004802Y51695605D01*
X46832976Y51904976D01*
X46623605Y52076802D01*
X46384736Y52204481D01*
X46125547Y52283105D01*
X45923549Y52303000D01*
X45788451Y52303000D01*
X45586453Y52283105D01*
X45327264Y52204481D01*
X45088395Y52076802D01*
X44879024Y51904976D01*
X44707198Y51695605D01*
X44579519Y51456736D01*
X44500895Y51197547D01*
X44474347Y50928000D01*
X43177653Y50928000D01*
X43151105Y51197547D01*
X43072481Y51456736D01*
X42944802Y51695605D01*
X42772976Y51904976D01*
X42563605Y52076802D01*
X42324736Y52204481D01*
X42065547Y52283105D01*
X41863549Y52303000D01*
X41728451Y52303000D01*
X41526453Y52283105D01*
X41267264Y52204481D01*
X41028395Y52076802D01*
X40819024Y51904976D01*
X40647198Y51695605D01*
X40526000Y51468861D01*
X40404802Y51695605D01*
X40232976Y51904976D01*
X40023605Y52076802D01*
X39784736Y52204481D01*
X39525547Y52283105D01*
X39323549Y52303000D01*
X39188451Y52303000D01*
X38986453Y52283105D01*
X38727264Y52204481D01*
X38488395Y52076802D01*
X38279024Y51904976D01*
X38107198Y51695605D01*
X37986000Y51468861D01*
X37864802Y51695605D01*
X37692976Y51904976D01*
X37483605Y52076802D01*
X37244736Y52204481D01*
X36985547Y52283105D01*
X36783549Y52303000D01*
X36648451Y52303000D01*
X36446453Y52283105D01*
X36187264Y52204481D01*
X35948395Y52076802D01*
X35739024Y51904976D01*
X35567198Y51695605D01*
X35446000Y51468861D01*
X35324802Y51695605D01*
X35152976Y51904976D01*
X34943605Y52076802D01*
X34704736Y52204481D01*
X34445547Y52283105D01*
X34243549Y52303000D01*
X34108451Y52303000D01*
X33906453Y52283105D01*
X33647264Y52204481D01*
X33408395Y52076802D01*
X33199024Y51904976D01*
X33027198Y51695605D01*
X32906000Y51468861D01*
X32784802Y51695605D01*
X32612976Y51904976D01*
X32403605Y52076802D01*
X32164736Y52204481D01*
X31905547Y52283105D01*
X31703549Y52303000D01*
X31568451Y52303000D01*
X31366453Y52283105D01*
X31107264Y52204481D01*
X30868395Y52076802D01*
X30659024Y51904976D01*
X30487198Y51695605D01*
X30366000Y51468861D01*
X30244802Y51695605D01*
X30072976Y51904976D01*
X29863605Y52076802D01*
X29624736Y52204481D01*
X29365547Y52283105D01*
X29163549Y52303000D01*
X29028451Y52303000D01*
X28826453Y52283105D01*
X28567264Y52204481D01*
X28328395Y52076802D01*
X28119024Y51904976D01*
X27947198Y51695605D01*
X27826000Y51468861D01*
X27704802Y51695605D01*
X27532976Y51904976D01*
X27323605Y52076802D01*
X27084736Y52204481D01*
X26825547Y52283105D01*
X26623549Y52303000D01*
X26488451Y52303000D01*
X26286453Y52283105D01*
X26027264Y52204481D01*
X25788395Y52076802D01*
X25579024Y51904976D01*
X25407198Y51695605D01*
X25286000Y51468861D01*
X25164802Y51695605D01*
X24992976Y51904976D01*
X24783605Y52076802D01*
X24544736Y52204481D01*
X24285547Y52283105D01*
X24083549Y52303000D01*
X23948451Y52303000D01*
X23746453Y52283105D01*
X23487264Y52204481D01*
X23248395Y52076802D01*
X23039024Y51904976D01*
X22867198Y51695605D01*
X22746000Y51468861D01*
X22624802Y51695605D01*
X22452976Y51904976D01*
X22243605Y52076802D01*
X22004736Y52204481D01*
X21745547Y52283105D01*
X21543549Y52303000D01*
X21408451Y52303000D01*
X21206453Y52283105D01*
X20947264Y52204481D01*
X20708395Y52076802D01*
X20499024Y51904976D01*
X20327198Y51695605D01*
X20206000Y51468861D01*
X20084802Y51695605D01*
X19912976Y51904976D01*
X19703605Y52076802D01*
X19464736Y52204481D01*
X19205547Y52283105D01*
X19003549Y52303000D01*
X18868451Y52303000D01*
X18666453Y52283105D01*
X18407264Y52204481D01*
X18168395Y52076802D01*
X17959024Y51904976D01*
X17787198Y51695605D01*
X17659519Y51456736D01*
X17580895Y51197547D01*
X17554347Y50928000D01*
X17580895Y50658453D01*
X17659519Y50399264D01*
X17787198Y50160395D01*
X17959024Y49951024D01*
X18168395Y49779198D01*
X18407264Y49651519D01*
X18666453Y49572895D01*
X18868451Y49553000D01*
X19003549Y49553000D01*
X19205547Y49572895D01*
X19464736Y49651519D01*
X19703605Y49779198D01*
X19912976Y49951024D01*
X20084802Y50160395D01*
X20206000Y50387139D01*
X20327198Y50160395D01*
X20499024Y49951024D01*
X20708395Y49779198D01*
X20947264Y49651519D01*
X21206453Y49572895D01*
X21408451Y49553000D01*
X21543549Y49553000D01*
X21745547Y49572895D01*
X22004736Y49651519D01*
X22243605Y49779198D01*
X22452976Y49951024D01*
X22624802Y50160395D01*
X22746000Y50387139D01*
X22867198Y50160395D01*
X23039024Y49951024D01*
X23248395Y49779198D01*
X23487264Y49651519D01*
X23746453Y49572895D01*
X23948451Y49553000D01*
X24083549Y49553000D01*
X24285547Y49572895D01*
X24544736Y49651519D01*
X24783605Y49779198D01*
X24992976Y49951024D01*
X25164802Y50160395D01*
X25286000Y50387139D01*
X25407198Y50160395D01*
X25579024Y49951024D01*
X25788395Y49779198D01*
X26027264Y49651519D01*
X26286453Y49572895D01*
X26488451Y49553000D01*
X26623549Y49553000D01*
X26825547Y49572895D01*
X27084736Y49651519D01*
X27323605Y49779198D01*
X27532976Y49951024D01*
X27704802Y50160395D01*
X27826000Y50387139D01*
X27947198Y50160395D01*
X28119024Y49951024D01*
X28328395Y49779198D01*
X28567264Y49651519D01*
X28826453Y49572895D01*
X29028451Y49553000D01*
X29163549Y49553000D01*
X29365547Y49572895D01*
X29624736Y49651519D01*
X29863605Y49779198D01*
X30072976Y49951024D01*
X30244802Y50160395D01*
X30366000Y50387139D01*
X30487198Y50160395D01*
X30659024Y49951024D01*
X30868395Y49779198D01*
X31107264Y49651519D01*
X31366453Y49572895D01*
X31568451Y49553000D01*
X31703549Y49553000D01*
X31905547Y49572895D01*
X32164736Y49651519D01*
X32403605Y49779198D01*
X32612976Y49951024D01*
X32784802Y50160395D01*
X32906000Y50387139D01*
X33027198Y50160395D01*
X33199024Y49951024D01*
X33408395Y49779198D01*
X33647264Y49651519D01*
X33906453Y49572895D01*
X34108451Y49553000D01*
X34243549Y49553000D01*
X34445547Y49572895D01*
X34704736Y49651519D01*
X34943605Y49779198D01*
X35152976Y49951024D01*
X35324802Y50160395D01*
X35446000Y50387139D01*
X35567198Y50160395D01*
X35739024Y49951024D01*
X35948395Y49779198D01*
X36187264Y49651519D01*
X36446453Y49572895D01*
X36648451Y49553000D01*
X36783549Y49553000D01*
X36985547Y49572895D01*
X37244736Y49651519D01*
X37304196Y49683301D01*
X36980895Y49360000D01*
X17784560Y49360000D01*
X17760000Y49362419D01*
X17735440Y49360000D01*
X17661983Y49352765D01*
X17567733Y49324175D01*
X17480871Y49277746D01*
X17404736Y49215264D01*
X17389080Y49196187D01*
X16842895Y48650000D01*
X10874549Y48650000D01*
X10849999Y48652418D01*
X10825449Y48650000D01*
X10825440Y48650000D01*
X10751983Y48642765D01*
X10657733Y48614175D01*
X10570871Y48567746D01*
X10494736Y48505264D01*
X10479080Y48486187D01*
X6363824Y44370929D01*
X6344736Y44355264D01*
X6282254Y44279129D01*
X6235825Y44192266D01*
X6222939Y44149786D01*
X6207235Y44098017D01*
X6197581Y44000000D01*
X450000Y44000000D01*
X450000Y51122521D01*
X13401000Y51122521D01*
X13401000Y50733479D01*
X13476898Y50351914D01*
X13625778Y49992487D01*
X13841917Y49669011D01*
X14117011Y49393917D01*
X14440487Y49177778D01*
X14799914Y49028898D01*
X15181479Y48953000D01*
X15570521Y48953000D01*
X15952086Y49028898D01*
X16311513Y49177778D01*
X16634989Y49393917D01*
X16910083Y49669011D01*
X17126222Y49992487D01*
X17275102Y50351914D01*
X17351000Y50733479D01*
X17351000Y51122521D01*
X17275102Y51504086D01*
X17126222Y51863513D01*
X16910083Y52186989D01*
X16634989Y52462083D01*
X16311513Y52678222D01*
X15952086Y52827102D01*
X15570521Y52903000D01*
X15181479Y52903000D01*
X14799914Y52827102D01*
X14440487Y52678222D01*
X14117011Y52462083D01*
X13841917Y52186989D01*
X13625778Y51863513D01*
X13476898Y51504086D01*
X13401000Y51122521D01*
X450000Y51122521D01*
X450000Y53150000D01*
X68400001Y53150000D01*
X68400001Y46397603D01*
M02*
