G04 #@! TF.GenerationSoftware,KiCad,Pcbnew,(5.1.2)-2*
G04 #@! TF.CreationDate,2020-02-19T10:12:51-05:00*
G04 #@! TF.ProjectId,LoRaShield2,4c6f5261-5368-4696-956c-64322e6b6963,V2*
G04 #@! TF.SameCoordinates,PX437ae70PY8b896f8*
G04 #@! TF.FileFunction,Soldermask,Top*
G04 #@! TF.FilePolarity,Negative*
%FSLAX46Y46*%
G04 Gerber Fmt 4.6, Leading zero omitted, Abs format (unit mm)*
G04 Created by KiCad (PCBNEW (5.1.2)-2) date 2020-02-19 10:12:51*
%MOMM*%
%LPD*%
G04 APERTURE LIST*
%ADD10C,0.100000*%
G04 APERTURE END LIST*
D10*
G36*
X14437654Y4335335D02*
G01*
X14601872Y4302670D01*
X14911252Y4174521D01*
X15189687Y3988477D01*
X15426477Y3751687D01*
X15612521Y3473252D01*
X15740670Y3163872D01*
X15806000Y2835435D01*
X15806000Y2500565D01*
X15740670Y2172128D01*
X15612521Y1862748D01*
X15426477Y1584313D01*
X15189687Y1347523D01*
X14911252Y1161479D01*
X14601872Y1033330D01*
X14437654Y1000665D01*
X14273437Y968000D01*
X13938563Y968000D01*
X13774346Y1000665D01*
X13610128Y1033330D01*
X13300748Y1161479D01*
X13022313Y1347523D01*
X12785523Y1584313D01*
X12599479Y1862748D01*
X12471330Y2172128D01*
X12406000Y2500565D01*
X12406000Y2835435D01*
X12471330Y3163872D01*
X12599479Y3473252D01*
X12785523Y3751687D01*
X13022313Y3988477D01*
X13300748Y4174521D01*
X13610128Y4302670D01*
X13774346Y4335335D01*
X13938563Y4368000D01*
X14273437Y4368000D01*
X14437654Y4335335D01*
X14437654Y4335335D01*
G37*
G36*
X29176000Y1568000D02*
G01*
X26976000Y1568000D01*
X26976000Y3768000D01*
X29176000Y3768000D01*
X29176000Y1568000D01*
X29176000Y1568000D01*
G37*
G36*
X61257771Y3757389D02*
G01*
X61311638Y3752084D01*
X61380755Y3731117D01*
X61518990Y3689184D01*
X61710081Y3587044D01*
X61710082Y3587043D01*
X61710084Y3587042D01*
X61877581Y3449581D01*
X62015042Y3282084D01*
X62015044Y3282081D01*
X62117184Y3090990D01*
X62180084Y2883637D01*
X62201322Y2668000D01*
X62180084Y2452363D01*
X62117184Y2245010D01*
X62015044Y2053919D01*
X62015042Y2053916D01*
X61877581Y1886419D01*
X61710084Y1748958D01*
X61710082Y1748957D01*
X61710081Y1748956D01*
X61518990Y1646816D01*
X61380755Y1604883D01*
X61311638Y1583916D01*
X61257771Y1578611D01*
X61150038Y1568000D01*
X61041962Y1568000D01*
X60934229Y1578611D01*
X60880362Y1583916D01*
X60811245Y1604883D01*
X60673010Y1646816D01*
X60481919Y1748956D01*
X60481918Y1748957D01*
X60481916Y1748958D01*
X60314419Y1886419D01*
X60176958Y2053916D01*
X60176956Y2053919D01*
X60074816Y2245010D01*
X60011916Y2452363D01*
X59990678Y2668000D01*
X60011916Y2883637D01*
X60074816Y3090990D01*
X60176956Y3282081D01*
X60176958Y3282084D01*
X60314419Y3449581D01*
X60481916Y3587042D01*
X60481918Y3587043D01*
X60481919Y3587044D01*
X60673010Y3689184D01*
X60811245Y3731117D01*
X60880362Y3752084D01*
X60934229Y3757389D01*
X61041962Y3768000D01*
X61150038Y3768000D01*
X61257771Y3757389D01*
X61257771Y3757389D01*
G37*
G36*
X58717771Y3757389D02*
G01*
X58771638Y3752084D01*
X58840755Y3731117D01*
X58978990Y3689184D01*
X59170081Y3587044D01*
X59170082Y3587043D01*
X59170084Y3587042D01*
X59337581Y3449581D01*
X59475042Y3282084D01*
X59475044Y3282081D01*
X59577184Y3090990D01*
X59640084Y2883637D01*
X59661322Y2668000D01*
X59640084Y2452363D01*
X59577184Y2245010D01*
X59475044Y2053919D01*
X59475042Y2053916D01*
X59337581Y1886419D01*
X59170084Y1748958D01*
X59170082Y1748957D01*
X59170081Y1748956D01*
X58978990Y1646816D01*
X58840755Y1604883D01*
X58771638Y1583916D01*
X58717771Y1578611D01*
X58610038Y1568000D01*
X58501962Y1568000D01*
X58394229Y1578611D01*
X58340362Y1583916D01*
X58271245Y1604883D01*
X58133010Y1646816D01*
X57941919Y1748956D01*
X57941918Y1748957D01*
X57941916Y1748958D01*
X57774419Y1886419D01*
X57636958Y2053916D01*
X57636956Y2053919D01*
X57534816Y2245010D01*
X57471916Y2452363D01*
X57450678Y2668000D01*
X57471916Y2883637D01*
X57534816Y3090990D01*
X57636956Y3282081D01*
X57636958Y3282084D01*
X57774419Y3449581D01*
X57941916Y3587042D01*
X57941918Y3587043D01*
X57941919Y3587044D01*
X58133010Y3689184D01*
X58271245Y3731117D01*
X58340362Y3752084D01*
X58394229Y3757389D01*
X58501962Y3768000D01*
X58610038Y3768000D01*
X58717771Y3757389D01*
X58717771Y3757389D01*
G37*
G36*
X56177771Y3757389D02*
G01*
X56231638Y3752084D01*
X56300755Y3731117D01*
X56438990Y3689184D01*
X56630081Y3587044D01*
X56630082Y3587043D01*
X56630084Y3587042D01*
X56797581Y3449581D01*
X56935042Y3282084D01*
X56935044Y3282081D01*
X57037184Y3090990D01*
X57100084Y2883637D01*
X57121322Y2668000D01*
X57100084Y2452363D01*
X57037184Y2245010D01*
X56935044Y2053919D01*
X56935042Y2053916D01*
X56797581Y1886419D01*
X56630084Y1748958D01*
X56630082Y1748957D01*
X56630081Y1748956D01*
X56438990Y1646816D01*
X56300755Y1604883D01*
X56231638Y1583916D01*
X56177771Y1578611D01*
X56070038Y1568000D01*
X55961962Y1568000D01*
X55854229Y1578611D01*
X55800362Y1583916D01*
X55731245Y1604883D01*
X55593010Y1646816D01*
X55401919Y1748956D01*
X55401918Y1748957D01*
X55401916Y1748958D01*
X55234419Y1886419D01*
X55096958Y2053916D01*
X55096956Y2053919D01*
X54994816Y2245010D01*
X54931916Y2452363D01*
X54910678Y2668000D01*
X54931916Y2883637D01*
X54994816Y3090990D01*
X55096956Y3282081D01*
X55096958Y3282084D01*
X55234419Y3449581D01*
X55401916Y3587042D01*
X55401918Y3587043D01*
X55401919Y3587044D01*
X55593010Y3689184D01*
X55731245Y3731117D01*
X55800362Y3752084D01*
X55854229Y3757389D01*
X55961962Y3768000D01*
X56070038Y3768000D01*
X56177771Y3757389D01*
X56177771Y3757389D01*
G37*
G36*
X53637771Y3757389D02*
G01*
X53691638Y3752084D01*
X53760755Y3731117D01*
X53898990Y3689184D01*
X54090081Y3587044D01*
X54090082Y3587043D01*
X54090084Y3587042D01*
X54257581Y3449581D01*
X54395042Y3282084D01*
X54395044Y3282081D01*
X54497184Y3090990D01*
X54560084Y2883637D01*
X54581322Y2668000D01*
X54560084Y2452363D01*
X54497184Y2245010D01*
X54395044Y2053919D01*
X54395042Y2053916D01*
X54257581Y1886419D01*
X54090084Y1748958D01*
X54090082Y1748957D01*
X54090081Y1748956D01*
X53898990Y1646816D01*
X53760755Y1604883D01*
X53691638Y1583916D01*
X53637771Y1578611D01*
X53530038Y1568000D01*
X53421962Y1568000D01*
X53314229Y1578611D01*
X53260362Y1583916D01*
X53191245Y1604883D01*
X53053010Y1646816D01*
X52861919Y1748956D01*
X52861918Y1748957D01*
X52861916Y1748958D01*
X52694419Y1886419D01*
X52556958Y2053916D01*
X52556956Y2053919D01*
X52454816Y2245010D01*
X52391916Y2452363D01*
X52370678Y2668000D01*
X52391916Y2883637D01*
X52454816Y3090990D01*
X52556956Y3282081D01*
X52556958Y3282084D01*
X52694419Y3449581D01*
X52861916Y3587042D01*
X52861918Y3587043D01*
X52861919Y3587044D01*
X53053010Y3689184D01*
X53191245Y3731117D01*
X53260362Y3752084D01*
X53314229Y3757389D01*
X53421962Y3768000D01*
X53530038Y3768000D01*
X53637771Y3757389D01*
X53637771Y3757389D01*
G37*
G36*
X51097771Y3757389D02*
G01*
X51151638Y3752084D01*
X51220755Y3731117D01*
X51358990Y3689184D01*
X51550081Y3587044D01*
X51550082Y3587043D01*
X51550084Y3587042D01*
X51717581Y3449581D01*
X51855042Y3282084D01*
X51855044Y3282081D01*
X51957184Y3090990D01*
X52020084Y2883637D01*
X52041322Y2668000D01*
X52020084Y2452363D01*
X51957184Y2245010D01*
X51855044Y2053919D01*
X51855042Y2053916D01*
X51717581Y1886419D01*
X51550084Y1748958D01*
X51550082Y1748957D01*
X51550081Y1748956D01*
X51358990Y1646816D01*
X51220755Y1604883D01*
X51151638Y1583916D01*
X51097771Y1578611D01*
X50990038Y1568000D01*
X50881962Y1568000D01*
X50774229Y1578611D01*
X50720362Y1583916D01*
X50651245Y1604883D01*
X50513010Y1646816D01*
X50321919Y1748956D01*
X50321918Y1748957D01*
X50321916Y1748958D01*
X50154419Y1886419D01*
X50016958Y2053916D01*
X50016956Y2053919D01*
X49914816Y2245010D01*
X49851916Y2452363D01*
X49830678Y2668000D01*
X49851916Y2883637D01*
X49914816Y3090990D01*
X50016956Y3282081D01*
X50016958Y3282084D01*
X50154419Y3449581D01*
X50321916Y3587042D01*
X50321918Y3587043D01*
X50321919Y3587044D01*
X50513010Y3689184D01*
X50651245Y3731117D01*
X50720362Y3752084D01*
X50774229Y3757389D01*
X50881962Y3768000D01*
X50990038Y3768000D01*
X51097771Y3757389D01*
X51097771Y3757389D01*
G37*
G36*
X46017771Y3757389D02*
G01*
X46071638Y3752084D01*
X46140755Y3731117D01*
X46278990Y3689184D01*
X46470081Y3587044D01*
X46470082Y3587043D01*
X46470084Y3587042D01*
X46637581Y3449581D01*
X46775042Y3282084D01*
X46775044Y3282081D01*
X46877184Y3090990D01*
X46940084Y2883637D01*
X46961322Y2668000D01*
X46940084Y2452363D01*
X46877184Y2245010D01*
X46775044Y2053919D01*
X46775042Y2053916D01*
X46637581Y1886419D01*
X46470084Y1748958D01*
X46470082Y1748957D01*
X46470081Y1748956D01*
X46278990Y1646816D01*
X46140755Y1604883D01*
X46071638Y1583916D01*
X46017771Y1578611D01*
X45910038Y1568000D01*
X45801962Y1568000D01*
X45694229Y1578611D01*
X45640362Y1583916D01*
X45571245Y1604883D01*
X45433010Y1646816D01*
X45241919Y1748956D01*
X45241918Y1748957D01*
X45241916Y1748958D01*
X45074419Y1886419D01*
X44936958Y2053916D01*
X44936956Y2053919D01*
X44834816Y2245010D01*
X44771916Y2452363D01*
X44750678Y2668000D01*
X44771916Y2883637D01*
X44834816Y3090990D01*
X44936956Y3282081D01*
X44936958Y3282084D01*
X45074419Y3449581D01*
X45241916Y3587042D01*
X45241918Y3587043D01*
X45241919Y3587044D01*
X45433010Y3689184D01*
X45571245Y3731117D01*
X45640362Y3752084D01*
X45694229Y3757389D01*
X45801962Y3768000D01*
X45910038Y3768000D01*
X46017771Y3757389D01*
X46017771Y3757389D01*
G37*
G36*
X40937771Y3757389D02*
G01*
X40991638Y3752084D01*
X41060755Y3731117D01*
X41198990Y3689184D01*
X41390081Y3587044D01*
X41390082Y3587043D01*
X41390084Y3587042D01*
X41557581Y3449581D01*
X41695042Y3282084D01*
X41695044Y3282081D01*
X41797184Y3090990D01*
X41860084Y2883637D01*
X41881322Y2668000D01*
X41860084Y2452363D01*
X41797184Y2245010D01*
X41695044Y2053919D01*
X41695042Y2053916D01*
X41557581Y1886419D01*
X41390084Y1748958D01*
X41390082Y1748957D01*
X41390081Y1748956D01*
X41198990Y1646816D01*
X41060755Y1604883D01*
X40991638Y1583916D01*
X40937771Y1578611D01*
X40830038Y1568000D01*
X40721962Y1568000D01*
X40614229Y1578611D01*
X40560362Y1583916D01*
X40491245Y1604883D01*
X40353010Y1646816D01*
X40161919Y1748956D01*
X40161918Y1748957D01*
X40161916Y1748958D01*
X39994419Y1886419D01*
X39856958Y2053916D01*
X39856956Y2053919D01*
X39754816Y2245010D01*
X39691916Y2452363D01*
X39670678Y2668000D01*
X39691916Y2883637D01*
X39754816Y3090990D01*
X39856956Y3282081D01*
X39856958Y3282084D01*
X39994419Y3449581D01*
X40161916Y3587042D01*
X40161918Y3587043D01*
X40161919Y3587044D01*
X40353010Y3689184D01*
X40491245Y3731117D01*
X40560362Y3752084D01*
X40614229Y3757389D01*
X40721962Y3768000D01*
X40830038Y3768000D01*
X40937771Y3757389D01*
X40937771Y3757389D01*
G37*
G36*
X43477771Y3757389D02*
G01*
X43531638Y3752084D01*
X43600755Y3731117D01*
X43738990Y3689184D01*
X43930081Y3587044D01*
X43930082Y3587043D01*
X43930084Y3587042D01*
X44097581Y3449581D01*
X44235042Y3282084D01*
X44235044Y3282081D01*
X44337184Y3090990D01*
X44400084Y2883637D01*
X44421322Y2668000D01*
X44400084Y2452363D01*
X44337184Y2245010D01*
X44235044Y2053919D01*
X44235042Y2053916D01*
X44097581Y1886419D01*
X43930084Y1748958D01*
X43930082Y1748957D01*
X43930081Y1748956D01*
X43738990Y1646816D01*
X43600755Y1604883D01*
X43531638Y1583916D01*
X43477771Y1578611D01*
X43370038Y1568000D01*
X43261962Y1568000D01*
X43154229Y1578611D01*
X43100362Y1583916D01*
X43031245Y1604883D01*
X42893010Y1646816D01*
X42701919Y1748956D01*
X42701918Y1748957D01*
X42701916Y1748958D01*
X42534419Y1886419D01*
X42396958Y2053916D01*
X42396956Y2053919D01*
X42294816Y2245010D01*
X42231916Y2452363D01*
X42210678Y2668000D01*
X42231916Y2883637D01*
X42294816Y3090990D01*
X42396956Y3282081D01*
X42396958Y3282084D01*
X42534419Y3449581D01*
X42701916Y3587042D01*
X42701918Y3587043D01*
X42701919Y3587044D01*
X42893010Y3689184D01*
X43031245Y3731117D01*
X43100362Y3752084D01*
X43154229Y3757389D01*
X43261962Y3768000D01*
X43370038Y3768000D01*
X43477771Y3757389D01*
X43477771Y3757389D01*
G37*
G36*
X63797771Y3757389D02*
G01*
X63851638Y3752084D01*
X63920755Y3731117D01*
X64058990Y3689184D01*
X64250081Y3587044D01*
X64250082Y3587043D01*
X64250084Y3587042D01*
X64417581Y3449581D01*
X64555042Y3282084D01*
X64555044Y3282081D01*
X64657184Y3090990D01*
X64720084Y2883637D01*
X64741322Y2668000D01*
X64720084Y2452363D01*
X64657184Y2245010D01*
X64555044Y2053919D01*
X64555042Y2053916D01*
X64417581Y1886419D01*
X64250084Y1748958D01*
X64250082Y1748957D01*
X64250081Y1748956D01*
X64058990Y1646816D01*
X63920755Y1604883D01*
X63851638Y1583916D01*
X63797771Y1578611D01*
X63690038Y1568000D01*
X63581962Y1568000D01*
X63474229Y1578611D01*
X63420362Y1583916D01*
X63351245Y1604883D01*
X63213010Y1646816D01*
X63021919Y1748956D01*
X63021918Y1748957D01*
X63021916Y1748958D01*
X62854419Y1886419D01*
X62716958Y2053916D01*
X62716956Y2053919D01*
X62614816Y2245010D01*
X62551916Y2452363D01*
X62530678Y2668000D01*
X62551916Y2883637D01*
X62614816Y3090990D01*
X62716956Y3282081D01*
X62716958Y3282084D01*
X62854419Y3449581D01*
X63021916Y3587042D01*
X63021918Y3587043D01*
X63021919Y3587044D01*
X63213010Y3689184D01*
X63351245Y3731117D01*
X63420362Y3752084D01*
X63474229Y3757389D01*
X63581962Y3768000D01*
X63690038Y3768000D01*
X63797771Y3757389D01*
X63797771Y3757389D01*
G37*
G36*
X30777771Y3757389D02*
G01*
X30831638Y3752084D01*
X30900755Y3731117D01*
X31038990Y3689184D01*
X31230081Y3587044D01*
X31230082Y3587043D01*
X31230084Y3587042D01*
X31397581Y3449581D01*
X31535042Y3282084D01*
X31535044Y3282081D01*
X31637184Y3090990D01*
X31700084Y2883637D01*
X31721322Y2668000D01*
X31700084Y2452363D01*
X31637184Y2245010D01*
X31535044Y2053919D01*
X31535042Y2053916D01*
X31397581Y1886419D01*
X31230084Y1748958D01*
X31230082Y1748957D01*
X31230081Y1748956D01*
X31038990Y1646816D01*
X30900755Y1604883D01*
X30831638Y1583916D01*
X30777771Y1578611D01*
X30670038Y1568000D01*
X30561962Y1568000D01*
X30454229Y1578611D01*
X30400362Y1583916D01*
X30331245Y1604883D01*
X30193010Y1646816D01*
X30001919Y1748956D01*
X30001918Y1748957D01*
X30001916Y1748958D01*
X29834419Y1886419D01*
X29696958Y2053916D01*
X29696956Y2053919D01*
X29594816Y2245010D01*
X29531916Y2452363D01*
X29510678Y2668000D01*
X29531916Y2883637D01*
X29594816Y3090990D01*
X29696956Y3282081D01*
X29696958Y3282084D01*
X29834419Y3449581D01*
X30001916Y3587042D01*
X30001918Y3587043D01*
X30001919Y3587044D01*
X30193010Y3689184D01*
X30331245Y3731117D01*
X30400362Y3752084D01*
X30454229Y3757389D01*
X30561962Y3768000D01*
X30670038Y3768000D01*
X30777771Y3757389D01*
X30777771Y3757389D01*
G37*
G36*
X35857771Y3757389D02*
G01*
X35911638Y3752084D01*
X35980755Y3731117D01*
X36118990Y3689184D01*
X36310081Y3587044D01*
X36310082Y3587043D01*
X36310084Y3587042D01*
X36477581Y3449581D01*
X36615042Y3282084D01*
X36615044Y3282081D01*
X36717184Y3090990D01*
X36780084Y2883637D01*
X36801322Y2668000D01*
X36780084Y2452363D01*
X36717184Y2245010D01*
X36615044Y2053919D01*
X36615042Y2053916D01*
X36477581Y1886419D01*
X36310084Y1748958D01*
X36310082Y1748957D01*
X36310081Y1748956D01*
X36118990Y1646816D01*
X35980755Y1604883D01*
X35911638Y1583916D01*
X35857771Y1578611D01*
X35750038Y1568000D01*
X35641962Y1568000D01*
X35534229Y1578611D01*
X35480362Y1583916D01*
X35411245Y1604883D01*
X35273010Y1646816D01*
X35081919Y1748956D01*
X35081918Y1748957D01*
X35081916Y1748958D01*
X34914419Y1886419D01*
X34776958Y2053916D01*
X34776956Y2053919D01*
X34674816Y2245010D01*
X34611916Y2452363D01*
X34590678Y2668000D01*
X34611916Y2883637D01*
X34674816Y3090990D01*
X34776956Y3282081D01*
X34776958Y3282084D01*
X34914419Y3449581D01*
X35081916Y3587042D01*
X35081918Y3587043D01*
X35081919Y3587044D01*
X35273010Y3689184D01*
X35411245Y3731117D01*
X35480362Y3752084D01*
X35534229Y3757389D01*
X35641962Y3768000D01*
X35750038Y3768000D01*
X35857771Y3757389D01*
X35857771Y3757389D01*
G37*
G36*
X38397771Y3757389D02*
G01*
X38451638Y3752084D01*
X38520755Y3731117D01*
X38658990Y3689184D01*
X38850081Y3587044D01*
X38850082Y3587043D01*
X38850084Y3587042D01*
X39017581Y3449581D01*
X39155042Y3282084D01*
X39155044Y3282081D01*
X39257184Y3090990D01*
X39320084Y2883637D01*
X39341322Y2668000D01*
X39320084Y2452363D01*
X39257184Y2245010D01*
X39155044Y2053919D01*
X39155042Y2053916D01*
X39017581Y1886419D01*
X38850084Y1748958D01*
X38850082Y1748957D01*
X38850081Y1748956D01*
X38658990Y1646816D01*
X38520755Y1604883D01*
X38451638Y1583916D01*
X38397771Y1578611D01*
X38290038Y1568000D01*
X38181962Y1568000D01*
X38074229Y1578611D01*
X38020362Y1583916D01*
X37951245Y1604883D01*
X37813010Y1646816D01*
X37621919Y1748956D01*
X37621918Y1748957D01*
X37621916Y1748958D01*
X37454419Y1886419D01*
X37316958Y2053916D01*
X37316956Y2053919D01*
X37214816Y2245010D01*
X37151916Y2452363D01*
X37130678Y2668000D01*
X37151916Y2883637D01*
X37214816Y3090990D01*
X37316956Y3282081D01*
X37316958Y3282084D01*
X37454419Y3449581D01*
X37621916Y3587042D01*
X37621918Y3587043D01*
X37621919Y3587044D01*
X37813010Y3689184D01*
X37951245Y3731117D01*
X38020362Y3752084D01*
X38074229Y3757389D01*
X38181962Y3768000D01*
X38290038Y3768000D01*
X38397771Y3757389D01*
X38397771Y3757389D01*
G37*
G36*
X33317771Y3757389D02*
G01*
X33371638Y3752084D01*
X33440755Y3731117D01*
X33578990Y3689184D01*
X33770081Y3587044D01*
X33770082Y3587043D01*
X33770084Y3587042D01*
X33937581Y3449581D01*
X34075042Y3282084D01*
X34075044Y3282081D01*
X34177184Y3090990D01*
X34240084Y2883637D01*
X34261322Y2668000D01*
X34240084Y2452363D01*
X34177184Y2245010D01*
X34075044Y2053919D01*
X34075042Y2053916D01*
X33937581Y1886419D01*
X33770084Y1748958D01*
X33770082Y1748957D01*
X33770081Y1748956D01*
X33578990Y1646816D01*
X33440755Y1604883D01*
X33371638Y1583916D01*
X33317771Y1578611D01*
X33210038Y1568000D01*
X33101962Y1568000D01*
X32994229Y1578611D01*
X32940362Y1583916D01*
X32871245Y1604883D01*
X32733010Y1646816D01*
X32541919Y1748956D01*
X32541918Y1748957D01*
X32541916Y1748958D01*
X32374419Y1886419D01*
X32236958Y2053916D01*
X32236956Y2053919D01*
X32134816Y2245010D01*
X32071916Y2452363D01*
X32050678Y2668000D01*
X32071916Y2883637D01*
X32134816Y3090990D01*
X32236956Y3282081D01*
X32236958Y3282084D01*
X32374419Y3449581D01*
X32541916Y3587042D01*
X32541918Y3587043D01*
X32541919Y3587044D01*
X32733010Y3689184D01*
X32871245Y3731117D01*
X32940362Y3752084D01*
X32994229Y3757389D01*
X33101962Y3768000D01*
X33210038Y3768000D01*
X33317771Y3757389D01*
X33317771Y3757389D01*
G37*
G36*
X6000000Y1700000D02*
G01*
X5300000Y1700000D01*
X5300000Y2800000D01*
X6000000Y2800000D01*
X6000000Y1700000D01*
X6000000Y1700000D01*
G37*
G36*
X7500000Y1700000D02*
G01*
X6800000Y1700000D01*
X6800000Y2800000D01*
X7500000Y2800000D01*
X7500000Y1700000D01*
X7500000Y1700000D01*
G37*
G36*
X6075001Y3750000D02*
G01*
X5275001Y3750000D01*
X5275001Y4750000D01*
X6075001Y4750000D01*
X6075001Y3750000D01*
X6075001Y3750000D01*
G37*
G36*
X4375001Y3750000D02*
G01*
X3575001Y3750000D01*
X3575001Y4750000D01*
X4375001Y4750000D01*
X4375001Y3750000D01*
X4375001Y3750000D01*
G37*
G36*
X66507653Y9415335D02*
G01*
X66671872Y9382670D01*
X66981252Y9254521D01*
X67259687Y9068477D01*
X67496477Y8831687D01*
X67682521Y8553252D01*
X67810670Y8243872D01*
X67825532Y8169155D01*
X67873775Y7926624D01*
X67876000Y7915435D01*
X67876000Y7580565D01*
X67810670Y7252128D01*
X67682521Y6942748D01*
X67496477Y6664313D01*
X67259687Y6427523D01*
X66981252Y6241479D01*
X66671872Y6113330D01*
X66507653Y6080665D01*
X66343437Y6048000D01*
X66008563Y6048000D01*
X65844347Y6080665D01*
X65680128Y6113330D01*
X65370748Y6241479D01*
X65092313Y6427523D01*
X64855523Y6664313D01*
X64669479Y6942748D01*
X64541330Y7252128D01*
X64476000Y7580565D01*
X64476000Y7915435D01*
X64478226Y7926624D01*
X64526468Y8169155D01*
X64541330Y8243872D01*
X64669479Y8553252D01*
X64855523Y8831687D01*
X65092313Y9068477D01*
X65370748Y9254521D01*
X65680128Y9382670D01*
X65844347Y9415335D01*
X66008563Y9448000D01*
X66343437Y9448000D01*
X66507653Y9415335D01*
X66507653Y9415335D01*
G37*
G36*
X1887843Y8795786D02*
G01*
X1887846Y8795785D01*
X1887845Y8795785D01*
X1978839Y8758094D01*
X2020063Y8730549D01*
X2060730Y8703376D01*
X2130376Y8633730D01*
X2185095Y8551837D01*
X2222786Y8460843D01*
X2242000Y8364247D01*
X2242000Y8265753D01*
X2222786Y8169157D01*
X2222785Y8169155D01*
X2185094Y8078161D01*
X2177156Y8066281D01*
X2130376Y7996270D01*
X2060730Y7926624D01*
X2043987Y7915437D01*
X1978839Y7871906D01*
X1978838Y7871905D01*
X1978837Y7871905D01*
X1887843Y7834214D01*
X1791247Y7815000D01*
X1692753Y7815000D01*
X1596157Y7834214D01*
X1505163Y7871905D01*
X1505162Y7871905D01*
X1505161Y7871906D01*
X1440013Y7915437D01*
X1423270Y7926624D01*
X1353624Y7996270D01*
X1306844Y8066281D01*
X1298906Y8078161D01*
X1261215Y8169155D01*
X1261214Y8169157D01*
X1242000Y8265753D01*
X1242000Y8364247D01*
X1261214Y8460843D01*
X1298905Y8551837D01*
X1353624Y8633730D01*
X1423270Y8703376D01*
X1463937Y8730549D01*
X1505161Y8758094D01*
X1596155Y8795785D01*
X1596154Y8795785D01*
X1596157Y8795786D01*
X1692753Y8815000D01*
X1791247Y8815000D01*
X1887843Y8795786D01*
X1887843Y8795786D01*
G37*
G36*
X18868232Y9796254D02*
G01*
X19047308Y9741932D01*
X19129826Y9697825D01*
X19212344Y9653719D01*
X19357001Y9535001D01*
X19475719Y9390344D01*
X19519825Y9307826D01*
X19563932Y9225308D01*
X19618254Y9046232D01*
X19636596Y8860000D01*
X19618254Y8673768D01*
X19563932Y8494692D01*
X19563931Y8494691D01*
X19475719Y8329656D01*
X19357001Y8184999D01*
X19212344Y8066281D01*
X19129827Y8022175D01*
X19047308Y7978068D01*
X18868232Y7923746D01*
X18728666Y7910000D01*
X18635334Y7910000D01*
X18495768Y7923746D01*
X18316692Y7978068D01*
X18234173Y8022175D01*
X18151656Y8066281D01*
X18006999Y8184999D01*
X17888281Y8329656D01*
X17800069Y8494691D01*
X17800068Y8494692D01*
X17745746Y8673768D01*
X17727404Y8860000D01*
X17745746Y9046232D01*
X17800068Y9225308D01*
X17844175Y9307827D01*
X17888281Y9390344D01*
X18006999Y9535001D01*
X18151656Y9653719D01*
X18234174Y9697825D01*
X18316692Y9741932D01*
X18495768Y9796254D01*
X18635334Y9810000D01*
X18728666Y9810000D01*
X18868232Y9796254D01*
X18868232Y9796254D01*
G37*
G36*
X31568232Y9796254D02*
G01*
X31747308Y9741932D01*
X31829826Y9697825D01*
X31912344Y9653719D01*
X32057001Y9535001D01*
X32175719Y9390344D01*
X32219825Y9307826D01*
X32263932Y9225308D01*
X32318254Y9046232D01*
X32336596Y8860000D01*
X32318254Y8673768D01*
X32263932Y8494692D01*
X32263931Y8494691D01*
X32175719Y8329656D01*
X32057001Y8184999D01*
X31912344Y8066281D01*
X31829827Y8022175D01*
X31747308Y7978068D01*
X31568232Y7923746D01*
X31428666Y7910000D01*
X31335334Y7910000D01*
X31195768Y7923746D01*
X31016692Y7978068D01*
X30934173Y8022175D01*
X30851656Y8066281D01*
X30706999Y8184999D01*
X30588281Y8329656D01*
X30500069Y8494691D01*
X30500068Y8494692D01*
X30445746Y8673768D01*
X30427404Y8860000D01*
X30445746Y9046232D01*
X30500068Y9225308D01*
X30544175Y9307827D01*
X30588281Y9390344D01*
X30706999Y9535001D01*
X30851656Y9653719D01*
X30934174Y9697825D01*
X31016692Y9741932D01*
X31195768Y9796254D01*
X31335334Y9810000D01*
X31428666Y9810000D01*
X31568232Y9796254D01*
X31568232Y9796254D01*
G37*
G36*
X13788232Y9796254D02*
G01*
X13967308Y9741932D01*
X14049826Y9697825D01*
X14132344Y9653719D01*
X14277001Y9535001D01*
X14395719Y9390344D01*
X14439825Y9307826D01*
X14483932Y9225308D01*
X14538254Y9046232D01*
X14556596Y8860000D01*
X14538254Y8673768D01*
X14483932Y8494692D01*
X14483931Y8494691D01*
X14395719Y8329656D01*
X14277001Y8184999D01*
X14132344Y8066281D01*
X14049827Y8022175D01*
X13967308Y7978068D01*
X13788232Y7923746D01*
X13648666Y7910000D01*
X13555334Y7910000D01*
X13415768Y7923746D01*
X13236692Y7978068D01*
X13154173Y8022175D01*
X13071656Y8066281D01*
X12926999Y8184999D01*
X12808281Y8329656D01*
X12720069Y8494691D01*
X12720068Y8494692D01*
X12665746Y8673768D01*
X12647404Y8860000D01*
X12665746Y9046232D01*
X12720068Y9225308D01*
X12764175Y9307827D01*
X12808281Y9390344D01*
X12926999Y9535001D01*
X13071656Y9653719D01*
X13154174Y9697825D01*
X13236692Y9741932D01*
X13415768Y9796254D01*
X13555334Y9810000D01*
X13648666Y9810000D01*
X13788232Y9796254D01*
X13788232Y9796254D01*
G37*
G36*
X11248232Y9796254D02*
G01*
X11427308Y9741932D01*
X11509826Y9697825D01*
X11592344Y9653719D01*
X11737001Y9535001D01*
X11855719Y9390344D01*
X11899825Y9307826D01*
X11943932Y9225308D01*
X11998254Y9046232D01*
X12016596Y8860000D01*
X11998254Y8673768D01*
X11943932Y8494692D01*
X11943931Y8494691D01*
X11855719Y8329656D01*
X11737001Y8184999D01*
X11592344Y8066281D01*
X11509827Y8022175D01*
X11427308Y7978068D01*
X11248232Y7923746D01*
X11108666Y7910000D01*
X11015334Y7910000D01*
X10875768Y7923746D01*
X10696692Y7978068D01*
X10614173Y8022175D01*
X10531656Y8066281D01*
X10386999Y8184999D01*
X10268281Y8329656D01*
X10180069Y8494691D01*
X10180068Y8494692D01*
X10125746Y8673768D01*
X10107404Y8860000D01*
X10125746Y9046232D01*
X10180068Y9225308D01*
X10224175Y9307827D01*
X10268281Y9390344D01*
X10386999Y9535001D01*
X10531656Y9653719D01*
X10614174Y9697825D01*
X10696692Y9741932D01*
X10875768Y9796254D01*
X11015334Y9810000D01*
X11108666Y9810000D01*
X11248232Y9796254D01*
X11248232Y9796254D01*
G37*
G36*
X8708232Y9796254D02*
G01*
X8887308Y9741932D01*
X8969826Y9697825D01*
X9052344Y9653719D01*
X9197001Y9535001D01*
X9315719Y9390344D01*
X9359825Y9307826D01*
X9403932Y9225308D01*
X9458254Y9046232D01*
X9476596Y8860000D01*
X9458254Y8673768D01*
X9403932Y8494692D01*
X9403931Y8494691D01*
X9315719Y8329656D01*
X9197001Y8184999D01*
X9052344Y8066281D01*
X8969827Y8022175D01*
X8887308Y7978068D01*
X8708232Y7923746D01*
X8568666Y7910000D01*
X8475334Y7910000D01*
X8335768Y7923746D01*
X8156692Y7978068D01*
X8074173Y8022175D01*
X7991656Y8066281D01*
X7846999Y8184999D01*
X7728281Y8329656D01*
X7640069Y8494691D01*
X7640068Y8494692D01*
X7585746Y8673768D01*
X7567404Y8860000D01*
X7585746Y9046232D01*
X7640068Y9225308D01*
X7684175Y9307827D01*
X7728281Y9390344D01*
X7846999Y9535001D01*
X7991656Y9653719D01*
X8074174Y9697825D01*
X8156692Y9741932D01*
X8335768Y9796254D01*
X8475334Y9810000D01*
X8568666Y9810000D01*
X8708232Y9796254D01*
X8708232Y9796254D01*
G37*
G36*
X6168232Y9796254D02*
G01*
X6347308Y9741932D01*
X6429826Y9697825D01*
X6512344Y9653719D01*
X6657001Y9535001D01*
X6775719Y9390344D01*
X6819825Y9307826D01*
X6863932Y9225308D01*
X6918254Y9046232D01*
X6936596Y8860000D01*
X6918254Y8673768D01*
X6863932Y8494692D01*
X6863931Y8494691D01*
X6775719Y8329656D01*
X6657001Y8184999D01*
X6512344Y8066281D01*
X6429827Y8022175D01*
X6347308Y7978068D01*
X6168232Y7923746D01*
X6028666Y7910000D01*
X5935334Y7910000D01*
X5795768Y7923746D01*
X5616692Y7978068D01*
X5534173Y8022175D01*
X5451656Y8066281D01*
X5306999Y8184999D01*
X5188281Y8329656D01*
X5100069Y8494691D01*
X5100068Y8494692D01*
X5045746Y8673768D01*
X5027404Y8860000D01*
X5045746Y9046232D01*
X5100068Y9225308D01*
X5144175Y9307827D01*
X5188281Y9390344D01*
X5306999Y9535001D01*
X5451656Y9653719D01*
X5534174Y9697825D01*
X5616692Y9741932D01*
X5795768Y9796254D01*
X5935334Y9810000D01*
X6028666Y9810000D01*
X6168232Y9796254D01*
X6168232Y9796254D01*
G37*
G36*
X54428232Y9796254D02*
G01*
X54607308Y9741932D01*
X54689826Y9697825D01*
X54772344Y9653719D01*
X54917001Y9535001D01*
X55035719Y9390344D01*
X55079825Y9307826D01*
X55123932Y9225308D01*
X55178254Y9046232D01*
X55196596Y8860000D01*
X55178254Y8673768D01*
X55123932Y8494692D01*
X55123931Y8494691D01*
X55035719Y8329656D01*
X54917001Y8184999D01*
X54772344Y8066281D01*
X54689827Y8022175D01*
X54607308Y7978068D01*
X54428232Y7923746D01*
X54288666Y7910000D01*
X54195334Y7910000D01*
X54055768Y7923746D01*
X53876692Y7978068D01*
X53794173Y8022175D01*
X53711656Y8066281D01*
X53566999Y8184999D01*
X53448281Y8329656D01*
X53360069Y8494691D01*
X53360068Y8494692D01*
X53305746Y8673768D01*
X53287404Y8860000D01*
X53305746Y9046232D01*
X53360068Y9225308D01*
X53404175Y9307827D01*
X53448281Y9390344D01*
X53566999Y9535001D01*
X53711656Y9653719D01*
X53794174Y9697825D01*
X53876692Y9741932D01*
X54055768Y9796254D01*
X54195334Y9810000D01*
X54288666Y9810000D01*
X54428232Y9796254D01*
X54428232Y9796254D01*
G37*
G36*
X16328232Y9796254D02*
G01*
X16507308Y9741932D01*
X16589826Y9697825D01*
X16672344Y9653719D01*
X16817001Y9535001D01*
X16935719Y9390344D01*
X16979825Y9307826D01*
X17023932Y9225308D01*
X17078254Y9046232D01*
X17096596Y8860000D01*
X17078254Y8673768D01*
X17023932Y8494692D01*
X17023931Y8494691D01*
X16935719Y8329656D01*
X16817001Y8184999D01*
X16672344Y8066281D01*
X16589827Y8022175D01*
X16507308Y7978068D01*
X16328232Y7923746D01*
X16188666Y7910000D01*
X16095334Y7910000D01*
X15955768Y7923746D01*
X15776692Y7978068D01*
X15694173Y8022175D01*
X15611656Y8066281D01*
X15466999Y8184999D01*
X15348281Y8329656D01*
X15260069Y8494691D01*
X15260068Y8494692D01*
X15205746Y8673768D01*
X15187404Y8860000D01*
X15205746Y9046232D01*
X15260068Y9225308D01*
X15304175Y9307827D01*
X15348281Y9390344D01*
X15466999Y9535001D01*
X15611656Y9653719D01*
X15694174Y9697825D01*
X15776692Y9741932D01*
X15955768Y9796254D01*
X16095334Y9810000D01*
X16188666Y9810000D01*
X16328232Y9796254D01*
X16328232Y9796254D01*
G37*
G36*
X49348232Y9796254D02*
G01*
X49527308Y9741932D01*
X49609826Y9697825D01*
X49692344Y9653719D01*
X49837001Y9535001D01*
X49955719Y9390344D01*
X49999825Y9307826D01*
X50043932Y9225308D01*
X50098254Y9046232D01*
X50116596Y8860000D01*
X50098254Y8673768D01*
X50043932Y8494692D01*
X50043931Y8494691D01*
X49955719Y8329656D01*
X49837001Y8184999D01*
X49692344Y8066281D01*
X49609827Y8022175D01*
X49527308Y7978068D01*
X49348232Y7923746D01*
X49208666Y7910000D01*
X49115334Y7910000D01*
X48975768Y7923746D01*
X48796692Y7978068D01*
X48714173Y8022175D01*
X48631656Y8066281D01*
X48486999Y8184999D01*
X48368281Y8329656D01*
X48280069Y8494691D01*
X48280068Y8494692D01*
X48225746Y8673768D01*
X48207404Y8860000D01*
X48225746Y9046232D01*
X48280068Y9225308D01*
X48324175Y9307827D01*
X48368281Y9390344D01*
X48486999Y9535001D01*
X48631656Y9653719D01*
X48714174Y9697825D01*
X48796692Y9741932D01*
X48975768Y9796254D01*
X49115334Y9810000D01*
X49208666Y9810000D01*
X49348232Y9796254D01*
X49348232Y9796254D01*
G37*
G36*
X51888232Y9796254D02*
G01*
X52067308Y9741932D01*
X52149826Y9697825D01*
X52232344Y9653719D01*
X52377001Y9535001D01*
X52495719Y9390344D01*
X52539825Y9307826D01*
X52583932Y9225308D01*
X52638254Y9046232D01*
X52656596Y8860000D01*
X52638254Y8673768D01*
X52583932Y8494692D01*
X52583931Y8494691D01*
X52495719Y8329656D01*
X52377001Y8184999D01*
X52232344Y8066281D01*
X52149827Y8022175D01*
X52067308Y7978068D01*
X51888232Y7923746D01*
X51748666Y7910000D01*
X51655334Y7910000D01*
X51515768Y7923746D01*
X51336692Y7978068D01*
X51254173Y8022175D01*
X51171656Y8066281D01*
X51026999Y8184999D01*
X50908281Y8329656D01*
X50820069Y8494691D01*
X50820068Y8494692D01*
X50765746Y8673768D01*
X50747404Y8860000D01*
X50765746Y9046232D01*
X50820068Y9225308D01*
X50864175Y9307827D01*
X50908281Y9390344D01*
X51026999Y9535001D01*
X51171656Y9653719D01*
X51254174Y9697825D01*
X51336692Y9741932D01*
X51515768Y9796254D01*
X51655334Y9810000D01*
X51748666Y9810000D01*
X51888232Y9796254D01*
X51888232Y9796254D01*
G37*
G36*
X21408232Y9796254D02*
G01*
X21587308Y9741932D01*
X21669826Y9697825D01*
X21752344Y9653719D01*
X21897001Y9535001D01*
X22015719Y9390344D01*
X22059825Y9307826D01*
X22103932Y9225308D01*
X22158254Y9046232D01*
X22176596Y8860000D01*
X22158254Y8673768D01*
X22103932Y8494692D01*
X22103931Y8494691D01*
X22015719Y8329656D01*
X21897001Y8184999D01*
X21752344Y8066281D01*
X21669827Y8022175D01*
X21587308Y7978068D01*
X21408232Y7923746D01*
X21268666Y7910000D01*
X21175334Y7910000D01*
X21035768Y7923746D01*
X20856692Y7978068D01*
X20774173Y8022175D01*
X20691656Y8066281D01*
X20546999Y8184999D01*
X20428281Y8329656D01*
X20340069Y8494691D01*
X20340068Y8494692D01*
X20285746Y8673768D01*
X20267404Y8860000D01*
X20285746Y9046232D01*
X20340068Y9225308D01*
X20384175Y9307827D01*
X20428281Y9390344D01*
X20546999Y9535001D01*
X20691656Y9653719D01*
X20774174Y9697825D01*
X20856692Y9741932D01*
X21035768Y9796254D01*
X21175334Y9810000D01*
X21268666Y9810000D01*
X21408232Y9796254D01*
X21408232Y9796254D01*
G37*
G36*
X23948232Y9796254D02*
G01*
X24127308Y9741932D01*
X24209826Y9697825D01*
X24292344Y9653719D01*
X24437001Y9535001D01*
X24555719Y9390344D01*
X24599825Y9307826D01*
X24643932Y9225308D01*
X24698254Y9046232D01*
X24716596Y8860000D01*
X24698254Y8673768D01*
X24643932Y8494692D01*
X24643931Y8494691D01*
X24555719Y8329656D01*
X24437001Y8184999D01*
X24292344Y8066281D01*
X24209827Y8022175D01*
X24127308Y7978068D01*
X23948232Y7923746D01*
X23808666Y7910000D01*
X23715334Y7910000D01*
X23575768Y7923746D01*
X23396692Y7978068D01*
X23314173Y8022175D01*
X23231656Y8066281D01*
X23086999Y8184999D01*
X22968281Y8329656D01*
X22880069Y8494691D01*
X22880068Y8494692D01*
X22825746Y8673768D01*
X22807404Y8860000D01*
X22825746Y9046232D01*
X22880068Y9225308D01*
X22924175Y9307827D01*
X22968281Y9390344D01*
X23086999Y9535001D01*
X23231656Y9653719D01*
X23314174Y9697825D01*
X23396692Y9741932D01*
X23575768Y9796254D01*
X23715334Y9810000D01*
X23808666Y9810000D01*
X23948232Y9796254D01*
X23948232Y9796254D01*
G37*
G36*
X26488232Y9796254D02*
G01*
X26667308Y9741932D01*
X26749826Y9697825D01*
X26832344Y9653719D01*
X26977001Y9535001D01*
X27095719Y9390344D01*
X27139825Y9307826D01*
X27183932Y9225308D01*
X27238254Y9046232D01*
X27256596Y8860000D01*
X27238254Y8673768D01*
X27183932Y8494692D01*
X27183931Y8494691D01*
X27095719Y8329656D01*
X26977001Y8184999D01*
X26832344Y8066281D01*
X26749827Y8022175D01*
X26667308Y7978068D01*
X26488232Y7923746D01*
X26348666Y7910000D01*
X26255334Y7910000D01*
X26115768Y7923746D01*
X25936692Y7978068D01*
X25854173Y8022175D01*
X25771656Y8066281D01*
X25626999Y8184999D01*
X25508281Y8329656D01*
X25420069Y8494691D01*
X25420068Y8494692D01*
X25365746Y8673768D01*
X25347404Y8860000D01*
X25365746Y9046232D01*
X25420068Y9225308D01*
X25464175Y9307827D01*
X25508281Y9390344D01*
X25626999Y9535001D01*
X25771656Y9653719D01*
X25854174Y9697825D01*
X25936692Y9741932D01*
X26115768Y9796254D01*
X26255334Y9810000D01*
X26348666Y9810000D01*
X26488232Y9796254D01*
X26488232Y9796254D01*
G37*
G36*
X29028232Y9796254D02*
G01*
X29207308Y9741932D01*
X29289826Y9697825D01*
X29372344Y9653719D01*
X29517001Y9535001D01*
X29635719Y9390344D01*
X29679825Y9307826D01*
X29723932Y9225308D01*
X29778254Y9046232D01*
X29796596Y8860000D01*
X29778254Y8673768D01*
X29723932Y8494692D01*
X29723931Y8494691D01*
X29635719Y8329656D01*
X29517001Y8184999D01*
X29372344Y8066281D01*
X29289827Y8022175D01*
X29207308Y7978068D01*
X29028232Y7923746D01*
X28888666Y7910000D01*
X28795334Y7910000D01*
X28655768Y7923746D01*
X28476692Y7978068D01*
X28394173Y8022175D01*
X28311656Y8066281D01*
X28166999Y8184999D01*
X28048281Y8329656D01*
X27960069Y8494691D01*
X27960068Y8494692D01*
X27905746Y8673768D01*
X27887404Y8860000D01*
X27905746Y9046232D01*
X27960068Y9225308D01*
X28004175Y9307827D01*
X28048281Y9390344D01*
X28166999Y9535001D01*
X28311656Y9653719D01*
X28394174Y9697825D01*
X28476692Y9741932D01*
X28655768Y9796254D01*
X28795334Y9810000D01*
X28888666Y9810000D01*
X29028232Y9796254D01*
X29028232Y9796254D01*
G37*
G36*
X34108232Y9796254D02*
G01*
X34287308Y9741932D01*
X34369826Y9697825D01*
X34452344Y9653719D01*
X34597001Y9535001D01*
X34715719Y9390344D01*
X34759825Y9307826D01*
X34803932Y9225308D01*
X34858254Y9046232D01*
X34876596Y8860000D01*
X34858254Y8673768D01*
X34803932Y8494692D01*
X34803931Y8494691D01*
X34715719Y8329656D01*
X34597001Y8184999D01*
X34452344Y8066281D01*
X34369827Y8022175D01*
X34287308Y7978068D01*
X34108232Y7923746D01*
X33968666Y7910000D01*
X33875334Y7910000D01*
X33735768Y7923746D01*
X33556692Y7978068D01*
X33474173Y8022175D01*
X33391656Y8066281D01*
X33246999Y8184999D01*
X33128281Y8329656D01*
X33040069Y8494691D01*
X33040068Y8494692D01*
X32985746Y8673768D01*
X32967404Y8860000D01*
X32985746Y9046232D01*
X33040068Y9225308D01*
X33084175Y9307827D01*
X33128281Y9390344D01*
X33246999Y9535001D01*
X33391656Y9653719D01*
X33474174Y9697825D01*
X33556692Y9741932D01*
X33735768Y9796254D01*
X33875334Y9810000D01*
X33968666Y9810000D01*
X34108232Y9796254D01*
X34108232Y9796254D01*
G37*
G36*
X36648232Y9796254D02*
G01*
X36827308Y9741932D01*
X36909826Y9697825D01*
X36992344Y9653719D01*
X37137001Y9535001D01*
X37255719Y9390344D01*
X37299825Y9307826D01*
X37343932Y9225308D01*
X37398254Y9046232D01*
X37416596Y8860000D01*
X37398254Y8673768D01*
X37343932Y8494692D01*
X37343931Y8494691D01*
X37255719Y8329656D01*
X37137001Y8184999D01*
X36992344Y8066281D01*
X36909827Y8022175D01*
X36827308Y7978068D01*
X36648232Y7923746D01*
X36508666Y7910000D01*
X36415334Y7910000D01*
X36275768Y7923746D01*
X36096692Y7978068D01*
X36014173Y8022175D01*
X35931656Y8066281D01*
X35786999Y8184999D01*
X35668281Y8329656D01*
X35580069Y8494691D01*
X35580068Y8494692D01*
X35525746Y8673768D01*
X35507404Y8860000D01*
X35525746Y9046232D01*
X35580068Y9225308D01*
X35624175Y9307827D01*
X35668281Y9390344D01*
X35786999Y9535001D01*
X35931656Y9653719D01*
X36014174Y9697825D01*
X36096692Y9741932D01*
X36275768Y9796254D01*
X36415334Y9810000D01*
X36508666Y9810000D01*
X36648232Y9796254D01*
X36648232Y9796254D01*
G37*
G36*
X39188232Y9796254D02*
G01*
X39367308Y9741932D01*
X39449826Y9697825D01*
X39532344Y9653719D01*
X39677001Y9535001D01*
X39795719Y9390344D01*
X39839825Y9307826D01*
X39883932Y9225308D01*
X39938254Y9046232D01*
X39956596Y8860000D01*
X39938254Y8673768D01*
X39883932Y8494692D01*
X39883931Y8494691D01*
X39795719Y8329656D01*
X39677001Y8184999D01*
X39532344Y8066281D01*
X39449827Y8022175D01*
X39367308Y7978068D01*
X39188232Y7923746D01*
X39048666Y7910000D01*
X38955334Y7910000D01*
X38815768Y7923746D01*
X38636692Y7978068D01*
X38554173Y8022175D01*
X38471656Y8066281D01*
X38326999Y8184999D01*
X38208281Y8329656D01*
X38120069Y8494691D01*
X38120068Y8494692D01*
X38065746Y8673768D01*
X38047404Y8860000D01*
X38065746Y9046232D01*
X38120068Y9225308D01*
X38164175Y9307827D01*
X38208281Y9390344D01*
X38326999Y9535001D01*
X38471656Y9653719D01*
X38554174Y9697825D01*
X38636692Y9741932D01*
X38815768Y9796254D01*
X38955334Y9810000D01*
X39048666Y9810000D01*
X39188232Y9796254D01*
X39188232Y9796254D01*
G37*
G36*
X41728232Y9796254D02*
G01*
X41907308Y9741932D01*
X41989826Y9697825D01*
X42072344Y9653719D01*
X42217001Y9535001D01*
X42335719Y9390344D01*
X42379825Y9307826D01*
X42423932Y9225308D01*
X42478254Y9046232D01*
X42496596Y8860000D01*
X42478254Y8673768D01*
X42423932Y8494692D01*
X42423931Y8494691D01*
X42335719Y8329656D01*
X42217001Y8184999D01*
X42072344Y8066281D01*
X41989827Y8022175D01*
X41907308Y7978068D01*
X41728232Y7923746D01*
X41588666Y7910000D01*
X41495334Y7910000D01*
X41355768Y7923746D01*
X41176692Y7978068D01*
X41094173Y8022175D01*
X41011656Y8066281D01*
X40866999Y8184999D01*
X40748281Y8329656D01*
X40660069Y8494691D01*
X40660068Y8494692D01*
X40605746Y8673768D01*
X40587404Y8860000D01*
X40605746Y9046232D01*
X40660068Y9225308D01*
X40704175Y9307827D01*
X40748281Y9390344D01*
X40866999Y9535001D01*
X41011656Y9653719D01*
X41094174Y9697825D01*
X41176692Y9741932D01*
X41355768Y9796254D01*
X41495334Y9810000D01*
X41588666Y9810000D01*
X41728232Y9796254D01*
X41728232Y9796254D01*
G37*
G36*
X46808232Y9796254D02*
G01*
X46987308Y9741932D01*
X47069826Y9697825D01*
X47152344Y9653719D01*
X47297001Y9535001D01*
X47415719Y9390344D01*
X47459825Y9307826D01*
X47503932Y9225308D01*
X47558254Y9046232D01*
X47576596Y8860000D01*
X47558254Y8673768D01*
X47503932Y8494692D01*
X47503931Y8494691D01*
X47415719Y8329656D01*
X47297001Y8184999D01*
X47152344Y8066281D01*
X47069827Y8022175D01*
X46987308Y7978068D01*
X46808232Y7923746D01*
X46668666Y7910000D01*
X46575334Y7910000D01*
X46435768Y7923746D01*
X46256692Y7978068D01*
X46174173Y8022175D01*
X46091656Y8066281D01*
X45946999Y8184999D01*
X45828281Y8329656D01*
X45740069Y8494691D01*
X45740068Y8494692D01*
X45685746Y8673768D01*
X45667404Y8860000D01*
X45685746Y9046232D01*
X45740068Y9225308D01*
X45784175Y9307827D01*
X45828281Y9390344D01*
X45946999Y9535001D01*
X46091656Y9653719D01*
X46174174Y9697825D01*
X46256692Y9741932D01*
X46435768Y9796254D01*
X46575334Y9810000D01*
X46668666Y9810000D01*
X46808232Y9796254D01*
X46808232Y9796254D01*
G37*
G36*
X44268232Y9796254D02*
G01*
X44447308Y9741932D01*
X44529826Y9697825D01*
X44612344Y9653719D01*
X44757001Y9535001D01*
X44875719Y9390344D01*
X44919825Y9307826D01*
X44963932Y9225308D01*
X45018254Y9046232D01*
X45036596Y8860000D01*
X45018254Y8673768D01*
X44963932Y8494692D01*
X44963931Y8494691D01*
X44875719Y8329656D01*
X44757001Y8184999D01*
X44612344Y8066281D01*
X44529827Y8022175D01*
X44447308Y7978068D01*
X44268232Y7923746D01*
X44128666Y7910000D01*
X44035334Y7910000D01*
X43895768Y7923746D01*
X43716692Y7978068D01*
X43634173Y8022175D01*
X43551656Y8066281D01*
X43406999Y8184999D01*
X43288281Y8329656D01*
X43200069Y8494691D01*
X43200068Y8494692D01*
X43145746Y8673768D01*
X43127404Y8860000D01*
X43145746Y9046232D01*
X43200068Y9225308D01*
X43244175Y9307827D01*
X43288281Y9390344D01*
X43406999Y9535001D01*
X43551656Y9653719D01*
X43634174Y9697825D01*
X43716692Y9741932D01*
X43895768Y9796254D01*
X44035334Y9810000D01*
X44128666Y9810000D01*
X44268232Y9796254D01*
X44268232Y9796254D01*
G37*
G36*
X57825000Y8325000D02*
G01*
X56825000Y8325000D01*
X56825000Y9275000D01*
X57825000Y9275000D01*
X57825000Y8325000D01*
X57825000Y8325000D01*
G37*
G36*
X59325000Y8325000D02*
G01*
X58325000Y8325000D01*
X58325000Y9275000D01*
X59325000Y9275000D01*
X59325000Y8325000D01*
X59325000Y8325000D01*
G37*
G36*
X57825000Y10025000D02*
G01*
X56825000Y10025000D01*
X56825000Y10975000D01*
X57825000Y10975000D01*
X57825000Y10025000D01*
X57825000Y10025000D01*
G37*
G36*
X59325000Y10025000D02*
G01*
X58325000Y10025000D01*
X58325000Y10975000D01*
X59325000Y10975000D01*
X59325000Y10025000D01*
X59325000Y10025000D01*
G37*
G36*
X36648232Y12336254D02*
G01*
X36827308Y12281932D01*
X36909826Y12237825D01*
X36992344Y12193719D01*
X36992346Y12193718D01*
X36992345Y12193718D01*
X37137001Y12075001D01*
X37255718Y11930345D01*
X37343932Y11765308D01*
X37398254Y11586232D01*
X37416596Y11400000D01*
X37398254Y11213768D01*
X37343932Y11034692D01*
X37343931Y11034691D01*
X37255719Y10869656D01*
X37137001Y10724999D01*
X36992344Y10606281D01*
X36909827Y10562175D01*
X36827308Y10518068D01*
X36648232Y10463746D01*
X36508666Y10450000D01*
X36415334Y10450000D01*
X36275768Y10463746D01*
X36096692Y10518068D01*
X36014173Y10562175D01*
X35931656Y10606281D01*
X35786999Y10724999D01*
X35668281Y10869656D01*
X35580069Y11034691D01*
X35580068Y11034692D01*
X35525746Y11213768D01*
X35507404Y11400000D01*
X35525746Y11586232D01*
X35580068Y11765308D01*
X35668282Y11930345D01*
X35786999Y12075001D01*
X35931655Y12193718D01*
X35931654Y12193718D01*
X35931656Y12193719D01*
X36014174Y12237825D01*
X36096692Y12281932D01*
X36275768Y12336254D01*
X36415334Y12350000D01*
X36508666Y12350000D01*
X36648232Y12336254D01*
X36648232Y12336254D01*
G37*
G36*
X6168232Y12336254D02*
G01*
X6347308Y12281932D01*
X6429826Y12237825D01*
X6512344Y12193719D01*
X6512346Y12193718D01*
X6512345Y12193718D01*
X6657001Y12075001D01*
X6775718Y11930345D01*
X6863932Y11765308D01*
X6918254Y11586232D01*
X6936596Y11400000D01*
X6918254Y11213768D01*
X6863932Y11034692D01*
X6863931Y11034691D01*
X6775719Y10869656D01*
X6657001Y10724999D01*
X6512344Y10606281D01*
X6429827Y10562175D01*
X6347308Y10518068D01*
X6168232Y10463746D01*
X6028666Y10450000D01*
X5935334Y10450000D01*
X5795768Y10463746D01*
X5616692Y10518068D01*
X5534173Y10562175D01*
X5451656Y10606281D01*
X5306999Y10724999D01*
X5188281Y10869656D01*
X5100069Y11034691D01*
X5100068Y11034692D01*
X5045746Y11213768D01*
X5027404Y11400000D01*
X5045746Y11586232D01*
X5100068Y11765308D01*
X5188282Y11930345D01*
X5306999Y12075001D01*
X5451655Y12193718D01*
X5451654Y12193718D01*
X5451656Y12193719D01*
X5534174Y12237825D01*
X5616692Y12281932D01*
X5795768Y12336254D01*
X5935334Y12350000D01*
X6028666Y12350000D01*
X6168232Y12336254D01*
X6168232Y12336254D01*
G37*
G36*
X8708232Y12336254D02*
G01*
X8887308Y12281932D01*
X8969826Y12237825D01*
X9052344Y12193719D01*
X9052346Y12193718D01*
X9052345Y12193718D01*
X9197001Y12075001D01*
X9315718Y11930345D01*
X9403932Y11765308D01*
X9458254Y11586232D01*
X9476596Y11400000D01*
X9458254Y11213768D01*
X9403932Y11034692D01*
X9403931Y11034691D01*
X9315719Y10869656D01*
X9197001Y10724999D01*
X9052344Y10606281D01*
X8969827Y10562175D01*
X8887308Y10518068D01*
X8708232Y10463746D01*
X8568666Y10450000D01*
X8475334Y10450000D01*
X8335768Y10463746D01*
X8156692Y10518068D01*
X8074173Y10562175D01*
X7991656Y10606281D01*
X7846999Y10724999D01*
X7728281Y10869656D01*
X7640069Y11034691D01*
X7640068Y11034692D01*
X7585746Y11213768D01*
X7567404Y11400000D01*
X7585746Y11586232D01*
X7640068Y11765308D01*
X7728282Y11930345D01*
X7846999Y12075001D01*
X7991655Y12193718D01*
X7991654Y12193718D01*
X7991656Y12193719D01*
X8074174Y12237825D01*
X8156692Y12281932D01*
X8335768Y12336254D01*
X8475334Y12350000D01*
X8568666Y12350000D01*
X8708232Y12336254D01*
X8708232Y12336254D01*
G37*
G36*
X13788232Y12336254D02*
G01*
X13967308Y12281932D01*
X14049826Y12237825D01*
X14132344Y12193719D01*
X14132346Y12193718D01*
X14132345Y12193718D01*
X14277001Y12075001D01*
X14395718Y11930345D01*
X14483932Y11765308D01*
X14538254Y11586232D01*
X14556596Y11400000D01*
X14538254Y11213768D01*
X14483932Y11034692D01*
X14483931Y11034691D01*
X14395719Y10869656D01*
X14277001Y10724999D01*
X14132344Y10606281D01*
X14049827Y10562175D01*
X13967308Y10518068D01*
X13788232Y10463746D01*
X13648666Y10450000D01*
X13555334Y10450000D01*
X13415768Y10463746D01*
X13236692Y10518068D01*
X13154173Y10562175D01*
X13071656Y10606281D01*
X12926999Y10724999D01*
X12808281Y10869656D01*
X12720069Y11034691D01*
X12720068Y11034692D01*
X12665746Y11213768D01*
X12647404Y11400000D01*
X12665746Y11586232D01*
X12720068Y11765308D01*
X12808282Y11930345D01*
X12926999Y12075001D01*
X13071655Y12193718D01*
X13071654Y12193718D01*
X13071656Y12193719D01*
X13154174Y12237825D01*
X13236692Y12281932D01*
X13415768Y12336254D01*
X13555334Y12350000D01*
X13648666Y12350000D01*
X13788232Y12336254D01*
X13788232Y12336254D01*
G37*
G36*
X11248232Y12336254D02*
G01*
X11427308Y12281932D01*
X11509826Y12237825D01*
X11592344Y12193719D01*
X11592346Y12193718D01*
X11592345Y12193718D01*
X11737001Y12075001D01*
X11855718Y11930345D01*
X11943932Y11765308D01*
X11998254Y11586232D01*
X12016596Y11400000D01*
X11998254Y11213768D01*
X11943932Y11034692D01*
X11943931Y11034691D01*
X11855719Y10869656D01*
X11737001Y10724999D01*
X11592344Y10606281D01*
X11509827Y10562175D01*
X11427308Y10518068D01*
X11248232Y10463746D01*
X11108666Y10450000D01*
X11015334Y10450000D01*
X10875768Y10463746D01*
X10696692Y10518068D01*
X10614173Y10562175D01*
X10531656Y10606281D01*
X10386999Y10724999D01*
X10268281Y10869656D01*
X10180069Y11034691D01*
X10180068Y11034692D01*
X10125746Y11213768D01*
X10107404Y11400000D01*
X10125746Y11586232D01*
X10180068Y11765308D01*
X10268282Y11930345D01*
X10386999Y12075001D01*
X10531655Y12193718D01*
X10531654Y12193718D01*
X10531656Y12193719D01*
X10614174Y12237825D01*
X10696692Y12281932D01*
X10875768Y12336254D01*
X11015334Y12350000D01*
X11108666Y12350000D01*
X11248232Y12336254D01*
X11248232Y12336254D01*
G37*
G36*
X39188232Y12336254D02*
G01*
X39367308Y12281932D01*
X39449826Y12237825D01*
X39532344Y12193719D01*
X39532346Y12193718D01*
X39532345Y12193718D01*
X39677001Y12075001D01*
X39795718Y11930345D01*
X39883932Y11765308D01*
X39938254Y11586232D01*
X39956596Y11400000D01*
X39938254Y11213768D01*
X39883932Y11034692D01*
X39883931Y11034691D01*
X39795719Y10869656D01*
X39677001Y10724999D01*
X39532344Y10606281D01*
X39449827Y10562175D01*
X39367308Y10518068D01*
X39188232Y10463746D01*
X39048666Y10450000D01*
X38955334Y10450000D01*
X38815768Y10463746D01*
X38636692Y10518068D01*
X38554173Y10562175D01*
X38471656Y10606281D01*
X38326999Y10724999D01*
X38208281Y10869656D01*
X38120069Y11034691D01*
X38120068Y11034692D01*
X38065746Y11213768D01*
X38047404Y11400000D01*
X38065746Y11586232D01*
X38120068Y11765308D01*
X38208282Y11930345D01*
X38326999Y12075001D01*
X38471655Y12193718D01*
X38471654Y12193718D01*
X38471656Y12193719D01*
X38554174Y12237825D01*
X38636692Y12281932D01*
X38815768Y12336254D01*
X38955334Y12350000D01*
X39048666Y12350000D01*
X39188232Y12336254D01*
X39188232Y12336254D01*
G37*
G36*
X34108232Y12336254D02*
G01*
X34287308Y12281932D01*
X34369826Y12237825D01*
X34452344Y12193719D01*
X34452346Y12193718D01*
X34452345Y12193718D01*
X34597001Y12075001D01*
X34715718Y11930345D01*
X34803932Y11765308D01*
X34858254Y11586232D01*
X34876596Y11400000D01*
X34858254Y11213768D01*
X34803932Y11034692D01*
X34803931Y11034691D01*
X34715719Y10869656D01*
X34597001Y10724999D01*
X34452344Y10606281D01*
X34369827Y10562175D01*
X34287308Y10518068D01*
X34108232Y10463746D01*
X33968666Y10450000D01*
X33875334Y10450000D01*
X33735768Y10463746D01*
X33556692Y10518068D01*
X33474173Y10562175D01*
X33391656Y10606281D01*
X33246999Y10724999D01*
X33128281Y10869656D01*
X33040069Y11034691D01*
X33040068Y11034692D01*
X32985746Y11213768D01*
X32967404Y11400000D01*
X32985746Y11586232D01*
X33040068Y11765308D01*
X33128282Y11930345D01*
X33246999Y12075001D01*
X33391655Y12193718D01*
X33391654Y12193718D01*
X33391656Y12193719D01*
X33474174Y12237825D01*
X33556692Y12281932D01*
X33735768Y12336254D01*
X33875334Y12350000D01*
X33968666Y12350000D01*
X34108232Y12336254D01*
X34108232Y12336254D01*
G37*
G36*
X31568232Y12336254D02*
G01*
X31747308Y12281932D01*
X31829826Y12237825D01*
X31912344Y12193719D01*
X31912346Y12193718D01*
X31912345Y12193718D01*
X32057001Y12075001D01*
X32175718Y11930345D01*
X32263932Y11765308D01*
X32318254Y11586232D01*
X32336596Y11400000D01*
X32318254Y11213768D01*
X32263932Y11034692D01*
X32263931Y11034691D01*
X32175719Y10869656D01*
X32057001Y10724999D01*
X31912344Y10606281D01*
X31829827Y10562175D01*
X31747308Y10518068D01*
X31568232Y10463746D01*
X31428666Y10450000D01*
X31335334Y10450000D01*
X31195768Y10463746D01*
X31016692Y10518068D01*
X30934173Y10562175D01*
X30851656Y10606281D01*
X30706999Y10724999D01*
X30588281Y10869656D01*
X30500069Y11034691D01*
X30500068Y11034692D01*
X30445746Y11213768D01*
X30427404Y11400000D01*
X30445746Y11586232D01*
X30500068Y11765308D01*
X30588282Y11930345D01*
X30706999Y12075001D01*
X30851655Y12193718D01*
X30851654Y12193718D01*
X30851656Y12193719D01*
X30934174Y12237825D01*
X31016692Y12281932D01*
X31195768Y12336254D01*
X31335334Y12350000D01*
X31428666Y12350000D01*
X31568232Y12336254D01*
X31568232Y12336254D01*
G37*
G36*
X55192000Y10450000D02*
G01*
X53292000Y10450000D01*
X53292000Y12350000D01*
X55192000Y12350000D01*
X55192000Y10450000D01*
X55192000Y10450000D01*
G37*
G36*
X16328232Y12336254D02*
G01*
X16507308Y12281932D01*
X16589826Y12237825D01*
X16672344Y12193719D01*
X16672346Y12193718D01*
X16672345Y12193718D01*
X16817001Y12075001D01*
X16935718Y11930345D01*
X17023932Y11765308D01*
X17078254Y11586232D01*
X17096596Y11400000D01*
X17078254Y11213768D01*
X17023932Y11034692D01*
X17023931Y11034691D01*
X16935719Y10869656D01*
X16817001Y10724999D01*
X16672344Y10606281D01*
X16589827Y10562175D01*
X16507308Y10518068D01*
X16328232Y10463746D01*
X16188666Y10450000D01*
X16095334Y10450000D01*
X15955768Y10463746D01*
X15776692Y10518068D01*
X15694173Y10562175D01*
X15611656Y10606281D01*
X15466999Y10724999D01*
X15348281Y10869656D01*
X15260069Y11034691D01*
X15260068Y11034692D01*
X15205746Y11213768D01*
X15187404Y11400000D01*
X15205746Y11586232D01*
X15260068Y11765308D01*
X15348282Y11930345D01*
X15466999Y12075001D01*
X15611655Y12193718D01*
X15611654Y12193718D01*
X15611656Y12193719D01*
X15694174Y12237825D01*
X15776692Y12281932D01*
X15955768Y12336254D01*
X16095334Y12350000D01*
X16188666Y12350000D01*
X16328232Y12336254D01*
X16328232Y12336254D01*
G37*
G36*
X29028232Y12336254D02*
G01*
X29207308Y12281932D01*
X29289826Y12237825D01*
X29372344Y12193719D01*
X29372346Y12193718D01*
X29372345Y12193718D01*
X29517001Y12075001D01*
X29635718Y11930345D01*
X29723932Y11765308D01*
X29778254Y11586232D01*
X29796596Y11400000D01*
X29778254Y11213768D01*
X29723932Y11034692D01*
X29723931Y11034691D01*
X29635719Y10869656D01*
X29517001Y10724999D01*
X29372344Y10606281D01*
X29289827Y10562175D01*
X29207308Y10518068D01*
X29028232Y10463746D01*
X28888666Y10450000D01*
X28795334Y10450000D01*
X28655768Y10463746D01*
X28476692Y10518068D01*
X28394173Y10562175D01*
X28311656Y10606281D01*
X28166999Y10724999D01*
X28048281Y10869656D01*
X27960069Y11034691D01*
X27960068Y11034692D01*
X27905746Y11213768D01*
X27887404Y11400000D01*
X27905746Y11586232D01*
X27960068Y11765308D01*
X28048282Y11930345D01*
X28166999Y12075001D01*
X28311655Y12193718D01*
X28311654Y12193718D01*
X28311656Y12193719D01*
X28394174Y12237825D01*
X28476692Y12281932D01*
X28655768Y12336254D01*
X28795334Y12350000D01*
X28888666Y12350000D01*
X29028232Y12336254D01*
X29028232Y12336254D01*
G37*
G36*
X51888232Y12336254D02*
G01*
X52067308Y12281932D01*
X52149826Y12237825D01*
X52232344Y12193719D01*
X52232346Y12193718D01*
X52232345Y12193718D01*
X52377001Y12075001D01*
X52495718Y11930345D01*
X52583932Y11765308D01*
X52638254Y11586232D01*
X52656596Y11400000D01*
X52638254Y11213768D01*
X52583932Y11034692D01*
X52583931Y11034691D01*
X52495719Y10869656D01*
X52377001Y10724999D01*
X52232344Y10606281D01*
X52149827Y10562175D01*
X52067308Y10518068D01*
X51888232Y10463746D01*
X51748666Y10450000D01*
X51655334Y10450000D01*
X51515768Y10463746D01*
X51336692Y10518068D01*
X51254173Y10562175D01*
X51171656Y10606281D01*
X51026999Y10724999D01*
X50908281Y10869656D01*
X50820069Y11034691D01*
X50820068Y11034692D01*
X50765746Y11213768D01*
X50747404Y11400000D01*
X50765746Y11586232D01*
X50820068Y11765308D01*
X50908282Y11930345D01*
X51026999Y12075001D01*
X51171655Y12193718D01*
X51171654Y12193718D01*
X51171656Y12193719D01*
X51254174Y12237825D01*
X51336692Y12281932D01*
X51515768Y12336254D01*
X51655334Y12350000D01*
X51748666Y12350000D01*
X51888232Y12336254D01*
X51888232Y12336254D01*
G37*
G36*
X26488232Y12336254D02*
G01*
X26667308Y12281932D01*
X26749826Y12237825D01*
X26832344Y12193719D01*
X26832346Y12193718D01*
X26832345Y12193718D01*
X26977001Y12075001D01*
X27095718Y11930345D01*
X27183932Y11765308D01*
X27238254Y11586232D01*
X27256596Y11400000D01*
X27238254Y11213768D01*
X27183932Y11034692D01*
X27183931Y11034691D01*
X27095719Y10869656D01*
X26977001Y10724999D01*
X26832344Y10606281D01*
X26749827Y10562175D01*
X26667308Y10518068D01*
X26488232Y10463746D01*
X26348666Y10450000D01*
X26255334Y10450000D01*
X26115768Y10463746D01*
X25936692Y10518068D01*
X25854173Y10562175D01*
X25771656Y10606281D01*
X25626999Y10724999D01*
X25508281Y10869656D01*
X25420069Y11034691D01*
X25420068Y11034692D01*
X25365746Y11213768D01*
X25347404Y11400000D01*
X25365746Y11586232D01*
X25420068Y11765308D01*
X25508282Y11930345D01*
X25626999Y12075001D01*
X25771655Y12193718D01*
X25771654Y12193718D01*
X25771656Y12193719D01*
X25854174Y12237825D01*
X25936692Y12281932D01*
X26115768Y12336254D01*
X26255334Y12350000D01*
X26348666Y12350000D01*
X26488232Y12336254D01*
X26488232Y12336254D01*
G37*
G36*
X49348232Y12336254D02*
G01*
X49527308Y12281932D01*
X49609826Y12237825D01*
X49692344Y12193719D01*
X49692346Y12193718D01*
X49692345Y12193718D01*
X49837001Y12075001D01*
X49955718Y11930345D01*
X50043932Y11765308D01*
X50098254Y11586232D01*
X50116596Y11400000D01*
X50098254Y11213768D01*
X50043932Y11034692D01*
X50043931Y11034691D01*
X49955719Y10869656D01*
X49837001Y10724999D01*
X49692344Y10606281D01*
X49609827Y10562175D01*
X49527308Y10518068D01*
X49348232Y10463746D01*
X49208666Y10450000D01*
X49115334Y10450000D01*
X48975768Y10463746D01*
X48796692Y10518068D01*
X48714173Y10562175D01*
X48631656Y10606281D01*
X48486999Y10724999D01*
X48368281Y10869656D01*
X48280069Y11034691D01*
X48280068Y11034692D01*
X48225746Y11213768D01*
X48207404Y11400000D01*
X48225746Y11586232D01*
X48280068Y11765308D01*
X48368282Y11930345D01*
X48486999Y12075001D01*
X48631655Y12193718D01*
X48631654Y12193718D01*
X48631656Y12193719D01*
X48714174Y12237825D01*
X48796692Y12281932D01*
X48975768Y12336254D01*
X49115334Y12350000D01*
X49208666Y12350000D01*
X49348232Y12336254D01*
X49348232Y12336254D01*
G37*
G36*
X23948232Y12336254D02*
G01*
X24127308Y12281932D01*
X24209826Y12237825D01*
X24292344Y12193719D01*
X24292346Y12193718D01*
X24292345Y12193718D01*
X24437001Y12075001D01*
X24555718Y11930345D01*
X24643932Y11765308D01*
X24698254Y11586232D01*
X24716596Y11400000D01*
X24698254Y11213768D01*
X24643932Y11034692D01*
X24643931Y11034691D01*
X24555719Y10869656D01*
X24437001Y10724999D01*
X24292344Y10606281D01*
X24209827Y10562175D01*
X24127308Y10518068D01*
X23948232Y10463746D01*
X23808666Y10450000D01*
X23715334Y10450000D01*
X23575768Y10463746D01*
X23396692Y10518068D01*
X23314173Y10562175D01*
X23231656Y10606281D01*
X23086999Y10724999D01*
X22968281Y10869656D01*
X22880069Y11034691D01*
X22880068Y11034692D01*
X22825746Y11213768D01*
X22807404Y11400000D01*
X22825746Y11586232D01*
X22880068Y11765308D01*
X22968282Y11930345D01*
X23086999Y12075001D01*
X23231655Y12193718D01*
X23231654Y12193718D01*
X23231656Y12193719D01*
X23314174Y12237825D01*
X23396692Y12281932D01*
X23575768Y12336254D01*
X23715334Y12350000D01*
X23808666Y12350000D01*
X23948232Y12336254D01*
X23948232Y12336254D01*
G37*
G36*
X46808232Y12336254D02*
G01*
X46987308Y12281932D01*
X47069826Y12237825D01*
X47152344Y12193719D01*
X47152346Y12193718D01*
X47152345Y12193718D01*
X47297001Y12075001D01*
X47415718Y11930345D01*
X47503932Y11765308D01*
X47558254Y11586232D01*
X47576596Y11400000D01*
X47558254Y11213768D01*
X47503932Y11034692D01*
X47503931Y11034691D01*
X47415719Y10869656D01*
X47297001Y10724999D01*
X47152344Y10606281D01*
X47069827Y10562175D01*
X46987308Y10518068D01*
X46808232Y10463746D01*
X46668666Y10450000D01*
X46575334Y10450000D01*
X46435768Y10463746D01*
X46256692Y10518068D01*
X46174173Y10562175D01*
X46091656Y10606281D01*
X45946999Y10724999D01*
X45828281Y10869656D01*
X45740069Y11034691D01*
X45740068Y11034692D01*
X45685746Y11213768D01*
X45667404Y11400000D01*
X45685746Y11586232D01*
X45740068Y11765308D01*
X45828282Y11930345D01*
X45946999Y12075001D01*
X46091655Y12193718D01*
X46091654Y12193718D01*
X46091656Y12193719D01*
X46174174Y12237825D01*
X46256692Y12281932D01*
X46435768Y12336254D01*
X46575334Y12350000D01*
X46668666Y12350000D01*
X46808232Y12336254D01*
X46808232Y12336254D01*
G37*
G36*
X21408232Y12336254D02*
G01*
X21587308Y12281932D01*
X21669826Y12237825D01*
X21752344Y12193719D01*
X21752346Y12193718D01*
X21752345Y12193718D01*
X21897001Y12075001D01*
X22015718Y11930345D01*
X22103932Y11765308D01*
X22158254Y11586232D01*
X22176596Y11400000D01*
X22158254Y11213768D01*
X22103932Y11034692D01*
X22103931Y11034691D01*
X22015719Y10869656D01*
X21897001Y10724999D01*
X21752344Y10606281D01*
X21669827Y10562175D01*
X21587308Y10518068D01*
X21408232Y10463746D01*
X21268666Y10450000D01*
X21175334Y10450000D01*
X21035768Y10463746D01*
X20856692Y10518068D01*
X20774173Y10562175D01*
X20691656Y10606281D01*
X20546999Y10724999D01*
X20428281Y10869656D01*
X20340069Y11034691D01*
X20340068Y11034692D01*
X20285746Y11213768D01*
X20267404Y11400000D01*
X20285746Y11586232D01*
X20340068Y11765308D01*
X20428282Y11930345D01*
X20546999Y12075001D01*
X20691655Y12193718D01*
X20691654Y12193718D01*
X20691656Y12193719D01*
X20774174Y12237825D01*
X20856692Y12281932D01*
X21035768Y12336254D01*
X21175334Y12350000D01*
X21268666Y12350000D01*
X21408232Y12336254D01*
X21408232Y12336254D01*
G37*
G36*
X44268232Y12336254D02*
G01*
X44447308Y12281932D01*
X44529826Y12237825D01*
X44612344Y12193719D01*
X44612346Y12193718D01*
X44612345Y12193718D01*
X44757001Y12075001D01*
X44875718Y11930345D01*
X44963932Y11765308D01*
X45018254Y11586232D01*
X45036596Y11400000D01*
X45018254Y11213768D01*
X44963932Y11034692D01*
X44963931Y11034691D01*
X44875719Y10869656D01*
X44757001Y10724999D01*
X44612344Y10606281D01*
X44529827Y10562175D01*
X44447308Y10518068D01*
X44268232Y10463746D01*
X44128666Y10450000D01*
X44035334Y10450000D01*
X43895768Y10463746D01*
X43716692Y10518068D01*
X43634173Y10562175D01*
X43551656Y10606281D01*
X43406999Y10724999D01*
X43288281Y10869656D01*
X43200069Y11034691D01*
X43200068Y11034692D01*
X43145746Y11213768D01*
X43127404Y11400000D01*
X43145746Y11586232D01*
X43200068Y11765308D01*
X43288282Y11930345D01*
X43406999Y12075001D01*
X43551655Y12193718D01*
X43551654Y12193718D01*
X43551656Y12193719D01*
X43634174Y12237825D01*
X43716692Y12281932D01*
X43895768Y12336254D01*
X44035334Y12350000D01*
X44128666Y12350000D01*
X44268232Y12336254D01*
X44268232Y12336254D01*
G37*
G36*
X18868232Y12336254D02*
G01*
X19047308Y12281932D01*
X19129826Y12237825D01*
X19212344Y12193719D01*
X19212346Y12193718D01*
X19212345Y12193718D01*
X19357001Y12075001D01*
X19475718Y11930345D01*
X19563932Y11765308D01*
X19618254Y11586232D01*
X19636596Y11400000D01*
X19618254Y11213768D01*
X19563932Y11034692D01*
X19563931Y11034691D01*
X19475719Y10869656D01*
X19357001Y10724999D01*
X19212344Y10606281D01*
X19129827Y10562175D01*
X19047308Y10518068D01*
X18868232Y10463746D01*
X18728666Y10450000D01*
X18635334Y10450000D01*
X18495768Y10463746D01*
X18316692Y10518068D01*
X18234173Y10562175D01*
X18151656Y10606281D01*
X18006999Y10724999D01*
X17888281Y10869656D01*
X17800069Y11034691D01*
X17800068Y11034692D01*
X17745746Y11213768D01*
X17727404Y11400000D01*
X17745746Y11586232D01*
X17800068Y11765308D01*
X17888282Y11930345D01*
X18006999Y12075001D01*
X18151655Y12193718D01*
X18151654Y12193718D01*
X18151656Y12193719D01*
X18234174Y12237825D01*
X18316692Y12281932D01*
X18495768Y12336254D01*
X18635334Y12350000D01*
X18728666Y12350000D01*
X18868232Y12336254D01*
X18868232Y12336254D01*
G37*
G36*
X41728232Y12336254D02*
G01*
X41907308Y12281932D01*
X41989826Y12237825D01*
X42072344Y12193719D01*
X42072346Y12193718D01*
X42072345Y12193718D01*
X42217001Y12075001D01*
X42335718Y11930345D01*
X42423932Y11765308D01*
X42478254Y11586232D01*
X42496596Y11400000D01*
X42478254Y11213768D01*
X42423932Y11034692D01*
X42423931Y11034691D01*
X42335719Y10869656D01*
X42217001Y10724999D01*
X42072344Y10606281D01*
X41989827Y10562175D01*
X41907308Y10518068D01*
X41728232Y10463746D01*
X41588666Y10450000D01*
X41495334Y10450000D01*
X41355768Y10463746D01*
X41176692Y10518068D01*
X41094173Y10562175D01*
X41011656Y10606281D01*
X40866999Y10724999D01*
X40748281Y10869656D01*
X40660069Y11034691D01*
X40660068Y11034692D01*
X40605746Y11213768D01*
X40587404Y11400000D01*
X40605746Y11586232D01*
X40660068Y11765308D01*
X40748282Y11930345D01*
X40866999Y12075001D01*
X41011655Y12193718D01*
X41011654Y12193718D01*
X41011656Y12193719D01*
X41094174Y12237825D01*
X41176692Y12281932D01*
X41355768Y12336254D01*
X41495334Y12350000D01*
X41588666Y12350000D01*
X41728232Y12336254D01*
X41728232Y12336254D01*
G37*
G36*
X59325000Y11775000D02*
G01*
X58325000Y11775000D01*
X58325000Y12725000D01*
X59325000Y12725000D01*
X59325000Y11775000D01*
X59325000Y11775000D01*
G37*
G36*
X57825000Y11775000D02*
G01*
X56825000Y11775000D01*
X56825000Y12725000D01*
X57825000Y12725000D01*
X57825000Y11775000D01*
X57825000Y11775000D01*
G37*
G36*
X11246232Y16286254D02*
G01*
X11425308Y16231932D01*
X11507826Y16187825D01*
X11590344Y16143719D01*
X11590346Y16143718D01*
X11590345Y16143718D01*
X11735001Y16025001D01*
X11853718Y15880345D01*
X11941932Y15715308D01*
X11996254Y15536232D01*
X12014596Y15350000D01*
X11996254Y15163768D01*
X11941932Y14984692D01*
X11941931Y14984691D01*
X11853719Y14819656D01*
X11735001Y14674999D01*
X11590344Y14556281D01*
X11507827Y14512175D01*
X11425308Y14468068D01*
X11246232Y14413746D01*
X11106666Y14400000D01*
X11013334Y14400000D01*
X10873768Y14413746D01*
X10694692Y14468068D01*
X10612173Y14512175D01*
X10529656Y14556281D01*
X10384999Y14674999D01*
X10266281Y14819656D01*
X10178069Y14984691D01*
X10178068Y14984692D01*
X10123746Y15163768D01*
X10105404Y15350000D01*
X10123746Y15536232D01*
X10178068Y15715308D01*
X10266282Y15880345D01*
X10384999Y16025001D01*
X10529655Y16143718D01*
X10529654Y16143718D01*
X10529656Y16143719D01*
X10612174Y16187825D01*
X10694692Y16231932D01*
X10873768Y16286254D01*
X11013334Y16300000D01*
X11106666Y16300000D01*
X11246232Y16286254D01*
X11246232Y16286254D01*
G37*
G36*
X13786232Y16286254D02*
G01*
X13965308Y16231932D01*
X14047826Y16187825D01*
X14130344Y16143719D01*
X14130346Y16143718D01*
X14130345Y16143718D01*
X14275001Y16025001D01*
X14393718Y15880345D01*
X14481932Y15715308D01*
X14536254Y15536232D01*
X14554596Y15350000D01*
X14536254Y15163768D01*
X14481932Y14984692D01*
X14481931Y14984691D01*
X14393719Y14819656D01*
X14275001Y14674999D01*
X14130344Y14556281D01*
X14047827Y14512175D01*
X13965308Y14468068D01*
X13786232Y14413746D01*
X13646666Y14400000D01*
X13553334Y14400000D01*
X13413768Y14413746D01*
X13234692Y14468068D01*
X13152173Y14512175D01*
X13069656Y14556281D01*
X12924999Y14674999D01*
X12806281Y14819656D01*
X12718069Y14984691D01*
X12718068Y14984692D01*
X12663746Y15163768D01*
X12645404Y15350000D01*
X12663746Y15536232D01*
X12718068Y15715308D01*
X12806282Y15880345D01*
X12924999Y16025001D01*
X13069655Y16143718D01*
X13069654Y16143718D01*
X13069656Y16143719D01*
X13152174Y16187825D01*
X13234692Y16231932D01*
X13413768Y16286254D01*
X13553334Y16300000D01*
X13646666Y16300000D01*
X13786232Y16286254D01*
X13786232Y16286254D01*
G37*
G36*
X17090000Y14400000D02*
G01*
X15190000Y14400000D01*
X15190000Y16300000D01*
X17090000Y16300000D01*
X17090000Y14400000D01*
X17090000Y14400000D01*
G37*
G36*
X8706232Y16286254D02*
G01*
X8885308Y16231932D01*
X8967826Y16187825D01*
X9050344Y16143719D01*
X9050346Y16143718D01*
X9050345Y16143718D01*
X9195001Y16025001D01*
X9313718Y15880345D01*
X9401932Y15715308D01*
X9456254Y15536232D01*
X9474596Y15350000D01*
X9456254Y15163768D01*
X9401932Y14984692D01*
X9401931Y14984691D01*
X9313719Y14819656D01*
X9195001Y14674999D01*
X9050344Y14556281D01*
X8967827Y14512175D01*
X8885308Y14468068D01*
X8706232Y14413746D01*
X8566666Y14400000D01*
X8473334Y14400000D01*
X8333768Y14413746D01*
X8154692Y14468068D01*
X8072173Y14512175D01*
X7989656Y14556281D01*
X7844999Y14674999D01*
X7726281Y14819656D01*
X7638069Y14984691D01*
X7638068Y14984692D01*
X7583746Y15163768D01*
X7565404Y15350000D01*
X7583746Y15536232D01*
X7638068Y15715308D01*
X7726282Y15880345D01*
X7844999Y16025001D01*
X7989655Y16143718D01*
X7989654Y16143718D01*
X7989656Y16143719D01*
X8072174Y16187825D01*
X8154692Y16231932D01*
X8333768Y16286254D01*
X8473334Y16300000D01*
X8566666Y16300000D01*
X8706232Y16286254D01*
X8706232Y16286254D01*
G37*
G36*
X19575000Y14850000D02*
G01*
X18625000Y14850000D01*
X18625000Y15850000D01*
X19575000Y15850000D01*
X19575000Y14850000D01*
X19575000Y14850000D01*
G37*
G36*
X19575000Y16350000D02*
G01*
X18625000Y16350000D01*
X18625000Y17350000D01*
X19575000Y17350000D01*
X19575000Y16350000D01*
X19575000Y16350000D01*
G37*
G36*
X29079224Y18504872D02*
G01*
X29211175Y18464845D01*
X29332781Y18399845D01*
X29439370Y18312370D01*
X29526845Y18205781D01*
X29591845Y18084175D01*
X29631872Y17952224D01*
X29645387Y17815000D01*
X29631872Y17677776D01*
X29591845Y17545825D01*
X29526845Y17424219D01*
X29439370Y17317630D01*
X29332781Y17230155D01*
X29211175Y17165155D01*
X29079224Y17125128D01*
X28976390Y17115000D01*
X26107610Y17115000D01*
X26004776Y17125128D01*
X25872825Y17165155D01*
X25751219Y17230155D01*
X25644630Y17317630D01*
X25557155Y17424219D01*
X25492155Y17545825D01*
X25452128Y17677776D01*
X25438613Y17815000D01*
X25452128Y17952224D01*
X25492155Y18084175D01*
X25557155Y18205781D01*
X25644630Y18312370D01*
X25751219Y18399845D01*
X25872825Y18464845D01*
X26004776Y18504872D01*
X26107610Y18515000D01*
X28976390Y18515000D01*
X29079224Y18504872D01*
X29079224Y18504872D01*
G37*
G36*
X62779224Y18504872D02*
G01*
X62911175Y18464845D01*
X63032781Y18399845D01*
X63139370Y18312370D01*
X63226845Y18205781D01*
X63291845Y18084175D01*
X63331872Y17952224D01*
X63345387Y17815000D01*
X63331872Y17677776D01*
X63291845Y17545825D01*
X63226845Y17424219D01*
X63139370Y17317630D01*
X63032781Y17230155D01*
X62911175Y17165155D01*
X62779224Y17125128D01*
X62676390Y17115000D01*
X59807610Y17115000D01*
X59704776Y17125128D01*
X59572825Y17165155D01*
X59451219Y17230155D01*
X59344630Y17317630D01*
X59257155Y17424219D01*
X59192155Y17545825D01*
X59152128Y17677776D01*
X59138613Y17815000D01*
X59152128Y17952224D01*
X59192155Y18084175D01*
X59257155Y18205781D01*
X59344630Y18312370D01*
X59451219Y18399845D01*
X59572825Y18464845D01*
X59704776Y18504872D01*
X59807610Y18515000D01*
X62676390Y18515000D01*
X62779224Y18504872D01*
X62779224Y18504872D01*
G37*
G36*
X29079224Y20504872D02*
G01*
X29211175Y20464845D01*
X29332781Y20399845D01*
X29439370Y20312370D01*
X29526845Y20205781D01*
X29591845Y20084175D01*
X29631872Y19952224D01*
X29645387Y19815000D01*
X29631872Y19677776D01*
X29591845Y19545825D01*
X29526845Y19424219D01*
X29439370Y19317630D01*
X29332781Y19230155D01*
X29211175Y19165155D01*
X29079224Y19125128D01*
X28976390Y19115000D01*
X26107610Y19115000D01*
X26004776Y19125128D01*
X25872825Y19165155D01*
X25751219Y19230155D01*
X25644630Y19317630D01*
X25557155Y19424219D01*
X25492155Y19545825D01*
X25452128Y19677776D01*
X25438613Y19815000D01*
X25452128Y19952224D01*
X25492155Y20084175D01*
X25557155Y20205781D01*
X25644630Y20312370D01*
X25751219Y20399845D01*
X25872825Y20464845D01*
X26004776Y20504872D01*
X26107610Y20515000D01*
X28976390Y20515000D01*
X29079224Y20504872D01*
X29079224Y20504872D01*
G37*
G36*
X62779224Y20504872D02*
G01*
X62911175Y20464845D01*
X63032781Y20399845D01*
X63139370Y20312370D01*
X63226845Y20205781D01*
X63291845Y20084175D01*
X63331872Y19952224D01*
X63345387Y19815000D01*
X63331872Y19677776D01*
X63291845Y19545825D01*
X63226845Y19424219D01*
X63139370Y19317630D01*
X63032781Y19230155D01*
X62911175Y19165155D01*
X62779224Y19125128D01*
X62676390Y19115000D01*
X59807610Y19115000D01*
X59704776Y19125128D01*
X59572825Y19165155D01*
X59451219Y19230155D01*
X59344630Y19317630D01*
X59257155Y19424219D01*
X59192155Y19545825D01*
X59152128Y19677776D01*
X59138613Y19815000D01*
X59152128Y19952224D01*
X59192155Y20084175D01*
X59257155Y20205781D01*
X59344630Y20312370D01*
X59451219Y20399845D01*
X59572825Y20464845D01*
X59704776Y20504872D01*
X59807610Y20515000D01*
X62676390Y20515000D01*
X62779224Y20504872D01*
X62779224Y20504872D01*
G37*
G36*
X62779224Y22504872D02*
G01*
X62911175Y22464845D01*
X63032781Y22399845D01*
X63139370Y22312370D01*
X63226845Y22205781D01*
X63291845Y22084175D01*
X63331872Y21952224D01*
X63345387Y21815000D01*
X63331872Y21677776D01*
X63291845Y21545825D01*
X63226845Y21424219D01*
X63139370Y21317630D01*
X63032781Y21230155D01*
X62911175Y21165155D01*
X62779224Y21125128D01*
X62676390Y21115000D01*
X59807610Y21115000D01*
X59704776Y21125128D01*
X59572825Y21165155D01*
X59451219Y21230155D01*
X59344630Y21317630D01*
X59257155Y21424219D01*
X59192155Y21545825D01*
X59152128Y21677776D01*
X59138613Y21815000D01*
X59152128Y21952224D01*
X59192155Y22084175D01*
X59257155Y22205781D01*
X59344630Y22312370D01*
X59451219Y22399845D01*
X59572825Y22464845D01*
X59704776Y22504872D01*
X59807610Y22515000D01*
X62676390Y22515000D01*
X62779224Y22504872D01*
X62779224Y22504872D01*
G37*
G36*
X29079224Y22504872D02*
G01*
X29211175Y22464845D01*
X29332781Y22399845D01*
X29439370Y22312370D01*
X29526845Y22205781D01*
X29591845Y22084175D01*
X29631872Y21952224D01*
X29645387Y21815000D01*
X29631872Y21677776D01*
X29591845Y21545825D01*
X29526845Y21424219D01*
X29439370Y21317630D01*
X29332781Y21230155D01*
X29211175Y21165155D01*
X29079224Y21125128D01*
X28976390Y21115000D01*
X26107610Y21115000D01*
X26004776Y21125128D01*
X25872825Y21165155D01*
X25751219Y21230155D01*
X25644630Y21317630D01*
X25557155Y21424219D01*
X25492155Y21545825D01*
X25452128Y21677776D01*
X25438613Y21815000D01*
X25452128Y21952224D01*
X25492155Y22084175D01*
X25557155Y22205781D01*
X25644630Y22312370D01*
X25751219Y22399845D01*
X25872825Y22464845D01*
X26004776Y22504872D01*
X26107610Y22515000D01*
X28976390Y22515000D01*
X29079224Y22504872D01*
X29079224Y22504872D01*
G37*
G36*
X29079224Y24504872D02*
G01*
X29211175Y24464845D01*
X29332781Y24399845D01*
X29439370Y24312370D01*
X29526845Y24205781D01*
X29591845Y24084175D01*
X29631872Y23952224D01*
X29645387Y23815000D01*
X29631872Y23677776D01*
X29591845Y23545825D01*
X29526845Y23424219D01*
X29439370Y23317630D01*
X29332781Y23230155D01*
X29211175Y23165155D01*
X29079224Y23125128D01*
X28976390Y23115000D01*
X26107610Y23115000D01*
X26004776Y23125128D01*
X25872825Y23165155D01*
X25751219Y23230155D01*
X25644630Y23317630D01*
X25557155Y23424219D01*
X25492155Y23545825D01*
X25452128Y23677776D01*
X25438613Y23815000D01*
X25452128Y23952224D01*
X25492155Y24084175D01*
X25557155Y24205781D01*
X25644630Y24312370D01*
X25751219Y24399845D01*
X25872825Y24464845D01*
X26004776Y24504872D01*
X26107610Y24515000D01*
X28976390Y24515000D01*
X29079224Y24504872D01*
X29079224Y24504872D01*
G37*
G36*
X62779224Y24504872D02*
G01*
X62911175Y24464845D01*
X63032781Y24399845D01*
X63139370Y24312370D01*
X63226845Y24205781D01*
X63291845Y24084175D01*
X63331872Y23952224D01*
X63345387Y23815000D01*
X63331872Y23677776D01*
X63291845Y23545825D01*
X63226845Y23424219D01*
X63139370Y23317630D01*
X63032781Y23230155D01*
X62911175Y23165155D01*
X62779224Y23125128D01*
X62676390Y23115000D01*
X59807610Y23115000D01*
X59704776Y23125128D01*
X59572825Y23165155D01*
X59451219Y23230155D01*
X59344630Y23317630D01*
X59257155Y23424219D01*
X59192155Y23545825D01*
X59152128Y23677776D01*
X59138613Y23815000D01*
X59152128Y23952224D01*
X59192155Y24084175D01*
X59257155Y24205781D01*
X59344630Y24312370D01*
X59451219Y24399845D01*
X59572825Y24464845D01*
X59704776Y24504872D01*
X59807610Y24515000D01*
X62676390Y24515000D01*
X62779224Y24504872D01*
X62779224Y24504872D01*
G37*
G36*
X53292000Y23465000D02*
G01*
X40092000Y23465000D01*
X40092000Y29665000D01*
X53292000Y29665000D01*
X53292000Y23465000D01*
X53292000Y23465000D01*
G37*
G36*
X62779224Y26504872D02*
G01*
X62911175Y26464845D01*
X63032781Y26399845D01*
X63139370Y26312370D01*
X63226845Y26205781D01*
X63291845Y26084175D01*
X63331872Y25952224D01*
X63345387Y25815000D01*
X63331872Y25677776D01*
X63291845Y25545825D01*
X63226845Y25424219D01*
X63139370Y25317630D01*
X63032781Y25230155D01*
X62911175Y25165155D01*
X62779224Y25125128D01*
X62676390Y25115000D01*
X59807610Y25115000D01*
X59704776Y25125128D01*
X59572825Y25165155D01*
X59451219Y25230155D01*
X59344630Y25317630D01*
X59257155Y25424219D01*
X59192155Y25545825D01*
X59152128Y25677776D01*
X59138613Y25815000D01*
X59152128Y25952224D01*
X59192155Y26084175D01*
X59257155Y26205781D01*
X59344630Y26312370D01*
X59451219Y26399845D01*
X59572825Y26464845D01*
X59704776Y26504872D01*
X59807610Y26515000D01*
X62676390Y26515000D01*
X62779224Y26504872D01*
X62779224Y26504872D01*
G37*
G36*
X29079224Y26504872D02*
G01*
X29211175Y26464845D01*
X29332781Y26399845D01*
X29439370Y26312370D01*
X29526845Y26205781D01*
X29591845Y26084175D01*
X29631872Y25952224D01*
X29645387Y25815000D01*
X29631872Y25677776D01*
X29591845Y25545825D01*
X29526845Y25424219D01*
X29439370Y25317630D01*
X29332781Y25230155D01*
X29211175Y25165155D01*
X29079224Y25125128D01*
X28976390Y25115000D01*
X26107610Y25115000D01*
X26004776Y25125128D01*
X25872825Y25165155D01*
X25751219Y25230155D01*
X25644630Y25317630D01*
X25557155Y25424219D01*
X25492155Y25545825D01*
X25452128Y25677776D01*
X25438613Y25815000D01*
X25452128Y25952224D01*
X25492155Y26084175D01*
X25557155Y26205781D01*
X25644630Y26312370D01*
X25751219Y26399845D01*
X25872825Y26464845D01*
X26004776Y26504872D01*
X26107610Y26515000D01*
X28976390Y26515000D01*
X29079224Y26504872D01*
X29079224Y26504872D01*
G37*
G36*
X62779224Y28504872D02*
G01*
X62911175Y28464845D01*
X63032781Y28399845D01*
X63139370Y28312370D01*
X63226845Y28205781D01*
X63291845Y28084175D01*
X63331872Y27952224D01*
X63345387Y27815000D01*
X63331872Y27677776D01*
X63291845Y27545825D01*
X63226845Y27424219D01*
X63139370Y27317630D01*
X63032781Y27230155D01*
X62911175Y27165155D01*
X62779224Y27125128D01*
X62676390Y27115000D01*
X59807610Y27115000D01*
X59704776Y27125128D01*
X59572825Y27165155D01*
X59451219Y27230155D01*
X59344630Y27317630D01*
X59257155Y27424219D01*
X59192155Y27545825D01*
X59152128Y27677776D01*
X59138613Y27815000D01*
X59152128Y27952224D01*
X59192155Y28084175D01*
X59257155Y28205781D01*
X59344630Y28312370D01*
X59451219Y28399845D01*
X59572825Y28464845D01*
X59704776Y28504872D01*
X59807610Y28515000D01*
X62676390Y28515000D01*
X62779224Y28504872D01*
X62779224Y28504872D01*
G37*
G36*
X29079224Y28504872D02*
G01*
X29211175Y28464845D01*
X29332781Y28399845D01*
X29439370Y28312370D01*
X29526845Y28205781D01*
X29591845Y28084175D01*
X29631872Y27952224D01*
X29645387Y27815000D01*
X29631872Y27677776D01*
X29591845Y27545825D01*
X29526845Y27424219D01*
X29439370Y27317630D01*
X29332781Y27230155D01*
X29211175Y27165155D01*
X29079224Y27125128D01*
X28976390Y27115000D01*
X26107610Y27115000D01*
X26004776Y27125128D01*
X25872825Y27165155D01*
X25751219Y27230155D01*
X25644630Y27317630D01*
X25557155Y27424219D01*
X25492155Y27545825D01*
X25452128Y27677776D01*
X25438613Y27815000D01*
X25452128Y27952224D01*
X25492155Y28084175D01*
X25557155Y28205781D01*
X25644630Y28312370D01*
X25751219Y28399845D01*
X25872825Y28464845D01*
X26004776Y28504872D01*
X26107610Y28515000D01*
X28976390Y28515000D01*
X29079224Y28504872D01*
X29079224Y28504872D01*
G37*
G36*
X29079224Y30504872D02*
G01*
X29211175Y30464845D01*
X29332781Y30399845D01*
X29439370Y30312370D01*
X29526845Y30205781D01*
X29591845Y30084175D01*
X29631872Y29952224D01*
X29645387Y29815000D01*
X29631872Y29677776D01*
X29591845Y29545825D01*
X29526845Y29424219D01*
X29439370Y29317630D01*
X29332781Y29230155D01*
X29211175Y29165155D01*
X29079224Y29125128D01*
X28976390Y29115000D01*
X26107610Y29115000D01*
X26004776Y29125128D01*
X25872825Y29165155D01*
X25751219Y29230155D01*
X25644630Y29317630D01*
X25557155Y29424219D01*
X25492155Y29545825D01*
X25452128Y29677776D01*
X25438613Y29815000D01*
X25452128Y29952224D01*
X25492155Y30084175D01*
X25557155Y30205781D01*
X25644630Y30312370D01*
X25751219Y30399845D01*
X25872825Y30464845D01*
X26004776Y30504872D01*
X26107610Y30515000D01*
X28976390Y30515000D01*
X29079224Y30504872D01*
X29079224Y30504872D01*
G37*
G36*
X62779224Y30504872D02*
G01*
X62911175Y30464845D01*
X63032781Y30399845D01*
X63139370Y30312370D01*
X63226845Y30205781D01*
X63291845Y30084175D01*
X63331872Y29952224D01*
X63345387Y29815000D01*
X63331872Y29677776D01*
X63291845Y29545825D01*
X63226845Y29424219D01*
X63139370Y29317630D01*
X63032781Y29230155D01*
X62911175Y29165155D01*
X62779224Y29125128D01*
X62676390Y29115000D01*
X59807610Y29115000D01*
X59704776Y29125128D01*
X59572825Y29165155D01*
X59451219Y29230155D01*
X59344630Y29317630D01*
X59257155Y29424219D01*
X59192155Y29545825D01*
X59152128Y29677776D01*
X59138613Y29815000D01*
X59152128Y29952224D01*
X59192155Y30084175D01*
X59257155Y30205781D01*
X59344630Y30312370D01*
X59451219Y30399845D01*
X59572825Y30464845D01*
X59704776Y30504872D01*
X59807610Y30515000D01*
X62676390Y30515000D01*
X62779224Y30504872D01*
X62779224Y30504872D01*
G37*
G36*
X29079224Y32504872D02*
G01*
X29211175Y32464845D01*
X29332781Y32399845D01*
X29439370Y32312370D01*
X29526845Y32205781D01*
X29591845Y32084175D01*
X29631872Y31952224D01*
X29645387Y31815000D01*
X29631872Y31677776D01*
X29591845Y31545825D01*
X29526845Y31424219D01*
X29439370Y31317630D01*
X29332781Y31230155D01*
X29211175Y31165155D01*
X29079224Y31125128D01*
X28976390Y31115000D01*
X26107610Y31115000D01*
X26004776Y31125128D01*
X25872825Y31165155D01*
X25751219Y31230155D01*
X25644630Y31317630D01*
X25557155Y31424219D01*
X25492155Y31545825D01*
X25452128Y31677776D01*
X25438613Y31815000D01*
X25452128Y31952224D01*
X25492155Y32084175D01*
X25557155Y32205781D01*
X25644630Y32312370D01*
X25751219Y32399845D01*
X25872825Y32464845D01*
X26004776Y32504872D01*
X26107610Y32515000D01*
X28976390Y32515000D01*
X29079224Y32504872D01*
X29079224Y32504872D01*
G37*
G36*
X62779224Y32504872D02*
G01*
X62911175Y32464845D01*
X63032781Y32399845D01*
X63139370Y32312370D01*
X63226845Y32205781D01*
X63291845Y32084175D01*
X63331872Y31952224D01*
X63345387Y31815000D01*
X63331872Y31677776D01*
X63291845Y31545825D01*
X63226845Y31424219D01*
X63139370Y31317630D01*
X63032781Y31230155D01*
X62911175Y31165155D01*
X62779224Y31125128D01*
X62676390Y31115000D01*
X59807610Y31115000D01*
X59704776Y31125128D01*
X59572825Y31165155D01*
X59451219Y31230155D01*
X59344630Y31317630D01*
X59257155Y31424219D01*
X59192155Y31545825D01*
X59152128Y31677776D01*
X59138613Y31815000D01*
X59152128Y31952224D01*
X59192155Y32084175D01*
X59257155Y32205781D01*
X59344630Y32312370D01*
X59451219Y32399845D01*
X59572825Y32464845D01*
X59704776Y32504872D01*
X59807610Y32515000D01*
X62676390Y32515000D01*
X62779224Y32504872D01*
X62779224Y32504872D01*
G37*
G36*
X24255000Y31320000D02*
G01*
X23305000Y31320000D01*
X23305000Y32320000D01*
X24255000Y32320000D01*
X24255000Y31320000D01*
X24255000Y31320000D01*
G37*
G36*
X21820000Y31440000D02*
G01*
X21220000Y31440000D01*
X21220000Y32240000D01*
X21820000Y32240000D01*
X21820000Y31440000D01*
X21820000Y31440000D01*
G37*
G36*
X22720000Y31440000D02*
G01*
X22120000Y31440000D01*
X22120000Y32240000D01*
X22720000Y32240000D01*
X22720000Y31440000D01*
X22720000Y31440000D01*
G37*
G36*
X24255000Y32820000D02*
G01*
X23305000Y32820000D01*
X23305000Y33820000D01*
X24255000Y33820000D01*
X24255000Y32820000D01*
X24255000Y32820000D01*
G37*
G36*
X59460000Y35715000D02*
G01*
X58460000Y35715000D01*
X58460000Y36665000D01*
X59460000Y36665000D01*
X59460000Y35715000D01*
X59460000Y35715000D01*
G37*
G36*
X60960000Y35715000D02*
G01*
X59960000Y35715000D01*
X59960000Y36665000D01*
X60960000Y36665000D01*
X60960000Y35715000D01*
X60960000Y35715000D01*
G37*
G36*
X61010000Y37320000D02*
G01*
X59910000Y37320000D01*
X59910000Y38020000D01*
X61010000Y38020000D01*
X61010000Y37320000D01*
X61010000Y37320000D01*
G37*
G36*
X68632000Y38188000D02*
G01*
X64368000Y38188000D01*
X64368000Y40388000D01*
X68632000Y40388000D01*
X68632000Y38188000D01*
X68632000Y38188000D01*
G37*
G36*
X20800000Y38790000D02*
G01*
X19800000Y38790000D01*
X19800000Y39740000D01*
X20800000Y39740000D01*
X20800000Y38790000D01*
X20800000Y38790000D01*
G37*
G36*
X22300000Y38790000D02*
G01*
X21300000Y38790000D01*
X21300000Y39740000D01*
X22300000Y39740000D01*
X22300000Y38790000D01*
X22300000Y38790000D01*
G37*
G36*
X29700000Y38790000D02*
G01*
X28700000Y38790000D01*
X28700000Y39740000D01*
X29700000Y39740000D01*
X29700000Y38790000D01*
X29700000Y38790000D01*
G37*
G36*
X31200000Y38790000D02*
G01*
X30200000Y38790000D01*
X30200000Y39740000D01*
X31200000Y39740000D01*
X31200000Y38790000D01*
X31200000Y38790000D01*
G37*
G36*
X61010000Y38820000D02*
G01*
X59910000Y38820000D01*
X59910000Y39520000D01*
X61010000Y39520000D01*
X61010000Y38820000D01*
X61010000Y38820000D01*
G37*
G36*
X59460000Y40115000D02*
G01*
X58460000Y40115000D01*
X58460000Y41065000D01*
X59460000Y41065000D01*
X59460000Y40115000D01*
X59460000Y40115000D01*
G37*
G36*
X60960000Y40115000D02*
G01*
X59960000Y40115000D01*
X59960000Y41065000D01*
X60960000Y41065000D01*
X60960000Y40115000D01*
X60960000Y40115000D01*
G37*
G36*
X13000000Y40450000D02*
G01*
X12400000Y40450000D01*
X12400000Y41250000D01*
X13000000Y41250000D01*
X13000000Y40450000D01*
X13000000Y40450000D01*
G37*
G36*
X12100000Y40450000D02*
G01*
X11500000Y40450000D01*
X11500000Y41250000D01*
X12100000Y41250000D01*
X12100000Y40450000D01*
X12100000Y40450000D01*
G37*
G36*
X68632000Y41188000D02*
G01*
X64368000Y41188000D01*
X64368000Y42912000D01*
X68632000Y42912000D01*
X68632000Y41188000D01*
X68632000Y41188000D01*
G37*
G36*
X54336232Y43086254D02*
G01*
X54515308Y43031932D01*
X54597827Y42987825D01*
X54680344Y42943719D01*
X54680346Y42943718D01*
X54680345Y42943718D01*
X54825001Y42825001D01*
X54943718Y42680345D01*
X55031932Y42515308D01*
X55086254Y42336232D01*
X55104596Y42150000D01*
X55086254Y41963768D01*
X55031932Y41784692D01*
X55031931Y41784691D01*
X54943719Y41619656D01*
X54825001Y41474999D01*
X54680344Y41356281D01*
X54597827Y41312175D01*
X54515308Y41268068D01*
X54336232Y41213746D01*
X54196666Y41200000D01*
X54103334Y41200000D01*
X53963768Y41213746D01*
X53784692Y41268068D01*
X53702173Y41312175D01*
X53619656Y41356281D01*
X53474999Y41474999D01*
X53356281Y41619656D01*
X53268069Y41784691D01*
X53268068Y41784692D01*
X53213746Y41963768D01*
X53195404Y42150000D01*
X53213746Y42336232D01*
X53268068Y42515308D01*
X53356282Y42680345D01*
X53474999Y42825001D01*
X53619655Y42943718D01*
X53619654Y42943718D01*
X53619656Y42943719D01*
X53702173Y42987825D01*
X53784692Y43031932D01*
X53963768Y43086254D01*
X54103334Y43100000D01*
X54196666Y43100000D01*
X54336232Y43086254D01*
X54336232Y43086254D01*
G37*
G36*
X51796232Y43086254D02*
G01*
X51975308Y43031932D01*
X52057827Y42987825D01*
X52140344Y42943719D01*
X52140346Y42943718D01*
X52140345Y42943718D01*
X52285001Y42825001D01*
X52403718Y42680345D01*
X52491932Y42515308D01*
X52546254Y42336232D01*
X52564596Y42150000D01*
X52546254Y41963768D01*
X52491932Y41784692D01*
X52491931Y41784691D01*
X52403719Y41619656D01*
X52285001Y41474999D01*
X52140344Y41356281D01*
X52057827Y41312175D01*
X51975308Y41268068D01*
X51796232Y41213746D01*
X51656666Y41200000D01*
X51563334Y41200000D01*
X51423768Y41213746D01*
X51244692Y41268068D01*
X51162173Y41312175D01*
X51079656Y41356281D01*
X50934999Y41474999D01*
X50816281Y41619656D01*
X50728069Y41784691D01*
X50728068Y41784692D01*
X50673746Y41963768D01*
X50655404Y42150000D01*
X50673746Y42336232D01*
X50728068Y42515308D01*
X50816282Y42680345D01*
X50934999Y42825001D01*
X51079655Y42943718D01*
X51079654Y42943718D01*
X51079656Y42943719D01*
X51162173Y42987825D01*
X51244692Y43031932D01*
X51423768Y43086254D01*
X51563334Y43100000D01*
X51656666Y43100000D01*
X51796232Y43086254D01*
X51796232Y43086254D01*
G37*
G36*
X49256232Y43086254D02*
G01*
X49435308Y43031932D01*
X49517827Y42987825D01*
X49600344Y42943719D01*
X49600346Y42943718D01*
X49600345Y42943718D01*
X49745001Y42825001D01*
X49863718Y42680345D01*
X49951932Y42515308D01*
X50006254Y42336232D01*
X50024596Y42150000D01*
X50006254Y41963768D01*
X49951932Y41784692D01*
X49951931Y41784691D01*
X49863719Y41619656D01*
X49745001Y41474999D01*
X49600344Y41356281D01*
X49517827Y41312175D01*
X49435308Y41268068D01*
X49256232Y41213746D01*
X49116666Y41200000D01*
X49023334Y41200000D01*
X48883768Y41213746D01*
X48704692Y41268068D01*
X48622173Y41312175D01*
X48539656Y41356281D01*
X48394999Y41474999D01*
X48276281Y41619656D01*
X48188069Y41784691D01*
X48188068Y41784692D01*
X48133746Y41963768D01*
X48115404Y42150000D01*
X48133746Y42336232D01*
X48188068Y42515308D01*
X48276282Y42680345D01*
X48394999Y42825001D01*
X48539655Y42943718D01*
X48539654Y42943718D01*
X48539656Y42943719D01*
X48622173Y42987825D01*
X48704692Y43031932D01*
X48883768Y43086254D01*
X49023334Y43100000D01*
X49116666Y43100000D01*
X49256232Y43086254D01*
X49256232Y43086254D01*
G37*
G36*
X46716232Y43086254D02*
G01*
X46895308Y43031932D01*
X46977827Y42987825D01*
X47060344Y42943719D01*
X47060346Y42943718D01*
X47060345Y42943718D01*
X47205001Y42825001D01*
X47323718Y42680345D01*
X47411932Y42515308D01*
X47466254Y42336232D01*
X47484596Y42150000D01*
X47466254Y41963768D01*
X47411932Y41784692D01*
X47411931Y41784691D01*
X47323719Y41619656D01*
X47205001Y41474999D01*
X47060344Y41356281D01*
X46977827Y41312175D01*
X46895308Y41268068D01*
X46716232Y41213746D01*
X46576666Y41200000D01*
X46483334Y41200000D01*
X46343768Y41213746D01*
X46164692Y41268068D01*
X46082173Y41312175D01*
X45999656Y41356281D01*
X45854999Y41474999D01*
X45736281Y41619656D01*
X45648069Y41784691D01*
X45648068Y41784692D01*
X45593746Y41963768D01*
X45575404Y42150000D01*
X45593746Y42336232D01*
X45648068Y42515308D01*
X45736282Y42680345D01*
X45854999Y42825001D01*
X45999655Y42943718D01*
X45999654Y42943718D01*
X45999656Y42943719D01*
X46082173Y42987825D01*
X46164692Y43031932D01*
X46343768Y43086254D01*
X46483334Y43100000D01*
X46576666Y43100000D01*
X46716232Y43086254D01*
X46716232Y43086254D01*
G37*
G36*
X44176232Y43086254D02*
G01*
X44355308Y43031932D01*
X44437827Y42987825D01*
X44520344Y42943719D01*
X44520346Y42943718D01*
X44520345Y42943718D01*
X44665001Y42825001D01*
X44783718Y42680345D01*
X44871932Y42515308D01*
X44926254Y42336232D01*
X44944596Y42150000D01*
X44926254Y41963768D01*
X44871932Y41784692D01*
X44871931Y41784691D01*
X44783719Y41619656D01*
X44665001Y41474999D01*
X44520344Y41356281D01*
X44437827Y41312175D01*
X44355308Y41268068D01*
X44176232Y41213746D01*
X44036666Y41200000D01*
X43943334Y41200000D01*
X43803768Y41213746D01*
X43624692Y41268068D01*
X43542173Y41312175D01*
X43459656Y41356281D01*
X43314999Y41474999D01*
X43196281Y41619656D01*
X43108069Y41784691D01*
X43108068Y41784692D01*
X43053746Y41963768D01*
X43035404Y42150000D01*
X43053746Y42336232D01*
X43108068Y42515308D01*
X43196282Y42680345D01*
X43314999Y42825001D01*
X43459655Y42943718D01*
X43459654Y42943718D01*
X43459656Y42943719D01*
X43542173Y42987825D01*
X43624692Y43031932D01*
X43803768Y43086254D01*
X43943334Y43100000D01*
X44036666Y43100000D01*
X44176232Y43086254D01*
X44176232Y43086254D01*
G37*
G36*
X42400000Y41200000D02*
G01*
X40500000Y41200000D01*
X40500000Y43100000D01*
X42400000Y43100000D01*
X42400000Y41200000D01*
X42400000Y41200000D01*
G37*
G36*
X27642000Y42514999D02*
G01*
X27642961Y42505245D01*
X27645806Y42495865D01*
X27650426Y42487221D01*
X27656644Y42479644D01*
X27664221Y42473426D01*
X27672865Y42468806D01*
X27682245Y42465961D01*
X27691999Y42465000D01*
X31242000Y42465000D01*
X31242000Y41265000D01*
X27242000Y41265000D01*
X27242000Y42565000D01*
X27642000Y42565000D01*
X27642000Y42514999D01*
X27642000Y42514999D01*
G37*
G36*
X18642000Y42514999D02*
G01*
X18642961Y42505245D01*
X18645806Y42495865D01*
X18650426Y42487221D01*
X18656644Y42479644D01*
X18664221Y42473426D01*
X18672865Y42468806D01*
X18682245Y42465961D01*
X18691999Y42465000D01*
X22242000Y42465000D01*
X22242000Y41265000D01*
X18242000Y41265000D01*
X18242000Y42565000D01*
X18642000Y42565000D01*
X18642000Y42514999D01*
X18642000Y42514999D01*
G37*
G36*
X61010000Y41710000D02*
G01*
X59910000Y41710000D01*
X59910000Y42410000D01*
X61010000Y42410000D01*
X61010000Y41710000D01*
X61010000Y41710000D01*
G37*
G36*
X17675000Y42015000D02*
G01*
X16725000Y42015000D01*
X16725000Y43015000D01*
X17675000Y43015000D01*
X17675000Y42015000D01*
X17675000Y42015000D01*
G37*
G36*
X26675000Y42015000D02*
G01*
X25725000Y42015000D01*
X25725000Y43015000D01*
X26675000Y43015000D01*
X26675000Y42015000D01*
X26675000Y42015000D01*
G37*
G36*
X22242000Y43065000D02*
G01*
X18242000Y43065000D01*
X18242000Y44265000D01*
X22242000Y44265000D01*
X22242000Y43065000D01*
X22242000Y43065000D01*
G37*
G36*
X31242000Y43065000D02*
G01*
X27242000Y43065000D01*
X27242000Y44265000D01*
X31242000Y44265000D01*
X31242000Y43065000D01*
X31242000Y43065000D01*
G37*
G36*
X61010000Y43210000D02*
G01*
X59910000Y43210000D01*
X59910000Y43910000D01*
X61010000Y43910000D01*
X61010000Y43210000D01*
X61010000Y43210000D01*
G37*
G36*
X26675000Y43515000D02*
G01*
X25725000Y43515000D01*
X25725000Y44515000D01*
X26675000Y44515000D01*
X26675000Y43515000D01*
X26675000Y43515000D01*
G37*
G36*
X17675000Y43515000D02*
G01*
X16725000Y43515000D01*
X16725000Y44515000D01*
X17675000Y44515000D01*
X17675000Y43515000D01*
X17675000Y43515000D01*
G37*
G36*
X68632000Y43712000D02*
G01*
X64368000Y43712000D01*
X64368000Y45912000D01*
X68632000Y45912000D01*
X68632000Y43712000D01*
X68632000Y43712000D01*
G37*
G36*
X44176232Y45626254D02*
G01*
X44355308Y45571932D01*
X44437826Y45527825D01*
X44520344Y45483719D01*
X44520346Y45483718D01*
X44520345Y45483718D01*
X44665001Y45365001D01*
X44783718Y45220345D01*
X44871932Y45055308D01*
X44926254Y44876232D01*
X44944596Y44690000D01*
X44926254Y44503768D01*
X44871932Y44324692D01*
X44871931Y44324691D01*
X44783719Y44159656D01*
X44665001Y44014999D01*
X44520344Y43896281D01*
X44437827Y43852175D01*
X44355308Y43808068D01*
X44176232Y43753746D01*
X44036666Y43740000D01*
X43943334Y43740000D01*
X43803768Y43753746D01*
X43624692Y43808068D01*
X43542174Y43852175D01*
X43459656Y43896281D01*
X43314999Y44014999D01*
X43196281Y44159656D01*
X43108069Y44324691D01*
X43108068Y44324692D01*
X43053746Y44503768D01*
X43035404Y44690000D01*
X43053746Y44876232D01*
X43108068Y45055308D01*
X43196282Y45220345D01*
X43314999Y45365001D01*
X43459655Y45483718D01*
X43459654Y45483718D01*
X43459656Y45483719D01*
X43542173Y45527825D01*
X43624692Y45571932D01*
X43803768Y45626254D01*
X43943334Y45640000D01*
X44036666Y45640000D01*
X44176232Y45626254D01*
X44176232Y45626254D01*
G37*
G36*
X51796232Y45626254D02*
G01*
X51975308Y45571932D01*
X52057826Y45527825D01*
X52140344Y45483719D01*
X52140346Y45483718D01*
X52140345Y45483718D01*
X52285001Y45365001D01*
X52403718Y45220345D01*
X52491932Y45055308D01*
X52546254Y44876232D01*
X52564596Y44690000D01*
X52546254Y44503768D01*
X52491932Y44324692D01*
X52491931Y44324691D01*
X52403719Y44159656D01*
X52285001Y44014999D01*
X52140344Y43896281D01*
X52057827Y43852175D01*
X51975308Y43808068D01*
X51796232Y43753746D01*
X51656666Y43740000D01*
X51563334Y43740000D01*
X51423768Y43753746D01*
X51244692Y43808068D01*
X51162174Y43852175D01*
X51079656Y43896281D01*
X50934999Y44014999D01*
X50816281Y44159656D01*
X50728069Y44324691D01*
X50728068Y44324692D01*
X50673746Y44503768D01*
X50655404Y44690000D01*
X50673746Y44876232D01*
X50728068Y45055308D01*
X50816282Y45220345D01*
X50934999Y45365001D01*
X51079655Y45483718D01*
X51079654Y45483718D01*
X51079656Y45483719D01*
X51162173Y45527825D01*
X51244692Y45571932D01*
X51423768Y45626254D01*
X51563334Y45640000D01*
X51656666Y45640000D01*
X51796232Y45626254D01*
X51796232Y45626254D01*
G37*
G36*
X49256232Y45626254D02*
G01*
X49435308Y45571932D01*
X49517826Y45527825D01*
X49600344Y45483719D01*
X49600346Y45483718D01*
X49600345Y45483718D01*
X49745001Y45365001D01*
X49863718Y45220345D01*
X49951932Y45055308D01*
X50006254Y44876232D01*
X50024596Y44690000D01*
X50006254Y44503768D01*
X49951932Y44324692D01*
X49951931Y44324691D01*
X49863719Y44159656D01*
X49745001Y44014999D01*
X49600344Y43896281D01*
X49517827Y43852175D01*
X49435308Y43808068D01*
X49256232Y43753746D01*
X49116666Y43740000D01*
X49023334Y43740000D01*
X48883768Y43753746D01*
X48704692Y43808068D01*
X48622174Y43852175D01*
X48539656Y43896281D01*
X48394999Y44014999D01*
X48276281Y44159656D01*
X48188069Y44324691D01*
X48188068Y44324692D01*
X48133746Y44503768D01*
X48115404Y44690000D01*
X48133746Y44876232D01*
X48188068Y45055308D01*
X48276282Y45220345D01*
X48394999Y45365001D01*
X48539655Y45483718D01*
X48539654Y45483718D01*
X48539656Y45483719D01*
X48622173Y45527825D01*
X48704692Y45571932D01*
X48883768Y45626254D01*
X49023334Y45640000D01*
X49116666Y45640000D01*
X49256232Y45626254D01*
X49256232Y45626254D01*
G37*
G36*
X41636232Y45626254D02*
G01*
X41815308Y45571932D01*
X41897826Y45527825D01*
X41980344Y45483719D01*
X41980346Y45483718D01*
X41980345Y45483718D01*
X42125001Y45365001D01*
X42243718Y45220345D01*
X42331932Y45055308D01*
X42386254Y44876232D01*
X42404596Y44690000D01*
X42386254Y44503768D01*
X42331932Y44324692D01*
X42331931Y44324691D01*
X42243719Y44159656D01*
X42125001Y44014999D01*
X41980344Y43896281D01*
X41897827Y43852175D01*
X41815308Y43808068D01*
X41636232Y43753746D01*
X41496666Y43740000D01*
X41403334Y43740000D01*
X41263768Y43753746D01*
X41084692Y43808068D01*
X41002174Y43852175D01*
X40919656Y43896281D01*
X40774999Y44014999D01*
X40656281Y44159656D01*
X40568069Y44324691D01*
X40568068Y44324692D01*
X40513746Y44503768D01*
X40495404Y44690000D01*
X40513746Y44876232D01*
X40568068Y45055308D01*
X40656282Y45220345D01*
X40774999Y45365001D01*
X40919655Y45483718D01*
X40919654Y45483718D01*
X40919656Y45483719D01*
X41002173Y45527825D01*
X41084692Y45571932D01*
X41263768Y45626254D01*
X41403334Y45640000D01*
X41496666Y45640000D01*
X41636232Y45626254D01*
X41636232Y45626254D01*
G37*
G36*
X46716232Y45626254D02*
G01*
X46895308Y45571932D01*
X46977826Y45527825D01*
X47060344Y45483719D01*
X47060346Y45483718D01*
X47060345Y45483718D01*
X47205001Y45365001D01*
X47323718Y45220345D01*
X47411932Y45055308D01*
X47466254Y44876232D01*
X47484596Y44690000D01*
X47466254Y44503768D01*
X47411932Y44324692D01*
X47411931Y44324691D01*
X47323719Y44159656D01*
X47205001Y44014999D01*
X47060344Y43896281D01*
X46977827Y43852175D01*
X46895308Y43808068D01*
X46716232Y43753746D01*
X46576666Y43740000D01*
X46483334Y43740000D01*
X46343768Y43753746D01*
X46164692Y43808068D01*
X46082174Y43852175D01*
X45999656Y43896281D01*
X45854999Y44014999D01*
X45736281Y44159656D01*
X45648069Y44324691D01*
X45648068Y44324692D01*
X45593746Y44503768D01*
X45575404Y44690000D01*
X45593746Y44876232D01*
X45648068Y45055308D01*
X45736282Y45220345D01*
X45854999Y45365001D01*
X45999655Y45483718D01*
X45999654Y45483718D01*
X45999656Y45483719D01*
X46082173Y45527825D01*
X46164692Y45571932D01*
X46343768Y45626254D01*
X46483334Y45640000D01*
X46576666Y45640000D01*
X46716232Y45626254D01*
X46716232Y45626254D01*
G37*
G36*
X54336232Y45626254D02*
G01*
X54515308Y45571932D01*
X54597826Y45527825D01*
X54680344Y45483719D01*
X54680346Y45483718D01*
X54680345Y45483718D01*
X54825001Y45365001D01*
X54943718Y45220345D01*
X55031932Y45055308D01*
X55086254Y44876232D01*
X55104596Y44690000D01*
X55086254Y44503768D01*
X55031932Y44324692D01*
X55031931Y44324691D01*
X54943719Y44159656D01*
X54825001Y44014999D01*
X54680344Y43896281D01*
X54597827Y43852175D01*
X54515308Y43808068D01*
X54336232Y43753746D01*
X54196666Y43740000D01*
X54103334Y43740000D01*
X53963768Y43753746D01*
X53784692Y43808068D01*
X53702174Y43852175D01*
X53619656Y43896281D01*
X53474999Y44014999D01*
X53356281Y44159656D01*
X53268069Y44324691D01*
X53268068Y44324692D01*
X53213746Y44503768D01*
X53195404Y44690000D01*
X53213746Y44876232D01*
X53268068Y45055308D01*
X53356282Y45220345D01*
X53474999Y45365001D01*
X53619655Y45483718D01*
X53619654Y45483718D01*
X53619656Y45483719D01*
X53702173Y45527825D01*
X53784692Y45571932D01*
X53963768Y45626254D01*
X54103334Y45640000D01*
X54196666Y45640000D01*
X54336232Y45626254D01*
X54336232Y45626254D01*
G37*
G36*
X15707653Y52595335D02*
G01*
X15871872Y52562670D01*
X16181252Y52434521D01*
X16459687Y52248477D01*
X16696477Y52011687D01*
X16882521Y51733252D01*
X17010670Y51423872D01*
X17076000Y51095435D01*
X17076000Y50760565D01*
X17010670Y50432128D01*
X16882521Y50122748D01*
X16696477Y49844313D01*
X16459687Y49607523D01*
X16181252Y49421479D01*
X15871872Y49293330D01*
X15707654Y49260665D01*
X15543437Y49228000D01*
X15208563Y49228000D01*
X15044346Y49260665D01*
X14880128Y49293330D01*
X14570748Y49421479D01*
X14292313Y49607523D01*
X14055523Y49844313D01*
X13869479Y50122748D01*
X13741330Y50432128D01*
X13676000Y50760565D01*
X13676000Y51095435D01*
X13741330Y51423872D01*
X13869479Y51733252D01*
X14055523Y52011687D01*
X14292313Y52248477D01*
X14570748Y52434521D01*
X14880128Y52562670D01*
X15044346Y52595335D01*
X15208563Y52628000D01*
X15543437Y52628000D01*
X15707653Y52595335D01*
X15707653Y52595335D01*
G37*
G36*
X21637771Y52017389D02*
G01*
X21691638Y52012084D01*
X21760755Y51991117D01*
X21898990Y51949184D01*
X22090081Y51847044D01*
X22090082Y51847043D01*
X22090084Y51847042D01*
X22257581Y51709581D01*
X22395042Y51542084D01*
X22395044Y51542081D01*
X22497184Y51350990D01*
X22560084Y51143637D01*
X22581322Y50928000D01*
X22560084Y50712363D01*
X22497184Y50505010D01*
X22395044Y50313919D01*
X22395042Y50313916D01*
X22257581Y50146419D01*
X22090084Y50008958D01*
X22090082Y50008957D01*
X22090081Y50008956D01*
X21898990Y49906816D01*
X21760755Y49864883D01*
X21691638Y49843916D01*
X21637771Y49838611D01*
X21530038Y49828000D01*
X21421962Y49828000D01*
X21314229Y49838611D01*
X21260362Y49843916D01*
X21191245Y49864883D01*
X21053010Y49906816D01*
X20861919Y50008956D01*
X20861918Y50008957D01*
X20861916Y50008958D01*
X20694419Y50146419D01*
X20556958Y50313916D01*
X20556956Y50313919D01*
X20454816Y50505010D01*
X20391916Y50712363D01*
X20370678Y50928000D01*
X20391916Y51143637D01*
X20454816Y51350990D01*
X20556956Y51542081D01*
X20556958Y51542084D01*
X20694419Y51709581D01*
X20861916Y51847042D01*
X20861918Y51847043D01*
X20861919Y51847044D01*
X21053010Y51949184D01*
X21191245Y51991117D01*
X21260362Y52012084D01*
X21314229Y52017389D01*
X21421962Y52028000D01*
X21530038Y52028000D01*
X21637771Y52017389D01*
X21637771Y52017389D01*
G37*
G36*
X61257771Y52017389D02*
G01*
X61311638Y52012084D01*
X61380755Y51991117D01*
X61518990Y51949184D01*
X61710081Y51847044D01*
X61710082Y51847043D01*
X61710084Y51847042D01*
X61877581Y51709581D01*
X62015042Y51542084D01*
X62015044Y51542081D01*
X62117184Y51350990D01*
X62180084Y51143637D01*
X62201322Y50928000D01*
X62180084Y50712363D01*
X62117184Y50505010D01*
X62015044Y50313919D01*
X62015042Y50313916D01*
X61877581Y50146419D01*
X61710084Y50008958D01*
X61710082Y50008957D01*
X61710081Y50008956D01*
X61518990Y49906816D01*
X61380755Y49864883D01*
X61311638Y49843916D01*
X61257771Y49838611D01*
X61150038Y49828000D01*
X61041962Y49828000D01*
X60934229Y49838611D01*
X60880362Y49843916D01*
X60811245Y49864883D01*
X60673010Y49906816D01*
X60481919Y50008956D01*
X60481918Y50008957D01*
X60481916Y50008958D01*
X60314419Y50146419D01*
X60176958Y50313916D01*
X60176956Y50313919D01*
X60074816Y50505010D01*
X60011916Y50712363D01*
X59990678Y50928000D01*
X60011916Y51143637D01*
X60074816Y51350990D01*
X60176956Y51542081D01*
X60176958Y51542084D01*
X60314419Y51709581D01*
X60481916Y51847042D01*
X60481918Y51847043D01*
X60481919Y51847044D01*
X60673010Y51949184D01*
X60811245Y51991117D01*
X60880362Y52012084D01*
X60934229Y52017389D01*
X61041962Y52028000D01*
X61150038Y52028000D01*
X61257771Y52017389D01*
X61257771Y52017389D01*
G37*
G36*
X63797771Y52017389D02*
G01*
X63851638Y52012084D01*
X63920755Y51991117D01*
X64058990Y51949184D01*
X64250081Y51847044D01*
X64250082Y51847043D01*
X64250084Y51847042D01*
X64417581Y51709581D01*
X64555042Y51542084D01*
X64555044Y51542081D01*
X64657184Y51350990D01*
X64720084Y51143637D01*
X64741322Y50928000D01*
X64720084Y50712363D01*
X64657184Y50505010D01*
X64555044Y50313919D01*
X64555042Y50313916D01*
X64417581Y50146419D01*
X64250084Y50008958D01*
X64250082Y50008957D01*
X64250081Y50008956D01*
X64058990Y49906816D01*
X63920755Y49864883D01*
X63851638Y49843916D01*
X63797771Y49838611D01*
X63690038Y49828000D01*
X63581962Y49828000D01*
X63474229Y49838611D01*
X63420362Y49843916D01*
X63351245Y49864883D01*
X63213010Y49906816D01*
X63021919Y50008956D01*
X63021918Y50008957D01*
X63021916Y50008958D01*
X62854419Y50146419D01*
X62716958Y50313916D01*
X62716956Y50313919D01*
X62614816Y50505010D01*
X62551916Y50712363D01*
X62530678Y50928000D01*
X62551916Y51143637D01*
X62614816Y51350990D01*
X62716956Y51542081D01*
X62716958Y51542084D01*
X62854419Y51709581D01*
X63021916Y51847042D01*
X63021918Y51847043D01*
X63021919Y51847044D01*
X63213010Y51949184D01*
X63351245Y51991117D01*
X63420362Y52012084D01*
X63474229Y52017389D01*
X63581962Y52028000D01*
X63690038Y52028000D01*
X63797771Y52017389D01*
X63797771Y52017389D01*
G37*
G36*
X41957771Y52017389D02*
G01*
X42011638Y52012084D01*
X42080755Y51991117D01*
X42218990Y51949184D01*
X42410081Y51847044D01*
X42410082Y51847043D01*
X42410084Y51847042D01*
X42577581Y51709581D01*
X42715042Y51542084D01*
X42715044Y51542081D01*
X42817184Y51350990D01*
X42880084Y51143637D01*
X42901322Y50928000D01*
X42880084Y50712363D01*
X42817184Y50505010D01*
X42715044Y50313919D01*
X42715042Y50313916D01*
X42577581Y50146419D01*
X42410084Y50008958D01*
X42410082Y50008957D01*
X42410081Y50008956D01*
X42218990Y49906816D01*
X42080755Y49864883D01*
X42011638Y49843916D01*
X41957771Y49838611D01*
X41850038Y49828000D01*
X41741962Y49828000D01*
X41634229Y49838611D01*
X41580362Y49843916D01*
X41511245Y49864883D01*
X41373010Y49906816D01*
X41181919Y50008956D01*
X41181918Y50008957D01*
X41181916Y50008958D01*
X41014419Y50146419D01*
X40876958Y50313916D01*
X40876956Y50313919D01*
X40774816Y50505010D01*
X40711916Y50712363D01*
X40690678Y50928000D01*
X40711916Y51143637D01*
X40774816Y51350990D01*
X40876956Y51542081D01*
X40876958Y51542084D01*
X41014419Y51709581D01*
X41181916Y51847042D01*
X41181918Y51847043D01*
X41181919Y51847044D01*
X41373010Y51949184D01*
X41511245Y51991117D01*
X41580362Y52012084D01*
X41634229Y52017389D01*
X41741962Y52028000D01*
X41850038Y52028000D01*
X41957771Y52017389D01*
X41957771Y52017389D01*
G37*
G36*
X39417771Y52017389D02*
G01*
X39471638Y52012084D01*
X39540755Y51991117D01*
X39678990Y51949184D01*
X39870081Y51847044D01*
X39870082Y51847043D01*
X39870084Y51847042D01*
X40037581Y51709581D01*
X40175042Y51542084D01*
X40175044Y51542081D01*
X40277184Y51350990D01*
X40340084Y51143637D01*
X40361322Y50928000D01*
X40340084Y50712363D01*
X40277184Y50505010D01*
X40175044Y50313919D01*
X40175042Y50313916D01*
X40037581Y50146419D01*
X39870084Y50008958D01*
X39870082Y50008957D01*
X39870081Y50008956D01*
X39678990Y49906816D01*
X39540755Y49864883D01*
X39471638Y49843916D01*
X39417771Y49838611D01*
X39310038Y49828000D01*
X39201962Y49828000D01*
X39094229Y49838611D01*
X39040362Y49843916D01*
X38971245Y49864883D01*
X38833010Y49906816D01*
X38641919Y50008956D01*
X38641918Y50008957D01*
X38641916Y50008958D01*
X38474419Y50146419D01*
X38336958Y50313916D01*
X38336956Y50313919D01*
X38234816Y50505010D01*
X38171916Y50712363D01*
X38150678Y50928000D01*
X38171916Y51143637D01*
X38234816Y51350990D01*
X38336956Y51542081D01*
X38336958Y51542084D01*
X38474419Y51709581D01*
X38641916Y51847042D01*
X38641918Y51847043D01*
X38641919Y51847044D01*
X38833010Y51949184D01*
X38971245Y51991117D01*
X39040362Y52012084D01*
X39094229Y52017389D01*
X39201962Y52028000D01*
X39310038Y52028000D01*
X39417771Y52017389D01*
X39417771Y52017389D01*
G37*
G36*
X46017771Y52017389D02*
G01*
X46071638Y52012084D01*
X46140755Y51991117D01*
X46278990Y51949184D01*
X46470081Y51847044D01*
X46470082Y51847043D01*
X46470084Y51847042D01*
X46637581Y51709581D01*
X46775042Y51542084D01*
X46775044Y51542081D01*
X46877184Y51350990D01*
X46940084Y51143637D01*
X46961322Y50928000D01*
X46940084Y50712363D01*
X46877184Y50505010D01*
X46775044Y50313919D01*
X46775042Y50313916D01*
X46637581Y50146419D01*
X46470084Y50008958D01*
X46470082Y50008957D01*
X46470081Y50008956D01*
X46278990Y49906816D01*
X46140755Y49864883D01*
X46071638Y49843916D01*
X46017771Y49838611D01*
X45910038Y49828000D01*
X45801962Y49828000D01*
X45694229Y49838611D01*
X45640362Y49843916D01*
X45571245Y49864883D01*
X45433010Y49906816D01*
X45241919Y50008956D01*
X45241918Y50008957D01*
X45241916Y50008958D01*
X45074419Y50146419D01*
X44936958Y50313916D01*
X44936956Y50313919D01*
X44834816Y50505010D01*
X44771916Y50712363D01*
X44750678Y50928000D01*
X44771916Y51143637D01*
X44834816Y51350990D01*
X44936956Y51542081D01*
X44936958Y51542084D01*
X45074419Y51709581D01*
X45241916Y51847042D01*
X45241918Y51847043D01*
X45241919Y51847044D01*
X45433010Y51949184D01*
X45571245Y51991117D01*
X45640362Y52012084D01*
X45694229Y52017389D01*
X45801962Y52028000D01*
X45910038Y52028000D01*
X46017771Y52017389D01*
X46017771Y52017389D01*
G37*
G36*
X48557771Y52017389D02*
G01*
X48611638Y52012084D01*
X48680755Y51991117D01*
X48818990Y51949184D01*
X49010081Y51847044D01*
X49010082Y51847043D01*
X49010084Y51847042D01*
X49177581Y51709581D01*
X49315042Y51542084D01*
X49315044Y51542081D01*
X49417184Y51350990D01*
X49480084Y51143637D01*
X49501322Y50928000D01*
X49480084Y50712363D01*
X49417184Y50505010D01*
X49315044Y50313919D01*
X49315042Y50313916D01*
X49177581Y50146419D01*
X49010084Y50008958D01*
X49010082Y50008957D01*
X49010081Y50008956D01*
X48818990Y49906816D01*
X48680755Y49864883D01*
X48611638Y49843916D01*
X48557771Y49838611D01*
X48450038Y49828000D01*
X48341962Y49828000D01*
X48234229Y49838611D01*
X48180362Y49843916D01*
X48111245Y49864883D01*
X47973010Y49906816D01*
X47781919Y50008956D01*
X47781918Y50008957D01*
X47781916Y50008958D01*
X47614419Y50146419D01*
X47476958Y50313916D01*
X47476956Y50313919D01*
X47374816Y50505010D01*
X47311916Y50712363D01*
X47290678Y50928000D01*
X47311916Y51143637D01*
X47374816Y51350990D01*
X47476956Y51542081D01*
X47476958Y51542084D01*
X47614419Y51709581D01*
X47781916Y51847042D01*
X47781918Y51847043D01*
X47781919Y51847044D01*
X47973010Y51949184D01*
X48111245Y51991117D01*
X48180362Y52012084D01*
X48234229Y52017389D01*
X48341962Y52028000D01*
X48450038Y52028000D01*
X48557771Y52017389D01*
X48557771Y52017389D01*
G37*
G36*
X36877771Y52017389D02*
G01*
X36931638Y52012084D01*
X37000755Y51991117D01*
X37138990Y51949184D01*
X37330081Y51847044D01*
X37330082Y51847043D01*
X37330084Y51847042D01*
X37497581Y51709581D01*
X37635042Y51542084D01*
X37635044Y51542081D01*
X37737184Y51350990D01*
X37800084Y51143637D01*
X37821322Y50928000D01*
X37800084Y50712363D01*
X37737184Y50505010D01*
X37635044Y50313919D01*
X37635042Y50313916D01*
X37497581Y50146419D01*
X37330084Y50008958D01*
X37330082Y50008957D01*
X37330081Y50008956D01*
X37138990Y49906816D01*
X37000755Y49864883D01*
X36931638Y49843916D01*
X36877771Y49838611D01*
X36770038Y49828000D01*
X36661962Y49828000D01*
X36554229Y49838611D01*
X36500362Y49843916D01*
X36431245Y49864883D01*
X36293010Y49906816D01*
X36101919Y50008956D01*
X36101918Y50008957D01*
X36101916Y50008958D01*
X35934419Y50146419D01*
X35796958Y50313916D01*
X35796956Y50313919D01*
X35694816Y50505010D01*
X35631916Y50712363D01*
X35610678Y50928000D01*
X35631916Y51143637D01*
X35694816Y51350990D01*
X35796956Y51542081D01*
X35796958Y51542084D01*
X35934419Y51709581D01*
X36101916Y51847042D01*
X36101918Y51847043D01*
X36101919Y51847044D01*
X36293010Y51949184D01*
X36431245Y51991117D01*
X36500362Y52012084D01*
X36554229Y52017389D01*
X36661962Y52028000D01*
X36770038Y52028000D01*
X36877771Y52017389D01*
X36877771Y52017389D01*
G37*
G36*
X19097771Y52017389D02*
G01*
X19151638Y52012084D01*
X19220755Y51991117D01*
X19358990Y51949184D01*
X19550081Y51847044D01*
X19550082Y51847043D01*
X19550084Y51847042D01*
X19717581Y51709581D01*
X19855042Y51542084D01*
X19855044Y51542081D01*
X19957184Y51350990D01*
X20020084Y51143637D01*
X20041322Y50928000D01*
X20020084Y50712363D01*
X19957184Y50505010D01*
X19855044Y50313919D01*
X19855042Y50313916D01*
X19717581Y50146419D01*
X19550084Y50008958D01*
X19550082Y50008957D01*
X19550081Y50008956D01*
X19358990Y49906816D01*
X19220755Y49864883D01*
X19151638Y49843916D01*
X19097771Y49838611D01*
X18990038Y49828000D01*
X18881962Y49828000D01*
X18774229Y49838611D01*
X18720362Y49843916D01*
X18651245Y49864883D01*
X18513010Y49906816D01*
X18321919Y50008956D01*
X18321918Y50008957D01*
X18321916Y50008958D01*
X18154419Y50146419D01*
X18016958Y50313916D01*
X18016956Y50313919D01*
X17914816Y50505010D01*
X17851916Y50712363D01*
X17830678Y50928000D01*
X17851916Y51143637D01*
X17914816Y51350990D01*
X18016956Y51542081D01*
X18016958Y51542084D01*
X18154419Y51709581D01*
X18321916Y51847042D01*
X18321918Y51847043D01*
X18321919Y51847044D01*
X18513010Y51949184D01*
X18651245Y51991117D01*
X18720362Y52012084D01*
X18774229Y52017389D01*
X18881962Y52028000D01*
X18990038Y52028000D01*
X19097771Y52017389D01*
X19097771Y52017389D01*
G37*
G36*
X24177771Y52017389D02*
G01*
X24231638Y52012084D01*
X24300755Y51991117D01*
X24438990Y51949184D01*
X24630081Y51847044D01*
X24630082Y51847043D01*
X24630084Y51847042D01*
X24797581Y51709581D01*
X24935042Y51542084D01*
X24935044Y51542081D01*
X25037184Y51350990D01*
X25100084Y51143637D01*
X25121322Y50928000D01*
X25100084Y50712363D01*
X25037184Y50505010D01*
X24935044Y50313919D01*
X24935042Y50313916D01*
X24797581Y50146419D01*
X24630084Y50008958D01*
X24630082Y50008957D01*
X24630081Y50008956D01*
X24438990Y49906816D01*
X24300755Y49864883D01*
X24231638Y49843916D01*
X24177771Y49838611D01*
X24070038Y49828000D01*
X23961962Y49828000D01*
X23854229Y49838611D01*
X23800362Y49843916D01*
X23731245Y49864883D01*
X23593010Y49906816D01*
X23401919Y50008956D01*
X23401918Y50008957D01*
X23401916Y50008958D01*
X23234419Y50146419D01*
X23096958Y50313916D01*
X23096956Y50313919D01*
X22994816Y50505010D01*
X22931916Y50712363D01*
X22910678Y50928000D01*
X22931916Y51143637D01*
X22994816Y51350990D01*
X23096956Y51542081D01*
X23096958Y51542084D01*
X23234419Y51709581D01*
X23401916Y51847042D01*
X23401918Y51847043D01*
X23401919Y51847044D01*
X23593010Y51949184D01*
X23731245Y51991117D01*
X23800362Y52012084D01*
X23854229Y52017389D01*
X23961962Y52028000D01*
X24070038Y52028000D01*
X24177771Y52017389D01*
X24177771Y52017389D01*
G37*
G36*
X58717771Y52017389D02*
G01*
X58771638Y52012084D01*
X58840755Y51991117D01*
X58978990Y51949184D01*
X59170081Y51847044D01*
X59170082Y51847043D01*
X59170084Y51847042D01*
X59337581Y51709581D01*
X59475042Y51542084D01*
X59475044Y51542081D01*
X59577184Y51350990D01*
X59640084Y51143637D01*
X59661322Y50928000D01*
X59640084Y50712363D01*
X59577184Y50505010D01*
X59475044Y50313919D01*
X59475042Y50313916D01*
X59337581Y50146419D01*
X59170084Y50008958D01*
X59170082Y50008957D01*
X59170081Y50008956D01*
X58978990Y49906816D01*
X58840755Y49864883D01*
X58771638Y49843916D01*
X58717771Y49838611D01*
X58610038Y49828000D01*
X58501962Y49828000D01*
X58394229Y49838611D01*
X58340362Y49843916D01*
X58271245Y49864883D01*
X58133010Y49906816D01*
X57941919Y50008956D01*
X57941918Y50008957D01*
X57941916Y50008958D01*
X57774419Y50146419D01*
X57636958Y50313916D01*
X57636956Y50313919D01*
X57534816Y50505010D01*
X57471916Y50712363D01*
X57450678Y50928000D01*
X57471916Y51143637D01*
X57534816Y51350990D01*
X57636956Y51542081D01*
X57636958Y51542084D01*
X57774419Y51709581D01*
X57941916Y51847042D01*
X57941918Y51847043D01*
X57941919Y51847044D01*
X58133010Y51949184D01*
X58271245Y51991117D01*
X58340362Y52012084D01*
X58394229Y52017389D01*
X58501962Y52028000D01*
X58610038Y52028000D01*
X58717771Y52017389D01*
X58717771Y52017389D01*
G37*
G36*
X26717771Y52017389D02*
G01*
X26771638Y52012084D01*
X26840755Y51991117D01*
X26978990Y51949184D01*
X27170081Y51847044D01*
X27170082Y51847043D01*
X27170084Y51847042D01*
X27337581Y51709581D01*
X27475042Y51542084D01*
X27475044Y51542081D01*
X27577184Y51350990D01*
X27640084Y51143637D01*
X27661322Y50928000D01*
X27640084Y50712363D01*
X27577184Y50505010D01*
X27475044Y50313919D01*
X27475042Y50313916D01*
X27337581Y50146419D01*
X27170084Y50008958D01*
X27170082Y50008957D01*
X27170081Y50008956D01*
X26978990Y49906816D01*
X26840755Y49864883D01*
X26771638Y49843916D01*
X26717771Y49838611D01*
X26610038Y49828000D01*
X26501962Y49828000D01*
X26394229Y49838611D01*
X26340362Y49843916D01*
X26271245Y49864883D01*
X26133010Y49906816D01*
X25941919Y50008956D01*
X25941918Y50008957D01*
X25941916Y50008958D01*
X25774419Y50146419D01*
X25636958Y50313916D01*
X25636956Y50313919D01*
X25534816Y50505010D01*
X25471916Y50712363D01*
X25450678Y50928000D01*
X25471916Y51143637D01*
X25534816Y51350990D01*
X25636956Y51542081D01*
X25636958Y51542084D01*
X25774419Y51709581D01*
X25941916Y51847042D01*
X25941918Y51847043D01*
X25941919Y51847044D01*
X26133010Y51949184D01*
X26271245Y51991117D01*
X26340362Y52012084D01*
X26394229Y52017389D01*
X26501962Y52028000D01*
X26610038Y52028000D01*
X26717771Y52017389D01*
X26717771Y52017389D01*
G37*
G36*
X56177771Y52017389D02*
G01*
X56231638Y52012084D01*
X56300755Y51991117D01*
X56438990Y51949184D01*
X56630081Y51847044D01*
X56630082Y51847043D01*
X56630084Y51847042D01*
X56797581Y51709581D01*
X56935042Y51542084D01*
X56935044Y51542081D01*
X57037184Y51350990D01*
X57100084Y51143637D01*
X57121322Y50928000D01*
X57100084Y50712363D01*
X57037184Y50505010D01*
X56935044Y50313919D01*
X56935042Y50313916D01*
X56797581Y50146419D01*
X56630084Y50008958D01*
X56630082Y50008957D01*
X56630081Y50008956D01*
X56438990Y49906816D01*
X56300755Y49864883D01*
X56231638Y49843916D01*
X56177771Y49838611D01*
X56070038Y49828000D01*
X55961962Y49828000D01*
X55854229Y49838611D01*
X55800362Y49843916D01*
X55731245Y49864883D01*
X55593010Y49906816D01*
X55401919Y50008956D01*
X55401918Y50008957D01*
X55401916Y50008958D01*
X55234419Y50146419D01*
X55096958Y50313916D01*
X55096956Y50313919D01*
X54994816Y50505010D01*
X54931916Y50712363D01*
X54910678Y50928000D01*
X54931916Y51143637D01*
X54994816Y51350990D01*
X55096956Y51542081D01*
X55096958Y51542084D01*
X55234419Y51709581D01*
X55401916Y51847042D01*
X55401918Y51847043D01*
X55401919Y51847044D01*
X55593010Y51949184D01*
X55731245Y51991117D01*
X55800362Y52012084D01*
X55854229Y52017389D01*
X55961962Y52028000D01*
X56070038Y52028000D01*
X56177771Y52017389D01*
X56177771Y52017389D01*
G37*
G36*
X29257771Y52017389D02*
G01*
X29311638Y52012084D01*
X29380755Y51991117D01*
X29518990Y51949184D01*
X29710081Y51847044D01*
X29710082Y51847043D01*
X29710084Y51847042D01*
X29877581Y51709581D01*
X30015042Y51542084D01*
X30015044Y51542081D01*
X30117184Y51350990D01*
X30180084Y51143637D01*
X30201322Y50928000D01*
X30180084Y50712363D01*
X30117184Y50505010D01*
X30015044Y50313919D01*
X30015042Y50313916D01*
X29877581Y50146419D01*
X29710084Y50008958D01*
X29710082Y50008957D01*
X29710081Y50008956D01*
X29518990Y49906816D01*
X29380755Y49864883D01*
X29311638Y49843916D01*
X29257771Y49838611D01*
X29150038Y49828000D01*
X29041962Y49828000D01*
X28934229Y49838611D01*
X28880362Y49843916D01*
X28811245Y49864883D01*
X28673010Y49906816D01*
X28481919Y50008956D01*
X28481918Y50008957D01*
X28481916Y50008958D01*
X28314419Y50146419D01*
X28176958Y50313916D01*
X28176956Y50313919D01*
X28074816Y50505010D01*
X28011916Y50712363D01*
X27990678Y50928000D01*
X28011916Y51143637D01*
X28074816Y51350990D01*
X28176956Y51542081D01*
X28176958Y51542084D01*
X28314419Y51709581D01*
X28481916Y51847042D01*
X28481918Y51847043D01*
X28481919Y51847044D01*
X28673010Y51949184D01*
X28811245Y51991117D01*
X28880362Y52012084D01*
X28934229Y52017389D01*
X29041962Y52028000D01*
X29150038Y52028000D01*
X29257771Y52017389D01*
X29257771Y52017389D01*
G37*
G36*
X53637771Y52017389D02*
G01*
X53691638Y52012084D01*
X53760755Y51991117D01*
X53898990Y51949184D01*
X54090081Y51847044D01*
X54090082Y51847043D01*
X54090084Y51847042D01*
X54257581Y51709581D01*
X54395042Y51542084D01*
X54395044Y51542081D01*
X54497184Y51350990D01*
X54560084Y51143637D01*
X54581322Y50928000D01*
X54560084Y50712363D01*
X54497184Y50505010D01*
X54395044Y50313919D01*
X54395042Y50313916D01*
X54257581Y50146419D01*
X54090084Y50008958D01*
X54090082Y50008957D01*
X54090081Y50008956D01*
X53898990Y49906816D01*
X53760755Y49864883D01*
X53691638Y49843916D01*
X53637771Y49838611D01*
X53530038Y49828000D01*
X53421962Y49828000D01*
X53314229Y49838611D01*
X53260362Y49843916D01*
X53191245Y49864883D01*
X53053010Y49906816D01*
X52861919Y50008956D01*
X52861918Y50008957D01*
X52861916Y50008958D01*
X52694419Y50146419D01*
X52556958Y50313916D01*
X52556956Y50313919D01*
X52454816Y50505010D01*
X52391916Y50712363D01*
X52370678Y50928000D01*
X52391916Y51143637D01*
X52454816Y51350990D01*
X52556956Y51542081D01*
X52556958Y51542084D01*
X52694419Y51709581D01*
X52861916Y51847042D01*
X52861918Y51847043D01*
X52861919Y51847044D01*
X53053010Y51949184D01*
X53191245Y51991117D01*
X53260362Y52012084D01*
X53314229Y52017389D01*
X53421962Y52028000D01*
X53530038Y52028000D01*
X53637771Y52017389D01*
X53637771Y52017389D01*
G37*
G36*
X31797771Y52017389D02*
G01*
X31851638Y52012084D01*
X31920755Y51991117D01*
X32058990Y51949184D01*
X32250081Y51847044D01*
X32250082Y51847043D01*
X32250084Y51847042D01*
X32417581Y51709581D01*
X32555042Y51542084D01*
X32555044Y51542081D01*
X32657184Y51350990D01*
X32720084Y51143637D01*
X32741322Y50928000D01*
X32720084Y50712363D01*
X32657184Y50505010D01*
X32555044Y50313919D01*
X32555042Y50313916D01*
X32417581Y50146419D01*
X32250084Y50008958D01*
X32250082Y50008957D01*
X32250081Y50008956D01*
X32058990Y49906816D01*
X31920755Y49864883D01*
X31851638Y49843916D01*
X31797771Y49838611D01*
X31690038Y49828000D01*
X31581962Y49828000D01*
X31474229Y49838611D01*
X31420362Y49843916D01*
X31351245Y49864883D01*
X31213010Y49906816D01*
X31021919Y50008956D01*
X31021918Y50008957D01*
X31021916Y50008958D01*
X30854419Y50146419D01*
X30716958Y50313916D01*
X30716956Y50313919D01*
X30614816Y50505010D01*
X30551916Y50712363D01*
X30530678Y50928000D01*
X30551916Y51143637D01*
X30614816Y51350990D01*
X30716956Y51542081D01*
X30716958Y51542084D01*
X30854419Y51709581D01*
X31021916Y51847042D01*
X31021918Y51847043D01*
X31021919Y51847044D01*
X31213010Y51949184D01*
X31351245Y51991117D01*
X31420362Y52012084D01*
X31474229Y52017389D01*
X31581962Y52028000D01*
X31690038Y52028000D01*
X31797771Y52017389D01*
X31797771Y52017389D01*
G37*
G36*
X51097771Y52017389D02*
G01*
X51151638Y52012084D01*
X51220755Y51991117D01*
X51358990Y51949184D01*
X51550081Y51847044D01*
X51550082Y51847043D01*
X51550084Y51847042D01*
X51717581Y51709581D01*
X51855042Y51542084D01*
X51855044Y51542081D01*
X51957184Y51350990D01*
X52020084Y51143637D01*
X52041322Y50928000D01*
X52020084Y50712363D01*
X51957184Y50505010D01*
X51855044Y50313919D01*
X51855042Y50313916D01*
X51717581Y50146419D01*
X51550084Y50008958D01*
X51550082Y50008957D01*
X51550081Y50008956D01*
X51358990Y49906816D01*
X51220755Y49864883D01*
X51151638Y49843916D01*
X51097771Y49838611D01*
X50990038Y49828000D01*
X50881962Y49828000D01*
X50774229Y49838611D01*
X50720362Y49843916D01*
X50651245Y49864883D01*
X50513010Y49906816D01*
X50321919Y50008956D01*
X50321918Y50008957D01*
X50321916Y50008958D01*
X50154419Y50146419D01*
X50016958Y50313916D01*
X50016956Y50313919D01*
X49914816Y50505010D01*
X49851916Y50712363D01*
X49830678Y50928000D01*
X49851916Y51143637D01*
X49914816Y51350990D01*
X50016956Y51542081D01*
X50016958Y51542084D01*
X50154419Y51709581D01*
X50321916Y51847042D01*
X50321918Y51847043D01*
X50321919Y51847044D01*
X50513010Y51949184D01*
X50651245Y51991117D01*
X50720362Y52012084D01*
X50774229Y52017389D01*
X50881962Y52028000D01*
X50990038Y52028000D01*
X51097771Y52017389D01*
X51097771Y52017389D01*
G37*
G36*
X34337771Y52017389D02*
G01*
X34391638Y52012084D01*
X34460755Y51991117D01*
X34598990Y51949184D01*
X34790081Y51847044D01*
X34790082Y51847043D01*
X34790084Y51847042D01*
X34957581Y51709581D01*
X35095042Y51542084D01*
X35095044Y51542081D01*
X35197184Y51350990D01*
X35260084Y51143637D01*
X35281322Y50928000D01*
X35260084Y50712363D01*
X35197184Y50505010D01*
X35095044Y50313919D01*
X35095042Y50313916D01*
X34957581Y50146419D01*
X34790084Y50008958D01*
X34790082Y50008957D01*
X34790081Y50008956D01*
X34598990Y49906816D01*
X34460755Y49864883D01*
X34391638Y49843916D01*
X34337771Y49838611D01*
X34230038Y49828000D01*
X34121962Y49828000D01*
X34014229Y49838611D01*
X33960362Y49843916D01*
X33891245Y49864883D01*
X33753010Y49906816D01*
X33561919Y50008956D01*
X33561918Y50008957D01*
X33561916Y50008958D01*
X33394419Y50146419D01*
X33256958Y50313916D01*
X33256956Y50313919D01*
X33154816Y50505010D01*
X33091916Y50712363D01*
X33070678Y50928000D01*
X33091916Y51143637D01*
X33154816Y51350990D01*
X33256956Y51542081D01*
X33256958Y51542084D01*
X33394419Y51709581D01*
X33561916Y51847042D01*
X33561918Y51847043D01*
X33561919Y51847044D01*
X33753010Y51949184D01*
X33891245Y51991117D01*
X33960362Y52012084D01*
X34014229Y52017389D01*
X34121962Y52028000D01*
X34230038Y52028000D01*
X34337771Y52017389D01*
X34337771Y52017389D01*
G37*
G36*
X1887843Y51795786D02*
G01*
X1887846Y51795785D01*
X1887845Y51795785D01*
X1978839Y51758094D01*
X2016017Y51733252D01*
X2060730Y51703376D01*
X2130376Y51633730D01*
X2185095Y51551837D01*
X2222786Y51460843D01*
X2242000Y51364247D01*
X2242000Y51265753D01*
X2222786Y51169157D01*
X2212215Y51143637D01*
X2185094Y51078161D01*
X2130375Y50996269D01*
X2060731Y50926625D01*
X1978839Y50871906D01*
X1978838Y50871905D01*
X1978837Y50871905D01*
X1887843Y50834214D01*
X1791247Y50815000D01*
X1692753Y50815000D01*
X1596157Y50834214D01*
X1505163Y50871905D01*
X1505162Y50871905D01*
X1505161Y50871906D01*
X1423269Y50926625D01*
X1353625Y50996269D01*
X1298906Y51078161D01*
X1271785Y51143637D01*
X1261214Y51169157D01*
X1242000Y51265753D01*
X1242000Y51364247D01*
X1261214Y51460843D01*
X1298905Y51551837D01*
X1353624Y51633730D01*
X1423270Y51703376D01*
X1467983Y51733252D01*
X1505161Y51758094D01*
X1596155Y51795785D01*
X1596154Y51795785D01*
X1596157Y51795786D01*
X1692753Y51815000D01*
X1791247Y51815000D01*
X1887843Y51795786D01*
X1887843Y51795786D01*
G37*
G36*
X66887843Y51795786D02*
G01*
X66887846Y51795785D01*
X66887845Y51795785D01*
X66978839Y51758094D01*
X67016017Y51733252D01*
X67060730Y51703376D01*
X67130376Y51633730D01*
X67185095Y51551837D01*
X67222786Y51460843D01*
X67242000Y51364247D01*
X67242000Y51265753D01*
X67222786Y51169157D01*
X67212215Y51143637D01*
X67185094Y51078161D01*
X67130375Y50996269D01*
X67060731Y50926625D01*
X66978839Y50871906D01*
X66978838Y50871905D01*
X66978837Y50871905D01*
X66887843Y50834214D01*
X66791247Y50815000D01*
X66692753Y50815000D01*
X66596157Y50834214D01*
X66505163Y50871905D01*
X66505162Y50871905D01*
X66505161Y50871906D01*
X66423269Y50926625D01*
X66353625Y50996269D01*
X66298906Y51078161D01*
X66271785Y51143637D01*
X66261214Y51169157D01*
X66242000Y51265753D01*
X66242000Y51364247D01*
X66261214Y51460843D01*
X66298905Y51551837D01*
X66353624Y51633730D01*
X66423270Y51703376D01*
X66467983Y51733252D01*
X66505161Y51758094D01*
X66596155Y51795785D01*
X66596154Y51795785D01*
X66596157Y51795786D01*
X66692753Y51815000D01*
X66791247Y51815000D01*
X66887843Y51795786D01*
X66887843Y51795786D01*
G37*
M02*
