M48
; DRILL file {KiCad (5.1.2)-2} date 2/19/2020 10:12:57 AM
; FORMAT={2:4/ absolute / inch / suppress leading zeros}
; #@! TF.CreationDate,2020-02-19T10:12:57-05:00
; #@! TF.GenerationSoftware,Kicad,Pcbnew,(5.1.2)-2
FMAT,2
INCH,TZ
T1C0.0157
T2C0.0394
T3C0.0433
T4C0.1260
%
G90
G05
T1
X984Y18701
X984Y16732
X984Y12795
X984Y10827
X984Y8858
X984Y6890
X984Y4921
X984Y1969
X1969Y19685
X3740Y2362
X3937Y19685
X3937Y17717
X3937Y15748
X3937Y13780
X3937Y11811
X3937Y9843
X3937Y984
X4528Y16811
X4921Y12795
X4921Y10827
X4921Y8858
X5315Y16732
X5906Y17520
X6299Y16732
X6299Y2264
X6886Y10949
X6890Y8858
X6890Y984
X6894Y14744
X7311Y14965
X7480Y13780
X7480Y12402
X7874Y7874
X7900Y9376
X8858Y14764
X8858Y8858
X8858Y6890
X8858Y984
X9140Y8589
X9252Y17323
X9252Y5709
X9331Y15965
X9612Y9376
X9843Y14764
X9882Y16732
X10335Y15709
X10382Y13882
X10433Y18307
X10433Y2264
X10630Y5906
X10807Y17697
X11496Y14744
X11843Y10161
X12104Y11738
X12106Y14764
X12352Y10955
X12992Y5709
X12992Y2264
X13110Y17205
X13189Y10827
X13189Y9055
X13189Y7283
X13386Y15354
X13780Y12795
X13846Y12303
X13945Y5551
X14173Y17126
X14764Y10827
X14764Y8858
X14764Y6890
X14862Y15354
X15059Y14173
X16339Y14173
X16732Y10827
X16732Y8858
X16732Y6890
X16831Y14587
X17126Y20276
X17126Y2559
X17996Y13181
X18110Y14173
X18622Y10748
X18701Y8858
X18701Y6890
X19094Y2559
X19094Y984
X19783Y14272
X20472Y19488
X20669Y13386
X20669Y10827
X20669Y8858
X20669Y6890
X20669Y1969
X20866Y18504
X21752Y9524
X22146Y12531
X22366Y9378
X22638Y16732
X22638Y15748
X22638Y14764
X22638Y13780
X22638Y1969
X22768Y11740
X22963Y8589
X23031Y7874
X23031Y7283
X23031Y6693
X23031Y5906
X23228Y5315
X23228Y2953
X23622Y17717
X23622Y13780
X23622Y5906
X23819Y4528
X23819Y3740
X24213Y13189
X24606Y18701
X24606Y17717
X24606Y15748
X24606Y3937
X24606Y1969
X25098Y13287
X25197Y7874
X25394Y11811
X25394Y10827
X25394Y9843
X25394Y8858
X25394Y6496
X25394Y5906
X25591Y14764
X26575Y20669
X26575Y18701
X26575Y13780
X26575Y12795
X26575Y11811
X26575Y10827
X26575Y9843
X26575Y8858
X26575Y7874
X26575Y6890
X26575Y5906
T2
X3354Y6043
X4354Y6043
X5354Y6043
X6354Y6043
X16319Y17594
X16319Y16594
X17319Y17594
X17319Y16594
X18319Y17594
X18319Y16594
X19319Y17594
X19319Y16594
X20319Y17594
X20319Y16594
X21319Y17594
X21319Y16594
X2355Y4488
X2355Y3488
X3355Y4488
X3355Y3488
X4355Y4488
X4355Y3488
X5355Y4488
X5355Y3488
X6355Y4488
X6355Y3488
X7355Y4488
X7355Y3488
X8355Y4488
X8355Y3488
X9355Y4488
X9355Y3488
X10355Y4488
X10355Y3488
X11355Y4488
X11355Y3488
X12355Y4488
X12355Y3488
X13355Y4488
X13355Y3488
X14355Y4488
X14355Y3488
X15355Y4488
X15355Y3488
X16355Y4488
X16355Y3488
X17355Y4488
X17355Y3488
X18355Y4488
X18355Y3488
X19355Y4488
X19355Y3488
X20355Y4488
X20355Y3488
X21355Y4488
X21355Y3488
T3
X7455Y20050
X8455Y20050
X9455Y20050
X10455Y20050
X11054Y1050
X11455Y20050
X12054Y1050
X12455Y20050
X13054Y1050
X13455Y20050
X14054Y1050
X14455Y20050
X15054Y1050
X15455Y20050
X16054Y1050
X16455Y20050
X17054Y1050
X18054Y20050
X18054Y1050
X19054Y20050
X20054Y20050
X20054Y1050
X21054Y20050
X21054Y1050
X22054Y20050
X22054Y1050
X23054Y20050
X23054Y1050
X24054Y20050
X24054Y1050
X25054Y20050
X25054Y1050
T4
X5554Y1050
X6054Y20050
X26054Y3050
T0
M30
