G04 #@! TF.GenerationSoftware,KiCad,Pcbnew,(5.1.2)-2*
G04 #@! TF.CreationDate,2020-02-19T10:12:50-05:00*
G04 #@! TF.ProjectId,LoRaShield2,4c6f5261-5368-4696-956c-64322e6b6963,V2*
G04 #@! TF.SameCoordinates,PX437ae70PY8b896f8*
G04 #@! TF.FileFunction,Legend,Top*
G04 #@! TF.FilePolarity,Positive*
%FSLAX46Y46*%
G04 Gerber Fmt 4.6, Leading zero omitted, Abs format (unit mm)*
G04 Created by KiCad (PCBNEW (5.1.2)-2) date 2020-02-19 10:12:50*
%MOMM*%
%LPD*%
G04 APERTURE LIST*
%ADD10C,0.300000*%
%ADD11C,0.250000*%
%ADD12C,0.120000*%
%ADD13C,0.150000*%
%ADD14O,2.200000X2.200000*%
%ADD15R,2.200000X2.200000*%
%ADD16C,3.400000*%
%ADD17R,13.200000X6.200000*%
%ADD18O,4.200000X1.400000*%
%ADD19R,1.000000X0.950000*%
%ADD20R,4.264000X2.200000*%
%ADD21R,4.264000X1.724000*%
%ADD22R,1.100000X0.700000*%
%ADD23R,0.950000X1.000000*%
%ADD24R,1.900000X1.900000*%
%ADD25O,1.900000X1.900000*%
%ADD26R,0.400000X1.300000*%
%ADD27R,0.400000X1.200000*%
%ADD28R,0.800000X1.000000*%
%ADD29R,0.700000X1.100000*%
%ADD30R,0.600000X0.800000*%
%ADD31C,1.000000*%
G04 APERTURE END LIST*
D10*
X15450000Y18242858D02*
X15378571Y18100000D01*
X15378571Y17885715D01*
X15450000Y17671429D01*
X15592857Y17528572D01*
X15735714Y17457143D01*
X16021428Y17385715D01*
X16235714Y17385715D01*
X16521428Y17457143D01*
X16664285Y17528572D01*
X16807142Y17671429D01*
X16878571Y17885715D01*
X16878571Y18028572D01*
X16807142Y18242858D01*
X16735714Y18314286D01*
X16235714Y18314286D01*
X16235714Y18028572D01*
X16878571Y18957143D02*
X15378571Y18957143D01*
X15378571Y19528572D01*
X15450000Y19671429D01*
X15521428Y19742858D01*
X15664285Y19814286D01*
X15878571Y19814286D01*
X16021428Y19742858D01*
X16092857Y19671429D01*
X16164285Y19528572D01*
X16164285Y18957143D01*
X16807142Y20385715D02*
X16878571Y20600000D01*
X16878571Y20957143D01*
X16807142Y21100000D01*
X16735714Y21171429D01*
X16592857Y21242858D01*
X16450000Y21242858D01*
X16307142Y21171429D01*
X16235714Y21100000D01*
X16164285Y20957143D01*
X16092857Y20671429D01*
X16021428Y20528572D01*
X15950000Y20457143D01*
X15807142Y20385715D01*
X15664285Y20385715D01*
X15521428Y20457143D01*
X15450000Y20528572D01*
X15378571Y20671429D01*
X15378571Y21028572D01*
X15450000Y21242858D01*
X16307142Y21885715D02*
X16307142Y23028572D01*
X16878571Y23742858D02*
X15378571Y23742858D01*
X15378571Y24314286D01*
X15450000Y24457143D01*
X15521428Y24528572D01*
X15664285Y24600000D01*
X15878571Y24600000D01*
X16021428Y24528572D01*
X16092857Y24457143D01*
X16164285Y24314286D01*
X16164285Y23742858D01*
X15378571Y25100000D02*
X16878571Y25457143D01*
X15807142Y25742858D01*
X16878571Y26028572D01*
X15378571Y26385715D01*
X16878571Y27814286D02*
X16164285Y27314286D01*
X16878571Y26957143D02*
X15378571Y26957143D01*
X15378571Y27528572D01*
X15450000Y27671429D01*
X15521428Y27742858D01*
X15664285Y27814286D01*
X15878571Y27814286D01*
X16021428Y27742858D01*
X16092857Y27671429D01*
X16164285Y27528572D01*
X16164285Y26957143D01*
X13050000Y18235715D02*
X12978571Y18092858D01*
X12978571Y17878572D01*
X13050000Y17664286D01*
X13192857Y17521429D01*
X13335714Y17450000D01*
X13621428Y17378572D01*
X13835714Y17378572D01*
X14121428Y17450000D01*
X14264285Y17521429D01*
X14407142Y17664286D01*
X14478571Y17878572D01*
X14478571Y18021429D01*
X14407142Y18235715D01*
X14335714Y18307143D01*
X13835714Y18307143D01*
X13835714Y18021429D01*
X14478571Y18950000D02*
X12978571Y18950000D01*
X12978571Y19521429D01*
X13050000Y19664286D01*
X13121428Y19735715D01*
X13264285Y19807143D01*
X13478571Y19807143D01*
X13621428Y19735715D01*
X13692857Y19664286D01*
X13764285Y19521429D01*
X13764285Y18950000D01*
X14407142Y20378572D02*
X14478571Y20592858D01*
X14478571Y20950000D01*
X14407142Y21092858D01*
X14335714Y21164286D01*
X14192857Y21235715D01*
X14050000Y21235715D01*
X13907142Y21164286D01*
X13835714Y21092858D01*
X13764285Y20950000D01*
X13692857Y20664286D01*
X13621428Y20521429D01*
X13550000Y20450000D01*
X13407142Y20378572D01*
X13264285Y20378572D01*
X13121428Y20450000D01*
X13050000Y20521429D01*
X12978571Y20664286D01*
X12978571Y21021429D01*
X13050000Y21235715D01*
X13907142Y21878572D02*
X13907142Y23021429D01*
X14478571Y24592858D02*
X13764285Y24092858D01*
X14478571Y23735715D02*
X12978571Y23735715D01*
X12978571Y24307143D01*
X13050000Y24450000D01*
X13121428Y24521429D01*
X13264285Y24592858D01*
X13478571Y24592858D01*
X13621428Y24521429D01*
X13692857Y24450000D01*
X13764285Y24307143D01*
X13764285Y23735715D01*
X12978571Y25092858D02*
X14478571Y26092858D01*
X12978571Y26092858D02*
X14478571Y25092858D01*
X10250000Y18214286D02*
X10178571Y18071429D01*
X10178571Y17857143D01*
X10250000Y17642858D01*
X10392857Y17500000D01*
X10535714Y17428572D01*
X10821428Y17357143D01*
X11035714Y17357143D01*
X11321428Y17428572D01*
X11464285Y17500000D01*
X11607142Y17642858D01*
X11678571Y17857143D01*
X11678571Y18000000D01*
X11607142Y18214286D01*
X11535714Y18285715D01*
X11035714Y18285715D01*
X11035714Y18000000D01*
X11678571Y18928572D02*
X10178571Y18928572D01*
X10178571Y19500000D01*
X10250000Y19642858D01*
X10321428Y19714286D01*
X10464285Y19785715D01*
X10678571Y19785715D01*
X10821428Y19714286D01*
X10892857Y19642858D01*
X10964285Y19500000D01*
X10964285Y18928572D01*
X11607142Y20357143D02*
X11678571Y20571429D01*
X11678571Y20928572D01*
X11607142Y21071429D01*
X11535714Y21142858D01*
X11392857Y21214286D01*
X11250000Y21214286D01*
X11107142Y21142858D01*
X11035714Y21071429D01*
X10964285Y20928572D01*
X10892857Y20642858D01*
X10821428Y20500000D01*
X10750000Y20428572D01*
X10607142Y20357143D01*
X10464285Y20357143D01*
X10321428Y20428572D01*
X10250000Y20500000D01*
X10178571Y20642858D01*
X10178571Y21000000D01*
X10250000Y21214286D01*
X11107142Y21857143D02*
X11107142Y23000000D01*
X10178571Y23500000D02*
X10178571Y24357143D01*
X11678571Y23928572D02*
X10178571Y23928572D01*
X10178571Y24714286D02*
X11678571Y25714286D01*
X10178571Y25714286D02*
X11678571Y24714286D01*
X7750000Y18257143D02*
X7678571Y18114286D01*
X7678571Y17900000D01*
X7750000Y17685715D01*
X7892857Y17542858D01*
X8035714Y17471429D01*
X8321428Y17400000D01*
X8535714Y17400000D01*
X8821428Y17471429D01*
X8964285Y17542858D01*
X9107142Y17685715D01*
X9178571Y17900000D01*
X9178571Y18042858D01*
X9107142Y18257143D01*
X9035714Y18328572D01*
X8535714Y18328572D01*
X8535714Y18042858D01*
X9178571Y18971429D02*
X7678571Y18971429D01*
X9178571Y19828572D01*
X7678571Y19828572D01*
X9178571Y20542858D02*
X7678571Y20542858D01*
X7678571Y20900000D01*
X7750000Y21114286D01*
X7892857Y21257143D01*
X8035714Y21328572D01*
X8321428Y21400000D01*
X8535714Y21400000D01*
X8821428Y21328572D01*
X8964285Y21257143D01*
X9107142Y21114286D01*
X9178571Y20900000D01*
X9178571Y20542858D01*
X40857142Y46821429D02*
X40357142Y47535715D01*
X40000000Y46821429D02*
X40000000Y48321429D01*
X40571428Y48321429D01*
X40714285Y48250000D01*
X40785714Y48178572D01*
X40857142Y48035715D01*
X40857142Y47821429D01*
X40785714Y47678572D01*
X40714285Y47607143D01*
X40571428Y47535715D01*
X40000000Y47535715D01*
X42142857Y46821429D02*
X42142857Y47607143D01*
X42071428Y47750000D01*
X41928571Y47821429D01*
X41642857Y47821429D01*
X41500000Y47750000D01*
X42142857Y46892858D02*
X42000000Y46821429D01*
X41642857Y46821429D01*
X41500000Y46892858D01*
X41428571Y47035715D01*
X41428571Y47178572D01*
X41500000Y47321429D01*
X41642857Y47392858D01*
X42000000Y47392858D01*
X42142857Y47464286D01*
X43500000Y46821429D02*
X43500000Y48321429D01*
X43500000Y46892858D02*
X43357142Y46821429D01*
X43071428Y46821429D01*
X42928571Y46892858D01*
X42857142Y46964286D01*
X42785714Y47107143D01*
X42785714Y47535715D01*
X42857142Y47678572D01*
X42928571Y47750000D01*
X43071428Y47821429D01*
X43357142Y47821429D01*
X43500000Y47750000D01*
X44214285Y46821429D02*
X44214285Y47821429D01*
X44214285Y48321429D02*
X44142857Y48250000D01*
X44214285Y48178572D01*
X44285714Y48250000D01*
X44214285Y48321429D01*
X44214285Y48178572D01*
X45142857Y46821429D02*
X45000000Y46892858D01*
X44928571Y46964286D01*
X44857142Y47107143D01*
X44857142Y47535715D01*
X44928571Y47678572D01*
X45000000Y47750000D01*
X45142857Y47821429D01*
X45357142Y47821429D01*
X45500000Y47750000D01*
X45571428Y47678572D01*
X45642857Y47535715D01*
X45642857Y47107143D01*
X45571428Y46964286D01*
X45500000Y46892858D01*
X45357142Y46821429D01*
X45142857Y46821429D01*
X48214285Y48250000D02*
X48071428Y48321429D01*
X47857142Y48321429D01*
X47642857Y48250000D01*
X47500000Y48107143D01*
X47428571Y47964286D01*
X47357142Y47678572D01*
X47357142Y47464286D01*
X47428571Y47178572D01*
X47500000Y47035715D01*
X47642857Y46892858D01*
X47857142Y46821429D01*
X48000000Y46821429D01*
X48214285Y46892858D01*
X48285714Y46964286D01*
X48285714Y47464286D01*
X48000000Y47464286D01*
X48928571Y46821429D02*
X48928571Y48321429D01*
X49500000Y48321429D01*
X49642857Y48250000D01*
X49714285Y48178572D01*
X49785714Y48035715D01*
X49785714Y47821429D01*
X49714285Y47678572D01*
X49642857Y47607143D01*
X49500000Y47535715D01*
X48928571Y47535715D01*
X50428571Y46821429D02*
X50428571Y48321429D01*
X51428571Y48321429D02*
X51714285Y48321429D01*
X51857142Y48250000D01*
X52000000Y48107143D01*
X52071428Y47821429D01*
X52071428Y47321429D01*
X52000000Y47035715D01*
X51857142Y46892858D01*
X51714285Y46821429D01*
X51428571Y46821429D01*
X51285714Y46892858D01*
X51142857Y47035715D01*
X51071428Y47321429D01*
X51071428Y47821429D01*
X51142857Y48107143D01*
X51285714Y48250000D01*
X51428571Y48321429D01*
X12892857Y5321429D02*
X12392857Y6035715D01*
X12035714Y5321429D02*
X12035714Y6821429D01*
X12607142Y6821429D01*
X12750000Y6750000D01*
X12821428Y6678572D01*
X12892857Y6535715D01*
X12892857Y6321429D01*
X12821428Y6178572D01*
X12750000Y6107143D01*
X12607142Y6035715D01*
X12035714Y6035715D01*
X13535714Y5321429D02*
X13535714Y6821429D01*
X14107142Y6821429D01*
X14250000Y6750000D01*
X14321428Y6678572D01*
X14392857Y6535715D01*
X14392857Y6321429D01*
X14321428Y6178572D01*
X14250000Y6107143D01*
X14107142Y6035715D01*
X13535714Y6035715D01*
X15035714Y5321429D02*
X15035714Y6321429D01*
X15035714Y6821429D02*
X14964285Y6750000D01*
X15035714Y6678572D01*
X15107142Y6750000D01*
X15035714Y6821429D01*
X15035714Y6678572D01*
X16892857Y5321429D02*
X16892857Y6821429D01*
X16892857Y6107143D02*
X17750000Y6107143D01*
X17750000Y5321429D02*
X17750000Y6821429D01*
X19035714Y5392858D02*
X18892857Y5321429D01*
X18607142Y5321429D01*
X18464285Y5392858D01*
X18392857Y5535715D01*
X18392857Y6107143D01*
X18464285Y6250000D01*
X18607142Y6321429D01*
X18892857Y6321429D01*
X19035714Y6250000D01*
X19107142Y6107143D01*
X19107142Y5964286D01*
X18392857Y5821429D01*
X20392857Y5321429D02*
X20392857Y6107143D01*
X20321428Y6250000D01*
X20178571Y6321429D01*
X19892857Y6321429D01*
X19750000Y6250000D01*
X20392857Y5392858D02*
X20250000Y5321429D01*
X19892857Y5321429D01*
X19750000Y5392858D01*
X19678571Y5535715D01*
X19678571Y5678572D01*
X19750000Y5821429D01*
X19892857Y5892858D01*
X20250000Y5892858D01*
X20392857Y5964286D01*
X21750000Y5321429D02*
X21750000Y6821429D01*
X21750000Y5392858D02*
X21607142Y5321429D01*
X21321428Y5321429D01*
X21178571Y5392858D01*
X21107142Y5464286D01*
X21035714Y5607143D01*
X21035714Y6035715D01*
X21107142Y6178572D01*
X21178571Y6250000D01*
X21321428Y6321429D01*
X21607142Y6321429D01*
X21750000Y6250000D01*
X23035714Y5392858D02*
X22892857Y5321429D01*
X22607142Y5321429D01*
X22464285Y5392858D01*
X22392857Y5535715D01*
X22392857Y6107143D01*
X22464285Y6250000D01*
X22607142Y6321429D01*
X22892857Y6321429D01*
X23035714Y6250000D01*
X23107142Y6107143D01*
X23107142Y5964286D01*
X22392857Y5821429D01*
X23750000Y5321429D02*
X23750000Y6321429D01*
X23750000Y6035715D02*
X23821428Y6178572D01*
X23892857Y6250000D01*
X24035714Y6321429D01*
X24178571Y6321429D01*
X33571428Y43821429D02*
X32857142Y43821429D01*
X32857142Y45321429D01*
X34785714Y43821429D02*
X34071428Y43821429D01*
X34071428Y45321429D01*
X35285714Y44392858D02*
X36428571Y44392858D01*
X37857142Y45321429D02*
X37142857Y45321429D01*
X37071428Y44607143D01*
X37142857Y44678572D01*
X37285714Y44750000D01*
X37642857Y44750000D01*
X37785714Y44678572D01*
X37857142Y44607143D01*
X37928571Y44464286D01*
X37928571Y44107143D01*
X37857142Y43964286D01*
X37785714Y43892858D01*
X37642857Y43821429D01*
X37285714Y43821429D01*
X37142857Y43892858D01*
X37071428Y43964286D01*
X38357142Y45321429D02*
X38857142Y43821429D01*
X39357142Y45321429D01*
X721428Y5250000D02*
X2221428Y5250000D01*
X2221428Y4678572D01*
X2150000Y4535715D01*
X2078571Y4464286D01*
X1935714Y4392858D01*
X1721428Y4392858D01*
X1578571Y4464286D01*
X1507142Y4535715D01*
X1435714Y4678572D01*
X1435714Y5250000D01*
X2221428Y3892858D02*
X721428Y3535715D01*
X1792857Y3250000D01*
X721428Y2964286D01*
X2221428Y2607143D01*
X721428Y1178572D02*
X1435714Y1678572D01*
X721428Y2035715D02*
X2221428Y2035715D01*
X2221428Y1464286D01*
X2150000Y1321429D01*
X2078571Y1250000D01*
X1935714Y1178572D01*
X1721428Y1178572D01*
X1578571Y1250000D01*
X1507142Y1321429D01*
X1435714Y1464286D01*
X1435714Y2035715D01*
X53450000Y37007143D02*
X53378571Y36864286D01*
X53378571Y36650000D01*
X53450000Y36435715D01*
X53592857Y36292858D01*
X53735714Y36221429D01*
X54021428Y36150000D01*
X54235714Y36150000D01*
X54521428Y36221429D01*
X54664285Y36292858D01*
X54807142Y36435715D01*
X54878571Y36650000D01*
X54878571Y36792858D01*
X54807142Y37007143D01*
X54735714Y37078572D01*
X54235714Y37078572D01*
X54235714Y36792858D01*
X54878571Y37721429D02*
X53378571Y37721429D01*
X54878571Y38578572D01*
X53378571Y38578572D01*
X54878571Y39292858D02*
X53378571Y39292858D01*
X53378571Y39650000D01*
X53450000Y39864286D01*
X53592857Y40007143D01*
X53735714Y40078572D01*
X54021428Y40150000D01*
X54235714Y40150000D01*
X54521428Y40078572D01*
X54664285Y40007143D01*
X54807142Y39864286D01*
X54878571Y39650000D01*
X54878571Y39292858D01*
X52128571Y37892858D02*
X50628571Y37892858D01*
X50628571Y38250000D01*
X50700000Y38464286D01*
X50842857Y38607143D01*
X50985714Y38678572D01*
X51271428Y38750000D01*
X51485714Y38750000D01*
X51771428Y38678572D01*
X51914285Y38607143D01*
X52057142Y38464286D01*
X52128571Y38250000D01*
X52128571Y37892858D01*
X52128571Y40178572D02*
X52128571Y39321429D01*
X52128571Y39750000D02*
X50628571Y39750000D01*
X50842857Y39607143D01*
X50985714Y39464286D01*
X51057142Y39321429D01*
X49728571Y37842858D02*
X48228571Y37842858D01*
X48228571Y38200000D01*
X48300000Y38414286D01*
X48442857Y38557143D01*
X48585714Y38628572D01*
X48871428Y38700000D01*
X49085714Y38700000D01*
X49371428Y38628572D01*
X49514285Y38557143D01*
X49657142Y38414286D01*
X49728571Y38200000D01*
X49728571Y37842858D01*
X48371428Y39271429D02*
X48300000Y39342858D01*
X48228571Y39485715D01*
X48228571Y39842858D01*
X48300000Y39985715D01*
X48371428Y40057143D01*
X48514285Y40128572D01*
X48657142Y40128572D01*
X48871428Y40057143D01*
X49728571Y39200000D01*
X49728571Y40128572D01*
X47278571Y37842858D02*
X45778571Y37842858D01*
X45778571Y38200000D01*
X45850000Y38414286D01*
X45992857Y38557143D01*
X46135714Y38628572D01*
X46421428Y38700000D01*
X46635714Y38700000D01*
X46921428Y38628572D01*
X47064285Y38557143D01*
X47207142Y38414286D01*
X47278571Y38200000D01*
X47278571Y37842858D01*
X45778571Y39200000D02*
X45778571Y40128572D01*
X46350000Y39628572D01*
X46350000Y39842858D01*
X46421428Y39985715D01*
X46492857Y40057143D01*
X46635714Y40128572D01*
X46992857Y40128572D01*
X47135714Y40057143D01*
X47207142Y39985715D01*
X47278571Y39842858D01*
X47278571Y39414286D01*
X47207142Y39271429D01*
X47135714Y39200000D01*
X44778571Y37942858D02*
X43278571Y37942858D01*
X43278571Y38300000D01*
X43350000Y38514286D01*
X43492857Y38657143D01*
X43635714Y38728572D01*
X43921428Y38800000D01*
X44135714Y38800000D01*
X44421428Y38728572D01*
X44564285Y38657143D01*
X44707142Y38514286D01*
X44778571Y38300000D01*
X44778571Y37942858D01*
X43778571Y40085715D02*
X44778571Y40085715D01*
X43207142Y39728572D02*
X44278571Y39371429D01*
X44278571Y40300000D01*
X42178571Y37942858D02*
X40678571Y37942858D01*
X40678571Y38300000D01*
X40750000Y38514286D01*
X40892857Y38657143D01*
X41035714Y38728572D01*
X41321428Y38800000D01*
X41535714Y38800000D01*
X41821428Y38728572D01*
X41964285Y38657143D01*
X42107142Y38514286D01*
X42178571Y38300000D01*
X42178571Y37942858D01*
X40678571Y40157143D02*
X40678571Y39442858D01*
X41392857Y39371429D01*
X41321428Y39442858D01*
X41250000Y39585715D01*
X41250000Y39942858D01*
X41321428Y40085715D01*
X41392857Y40157143D01*
X41535714Y40228572D01*
X41892857Y40228572D01*
X42035714Y40157143D01*
X42107142Y40085715D01*
X42178571Y39942858D01*
X42178571Y39585715D01*
X42107142Y39442858D01*
X42035714Y39371429D01*
X32507142Y41471429D02*
X31792857Y41471429D01*
X31792857Y42971429D01*
X33721428Y41471429D02*
X33007142Y41471429D01*
X33007142Y42971429D01*
X34221428Y42042858D02*
X35364285Y42042858D01*
X35935714Y42971429D02*
X36864285Y42971429D01*
X36364285Y42400000D01*
X36578571Y42400000D01*
X36721428Y42328572D01*
X36792857Y42257143D01*
X36864285Y42114286D01*
X36864285Y41757143D01*
X36792857Y41614286D01*
X36721428Y41542858D01*
X36578571Y41471429D01*
X36150000Y41471429D01*
X36007142Y41542858D01*
X35935714Y41614286D01*
X37292857Y42971429D02*
X37792857Y41471429D01*
X38292857Y42971429D01*
X38650000Y42971429D02*
X39578571Y42971429D01*
X39078571Y42400000D01*
X39292857Y42400000D01*
X39435714Y42328572D01*
X39507142Y42257143D01*
X39578571Y42114286D01*
X39578571Y41757143D01*
X39507142Y41614286D01*
X39435714Y41542858D01*
X39292857Y41471429D01*
X38864285Y41471429D01*
X38721428Y41542858D01*
X38650000Y41614286D01*
X6311428Y44314286D02*
X6311428Y45028572D01*
X7811428Y45028572D01*
X6311428Y43600000D02*
X6382857Y43742858D01*
X6454285Y43814286D01*
X6597142Y43885715D01*
X7025714Y43885715D01*
X7168571Y43814286D01*
X7240000Y43742858D01*
X7311428Y43600000D01*
X7311428Y43385715D01*
X7240000Y43242858D01*
X7168571Y43171429D01*
X7025714Y43100000D01*
X6597142Y43100000D01*
X6454285Y43171429D01*
X6382857Y43242858D01*
X6311428Y43385715D01*
X6311428Y43600000D01*
X6311428Y41600000D02*
X7025714Y42100000D01*
X6311428Y42457143D02*
X7811428Y42457143D01*
X7811428Y41885715D01*
X7740000Y41742858D01*
X7668571Y41671429D01*
X7525714Y41600000D01*
X7311428Y41600000D01*
X7168571Y41671429D01*
X7097142Y41742858D01*
X7025714Y41885715D01*
X7025714Y42457143D01*
X6311428Y40314286D02*
X7097142Y40314286D01*
X7240000Y40385715D01*
X7311428Y40528572D01*
X7311428Y40814286D01*
X7240000Y40957143D01*
X6382857Y40314286D02*
X6311428Y40457143D01*
X6311428Y40814286D01*
X6382857Y40957143D01*
X6525714Y41028572D01*
X6668571Y41028572D01*
X6811428Y40957143D01*
X6882857Y40814286D01*
X6882857Y40457143D01*
X6954285Y40314286D01*
X6382857Y39671429D02*
X6311428Y39457143D01*
X6311428Y39100000D01*
X6382857Y38957143D01*
X6454285Y38885715D01*
X6597142Y38814286D01*
X6740000Y38814286D01*
X6882857Y38885715D01*
X6954285Y38957143D01*
X7025714Y39100000D01*
X7097142Y39385715D01*
X7168571Y39528572D01*
X7240000Y39600000D01*
X7382857Y39671429D01*
X7525714Y39671429D01*
X7668571Y39600000D01*
X7740000Y39528572D01*
X7811428Y39385715D01*
X7811428Y39028572D01*
X7740000Y38814286D01*
X6311428Y38171429D02*
X7811428Y38171429D01*
X6311428Y37528572D02*
X7097142Y37528572D01*
X7240000Y37600000D01*
X7311428Y37742858D01*
X7311428Y37957143D01*
X7240000Y38100000D01*
X7168571Y38171429D01*
X6311428Y36814286D02*
X7311428Y36814286D01*
X7811428Y36814286D02*
X7740000Y36885715D01*
X7668571Y36814286D01*
X7740000Y36742858D01*
X7811428Y36814286D01*
X7668571Y36814286D01*
X6382857Y35528572D02*
X6311428Y35671429D01*
X6311428Y35957143D01*
X6382857Y36100000D01*
X6525714Y36171429D01*
X7097142Y36171429D01*
X7240000Y36100000D01*
X7311428Y35957143D01*
X7311428Y35671429D01*
X7240000Y35528572D01*
X7097142Y35457143D01*
X6954285Y35457143D01*
X6811428Y36171429D01*
X6311428Y34600000D02*
X6382857Y34742858D01*
X6525714Y34814286D01*
X7811428Y34814286D01*
X6311428Y33385715D02*
X7811428Y33385715D01*
X6382857Y33385715D02*
X6311428Y33528572D01*
X6311428Y33814286D01*
X6382857Y33957143D01*
X6454285Y34028572D01*
X6597142Y34100000D01*
X7025714Y34100000D01*
X7168571Y34028572D01*
X7240000Y33957143D01*
X7311428Y33814286D01*
X7311428Y33528572D01*
X7240000Y33385715D01*
X7311428Y31671429D02*
X6311428Y31314286D01*
X7311428Y30957143D01*
X7668571Y30457143D02*
X7740000Y30385715D01*
X7811428Y30242858D01*
X7811428Y29885715D01*
X7740000Y29742858D01*
X7668571Y29671429D01*
X7525714Y29600000D01*
X7382857Y29600000D01*
X7168571Y29671429D01*
X6311428Y30528572D01*
X6311428Y29600000D01*
X3761428Y44992858D02*
X5261428Y44992858D01*
X4761428Y44278572D02*
X3761428Y44278572D01*
X4618571Y44278572D02*
X4690000Y44207143D01*
X4761428Y44064286D01*
X4761428Y43850000D01*
X4690000Y43707143D01*
X4547142Y43635715D01*
X3761428Y43635715D01*
X3761428Y42278572D02*
X5261428Y42278572D01*
X3832857Y42278572D02*
X3761428Y42421429D01*
X3761428Y42707143D01*
X3832857Y42850000D01*
X3904285Y42921429D01*
X4047142Y42992858D01*
X4475714Y42992858D01*
X4618571Y42921429D01*
X4690000Y42850000D01*
X4761428Y42707143D01*
X4761428Y42421429D01*
X4690000Y42278572D01*
X4761428Y40921429D02*
X3761428Y40921429D01*
X4761428Y41564286D02*
X3975714Y41564286D01*
X3832857Y41492858D01*
X3761428Y41350000D01*
X3761428Y41135715D01*
X3832857Y40992858D01*
X3904285Y40921429D01*
X3832857Y39564286D02*
X3761428Y39707143D01*
X3761428Y39992858D01*
X3832857Y40135715D01*
X3904285Y40207143D01*
X4047142Y40278572D01*
X4475714Y40278572D01*
X4618571Y40207143D01*
X4690000Y40135715D01*
X4761428Y39992858D01*
X4761428Y39707143D01*
X4690000Y39564286D01*
X4761428Y39135715D02*
X4761428Y38564286D01*
X5261428Y38921429D02*
X3975714Y38921429D01*
X3832857Y38850000D01*
X3761428Y38707143D01*
X3761428Y38564286D01*
X3761428Y38064286D02*
X4761428Y38064286D01*
X5261428Y38064286D02*
X5190000Y38135715D01*
X5118571Y38064286D01*
X5190000Y37992858D01*
X5261428Y38064286D01*
X5118571Y38064286D01*
X4761428Y37492858D02*
X3761428Y37135715D01*
X4761428Y36778572D01*
X3832857Y35635715D02*
X3761428Y35778572D01*
X3761428Y36064286D01*
X3832857Y36207143D01*
X3975714Y36278572D01*
X4547142Y36278572D01*
X4690000Y36207143D01*
X4761428Y36064286D01*
X4761428Y35778572D01*
X4690000Y35635715D01*
X4547142Y35564286D01*
X4404285Y35564286D01*
X4261428Y36278572D01*
X5261428Y33992858D02*
X5261428Y33135715D01*
X3761428Y33564286D02*
X5261428Y33564286D01*
X4761428Y32778572D02*
X3761428Y32492858D01*
X4475714Y32207143D01*
X3761428Y31921429D01*
X4761428Y31635715D01*
X3761428Y31064286D02*
X4761428Y31064286D01*
X5261428Y31064286D02*
X5190000Y31135715D01*
X5118571Y31064286D01*
X5190000Y30992858D01*
X5261428Y31064286D01*
X5118571Y31064286D01*
X4761428Y29707143D02*
X3547142Y29707143D01*
X3404285Y29778572D01*
X3332857Y29850000D01*
X3261428Y29992858D01*
X3261428Y30207143D01*
X3332857Y30350000D01*
X3832857Y29707143D02*
X3761428Y29850000D01*
X3761428Y30135715D01*
X3832857Y30278572D01*
X3904285Y30350000D01*
X4047142Y30421429D01*
X4475714Y30421429D01*
X4618571Y30350000D01*
X4690000Y30278572D01*
X4761428Y30135715D01*
X4761428Y29850000D01*
X4690000Y29707143D01*
X2568571Y39921429D02*
X2640000Y39850000D01*
X2711428Y39707143D01*
X2711428Y39350000D01*
X2640000Y39207143D01*
X2568571Y39135715D01*
X2425714Y39064286D01*
X2282857Y39064286D01*
X2068571Y39135715D01*
X1211428Y39992858D01*
X1211428Y39064286D01*
X2711428Y38135715D02*
X2711428Y37992858D01*
X2640000Y37850000D01*
X2568571Y37778572D01*
X2425714Y37707143D01*
X2140000Y37635715D01*
X1782857Y37635715D01*
X1497142Y37707143D01*
X1354285Y37778572D01*
X1282857Y37850000D01*
X1211428Y37992858D01*
X1211428Y38135715D01*
X1282857Y38278572D01*
X1354285Y38350000D01*
X1497142Y38421429D01*
X1782857Y38492858D01*
X2140000Y38492858D01*
X2425714Y38421429D01*
X2568571Y38350000D01*
X2640000Y38278572D01*
X2711428Y38135715D01*
X1211428Y36207143D02*
X1211428Y37064286D01*
X1211428Y36635715D02*
X2711428Y36635715D01*
X2497142Y36778572D01*
X2354285Y36921429D01*
X2282857Y37064286D01*
X1211428Y35492858D02*
X1211428Y35207143D01*
X1282857Y35064286D01*
X1354285Y34992858D01*
X1568571Y34850000D01*
X1854285Y34778572D01*
X2425714Y34778572D01*
X2568571Y34850000D01*
X2640000Y34921429D01*
X2711428Y35064286D01*
X2711428Y35350000D01*
X2640000Y35492858D01*
X2568571Y35564286D01*
X2425714Y35635715D01*
X2068571Y35635715D01*
X1925714Y35564286D01*
X1854285Y35492858D01*
X1782857Y35350000D01*
X1782857Y35064286D01*
X1854285Y34921429D01*
X1925714Y34850000D01*
X2068571Y34778572D01*
D11*
X25742000Y15815000D02*
X63242000Y15815000D01*
X25742000Y33815000D02*
X25742000Y15815000D01*
X63242000Y33815000D02*
X25742000Y33815000D01*
X63242000Y15815000D02*
X63242000Y33815000D01*
D12*
X58425000Y8200000D02*
X57725000Y8200000D01*
X57725000Y9400000D02*
X58425000Y9400000D01*
X58425000Y9900000D02*
X57725000Y9900000D01*
X57725000Y11100000D02*
X58425000Y11100000D01*
X58425000Y11650000D02*
X57725000Y11650000D01*
X57725000Y12850000D02*
X58425000Y12850000D01*
X59360000Y36790000D02*
X60060000Y36790000D01*
X60060000Y35590000D02*
X59360000Y35590000D01*
X59360000Y41190000D02*
X60060000Y41190000D01*
X60060000Y39990000D02*
X59360000Y39990000D01*
X59780000Y37920000D02*
X59780000Y38920000D01*
X61140000Y38920000D02*
X61140000Y37920000D01*
X24380000Y32920000D02*
X24380000Y32220000D01*
X23180000Y32220000D02*
X23180000Y32920000D01*
X21400000Y38665000D02*
X20700000Y38665000D01*
X20700000Y39865000D02*
X21400000Y39865000D01*
X17800000Y43615000D02*
X17800000Y42915000D01*
X16600000Y42915000D02*
X16600000Y43615000D01*
X4652000Y12730000D02*
X4652000Y7530000D01*
X52972000Y12730000D02*
X4652000Y12730000D01*
X55572000Y7530000D02*
X4652000Y7530000D01*
X52972000Y12730000D02*
X52972000Y10130000D01*
X52972000Y10130000D02*
X55572000Y10130000D01*
X55572000Y10130000D02*
X55572000Y7530000D01*
X54242000Y12730000D02*
X55572000Y12730000D01*
X55572000Y12730000D02*
X55572000Y11400000D01*
X22342000Y43765000D02*
X22342000Y41765000D01*
X18142000Y43765000D02*
X18142000Y41265000D01*
X30300000Y38665000D02*
X29600000Y38665000D01*
X29600000Y39865000D02*
X30300000Y39865000D01*
X26800000Y43615000D02*
X26800000Y42915000D01*
X25600000Y42915000D02*
X25600000Y43615000D01*
X61140000Y43310000D02*
X61140000Y42310000D01*
X59780000Y42310000D02*
X59780000Y43310000D01*
X31342000Y43765000D02*
X31342000Y41765000D01*
X27142000Y43765000D02*
X27142000Y41265000D01*
X55480000Y40820000D02*
X55480000Y46020000D01*
X42720000Y40820000D02*
X55480000Y40820000D01*
X40120000Y46020000D02*
X55480000Y46020000D01*
X42720000Y40820000D02*
X42720000Y43420000D01*
X42720000Y43420000D02*
X40120000Y43420000D01*
X40120000Y43420000D02*
X40120000Y46020000D01*
X41450000Y40820000D02*
X40120000Y40820000D01*
X40120000Y40820000D02*
X40120000Y42150000D01*
X3525001Y4820000D02*
X5625001Y4820000D01*
X3525001Y3680000D02*
X5625001Y3680000D01*
X3525001Y4820000D02*
X3525001Y3680000D01*
X6900000Y1570000D02*
X5900000Y1570000D01*
X5900000Y2930000D02*
X6900000Y2930000D01*
X21720000Y31310000D02*
X22220000Y31310000D01*
X22220000Y32370000D02*
X21720000Y32370000D01*
X17470000Y16680000D02*
X17470000Y15350000D01*
X16140000Y16680000D02*
X17470000Y16680000D01*
X14870000Y16680000D02*
X14870000Y14020000D01*
X14870000Y14020000D02*
X7190000Y14020000D01*
X14870000Y16680000D02*
X7190000Y16680000D01*
X7190000Y16680000D02*
X7190000Y14020000D01*
X18500000Y15750000D02*
X18500000Y16450000D01*
X19700000Y16450000D02*
X19700000Y15750000D01*
X12500000Y41380000D02*
X12000000Y41380000D01*
X12000000Y40320000D02*
X12500000Y40320000D01*
D13*
X61480095Y15362620D02*
X61480095Y14553096D01*
X61527714Y14457858D01*
X61575333Y14410239D01*
X61670571Y14362620D01*
X61861047Y14362620D01*
X61956285Y14410239D01*
X62003904Y14457858D01*
X62051523Y14553096D01*
X62051523Y15362620D01*
X63051523Y14362620D02*
X62480095Y14362620D01*
X62765809Y14362620D02*
X62765809Y15362620D01*
X62670571Y15219762D01*
X62575333Y15124524D01*
X62480095Y15076905D01*
X60258333Y8442858D02*
X60210714Y8395239D01*
X60067857Y8347620D01*
X59972619Y8347620D01*
X59829761Y8395239D01*
X59734523Y8490477D01*
X59686904Y8585715D01*
X59639285Y8776191D01*
X59639285Y8919048D01*
X59686904Y9109524D01*
X59734523Y9204762D01*
X59829761Y9300000D01*
X59972619Y9347620D01*
X60067857Y9347620D01*
X60210714Y9300000D01*
X60258333Y9252381D01*
X61210714Y8347620D02*
X60639285Y8347620D01*
X60925000Y8347620D02*
X60925000Y9347620D01*
X60829761Y9204762D01*
X60734523Y9109524D01*
X60639285Y9061905D01*
X60258333Y10142858D02*
X60210714Y10095239D01*
X60067857Y10047620D01*
X59972619Y10047620D01*
X59829761Y10095239D01*
X59734523Y10190477D01*
X59686904Y10285715D01*
X59639285Y10476191D01*
X59639285Y10619048D01*
X59686904Y10809524D01*
X59734523Y10904762D01*
X59829761Y11000000D01*
X59972619Y11047620D01*
X60067857Y11047620D01*
X60210714Y11000000D01*
X60258333Y10952381D01*
X60639285Y10952381D02*
X60686904Y11000000D01*
X60782142Y11047620D01*
X61020238Y11047620D01*
X61115476Y11000000D01*
X61163095Y10952381D01*
X61210714Y10857143D01*
X61210714Y10761905D01*
X61163095Y10619048D01*
X60591666Y10047620D01*
X61210714Y10047620D01*
X60258333Y11842858D02*
X60210714Y11795239D01*
X60067857Y11747620D01*
X59972619Y11747620D01*
X59829761Y11795239D01*
X59734523Y11890477D01*
X59686904Y11985715D01*
X59639285Y12176191D01*
X59639285Y12319048D01*
X59686904Y12509524D01*
X59734523Y12604762D01*
X59829761Y12700000D01*
X59972619Y12747620D01*
X60067857Y12747620D01*
X60210714Y12700000D01*
X60258333Y12652381D01*
X60591666Y12747620D02*
X61210714Y12747620D01*
X60877380Y12366667D01*
X61020238Y12366667D01*
X61115476Y12319048D01*
X61163095Y12271429D01*
X61210714Y12176191D01*
X61210714Y11938096D01*
X61163095Y11842858D01*
X61115476Y11795239D01*
X61020238Y11747620D01*
X60734523Y11747620D01*
X60639285Y11795239D01*
X60591666Y11842858D01*
X65166666Y47547620D02*
X65166666Y46833334D01*
X65119047Y46690477D01*
X65023809Y46595239D01*
X64880952Y46547620D01*
X64785714Y46547620D01*
X66166666Y46547620D02*
X65595238Y46547620D01*
X65880952Y46547620D02*
X65880952Y47547620D01*
X65785714Y47404762D01*
X65690476Y47309524D01*
X65595238Y47261905D01*
X61943333Y35882858D02*
X61895714Y35835239D01*
X61752857Y35787620D01*
X61657619Y35787620D01*
X61514761Y35835239D01*
X61419523Y35930477D01*
X61371904Y36025715D01*
X61324285Y36216191D01*
X61324285Y36359048D01*
X61371904Y36549524D01*
X61419523Y36644762D01*
X61514761Y36740000D01*
X61657619Y36787620D01*
X61752857Y36787620D01*
X61895714Y36740000D01*
X61943333Y36692381D01*
X62800476Y36454286D02*
X62800476Y35787620D01*
X62562380Y36835239D02*
X62324285Y36120953D01*
X62943333Y36120953D01*
X62043333Y40132858D02*
X61995714Y40085239D01*
X61852857Y40037620D01*
X61757619Y40037620D01*
X61614761Y40085239D01*
X61519523Y40180477D01*
X61471904Y40275715D01*
X61424285Y40466191D01*
X61424285Y40609048D01*
X61471904Y40799524D01*
X61519523Y40894762D01*
X61614761Y40990000D01*
X61757619Y41037620D01*
X61852857Y41037620D01*
X61995714Y40990000D01*
X62043333Y40942381D01*
X62948095Y41037620D02*
X62471904Y41037620D01*
X62424285Y40561429D01*
X62471904Y40609048D01*
X62567142Y40656667D01*
X62805238Y40656667D01*
X62900476Y40609048D01*
X62948095Y40561429D01*
X62995714Y40466191D01*
X62995714Y40228096D01*
X62948095Y40132858D01*
X62900476Y40085239D01*
X62805238Y40037620D01*
X62567142Y40037620D01*
X62471904Y40085239D01*
X62424285Y40132858D01*
X62512380Y38253334D02*
X62512380Y37777143D01*
X61512380Y37777143D01*
X61607619Y38539048D02*
X61560000Y38586667D01*
X61512380Y38681905D01*
X61512380Y38920000D01*
X61560000Y39015239D01*
X61607619Y39062858D01*
X61702857Y39110477D01*
X61798095Y39110477D01*
X61940952Y39062858D01*
X62512380Y38491429D01*
X62512380Y39110477D01*
X24137142Y29853334D02*
X24184761Y29805715D01*
X24232380Y29662858D01*
X24232380Y29567620D01*
X24184761Y29424762D01*
X24089523Y29329524D01*
X23994285Y29281905D01*
X23803809Y29234286D01*
X23660952Y29234286D01*
X23470476Y29281905D01*
X23375238Y29329524D01*
X23280000Y29424762D01*
X23232380Y29567620D01*
X23232380Y29662858D01*
X23280000Y29805715D01*
X23327619Y29853334D01*
X23232380Y30710477D02*
X23232380Y30520000D01*
X23280000Y30424762D01*
X23327619Y30377143D01*
X23470476Y30281905D01*
X23660952Y30234286D01*
X24041904Y30234286D01*
X24137142Y30281905D01*
X24184761Y30329524D01*
X24232380Y30424762D01*
X24232380Y30615239D01*
X24184761Y30710477D01*
X24137142Y30758096D01*
X24041904Y30805715D01*
X23803809Y30805715D01*
X23708571Y30758096D01*
X23660952Y30710477D01*
X23613333Y30615239D01*
X23613333Y30424762D01*
X23660952Y30329524D01*
X23708571Y30281905D01*
X23803809Y30234286D01*
X23333333Y38892858D02*
X23285714Y38845239D01*
X23142857Y38797620D01*
X23047619Y38797620D01*
X22904761Y38845239D01*
X22809523Y38940477D01*
X22761904Y39035715D01*
X22714285Y39226191D01*
X22714285Y39369048D01*
X22761904Y39559524D01*
X22809523Y39654762D01*
X22904761Y39750000D01*
X23047619Y39797620D01*
X23142857Y39797620D01*
X23285714Y39750000D01*
X23333333Y39702381D01*
X23666666Y39797620D02*
X24333333Y39797620D01*
X23904761Y38797620D01*
X16057142Y43098334D02*
X16104761Y43050715D01*
X16152380Y42907858D01*
X16152380Y42812620D01*
X16104761Y42669762D01*
X16009523Y42574524D01*
X15914285Y42526905D01*
X15723809Y42479286D01*
X15580952Y42479286D01*
X15390476Y42526905D01*
X15295238Y42574524D01*
X15200000Y42669762D01*
X15152380Y42812620D01*
X15152380Y42907858D01*
X15200000Y43050715D01*
X15247619Y43098334D01*
X15580952Y43669762D02*
X15533333Y43574524D01*
X15485714Y43526905D01*
X15390476Y43479286D01*
X15342857Y43479286D01*
X15247619Y43526905D01*
X15200000Y43574524D01*
X15152380Y43669762D01*
X15152380Y43860239D01*
X15200000Y43955477D01*
X15247619Y44003096D01*
X15342857Y44050715D01*
X15390476Y44050715D01*
X15485714Y44003096D01*
X15533333Y43955477D01*
X15580952Y43860239D01*
X15580952Y43669762D01*
X15628571Y43574524D01*
X15676190Y43526905D01*
X15771428Y43479286D01*
X15961904Y43479286D01*
X16057142Y43526905D01*
X16104761Y43574524D01*
X16152380Y43669762D01*
X16152380Y43860239D01*
X16104761Y43955477D01*
X16057142Y44003096D01*
X15961904Y44050715D01*
X15771428Y44050715D01*
X15676190Y44003096D01*
X15628571Y43955477D01*
X15580952Y43860239D01*
X53836666Y14197620D02*
X53836666Y13483334D01*
X53789047Y13340477D01*
X53693809Y13245239D01*
X53550952Y13197620D01*
X53455714Y13197620D01*
X54265238Y14102381D02*
X54312857Y14150000D01*
X54408095Y14197620D01*
X54646190Y14197620D01*
X54741428Y14150000D01*
X54789047Y14102381D01*
X54836666Y14007143D01*
X54836666Y13911905D01*
X54789047Y13769048D01*
X54217619Y13197620D01*
X54836666Y13197620D01*
X22802380Y41788096D02*
X23611904Y41788096D01*
X23707142Y41835715D01*
X23754761Y41883334D01*
X23802380Y41978572D01*
X23802380Y42169048D01*
X23754761Y42264286D01*
X23707142Y42311905D01*
X23611904Y42359524D01*
X22802380Y42359524D01*
X22897619Y42788096D02*
X22850000Y42835715D01*
X22802380Y42930953D01*
X22802380Y43169048D01*
X22850000Y43264286D01*
X22897619Y43311905D01*
X22992857Y43359524D01*
X23088095Y43359524D01*
X23230952Y43311905D01*
X23802380Y42740477D01*
X23802380Y43359524D01*
X32283333Y38942858D02*
X32235714Y38895239D01*
X32092857Y38847620D01*
X31997619Y38847620D01*
X31854761Y38895239D01*
X31759523Y38990477D01*
X31711904Y39085715D01*
X31664285Y39276191D01*
X31664285Y39419048D01*
X31711904Y39609524D01*
X31759523Y39704762D01*
X31854761Y39800000D01*
X31997619Y39847620D01*
X32092857Y39847620D01*
X32235714Y39800000D01*
X32283333Y39752381D01*
X32759523Y38847620D02*
X32950000Y38847620D01*
X33045238Y38895239D01*
X33092857Y38942858D01*
X33188095Y39085715D01*
X33235714Y39276191D01*
X33235714Y39657143D01*
X33188095Y39752381D01*
X33140476Y39800000D01*
X33045238Y39847620D01*
X32854761Y39847620D01*
X32759523Y39800000D01*
X32711904Y39752381D01*
X32664285Y39657143D01*
X32664285Y39419048D01*
X32711904Y39323810D01*
X32759523Y39276191D01*
X32854761Y39228572D01*
X33045238Y39228572D01*
X33140476Y39276191D01*
X33188095Y39323810D01*
X33235714Y39419048D01*
X25057142Y42622143D02*
X25104761Y42574524D01*
X25152380Y42431667D01*
X25152380Y42336429D01*
X25104761Y42193572D01*
X25009523Y42098334D01*
X24914285Y42050715D01*
X24723809Y42003096D01*
X24580952Y42003096D01*
X24390476Y42050715D01*
X24295238Y42098334D01*
X24200000Y42193572D01*
X24152380Y42336429D01*
X24152380Y42431667D01*
X24200000Y42574524D01*
X24247619Y42622143D01*
X25152380Y43574524D02*
X25152380Y43003096D01*
X25152380Y43288810D02*
X24152380Y43288810D01*
X24295238Y43193572D01*
X24390476Y43098334D01*
X24438095Y43003096D01*
X24152380Y44193572D02*
X24152380Y44288810D01*
X24200000Y44384048D01*
X24247619Y44431667D01*
X24342857Y44479286D01*
X24533333Y44526905D01*
X24771428Y44526905D01*
X24961904Y44479286D01*
X25057142Y44431667D01*
X25104761Y44384048D01*
X25152380Y44288810D01*
X25152380Y44193572D01*
X25104761Y44098334D01*
X25057142Y44050715D01*
X24961904Y44003096D01*
X24771428Y43955477D01*
X24533333Y43955477D01*
X24342857Y44003096D01*
X24247619Y44050715D01*
X24200000Y44098334D01*
X24152380Y44193572D01*
X62362380Y43243334D02*
X61886190Y42910000D01*
X62362380Y42671905D02*
X61362380Y42671905D01*
X61362380Y43052858D01*
X61410000Y43148096D01*
X61457619Y43195715D01*
X61552857Y43243334D01*
X61695714Y43243334D01*
X61790952Y43195715D01*
X61838571Y43148096D01*
X61886190Y43052858D01*
X61886190Y42671905D01*
X62362380Y44195715D02*
X62362380Y43624286D01*
X62362380Y43910000D02*
X61362380Y43910000D01*
X61505238Y43814762D01*
X61600476Y43719524D01*
X61648095Y43624286D01*
X28238095Y45847620D02*
X28238095Y45038096D01*
X28285714Y44942858D01*
X28333333Y44895239D01*
X28428571Y44847620D01*
X28619047Y44847620D01*
X28714285Y44895239D01*
X28761904Y44942858D01*
X28809523Y45038096D01*
X28809523Y45847620D01*
X29190476Y45847620D02*
X29809523Y45847620D01*
X29476190Y45466667D01*
X29619047Y45466667D01*
X29714285Y45419048D01*
X29761904Y45371429D01*
X29809523Y45276191D01*
X29809523Y45038096D01*
X29761904Y44942858D01*
X29714285Y44895239D01*
X29619047Y44847620D01*
X29333333Y44847620D01*
X29238095Y44895239D01*
X29190476Y44942858D01*
X56152380Y44416667D02*
X56866666Y44416667D01*
X57009523Y44369048D01*
X57104761Y44273810D01*
X57152380Y44130953D01*
X57152380Y44035715D01*
X56152380Y44797620D02*
X56152380Y45416667D01*
X56533333Y45083334D01*
X56533333Y45226191D01*
X56580952Y45321429D01*
X56628571Y45369048D01*
X56723809Y45416667D01*
X56961904Y45416667D01*
X57057142Y45369048D01*
X57104761Y45321429D01*
X57152380Y45226191D01*
X57152380Y44940477D01*
X57104761Y44845239D01*
X57057142Y44797620D01*
X3936904Y5072620D02*
X3936904Y6072620D01*
X4175000Y6072620D01*
X4317857Y6025000D01*
X4413095Y5929762D01*
X4460714Y5834524D01*
X4508333Y5644048D01*
X4508333Y5501191D01*
X4460714Y5310715D01*
X4413095Y5215477D01*
X4317857Y5120239D01*
X4175000Y5072620D01*
X3936904Y5072620D01*
X5460714Y5072620D02*
X4889285Y5072620D01*
X5175000Y5072620D02*
X5175000Y6072620D01*
X5079761Y5929762D01*
X4984523Y5834524D01*
X4889285Y5786905D01*
X8483333Y947620D02*
X8150000Y1423810D01*
X7911904Y947620D02*
X7911904Y1947620D01*
X8292857Y1947620D01*
X8388095Y1900000D01*
X8435714Y1852381D01*
X8483333Y1757143D01*
X8483333Y1614286D01*
X8435714Y1519048D01*
X8388095Y1471429D01*
X8292857Y1423810D01*
X7911904Y1423810D01*
X8864285Y1852381D02*
X8911904Y1900000D01*
X9007142Y1947620D01*
X9245238Y1947620D01*
X9340476Y1900000D01*
X9388095Y1852381D01*
X9435714Y1757143D01*
X9435714Y1661905D01*
X9388095Y1519048D01*
X8816666Y947620D01*
X9435714Y947620D01*
X21803333Y30037620D02*
X21470000Y30513810D01*
X21231904Y30037620D02*
X21231904Y31037620D01*
X21612857Y31037620D01*
X21708095Y30990000D01*
X21755714Y30942381D01*
X21803333Y30847143D01*
X21803333Y30704286D01*
X21755714Y30609048D01*
X21708095Y30561429D01*
X21612857Y30513810D01*
X21231904Y30513810D01*
X22136666Y31037620D02*
X22755714Y31037620D01*
X22422380Y30656667D01*
X22565238Y30656667D01*
X22660476Y30609048D01*
X22708095Y30561429D01*
X22755714Y30466191D01*
X22755714Y30228096D01*
X22708095Y30132858D01*
X22660476Y30085239D01*
X22565238Y30037620D01*
X22279523Y30037620D01*
X22184285Y30085239D01*
X22136666Y30132858D01*
X5552380Y14966667D02*
X6266666Y14966667D01*
X6409523Y14919048D01*
X6504761Y14823810D01*
X6552380Y14680953D01*
X6552380Y14585715D01*
X5885714Y15871429D02*
X6552380Y15871429D01*
X5504761Y15633334D02*
X6219047Y15395239D01*
X6219047Y16014286D01*
X18357142Y17742858D02*
X18309523Y17695239D01*
X18166666Y17647620D01*
X18071428Y17647620D01*
X17928571Y17695239D01*
X17833333Y17790477D01*
X17785714Y17885715D01*
X17738095Y18076191D01*
X17738095Y18219048D01*
X17785714Y18409524D01*
X17833333Y18504762D01*
X17928571Y18600000D01*
X18071428Y18647620D01*
X18166666Y18647620D01*
X18309523Y18600000D01*
X18357142Y18552381D01*
X19309523Y17647620D02*
X18738095Y17647620D01*
X19023809Y17647620D02*
X19023809Y18647620D01*
X18928571Y18504762D01*
X18833333Y18409524D01*
X18738095Y18361905D01*
X20261904Y17647620D02*
X19690476Y17647620D01*
X19976190Y17647620D02*
X19976190Y18647620D01*
X19880952Y18504762D01*
X19785714Y18409524D01*
X19690476Y18361905D01*
X12083333Y39047620D02*
X11750000Y39523810D01*
X11511904Y39047620D02*
X11511904Y40047620D01*
X11892857Y40047620D01*
X11988095Y40000000D01*
X12035714Y39952381D01*
X12083333Y39857143D01*
X12083333Y39714286D01*
X12035714Y39619048D01*
X11988095Y39571429D01*
X11892857Y39523810D01*
X11511904Y39523810D01*
X12988095Y40047620D02*
X12511904Y40047620D01*
X12464285Y39571429D01*
X12511904Y39619048D01*
X12607142Y39666667D01*
X12845238Y39666667D01*
X12940476Y39619048D01*
X12988095Y39571429D01*
X13035714Y39476191D01*
X13035714Y39238096D01*
X12988095Y39142858D01*
X12940476Y39095239D01*
X12845238Y39047620D01*
X12607142Y39047620D01*
X12511904Y39095239D01*
X12464285Y39142858D01*
%LPC*%
D14*
X18936000Y50928000D03*
X21476000Y50928000D03*
D15*
X28076000Y2668000D03*
D14*
X58556000Y50928000D03*
X30616000Y2668000D03*
X56016000Y50928000D03*
X33156000Y2668000D03*
X53476000Y50928000D03*
X35696000Y2668000D03*
X50936000Y50928000D03*
X38236000Y2668000D03*
X48396000Y50928000D03*
X40776000Y2668000D03*
X45856000Y50928000D03*
X43316000Y2668000D03*
X41796000Y50928000D03*
X45856000Y2668000D03*
X39256000Y50928000D03*
X50936000Y2668000D03*
X36716000Y50928000D03*
X53476000Y2668000D03*
X34176000Y50928000D03*
X56016000Y2668000D03*
X31636000Y50928000D03*
X58556000Y2668000D03*
X29096000Y50928000D03*
X61096000Y2668000D03*
X26556000Y50928000D03*
X63636000Y2668000D03*
X24016000Y50928000D03*
X63636000Y50928000D03*
X61096000Y50928000D03*
D16*
X14106000Y2668000D03*
X15376000Y50928000D03*
X66176000Y7748000D03*
D17*
X46692000Y26565000D03*
D18*
X27542000Y17815000D03*
X27542000Y19815000D03*
X27542000Y21815000D03*
X27542000Y23815000D03*
X27542000Y25815000D03*
X27542000Y27815000D03*
X27542000Y29815000D03*
X27542000Y31815000D03*
X61242000Y31815000D03*
X61242000Y29815000D03*
X61242000Y27815000D03*
X61242000Y25815000D03*
X61242000Y23815000D03*
X61242000Y21815000D03*
X61242000Y19815000D03*
X61242000Y17815000D03*
D19*
X58825000Y8800000D03*
X57325000Y8800000D03*
X58825000Y10500000D03*
X57325000Y10500000D03*
X58825000Y12250000D03*
X57325000Y12250000D03*
D20*
X66500000Y39288000D03*
X66500000Y44812000D03*
D21*
X66500000Y42050000D03*
D19*
X58960000Y36190000D03*
X60460000Y36190000D03*
X58960000Y40590000D03*
X60460000Y40590000D03*
D22*
X60460000Y39170000D03*
X60460000Y37670000D03*
D23*
X23780000Y33320000D03*
X23780000Y31820000D03*
D19*
X21800000Y39265000D03*
X20300000Y39265000D03*
D23*
X17200000Y44015000D03*
X17200000Y42515000D03*
D24*
X54242000Y11400000D03*
D25*
X54242000Y8860000D03*
X51702000Y11400000D03*
X51702000Y8860000D03*
X49162000Y11400000D03*
X49162000Y8860000D03*
X46622000Y11400000D03*
X46622000Y8860000D03*
X44082000Y11400000D03*
X44082000Y8860000D03*
X41542000Y11400000D03*
X41542000Y8860000D03*
X39002000Y11400000D03*
X39002000Y8860000D03*
X36462000Y11400000D03*
X36462000Y8860000D03*
X33922000Y11400000D03*
X33922000Y8860000D03*
X31382000Y11400000D03*
X31382000Y8860000D03*
X28842000Y11400000D03*
X28842000Y8860000D03*
X26302000Y11400000D03*
X26302000Y8860000D03*
X23762000Y11400000D03*
X23762000Y8860000D03*
X21222000Y11400000D03*
X21222000Y8860000D03*
X18682000Y11400000D03*
X18682000Y8860000D03*
X16142000Y11400000D03*
X16142000Y8860000D03*
X13602000Y11400000D03*
X13602000Y8860000D03*
X11062000Y11400000D03*
X11062000Y8860000D03*
X8522000Y11400000D03*
X8522000Y8860000D03*
X5982000Y11400000D03*
X5982000Y8860000D03*
D26*
X18442000Y41915000D03*
D27*
X18842000Y41865000D03*
X19242000Y41865000D03*
X19642000Y41865000D03*
X20042000Y41865000D03*
X20442000Y41865000D03*
X20842000Y41865000D03*
X21242000Y41865000D03*
X21642000Y41865000D03*
X22042000Y41865000D03*
X22042000Y43665000D03*
X21642000Y43665000D03*
X21242000Y43665000D03*
X20842000Y43665000D03*
X20442000Y43665000D03*
X20042000Y43665000D03*
X19642000Y43665000D03*
X19242000Y43665000D03*
X18842000Y43665000D03*
X18442000Y43665000D03*
D19*
X30700000Y39265000D03*
X29200000Y39265000D03*
D23*
X26200000Y44015000D03*
X26200000Y42515000D03*
D22*
X60460000Y42060000D03*
X60460000Y43560000D03*
D26*
X27442000Y41915000D03*
D27*
X27842000Y41865000D03*
X28242000Y41865000D03*
X28642000Y41865000D03*
X29042000Y41865000D03*
X29442000Y41865000D03*
X29842000Y41865000D03*
X30242000Y41865000D03*
X30642000Y41865000D03*
X31042000Y41865000D03*
X31042000Y43665000D03*
X30642000Y43665000D03*
X30242000Y43665000D03*
X29842000Y43665000D03*
X29442000Y43665000D03*
X29042000Y43665000D03*
X28642000Y43665000D03*
X28242000Y43665000D03*
X27842000Y43665000D03*
X27442000Y43665000D03*
D24*
X41450000Y42150000D03*
D25*
X41450000Y44690000D03*
X43990000Y42150000D03*
X43990000Y44690000D03*
X46530000Y42150000D03*
X46530000Y44690000D03*
X49070000Y42150000D03*
X49070000Y44690000D03*
X51610000Y42150000D03*
X51610000Y44690000D03*
X54150000Y42150000D03*
X54150000Y44690000D03*
D28*
X5675001Y4250000D03*
X3975001Y4250000D03*
D29*
X5650000Y2250000D03*
X7150000Y2250000D03*
D30*
X22420000Y31840000D03*
X21520000Y31840000D03*
D25*
X8520000Y15350000D03*
X11060000Y15350000D03*
X13600000Y15350000D03*
D24*
X16140000Y15350000D03*
D23*
X19100000Y15350000D03*
X19100000Y16850000D03*
D31*
X1742000Y51315000D03*
X66742000Y51315000D03*
X1742000Y8315000D03*
D30*
X11800000Y40850000D03*
X12700000Y40850000D03*
M02*
