G04 #@! TF.GenerationSoftware,KiCad,Pcbnew,(5.0.0)*
G04 #@! TF.CreationDate,2018-10-04T08:41:43-07:00*
G04 #@! TF.ProjectId,LoRaShield,4C6F5261536869656C642E6B69636164,rev?*
G04 #@! TF.SameCoordinates,PX69db1f0PY7882d48*
G04 #@! TF.FileFunction,Paste,Top*
G04 #@! TF.FilePolarity,Positive*
%FSLAX46Y46*%
G04 Gerber Fmt 4.6, Leading zero omitted, Abs format (unit mm)*
G04 Created by KiCad (PCBNEW (5.0.0)) date 10/04/18 08:41:43*
%MOMM*%
%LPD*%
G01*
G04 APERTURE LIST*
%ADD10R,13.000000X6.000000*%
%ADD11O,4.000000X1.200000*%
%ADD12R,0.750000X0.800000*%
%ADD13R,0.800000X0.750000*%
%ADD14R,0.500000X0.900000*%
%ADD15R,0.200000X1.100000*%
%ADD16R,0.200000X1.000000*%
%ADD17R,0.600000X0.800000*%
%ADD18R,0.600000X0.400000*%
G04 APERTURE END LIST*
D10*
G04 #@! TO.C,U1*
X34610000Y28100000D03*
D11*
X15460000Y19350000D03*
X15460000Y21350000D03*
X15460000Y23350000D03*
X15460000Y25350000D03*
X15460000Y27350000D03*
X15460000Y29350000D03*
X15460000Y31350000D03*
X15460000Y33350000D03*
X49160000Y33350000D03*
X49160000Y31350000D03*
X49160000Y29350000D03*
X49160000Y27350000D03*
X49160000Y25350000D03*
X49160000Y23350000D03*
X49160000Y21350000D03*
X49160000Y19350000D03*
G04 #@! TD*
D12*
G04 #@! TO.C,C1*
X56960000Y28850000D03*
X56960000Y27350000D03*
G04 #@! TD*
G04 #@! TO.C,C2*
X55260000Y28850000D03*
X55260000Y27350000D03*
G04 #@! TD*
G04 #@! TO.C,C3*
X53510000Y28850000D03*
X53510000Y27350000D03*
G04 #@! TD*
G04 #@! TO.C,C4*
X53610000Y17850000D03*
X53610000Y19350000D03*
G04 #@! TD*
D13*
G04 #@! TO.C,C5*
X62110000Y23000000D03*
X60610000Y23000000D03*
G04 #@! TD*
D14*
G04 #@! TO.C,L2*
X60610000Y19350000D03*
X59110000Y19350000D03*
G04 #@! TD*
D12*
G04 #@! TO.C,C6*
X11310000Y34850000D03*
X11310000Y33350000D03*
G04 #@! TD*
D13*
G04 #@! TO.C,C7*
X16560000Y39315000D03*
X15060000Y39315000D03*
G04 #@! TD*
D12*
G04 #@! TO.C,C8*
X11960000Y44065000D03*
X11960000Y42565000D03*
G04 #@! TD*
D15*
G04 #@! TO.C,U2*
X13202000Y41965000D03*
D16*
X13602000Y41915000D03*
X14002000Y41915000D03*
X14402000Y41915000D03*
X14802000Y41915000D03*
X15202000Y41915000D03*
X15602000Y41915000D03*
X16002000Y41915000D03*
X16402000Y41915000D03*
X16802000Y41915000D03*
X16802000Y43715000D03*
X16402000Y43715000D03*
X16002000Y43715000D03*
X15602000Y43715000D03*
X15202000Y43715000D03*
X14802000Y43715000D03*
X14402000Y43715000D03*
X14002000Y43715000D03*
X13602000Y43715000D03*
X13202000Y43715000D03*
G04 #@! TD*
D13*
G04 #@! TO.C,C9*
X30460000Y39315000D03*
X28960000Y39315000D03*
G04 #@! TD*
D12*
G04 #@! TO.C,C10*
X25960000Y44065000D03*
X25960000Y42565000D03*
G04 #@! TD*
D14*
G04 #@! TO.C,R1*
X60610000Y39550000D03*
X59110000Y39550000D03*
G04 #@! TD*
D15*
G04 #@! TO.C,U3*
X27202000Y41965000D03*
D16*
X27602000Y41915000D03*
X28002000Y41915000D03*
X28402000Y41915000D03*
X28802000Y41915000D03*
X29202000Y41915000D03*
X29602000Y41915000D03*
X30002000Y41915000D03*
X30402000Y41915000D03*
X30802000Y41915000D03*
X30802000Y43715000D03*
X30402000Y43715000D03*
X30002000Y43715000D03*
X29602000Y43715000D03*
X29202000Y43715000D03*
X28802000Y43715000D03*
X28402000Y43715000D03*
X28002000Y43715000D03*
X27602000Y43715000D03*
X27202000Y43715000D03*
G04 #@! TD*
D17*
G04 #@! TO.C,D1*
X7985001Y49500000D03*
X6285001Y49500000D03*
G04 #@! TD*
D14*
G04 #@! TO.C,R2*
X7960000Y47500000D03*
X9460000Y47500000D03*
G04 #@! TD*
D18*
G04 #@! TO.C,R3*
X15010000Y36850000D03*
X15010000Y37750000D03*
G04 #@! TD*
G04 #@! TO.C,R4*
X45610000Y15050000D03*
X45610000Y14150000D03*
G04 #@! TD*
M02*
