G04 #@! TF.GenerationSoftware,KiCad,Pcbnew,(5.0.0)*
G04 #@! TF.CreationDate,2018-10-04T08:41:43-07:00*
G04 #@! TF.ProjectId,LoRaShield,4C6F5261536869656C642E6B69636164,rev?*
G04 #@! TF.SameCoordinates,PX69db1f0PY7882d48*
G04 #@! TF.FileFunction,Soldermask,Bot*
G04 #@! TF.FilePolarity,Negative*
%FSLAX46Y46*%
G04 Gerber Fmt 4.6, Leading zero omitted, Abs format (unit mm)*
G04 Created by KiCad (PCBNEW (5.0.0)) date 10/04/18 08:41:43*
%MOMM*%
%LPD*%
G01*
G04 APERTURE LIST*
%ADD10C,0.100000*%
G04 APERTURE END LIST*
D10*
G36*
X63557771Y3807389D02*
X63611638Y3802084D01*
X63659897Y3787444D01*
X63818988Y3739185D01*
X63948508Y3669955D01*
X64010084Y3637042D01*
X64177581Y3499581D01*
X64315042Y3332084D01*
X64315043Y3332082D01*
X64417185Y3140988D01*
X64480084Y2933637D01*
X64501322Y2718000D01*
X64480084Y2502363D01*
X64417185Y2295012D01*
X64321637Y2116254D01*
X64315042Y2103916D01*
X64177581Y1936419D01*
X64010084Y1798958D01*
X64010082Y1798957D01*
X63818988Y1696815D01*
X63659897Y1648556D01*
X63611638Y1633916D01*
X63557771Y1628611D01*
X63450038Y1618000D01*
X63341962Y1618000D01*
X63234229Y1628611D01*
X63180362Y1633916D01*
X63132103Y1648556D01*
X62973012Y1696815D01*
X62781918Y1798957D01*
X62781916Y1798958D01*
X62614419Y1936419D01*
X62476958Y2103916D01*
X62470363Y2116254D01*
X62374815Y2295012D01*
X62311916Y2502363D01*
X62290678Y2718000D01*
X62311916Y2933637D01*
X62374815Y3140988D01*
X62476957Y3332082D01*
X62476958Y3332084D01*
X62614419Y3499581D01*
X62781916Y3637042D01*
X62843492Y3669955D01*
X62973012Y3739185D01*
X63132103Y3787444D01*
X63180362Y3802084D01*
X63234229Y3807389D01*
X63341962Y3818000D01*
X63450038Y3818000D01*
X63557771Y3807389D01*
X63557771Y3807389D01*
G37*
G36*
X61017771Y3807389D02*
X61071638Y3802084D01*
X61119897Y3787444D01*
X61278988Y3739185D01*
X61408508Y3669955D01*
X61470084Y3637042D01*
X61637581Y3499581D01*
X61775042Y3332084D01*
X61775043Y3332082D01*
X61877185Y3140988D01*
X61940084Y2933637D01*
X61961322Y2718000D01*
X61940084Y2502363D01*
X61877185Y2295012D01*
X61781637Y2116254D01*
X61775042Y2103916D01*
X61637581Y1936419D01*
X61470084Y1798958D01*
X61470082Y1798957D01*
X61278988Y1696815D01*
X61119897Y1648556D01*
X61071638Y1633916D01*
X61017771Y1628611D01*
X60910038Y1618000D01*
X60801962Y1618000D01*
X60694229Y1628611D01*
X60640362Y1633916D01*
X60592103Y1648556D01*
X60433012Y1696815D01*
X60241918Y1798957D01*
X60241916Y1798958D01*
X60074419Y1936419D01*
X59936958Y2103916D01*
X59930363Y2116254D01*
X59834815Y2295012D01*
X59771916Y2502363D01*
X59750678Y2718000D01*
X59771916Y2933637D01*
X59834815Y3140988D01*
X59936957Y3332082D01*
X59936958Y3332084D01*
X60074419Y3499581D01*
X60241916Y3637042D01*
X60303492Y3669955D01*
X60433012Y3739185D01*
X60592103Y3787444D01*
X60640362Y3802084D01*
X60694229Y3807389D01*
X60801962Y3818000D01*
X60910038Y3818000D01*
X61017771Y3807389D01*
X61017771Y3807389D01*
G37*
G36*
X28936000Y1618000D02*
X26736000Y1618000D01*
X26736000Y3818000D01*
X28936000Y3818000D01*
X28936000Y1618000D01*
X28936000Y1618000D01*
G37*
G36*
X30537771Y3807389D02*
X30591638Y3802084D01*
X30639897Y3787444D01*
X30798988Y3739185D01*
X30928508Y3669955D01*
X30990084Y3637042D01*
X31157581Y3499581D01*
X31295042Y3332084D01*
X31295043Y3332082D01*
X31397185Y3140988D01*
X31460084Y2933637D01*
X31481322Y2718000D01*
X31460084Y2502363D01*
X31397185Y2295012D01*
X31301637Y2116254D01*
X31295042Y2103916D01*
X31157581Y1936419D01*
X30990084Y1798958D01*
X30990082Y1798957D01*
X30798988Y1696815D01*
X30639897Y1648556D01*
X30591638Y1633916D01*
X30537771Y1628611D01*
X30430038Y1618000D01*
X30321962Y1618000D01*
X30214229Y1628611D01*
X30160362Y1633916D01*
X30112103Y1648556D01*
X29953012Y1696815D01*
X29761918Y1798957D01*
X29761916Y1798958D01*
X29594419Y1936419D01*
X29456958Y2103916D01*
X29450363Y2116254D01*
X29354815Y2295012D01*
X29291916Y2502363D01*
X29270678Y2718000D01*
X29291916Y2933637D01*
X29354815Y3140988D01*
X29456957Y3332082D01*
X29456958Y3332084D01*
X29594419Y3499581D01*
X29761916Y3637042D01*
X29823492Y3669955D01*
X29953012Y3739185D01*
X30112103Y3787444D01*
X30160362Y3802084D01*
X30214229Y3807389D01*
X30321962Y3818000D01*
X30430038Y3818000D01*
X30537771Y3807389D01*
X30537771Y3807389D01*
G37*
G36*
X33077771Y3807389D02*
X33131638Y3802084D01*
X33179897Y3787444D01*
X33338988Y3739185D01*
X33468508Y3669955D01*
X33530084Y3637042D01*
X33697581Y3499581D01*
X33835042Y3332084D01*
X33835043Y3332082D01*
X33937185Y3140988D01*
X34000084Y2933637D01*
X34021322Y2718000D01*
X34000084Y2502363D01*
X33937185Y2295012D01*
X33841637Y2116254D01*
X33835042Y2103916D01*
X33697581Y1936419D01*
X33530084Y1798958D01*
X33530082Y1798957D01*
X33338988Y1696815D01*
X33179897Y1648556D01*
X33131638Y1633916D01*
X33077771Y1628611D01*
X32970038Y1618000D01*
X32861962Y1618000D01*
X32754229Y1628611D01*
X32700362Y1633916D01*
X32652103Y1648556D01*
X32493012Y1696815D01*
X32301918Y1798957D01*
X32301916Y1798958D01*
X32134419Y1936419D01*
X31996958Y2103916D01*
X31990363Y2116254D01*
X31894815Y2295012D01*
X31831916Y2502363D01*
X31810678Y2718000D01*
X31831916Y2933637D01*
X31894815Y3140988D01*
X31996957Y3332082D01*
X31996958Y3332084D01*
X32134419Y3499581D01*
X32301916Y3637042D01*
X32363492Y3669955D01*
X32493012Y3739185D01*
X32652103Y3787444D01*
X32700362Y3802084D01*
X32754229Y3807389D01*
X32861962Y3818000D01*
X32970038Y3818000D01*
X33077771Y3807389D01*
X33077771Y3807389D01*
G37*
G36*
X35617771Y3807389D02*
X35671638Y3802084D01*
X35719897Y3787444D01*
X35878988Y3739185D01*
X36008508Y3669955D01*
X36070084Y3637042D01*
X36237581Y3499581D01*
X36375042Y3332084D01*
X36375043Y3332082D01*
X36477185Y3140988D01*
X36540084Y2933637D01*
X36561322Y2718000D01*
X36540084Y2502363D01*
X36477185Y2295012D01*
X36381637Y2116254D01*
X36375042Y2103916D01*
X36237581Y1936419D01*
X36070084Y1798958D01*
X36070082Y1798957D01*
X35878988Y1696815D01*
X35719897Y1648556D01*
X35671638Y1633916D01*
X35617771Y1628611D01*
X35510038Y1618000D01*
X35401962Y1618000D01*
X35294229Y1628611D01*
X35240362Y1633916D01*
X35192103Y1648556D01*
X35033012Y1696815D01*
X34841918Y1798957D01*
X34841916Y1798958D01*
X34674419Y1936419D01*
X34536958Y2103916D01*
X34530363Y2116254D01*
X34434815Y2295012D01*
X34371916Y2502363D01*
X34350678Y2718000D01*
X34371916Y2933637D01*
X34434815Y3140988D01*
X34536957Y3332082D01*
X34536958Y3332084D01*
X34674419Y3499581D01*
X34841916Y3637042D01*
X34903492Y3669955D01*
X35033012Y3739185D01*
X35192103Y3787444D01*
X35240362Y3802084D01*
X35294229Y3807389D01*
X35401962Y3818000D01*
X35510038Y3818000D01*
X35617771Y3807389D01*
X35617771Y3807389D01*
G37*
G36*
X38157771Y3807389D02*
X38211638Y3802084D01*
X38259897Y3787444D01*
X38418988Y3739185D01*
X38548508Y3669955D01*
X38610084Y3637042D01*
X38777581Y3499581D01*
X38915042Y3332084D01*
X38915043Y3332082D01*
X39017185Y3140988D01*
X39080084Y2933637D01*
X39101322Y2718000D01*
X39080084Y2502363D01*
X39017185Y2295012D01*
X38921637Y2116254D01*
X38915042Y2103916D01*
X38777581Y1936419D01*
X38610084Y1798958D01*
X38610082Y1798957D01*
X38418988Y1696815D01*
X38259897Y1648556D01*
X38211638Y1633916D01*
X38157771Y1628611D01*
X38050038Y1618000D01*
X37941962Y1618000D01*
X37834229Y1628611D01*
X37780362Y1633916D01*
X37732103Y1648556D01*
X37573012Y1696815D01*
X37381918Y1798957D01*
X37381916Y1798958D01*
X37214419Y1936419D01*
X37076958Y2103916D01*
X37070363Y2116254D01*
X36974815Y2295012D01*
X36911916Y2502363D01*
X36890678Y2718000D01*
X36911916Y2933637D01*
X36974815Y3140988D01*
X37076957Y3332082D01*
X37076958Y3332084D01*
X37214419Y3499581D01*
X37381916Y3637042D01*
X37443492Y3669955D01*
X37573012Y3739185D01*
X37732103Y3787444D01*
X37780362Y3802084D01*
X37834229Y3807389D01*
X37941962Y3818000D01*
X38050038Y3818000D01*
X38157771Y3807389D01*
X38157771Y3807389D01*
G37*
G36*
X40697771Y3807389D02*
X40751638Y3802084D01*
X40799897Y3787444D01*
X40958988Y3739185D01*
X41088508Y3669955D01*
X41150084Y3637042D01*
X41317581Y3499581D01*
X41455042Y3332084D01*
X41455043Y3332082D01*
X41557185Y3140988D01*
X41620084Y2933637D01*
X41641322Y2718000D01*
X41620084Y2502363D01*
X41557185Y2295012D01*
X41461637Y2116254D01*
X41455042Y2103916D01*
X41317581Y1936419D01*
X41150084Y1798958D01*
X41150082Y1798957D01*
X40958988Y1696815D01*
X40799897Y1648556D01*
X40751638Y1633916D01*
X40697771Y1628611D01*
X40590038Y1618000D01*
X40481962Y1618000D01*
X40374229Y1628611D01*
X40320362Y1633916D01*
X40272103Y1648556D01*
X40113012Y1696815D01*
X39921918Y1798957D01*
X39921916Y1798958D01*
X39754419Y1936419D01*
X39616958Y2103916D01*
X39610363Y2116254D01*
X39514815Y2295012D01*
X39451916Y2502363D01*
X39430678Y2718000D01*
X39451916Y2933637D01*
X39514815Y3140988D01*
X39616957Y3332082D01*
X39616958Y3332084D01*
X39754419Y3499581D01*
X39921916Y3637042D01*
X39983492Y3669955D01*
X40113012Y3739185D01*
X40272103Y3787444D01*
X40320362Y3802084D01*
X40374229Y3807389D01*
X40481962Y3818000D01*
X40590038Y3818000D01*
X40697771Y3807389D01*
X40697771Y3807389D01*
G37*
G36*
X45777771Y3807389D02*
X45831638Y3802084D01*
X45879897Y3787444D01*
X46038988Y3739185D01*
X46168508Y3669955D01*
X46230084Y3637042D01*
X46397581Y3499581D01*
X46535042Y3332084D01*
X46535043Y3332082D01*
X46637185Y3140988D01*
X46700084Y2933637D01*
X46721322Y2718000D01*
X46700084Y2502363D01*
X46637185Y2295012D01*
X46541637Y2116254D01*
X46535042Y2103916D01*
X46397581Y1936419D01*
X46230084Y1798958D01*
X46230082Y1798957D01*
X46038988Y1696815D01*
X45879897Y1648556D01*
X45831638Y1633916D01*
X45777771Y1628611D01*
X45670038Y1618000D01*
X45561962Y1618000D01*
X45454229Y1628611D01*
X45400362Y1633916D01*
X45352103Y1648556D01*
X45193012Y1696815D01*
X45001918Y1798957D01*
X45001916Y1798958D01*
X44834419Y1936419D01*
X44696958Y2103916D01*
X44690363Y2116254D01*
X44594815Y2295012D01*
X44531916Y2502363D01*
X44510678Y2718000D01*
X44531916Y2933637D01*
X44594815Y3140988D01*
X44696957Y3332082D01*
X44696958Y3332084D01*
X44834419Y3499581D01*
X45001916Y3637042D01*
X45063492Y3669955D01*
X45193012Y3739185D01*
X45352103Y3787444D01*
X45400362Y3802084D01*
X45454229Y3807389D01*
X45561962Y3818000D01*
X45670038Y3818000D01*
X45777771Y3807389D01*
X45777771Y3807389D01*
G37*
G36*
X50857771Y3807389D02*
X50911638Y3802084D01*
X50959897Y3787444D01*
X51118988Y3739185D01*
X51248508Y3669955D01*
X51310084Y3637042D01*
X51477581Y3499581D01*
X51615042Y3332084D01*
X51615043Y3332082D01*
X51717185Y3140988D01*
X51780084Y2933637D01*
X51801322Y2718000D01*
X51780084Y2502363D01*
X51717185Y2295012D01*
X51621637Y2116254D01*
X51615042Y2103916D01*
X51477581Y1936419D01*
X51310084Y1798958D01*
X51310082Y1798957D01*
X51118988Y1696815D01*
X50959897Y1648556D01*
X50911638Y1633916D01*
X50857771Y1628611D01*
X50750038Y1618000D01*
X50641962Y1618000D01*
X50534229Y1628611D01*
X50480362Y1633916D01*
X50432103Y1648556D01*
X50273012Y1696815D01*
X50081918Y1798957D01*
X50081916Y1798958D01*
X49914419Y1936419D01*
X49776958Y2103916D01*
X49770363Y2116254D01*
X49674815Y2295012D01*
X49611916Y2502363D01*
X49590678Y2718000D01*
X49611916Y2933637D01*
X49674815Y3140988D01*
X49776957Y3332082D01*
X49776958Y3332084D01*
X49914419Y3499581D01*
X50081916Y3637042D01*
X50143492Y3669955D01*
X50273012Y3739185D01*
X50432103Y3787444D01*
X50480362Y3802084D01*
X50534229Y3807389D01*
X50641962Y3818000D01*
X50750038Y3818000D01*
X50857771Y3807389D01*
X50857771Y3807389D01*
G37*
G36*
X53397771Y3807389D02*
X53451638Y3802084D01*
X53499897Y3787444D01*
X53658988Y3739185D01*
X53788508Y3669955D01*
X53850084Y3637042D01*
X54017581Y3499581D01*
X54155042Y3332084D01*
X54155043Y3332082D01*
X54257185Y3140988D01*
X54320084Y2933637D01*
X54341322Y2718000D01*
X54320084Y2502363D01*
X54257185Y2295012D01*
X54161637Y2116254D01*
X54155042Y2103916D01*
X54017581Y1936419D01*
X53850084Y1798958D01*
X53850082Y1798957D01*
X53658988Y1696815D01*
X53499897Y1648556D01*
X53451638Y1633916D01*
X53397771Y1628611D01*
X53290038Y1618000D01*
X53181962Y1618000D01*
X53074229Y1628611D01*
X53020362Y1633916D01*
X52972103Y1648556D01*
X52813012Y1696815D01*
X52621918Y1798957D01*
X52621916Y1798958D01*
X52454419Y1936419D01*
X52316958Y2103916D01*
X52310363Y2116254D01*
X52214815Y2295012D01*
X52151916Y2502363D01*
X52130678Y2718000D01*
X52151916Y2933637D01*
X52214815Y3140988D01*
X52316957Y3332082D01*
X52316958Y3332084D01*
X52454419Y3499581D01*
X52621916Y3637042D01*
X52683492Y3669955D01*
X52813012Y3739185D01*
X52972103Y3787444D01*
X53020362Y3802084D01*
X53074229Y3807389D01*
X53181962Y3818000D01*
X53290038Y3818000D01*
X53397771Y3807389D01*
X53397771Y3807389D01*
G37*
G36*
X55937771Y3807389D02*
X55991638Y3802084D01*
X56039897Y3787444D01*
X56198988Y3739185D01*
X56328508Y3669955D01*
X56390084Y3637042D01*
X56557581Y3499581D01*
X56695042Y3332084D01*
X56695043Y3332082D01*
X56797185Y3140988D01*
X56860084Y2933637D01*
X56881322Y2718000D01*
X56860084Y2502363D01*
X56797185Y2295012D01*
X56701637Y2116254D01*
X56695042Y2103916D01*
X56557581Y1936419D01*
X56390084Y1798958D01*
X56390082Y1798957D01*
X56198988Y1696815D01*
X56039897Y1648556D01*
X55991638Y1633916D01*
X55937771Y1628611D01*
X55830038Y1618000D01*
X55721962Y1618000D01*
X55614229Y1628611D01*
X55560362Y1633916D01*
X55512103Y1648556D01*
X55353012Y1696815D01*
X55161918Y1798957D01*
X55161916Y1798958D01*
X54994419Y1936419D01*
X54856958Y2103916D01*
X54850363Y2116254D01*
X54754815Y2295012D01*
X54691916Y2502363D01*
X54670678Y2718000D01*
X54691916Y2933637D01*
X54754815Y3140988D01*
X54856957Y3332082D01*
X54856958Y3332084D01*
X54994419Y3499581D01*
X55161916Y3637042D01*
X55223492Y3669955D01*
X55353012Y3739185D01*
X55512103Y3787444D01*
X55560362Y3802084D01*
X55614229Y3807389D01*
X55721962Y3818000D01*
X55830038Y3818000D01*
X55937771Y3807389D01*
X55937771Y3807389D01*
G37*
G36*
X58477771Y3807389D02*
X58531638Y3802084D01*
X58579897Y3787444D01*
X58738988Y3739185D01*
X58868508Y3669955D01*
X58930084Y3637042D01*
X59097581Y3499581D01*
X59235042Y3332084D01*
X59235043Y3332082D01*
X59337185Y3140988D01*
X59400084Y2933637D01*
X59421322Y2718000D01*
X59400084Y2502363D01*
X59337185Y2295012D01*
X59241637Y2116254D01*
X59235042Y2103916D01*
X59097581Y1936419D01*
X58930084Y1798958D01*
X58930082Y1798957D01*
X58738988Y1696815D01*
X58579897Y1648556D01*
X58531638Y1633916D01*
X58477771Y1628611D01*
X58370038Y1618000D01*
X58261962Y1618000D01*
X58154229Y1628611D01*
X58100362Y1633916D01*
X58052103Y1648556D01*
X57893012Y1696815D01*
X57701918Y1798957D01*
X57701916Y1798958D01*
X57534419Y1936419D01*
X57396958Y2103916D01*
X57390363Y2116254D01*
X57294815Y2295012D01*
X57231916Y2502363D01*
X57210678Y2718000D01*
X57231916Y2933637D01*
X57294815Y3140988D01*
X57396957Y3332082D01*
X57396958Y3332084D01*
X57534419Y3499581D01*
X57701916Y3637042D01*
X57763492Y3669955D01*
X57893012Y3739185D01*
X58052103Y3787444D01*
X58100362Y3802084D01*
X58154229Y3807389D01*
X58261962Y3818000D01*
X58370038Y3818000D01*
X58477771Y3807389D01*
X58477771Y3807389D01*
G37*
G36*
X43237771Y3807389D02*
X43291638Y3802084D01*
X43339897Y3787444D01*
X43498988Y3739185D01*
X43628508Y3669955D01*
X43690084Y3637042D01*
X43857581Y3499581D01*
X43995042Y3332084D01*
X43995043Y3332082D01*
X44097185Y3140988D01*
X44160084Y2933637D01*
X44181322Y2718000D01*
X44160084Y2502363D01*
X44097185Y2295012D01*
X44001637Y2116254D01*
X43995042Y2103916D01*
X43857581Y1936419D01*
X43690084Y1798958D01*
X43690082Y1798957D01*
X43498988Y1696815D01*
X43339897Y1648556D01*
X43291638Y1633916D01*
X43237771Y1628611D01*
X43130038Y1618000D01*
X43021962Y1618000D01*
X42914229Y1628611D01*
X42860362Y1633916D01*
X42812103Y1648556D01*
X42653012Y1696815D01*
X42461918Y1798957D01*
X42461916Y1798958D01*
X42294419Y1936419D01*
X42156958Y2103916D01*
X42150363Y2116254D01*
X42054815Y2295012D01*
X41991916Y2502363D01*
X41970678Y2718000D01*
X41991916Y2933637D01*
X42054815Y3140988D01*
X42156957Y3332082D01*
X42156958Y3332084D01*
X42294419Y3499581D01*
X42461916Y3637042D01*
X42523492Y3669955D01*
X42653012Y3739185D01*
X42812103Y3787444D01*
X42860362Y3802084D01*
X42914229Y3807389D01*
X43021962Y3818000D01*
X43130038Y3818000D01*
X43237771Y3807389D01*
X43237771Y3807389D01*
G37*
G36*
X14154772Y3669955D02*
X14334942Y3595326D01*
X14497089Y3486983D01*
X14634983Y3349089D01*
X14743326Y3186942D01*
X14817955Y3006772D01*
X14856000Y2815507D01*
X14856000Y2620493D01*
X14817955Y2429228D01*
X14743326Y2249058D01*
X14634983Y2086911D01*
X14497089Y1949017D01*
X14334942Y1840674D01*
X14154772Y1766045D01*
X13963507Y1728000D01*
X13768493Y1728000D01*
X13577228Y1766045D01*
X13397058Y1840674D01*
X13234911Y1949017D01*
X13097017Y2086911D01*
X12988674Y2249058D01*
X12914045Y2429228D01*
X12876000Y2620493D01*
X12876000Y2815507D01*
X12914045Y3006772D01*
X12988674Y3186942D01*
X13097017Y3349089D01*
X13234911Y3486983D01*
X13397058Y3595326D01*
X13577228Y3669955D01*
X13768493Y3708000D01*
X13963507Y3708000D01*
X14154772Y3669955D01*
X14154772Y3669955D01*
G37*
G36*
X66224772Y8749955D02*
X66404942Y8675326D01*
X66567089Y8566983D01*
X66704983Y8429089D01*
X66813326Y8266942D01*
X66887955Y8086772D01*
X66926000Y7895507D01*
X66926000Y7700493D01*
X66887955Y7509228D01*
X66813326Y7329058D01*
X66704983Y7166911D01*
X66567089Y7029017D01*
X66404942Y6920674D01*
X66224772Y6846045D01*
X66033507Y6808000D01*
X65838493Y6808000D01*
X65647228Y6846045D01*
X65467058Y6920674D01*
X65304911Y7029017D01*
X65167017Y7166911D01*
X65058674Y7329058D01*
X64984045Y7509228D01*
X64946000Y7700493D01*
X64946000Y7895507D01*
X64984045Y8086772D01*
X65058674Y8266942D01*
X65167017Y8429089D01*
X65304911Y8566983D01*
X65467058Y8675326D01*
X65647228Y8749955D01*
X65838493Y8788000D01*
X66033507Y8788000D01*
X66224772Y8749955D01*
X66224772Y8749955D01*
G37*
G36*
X41488232Y9846254D02*
X41667308Y9791932D01*
X41832345Y9703718D01*
X41977001Y9585001D01*
X42095718Y9440345D01*
X42183932Y9275308D01*
X42238254Y9096232D01*
X42256596Y8910000D01*
X42238254Y8723768D01*
X42183932Y8544692D01*
X42095718Y8379655D01*
X41977001Y8234999D01*
X41832345Y8116282D01*
X41832343Y8116281D01*
X41667308Y8028068D01*
X41488232Y7973746D01*
X41348666Y7960000D01*
X41255334Y7960000D01*
X41115768Y7973746D01*
X40936692Y8028068D01*
X40771657Y8116281D01*
X40771655Y8116282D01*
X40626999Y8234999D01*
X40508282Y8379655D01*
X40420068Y8544692D01*
X40365746Y8723768D01*
X40347404Y8910000D01*
X40365746Y9096232D01*
X40420068Y9275308D01*
X40508282Y9440345D01*
X40626999Y9585001D01*
X40771655Y9703718D01*
X40936692Y9791932D01*
X41115768Y9846254D01*
X41255334Y9860000D01*
X41348666Y9860000D01*
X41488232Y9846254D01*
X41488232Y9846254D01*
G37*
G36*
X44028232Y9846254D02*
X44207308Y9791932D01*
X44372345Y9703718D01*
X44517001Y9585001D01*
X44635718Y9440345D01*
X44723932Y9275308D01*
X44778254Y9096232D01*
X44796596Y8910000D01*
X44778254Y8723768D01*
X44723932Y8544692D01*
X44635718Y8379655D01*
X44517001Y8234999D01*
X44372345Y8116282D01*
X44372343Y8116281D01*
X44207308Y8028068D01*
X44028232Y7973746D01*
X43888666Y7960000D01*
X43795334Y7960000D01*
X43655768Y7973746D01*
X43476692Y8028068D01*
X43311657Y8116281D01*
X43311655Y8116282D01*
X43166999Y8234999D01*
X43048282Y8379655D01*
X42960068Y8544692D01*
X42905746Y8723768D01*
X42887404Y8910000D01*
X42905746Y9096232D01*
X42960068Y9275308D01*
X43048282Y9440345D01*
X43166999Y9585001D01*
X43311655Y9703718D01*
X43476692Y9791932D01*
X43655768Y9846254D01*
X43795334Y9860000D01*
X43888666Y9860000D01*
X44028232Y9846254D01*
X44028232Y9846254D01*
G37*
G36*
X51648232Y9846254D02*
X51827308Y9791932D01*
X51992345Y9703718D01*
X52137001Y9585001D01*
X52255718Y9440345D01*
X52343932Y9275308D01*
X52398254Y9096232D01*
X52416596Y8910000D01*
X52398254Y8723768D01*
X52343932Y8544692D01*
X52255718Y8379655D01*
X52137001Y8234999D01*
X51992345Y8116282D01*
X51992343Y8116281D01*
X51827308Y8028068D01*
X51648232Y7973746D01*
X51508666Y7960000D01*
X51415334Y7960000D01*
X51275768Y7973746D01*
X51096692Y8028068D01*
X50931657Y8116281D01*
X50931655Y8116282D01*
X50786999Y8234999D01*
X50668282Y8379655D01*
X50580068Y8544692D01*
X50525746Y8723768D01*
X50507404Y8910000D01*
X50525746Y9096232D01*
X50580068Y9275308D01*
X50668282Y9440345D01*
X50786999Y9585001D01*
X50931655Y9703718D01*
X51096692Y9791932D01*
X51275768Y9846254D01*
X51415334Y9860000D01*
X51508666Y9860000D01*
X51648232Y9846254D01*
X51648232Y9846254D01*
G37*
G36*
X49108232Y9846254D02*
X49287308Y9791932D01*
X49452345Y9703718D01*
X49597001Y9585001D01*
X49715718Y9440345D01*
X49803932Y9275308D01*
X49858254Y9096232D01*
X49876596Y8910000D01*
X49858254Y8723768D01*
X49803932Y8544692D01*
X49715718Y8379655D01*
X49597001Y8234999D01*
X49452345Y8116282D01*
X49452343Y8116281D01*
X49287308Y8028068D01*
X49108232Y7973746D01*
X48968666Y7960000D01*
X48875334Y7960000D01*
X48735768Y7973746D01*
X48556692Y8028068D01*
X48391657Y8116281D01*
X48391655Y8116282D01*
X48246999Y8234999D01*
X48128282Y8379655D01*
X48040068Y8544692D01*
X47985746Y8723768D01*
X47967404Y8910000D01*
X47985746Y9096232D01*
X48040068Y9275308D01*
X48128282Y9440345D01*
X48246999Y9585001D01*
X48391655Y9703718D01*
X48556692Y9791932D01*
X48735768Y9846254D01*
X48875334Y9860000D01*
X48968666Y9860000D01*
X49108232Y9846254D01*
X49108232Y9846254D01*
G37*
G36*
X54188232Y9846254D02*
X54367308Y9791932D01*
X54532345Y9703718D01*
X54677001Y9585001D01*
X54795718Y9440345D01*
X54883932Y9275308D01*
X54938254Y9096232D01*
X54956596Y8910000D01*
X54938254Y8723768D01*
X54883932Y8544692D01*
X54795718Y8379655D01*
X54677001Y8234999D01*
X54532345Y8116282D01*
X54532343Y8116281D01*
X54367308Y8028068D01*
X54188232Y7973746D01*
X54048666Y7960000D01*
X53955334Y7960000D01*
X53815768Y7973746D01*
X53636692Y8028068D01*
X53471657Y8116281D01*
X53471655Y8116282D01*
X53326999Y8234999D01*
X53208282Y8379655D01*
X53120068Y8544692D01*
X53065746Y8723768D01*
X53047404Y8910000D01*
X53065746Y9096232D01*
X53120068Y9275308D01*
X53208282Y9440345D01*
X53326999Y9585001D01*
X53471655Y9703718D01*
X53636692Y9791932D01*
X53815768Y9846254D01*
X53955334Y9860000D01*
X54048666Y9860000D01*
X54188232Y9846254D01*
X54188232Y9846254D01*
G37*
G36*
X23708232Y9846254D02*
X23887308Y9791932D01*
X24052345Y9703718D01*
X24197001Y9585001D01*
X24315718Y9440345D01*
X24403932Y9275308D01*
X24458254Y9096232D01*
X24476596Y8910000D01*
X24458254Y8723768D01*
X24403932Y8544692D01*
X24315718Y8379655D01*
X24197001Y8234999D01*
X24052345Y8116282D01*
X24052343Y8116281D01*
X23887308Y8028068D01*
X23708232Y7973746D01*
X23568666Y7960000D01*
X23475334Y7960000D01*
X23335768Y7973746D01*
X23156692Y8028068D01*
X22991657Y8116281D01*
X22991655Y8116282D01*
X22846999Y8234999D01*
X22728282Y8379655D01*
X22640068Y8544692D01*
X22585746Y8723768D01*
X22567404Y8910000D01*
X22585746Y9096232D01*
X22640068Y9275308D01*
X22728282Y9440345D01*
X22846999Y9585001D01*
X22991655Y9703718D01*
X23156692Y9791932D01*
X23335768Y9846254D01*
X23475334Y9860000D01*
X23568666Y9860000D01*
X23708232Y9846254D01*
X23708232Y9846254D01*
G37*
G36*
X21168232Y9846254D02*
X21347308Y9791932D01*
X21512345Y9703718D01*
X21657001Y9585001D01*
X21775718Y9440345D01*
X21863932Y9275308D01*
X21918254Y9096232D01*
X21936596Y8910000D01*
X21918254Y8723768D01*
X21863932Y8544692D01*
X21775718Y8379655D01*
X21657001Y8234999D01*
X21512345Y8116282D01*
X21512343Y8116281D01*
X21347308Y8028068D01*
X21168232Y7973746D01*
X21028666Y7960000D01*
X20935334Y7960000D01*
X20795768Y7973746D01*
X20616692Y8028068D01*
X20451657Y8116281D01*
X20451655Y8116282D01*
X20306999Y8234999D01*
X20188282Y8379655D01*
X20100068Y8544692D01*
X20045746Y8723768D01*
X20027404Y8910000D01*
X20045746Y9096232D01*
X20100068Y9275308D01*
X20188282Y9440345D01*
X20306999Y9585001D01*
X20451655Y9703718D01*
X20616692Y9791932D01*
X20795768Y9846254D01*
X20935334Y9860000D01*
X21028666Y9860000D01*
X21168232Y9846254D01*
X21168232Y9846254D01*
G37*
G36*
X18628232Y9846254D02*
X18807308Y9791932D01*
X18972345Y9703718D01*
X19117001Y9585001D01*
X19235718Y9440345D01*
X19323932Y9275308D01*
X19378254Y9096232D01*
X19396596Y8910000D01*
X19378254Y8723768D01*
X19323932Y8544692D01*
X19235718Y8379655D01*
X19117001Y8234999D01*
X18972345Y8116282D01*
X18972343Y8116281D01*
X18807308Y8028068D01*
X18628232Y7973746D01*
X18488666Y7960000D01*
X18395334Y7960000D01*
X18255768Y7973746D01*
X18076692Y8028068D01*
X17911657Y8116281D01*
X17911655Y8116282D01*
X17766999Y8234999D01*
X17648282Y8379655D01*
X17560068Y8544692D01*
X17505746Y8723768D01*
X17487404Y8910000D01*
X17505746Y9096232D01*
X17560068Y9275308D01*
X17648282Y9440345D01*
X17766999Y9585001D01*
X17911655Y9703718D01*
X18076692Y9791932D01*
X18255768Y9846254D01*
X18395334Y9860000D01*
X18488666Y9860000D01*
X18628232Y9846254D01*
X18628232Y9846254D01*
G37*
G36*
X16088232Y9846254D02*
X16267308Y9791932D01*
X16432345Y9703718D01*
X16577001Y9585001D01*
X16695718Y9440345D01*
X16783932Y9275308D01*
X16838254Y9096232D01*
X16856596Y8910000D01*
X16838254Y8723768D01*
X16783932Y8544692D01*
X16695718Y8379655D01*
X16577001Y8234999D01*
X16432345Y8116282D01*
X16432343Y8116281D01*
X16267308Y8028068D01*
X16088232Y7973746D01*
X15948666Y7960000D01*
X15855334Y7960000D01*
X15715768Y7973746D01*
X15536692Y8028068D01*
X15371657Y8116281D01*
X15371655Y8116282D01*
X15226999Y8234999D01*
X15108282Y8379655D01*
X15020068Y8544692D01*
X14965746Y8723768D01*
X14947404Y8910000D01*
X14965746Y9096232D01*
X15020068Y9275308D01*
X15108282Y9440345D01*
X15226999Y9585001D01*
X15371655Y9703718D01*
X15536692Y9791932D01*
X15715768Y9846254D01*
X15855334Y9860000D01*
X15948666Y9860000D01*
X16088232Y9846254D01*
X16088232Y9846254D01*
G37*
G36*
X13548232Y9846254D02*
X13727308Y9791932D01*
X13892345Y9703718D01*
X14037001Y9585001D01*
X14155718Y9440345D01*
X14243932Y9275308D01*
X14298254Y9096232D01*
X14316596Y8910000D01*
X14298254Y8723768D01*
X14243932Y8544692D01*
X14155718Y8379655D01*
X14037001Y8234999D01*
X13892345Y8116282D01*
X13892343Y8116281D01*
X13727308Y8028068D01*
X13548232Y7973746D01*
X13408666Y7960000D01*
X13315334Y7960000D01*
X13175768Y7973746D01*
X12996692Y8028068D01*
X12831657Y8116281D01*
X12831655Y8116282D01*
X12686999Y8234999D01*
X12568282Y8379655D01*
X12480068Y8544692D01*
X12425746Y8723768D01*
X12407404Y8910000D01*
X12425746Y9096232D01*
X12480068Y9275308D01*
X12568282Y9440345D01*
X12686999Y9585001D01*
X12831655Y9703718D01*
X12996692Y9791932D01*
X13175768Y9846254D01*
X13315334Y9860000D01*
X13408666Y9860000D01*
X13548232Y9846254D01*
X13548232Y9846254D01*
G37*
G36*
X36408232Y9846254D02*
X36587308Y9791932D01*
X36752345Y9703718D01*
X36897001Y9585001D01*
X37015718Y9440345D01*
X37103932Y9275308D01*
X37158254Y9096232D01*
X37176596Y8910000D01*
X37158254Y8723768D01*
X37103932Y8544692D01*
X37015718Y8379655D01*
X36897001Y8234999D01*
X36752345Y8116282D01*
X36752343Y8116281D01*
X36587308Y8028068D01*
X36408232Y7973746D01*
X36268666Y7960000D01*
X36175334Y7960000D01*
X36035768Y7973746D01*
X35856692Y8028068D01*
X35691657Y8116281D01*
X35691655Y8116282D01*
X35546999Y8234999D01*
X35428282Y8379655D01*
X35340068Y8544692D01*
X35285746Y8723768D01*
X35267404Y8910000D01*
X35285746Y9096232D01*
X35340068Y9275308D01*
X35428282Y9440345D01*
X35546999Y9585001D01*
X35691655Y9703718D01*
X35856692Y9791932D01*
X36035768Y9846254D01*
X36175334Y9860000D01*
X36268666Y9860000D01*
X36408232Y9846254D01*
X36408232Y9846254D01*
G37*
G36*
X33868232Y9846254D02*
X34047308Y9791932D01*
X34212345Y9703718D01*
X34357001Y9585001D01*
X34475718Y9440345D01*
X34563932Y9275308D01*
X34618254Y9096232D01*
X34636596Y8910000D01*
X34618254Y8723768D01*
X34563932Y8544692D01*
X34475718Y8379655D01*
X34357001Y8234999D01*
X34212345Y8116282D01*
X34212343Y8116281D01*
X34047308Y8028068D01*
X33868232Y7973746D01*
X33728666Y7960000D01*
X33635334Y7960000D01*
X33495768Y7973746D01*
X33316692Y8028068D01*
X33151657Y8116281D01*
X33151655Y8116282D01*
X33006999Y8234999D01*
X32888282Y8379655D01*
X32800068Y8544692D01*
X32745746Y8723768D01*
X32727404Y8910000D01*
X32745746Y9096232D01*
X32800068Y9275308D01*
X32888282Y9440345D01*
X33006999Y9585001D01*
X33151655Y9703718D01*
X33316692Y9791932D01*
X33495768Y9846254D01*
X33635334Y9860000D01*
X33728666Y9860000D01*
X33868232Y9846254D01*
X33868232Y9846254D01*
G37*
G36*
X31328232Y9846254D02*
X31507308Y9791932D01*
X31672345Y9703718D01*
X31817001Y9585001D01*
X31935718Y9440345D01*
X32023932Y9275308D01*
X32078254Y9096232D01*
X32096596Y8910000D01*
X32078254Y8723768D01*
X32023932Y8544692D01*
X31935718Y8379655D01*
X31817001Y8234999D01*
X31672345Y8116282D01*
X31672343Y8116281D01*
X31507308Y8028068D01*
X31328232Y7973746D01*
X31188666Y7960000D01*
X31095334Y7960000D01*
X30955768Y7973746D01*
X30776692Y8028068D01*
X30611657Y8116281D01*
X30611655Y8116282D01*
X30466999Y8234999D01*
X30348282Y8379655D01*
X30260068Y8544692D01*
X30205746Y8723768D01*
X30187404Y8910000D01*
X30205746Y9096232D01*
X30260068Y9275308D01*
X30348282Y9440345D01*
X30466999Y9585001D01*
X30611655Y9703718D01*
X30776692Y9791932D01*
X30955768Y9846254D01*
X31095334Y9860000D01*
X31188666Y9860000D01*
X31328232Y9846254D01*
X31328232Y9846254D01*
G37*
G36*
X28788232Y9846254D02*
X28967308Y9791932D01*
X29132345Y9703718D01*
X29277001Y9585001D01*
X29395718Y9440345D01*
X29483932Y9275308D01*
X29538254Y9096232D01*
X29556596Y8910000D01*
X29538254Y8723768D01*
X29483932Y8544692D01*
X29395718Y8379655D01*
X29277001Y8234999D01*
X29132345Y8116282D01*
X29132343Y8116281D01*
X28967308Y8028068D01*
X28788232Y7973746D01*
X28648666Y7960000D01*
X28555334Y7960000D01*
X28415768Y7973746D01*
X28236692Y8028068D01*
X28071657Y8116281D01*
X28071655Y8116282D01*
X27926999Y8234999D01*
X27808282Y8379655D01*
X27720068Y8544692D01*
X27665746Y8723768D01*
X27647404Y8910000D01*
X27665746Y9096232D01*
X27720068Y9275308D01*
X27808282Y9440345D01*
X27926999Y9585001D01*
X28071655Y9703718D01*
X28236692Y9791932D01*
X28415768Y9846254D01*
X28555334Y9860000D01*
X28648666Y9860000D01*
X28788232Y9846254D01*
X28788232Y9846254D01*
G37*
G36*
X26248232Y9846254D02*
X26427308Y9791932D01*
X26592345Y9703718D01*
X26737001Y9585001D01*
X26855718Y9440345D01*
X26943932Y9275308D01*
X26998254Y9096232D01*
X27016596Y8910000D01*
X26998254Y8723768D01*
X26943932Y8544692D01*
X26855718Y8379655D01*
X26737001Y8234999D01*
X26592345Y8116282D01*
X26592343Y8116281D01*
X26427308Y8028068D01*
X26248232Y7973746D01*
X26108666Y7960000D01*
X26015334Y7960000D01*
X25875768Y7973746D01*
X25696692Y8028068D01*
X25531657Y8116281D01*
X25531655Y8116282D01*
X25386999Y8234999D01*
X25268282Y8379655D01*
X25180068Y8544692D01*
X25125746Y8723768D01*
X25107404Y8910000D01*
X25125746Y9096232D01*
X25180068Y9275308D01*
X25268282Y9440345D01*
X25386999Y9585001D01*
X25531655Y9703718D01*
X25696692Y9791932D01*
X25875768Y9846254D01*
X26015334Y9860000D01*
X26108666Y9860000D01*
X26248232Y9846254D01*
X26248232Y9846254D01*
G37*
G36*
X46568232Y9846254D02*
X46747308Y9791932D01*
X46912345Y9703718D01*
X47057001Y9585001D01*
X47175718Y9440345D01*
X47263932Y9275308D01*
X47318254Y9096232D01*
X47336596Y8910000D01*
X47318254Y8723768D01*
X47263932Y8544692D01*
X47175718Y8379655D01*
X47057001Y8234999D01*
X46912345Y8116282D01*
X46912343Y8116281D01*
X46747308Y8028068D01*
X46568232Y7973746D01*
X46428666Y7960000D01*
X46335334Y7960000D01*
X46195768Y7973746D01*
X46016692Y8028068D01*
X45851657Y8116281D01*
X45851655Y8116282D01*
X45706999Y8234999D01*
X45588282Y8379655D01*
X45500068Y8544692D01*
X45445746Y8723768D01*
X45427404Y8910000D01*
X45445746Y9096232D01*
X45500068Y9275308D01*
X45588282Y9440345D01*
X45706999Y9585001D01*
X45851655Y9703718D01*
X46016692Y9791932D01*
X46195768Y9846254D01*
X46335334Y9860000D01*
X46428666Y9860000D01*
X46568232Y9846254D01*
X46568232Y9846254D01*
G37*
G36*
X8468232Y9846254D02*
X8647308Y9791932D01*
X8812345Y9703718D01*
X8957001Y9585001D01*
X9075718Y9440345D01*
X9163932Y9275308D01*
X9218254Y9096232D01*
X9236596Y8910000D01*
X9218254Y8723768D01*
X9163932Y8544692D01*
X9075718Y8379655D01*
X8957001Y8234999D01*
X8812345Y8116282D01*
X8812343Y8116281D01*
X8647308Y8028068D01*
X8468232Y7973746D01*
X8328666Y7960000D01*
X8235334Y7960000D01*
X8095768Y7973746D01*
X7916692Y8028068D01*
X7751657Y8116281D01*
X7751655Y8116282D01*
X7606999Y8234999D01*
X7488282Y8379655D01*
X7400068Y8544692D01*
X7345746Y8723768D01*
X7327404Y8910000D01*
X7345746Y9096232D01*
X7400068Y9275308D01*
X7488282Y9440345D01*
X7606999Y9585001D01*
X7751655Y9703718D01*
X7916692Y9791932D01*
X8095768Y9846254D01*
X8235334Y9860000D01*
X8328666Y9860000D01*
X8468232Y9846254D01*
X8468232Y9846254D01*
G37*
G36*
X5928232Y9846254D02*
X6107308Y9791932D01*
X6272345Y9703718D01*
X6417001Y9585001D01*
X6535718Y9440345D01*
X6623932Y9275308D01*
X6678254Y9096232D01*
X6696596Y8910000D01*
X6678254Y8723768D01*
X6623932Y8544692D01*
X6535718Y8379655D01*
X6417001Y8234999D01*
X6272345Y8116282D01*
X6272343Y8116281D01*
X6107308Y8028068D01*
X5928232Y7973746D01*
X5788666Y7960000D01*
X5695334Y7960000D01*
X5555768Y7973746D01*
X5376692Y8028068D01*
X5211657Y8116281D01*
X5211655Y8116282D01*
X5066999Y8234999D01*
X4948282Y8379655D01*
X4860068Y8544692D01*
X4805746Y8723768D01*
X4787404Y8910000D01*
X4805746Y9096232D01*
X4860068Y9275308D01*
X4948282Y9440345D01*
X5066999Y9585001D01*
X5211655Y9703718D01*
X5376692Y9791932D01*
X5555768Y9846254D01*
X5695334Y9860000D01*
X5788666Y9860000D01*
X5928232Y9846254D01*
X5928232Y9846254D01*
G37*
G36*
X11008232Y9846254D02*
X11187308Y9791932D01*
X11352345Y9703718D01*
X11497001Y9585001D01*
X11615718Y9440345D01*
X11703932Y9275308D01*
X11758254Y9096232D01*
X11776596Y8910000D01*
X11758254Y8723768D01*
X11703932Y8544692D01*
X11615718Y8379655D01*
X11497001Y8234999D01*
X11352345Y8116282D01*
X11352343Y8116281D01*
X11187308Y8028068D01*
X11008232Y7973746D01*
X10868666Y7960000D01*
X10775334Y7960000D01*
X10635768Y7973746D01*
X10456692Y8028068D01*
X10291657Y8116281D01*
X10291655Y8116282D01*
X10146999Y8234999D01*
X10028282Y8379655D01*
X9940068Y8544692D01*
X9885746Y8723768D01*
X9867404Y8910000D01*
X9885746Y9096232D01*
X9940068Y9275308D01*
X10028282Y9440345D01*
X10146999Y9585001D01*
X10291655Y9703718D01*
X10456692Y9791932D01*
X10635768Y9846254D01*
X10775334Y9860000D01*
X10868666Y9860000D01*
X11008232Y9846254D01*
X11008232Y9846254D01*
G37*
G36*
X38948232Y9846254D02*
X39127308Y9791932D01*
X39292345Y9703718D01*
X39437001Y9585001D01*
X39555718Y9440345D01*
X39643932Y9275308D01*
X39698254Y9096232D01*
X39716596Y8910000D01*
X39698254Y8723768D01*
X39643932Y8544692D01*
X39555718Y8379655D01*
X39437001Y8234999D01*
X39292345Y8116282D01*
X39292343Y8116281D01*
X39127308Y8028068D01*
X38948232Y7973746D01*
X38808666Y7960000D01*
X38715334Y7960000D01*
X38575768Y7973746D01*
X38396692Y8028068D01*
X38231657Y8116281D01*
X38231655Y8116282D01*
X38086999Y8234999D01*
X37968282Y8379655D01*
X37880068Y8544692D01*
X37825746Y8723768D01*
X37807404Y8910000D01*
X37825746Y9096232D01*
X37880068Y9275308D01*
X37968282Y9440345D01*
X38086999Y9585001D01*
X38231655Y9703718D01*
X38396692Y9791932D01*
X38575768Y9846254D01*
X38715334Y9860000D01*
X38808666Y9860000D01*
X38948232Y9846254D01*
X38948232Y9846254D01*
G37*
G36*
X36408232Y12386254D02*
X36587308Y12331932D01*
X36752345Y12243718D01*
X36897001Y12125001D01*
X37015718Y11980345D01*
X37103932Y11815308D01*
X37158254Y11636232D01*
X37176596Y11450000D01*
X37158254Y11263768D01*
X37103932Y11084692D01*
X37015718Y10919655D01*
X36897001Y10774999D01*
X36752345Y10656282D01*
X36752343Y10656281D01*
X36587308Y10568068D01*
X36408232Y10513746D01*
X36268666Y10500000D01*
X36175334Y10500000D01*
X36035768Y10513746D01*
X35856692Y10568068D01*
X35691657Y10656281D01*
X35691655Y10656282D01*
X35546999Y10774999D01*
X35428282Y10919655D01*
X35340068Y11084692D01*
X35285746Y11263768D01*
X35267404Y11450000D01*
X35285746Y11636232D01*
X35340068Y11815308D01*
X35428282Y11980345D01*
X35546999Y12125001D01*
X35691655Y12243718D01*
X35856692Y12331932D01*
X36035768Y12386254D01*
X36175334Y12400000D01*
X36268666Y12400000D01*
X36408232Y12386254D01*
X36408232Y12386254D01*
G37*
G36*
X33868232Y12386254D02*
X34047308Y12331932D01*
X34212345Y12243718D01*
X34357001Y12125001D01*
X34475718Y11980345D01*
X34563932Y11815308D01*
X34618254Y11636232D01*
X34636596Y11450000D01*
X34618254Y11263768D01*
X34563932Y11084692D01*
X34475718Y10919655D01*
X34357001Y10774999D01*
X34212345Y10656282D01*
X34212343Y10656281D01*
X34047308Y10568068D01*
X33868232Y10513746D01*
X33728666Y10500000D01*
X33635334Y10500000D01*
X33495768Y10513746D01*
X33316692Y10568068D01*
X33151657Y10656281D01*
X33151655Y10656282D01*
X33006999Y10774999D01*
X32888282Y10919655D01*
X32800068Y11084692D01*
X32745746Y11263768D01*
X32727404Y11450000D01*
X32745746Y11636232D01*
X32800068Y11815308D01*
X32888282Y11980345D01*
X33006999Y12125001D01*
X33151655Y12243718D01*
X33316692Y12331932D01*
X33495768Y12386254D01*
X33635334Y12400000D01*
X33728666Y12400000D01*
X33868232Y12386254D01*
X33868232Y12386254D01*
G37*
G36*
X31328232Y12386254D02*
X31507308Y12331932D01*
X31672345Y12243718D01*
X31817001Y12125001D01*
X31935718Y11980345D01*
X32023932Y11815308D01*
X32078254Y11636232D01*
X32096596Y11450000D01*
X32078254Y11263768D01*
X32023932Y11084692D01*
X31935718Y10919655D01*
X31817001Y10774999D01*
X31672345Y10656282D01*
X31672343Y10656281D01*
X31507308Y10568068D01*
X31328232Y10513746D01*
X31188666Y10500000D01*
X31095334Y10500000D01*
X30955768Y10513746D01*
X30776692Y10568068D01*
X30611657Y10656281D01*
X30611655Y10656282D01*
X30466999Y10774999D01*
X30348282Y10919655D01*
X30260068Y11084692D01*
X30205746Y11263768D01*
X30187404Y11450000D01*
X30205746Y11636232D01*
X30260068Y11815308D01*
X30348282Y11980345D01*
X30466999Y12125001D01*
X30611655Y12243718D01*
X30776692Y12331932D01*
X30955768Y12386254D01*
X31095334Y12400000D01*
X31188666Y12400000D01*
X31328232Y12386254D01*
X31328232Y12386254D01*
G37*
G36*
X28788232Y12386254D02*
X28967308Y12331932D01*
X29132345Y12243718D01*
X29277001Y12125001D01*
X29395718Y11980345D01*
X29483932Y11815308D01*
X29538254Y11636232D01*
X29556596Y11450000D01*
X29538254Y11263768D01*
X29483932Y11084692D01*
X29395718Y10919655D01*
X29277001Y10774999D01*
X29132345Y10656282D01*
X29132343Y10656281D01*
X28967308Y10568068D01*
X28788232Y10513746D01*
X28648666Y10500000D01*
X28555334Y10500000D01*
X28415768Y10513746D01*
X28236692Y10568068D01*
X28071657Y10656281D01*
X28071655Y10656282D01*
X27926999Y10774999D01*
X27808282Y10919655D01*
X27720068Y11084692D01*
X27665746Y11263768D01*
X27647404Y11450000D01*
X27665746Y11636232D01*
X27720068Y11815308D01*
X27808282Y11980345D01*
X27926999Y12125001D01*
X28071655Y12243718D01*
X28236692Y12331932D01*
X28415768Y12386254D01*
X28555334Y12400000D01*
X28648666Y12400000D01*
X28788232Y12386254D01*
X28788232Y12386254D01*
G37*
G36*
X26248232Y12386254D02*
X26427308Y12331932D01*
X26592345Y12243718D01*
X26737001Y12125001D01*
X26855718Y11980345D01*
X26943932Y11815308D01*
X26998254Y11636232D01*
X27016596Y11450000D01*
X26998254Y11263768D01*
X26943932Y11084692D01*
X26855718Y10919655D01*
X26737001Y10774999D01*
X26592345Y10656282D01*
X26592343Y10656281D01*
X26427308Y10568068D01*
X26248232Y10513746D01*
X26108666Y10500000D01*
X26015334Y10500000D01*
X25875768Y10513746D01*
X25696692Y10568068D01*
X25531657Y10656281D01*
X25531655Y10656282D01*
X25386999Y10774999D01*
X25268282Y10919655D01*
X25180068Y11084692D01*
X25125746Y11263768D01*
X25107404Y11450000D01*
X25125746Y11636232D01*
X25180068Y11815308D01*
X25268282Y11980345D01*
X25386999Y12125001D01*
X25531655Y12243718D01*
X25696692Y12331932D01*
X25875768Y12386254D01*
X26015334Y12400000D01*
X26108666Y12400000D01*
X26248232Y12386254D01*
X26248232Y12386254D01*
G37*
G36*
X11008232Y12386254D02*
X11187308Y12331932D01*
X11352345Y12243718D01*
X11497001Y12125001D01*
X11615718Y11980345D01*
X11703932Y11815308D01*
X11758254Y11636232D01*
X11776596Y11450000D01*
X11758254Y11263768D01*
X11703932Y11084692D01*
X11615718Y10919655D01*
X11497001Y10774999D01*
X11352345Y10656282D01*
X11352343Y10656281D01*
X11187308Y10568068D01*
X11008232Y10513746D01*
X10868666Y10500000D01*
X10775334Y10500000D01*
X10635768Y10513746D01*
X10456692Y10568068D01*
X10291657Y10656281D01*
X10291655Y10656282D01*
X10146999Y10774999D01*
X10028282Y10919655D01*
X9940068Y11084692D01*
X9885746Y11263768D01*
X9867404Y11450000D01*
X9885746Y11636232D01*
X9940068Y11815308D01*
X10028282Y11980345D01*
X10146999Y12125001D01*
X10291655Y12243718D01*
X10456692Y12331932D01*
X10635768Y12386254D01*
X10775334Y12400000D01*
X10868666Y12400000D01*
X11008232Y12386254D01*
X11008232Y12386254D01*
G37*
G36*
X8468232Y12386254D02*
X8647308Y12331932D01*
X8812345Y12243718D01*
X8957001Y12125001D01*
X9075718Y11980345D01*
X9163932Y11815308D01*
X9218254Y11636232D01*
X9236596Y11450000D01*
X9218254Y11263768D01*
X9163932Y11084692D01*
X9075718Y10919655D01*
X8957001Y10774999D01*
X8812345Y10656282D01*
X8812343Y10656281D01*
X8647308Y10568068D01*
X8468232Y10513746D01*
X8328666Y10500000D01*
X8235334Y10500000D01*
X8095768Y10513746D01*
X7916692Y10568068D01*
X7751657Y10656281D01*
X7751655Y10656282D01*
X7606999Y10774999D01*
X7488282Y10919655D01*
X7400068Y11084692D01*
X7345746Y11263768D01*
X7327404Y11450000D01*
X7345746Y11636232D01*
X7400068Y11815308D01*
X7488282Y11980345D01*
X7606999Y12125001D01*
X7751655Y12243718D01*
X7916692Y12331932D01*
X8095768Y12386254D01*
X8235334Y12400000D01*
X8328666Y12400000D01*
X8468232Y12386254D01*
X8468232Y12386254D01*
G37*
G36*
X5928232Y12386254D02*
X6107308Y12331932D01*
X6272345Y12243718D01*
X6417001Y12125001D01*
X6535718Y11980345D01*
X6623932Y11815308D01*
X6678254Y11636232D01*
X6696596Y11450000D01*
X6678254Y11263768D01*
X6623932Y11084692D01*
X6535718Y10919655D01*
X6417001Y10774999D01*
X6272345Y10656282D01*
X6272343Y10656281D01*
X6107308Y10568068D01*
X5928232Y10513746D01*
X5788666Y10500000D01*
X5695334Y10500000D01*
X5555768Y10513746D01*
X5376692Y10568068D01*
X5211657Y10656281D01*
X5211655Y10656282D01*
X5066999Y10774999D01*
X4948282Y10919655D01*
X4860068Y11084692D01*
X4805746Y11263768D01*
X4787404Y11450000D01*
X4805746Y11636232D01*
X4860068Y11815308D01*
X4948282Y11980345D01*
X5066999Y12125001D01*
X5211655Y12243718D01*
X5376692Y12331932D01*
X5555768Y12386254D01*
X5695334Y12400000D01*
X5788666Y12400000D01*
X5928232Y12386254D01*
X5928232Y12386254D01*
G37*
G36*
X13548232Y12386254D02*
X13727308Y12331932D01*
X13892345Y12243718D01*
X14037001Y12125001D01*
X14155718Y11980345D01*
X14243932Y11815308D01*
X14298254Y11636232D01*
X14316596Y11450000D01*
X14298254Y11263768D01*
X14243932Y11084692D01*
X14155718Y10919655D01*
X14037001Y10774999D01*
X13892345Y10656282D01*
X13892343Y10656281D01*
X13727308Y10568068D01*
X13548232Y10513746D01*
X13408666Y10500000D01*
X13315334Y10500000D01*
X13175768Y10513746D01*
X12996692Y10568068D01*
X12831657Y10656281D01*
X12831655Y10656282D01*
X12686999Y10774999D01*
X12568282Y10919655D01*
X12480068Y11084692D01*
X12425746Y11263768D01*
X12407404Y11450000D01*
X12425746Y11636232D01*
X12480068Y11815308D01*
X12568282Y11980345D01*
X12686999Y12125001D01*
X12831655Y12243718D01*
X12996692Y12331932D01*
X13175768Y12386254D01*
X13315334Y12400000D01*
X13408666Y12400000D01*
X13548232Y12386254D01*
X13548232Y12386254D01*
G37*
G36*
X16088232Y12386254D02*
X16267308Y12331932D01*
X16432345Y12243718D01*
X16577001Y12125001D01*
X16695718Y11980345D01*
X16783932Y11815308D01*
X16838254Y11636232D01*
X16856596Y11450000D01*
X16838254Y11263768D01*
X16783932Y11084692D01*
X16695718Y10919655D01*
X16577001Y10774999D01*
X16432345Y10656282D01*
X16432343Y10656281D01*
X16267308Y10568068D01*
X16088232Y10513746D01*
X15948666Y10500000D01*
X15855334Y10500000D01*
X15715768Y10513746D01*
X15536692Y10568068D01*
X15371657Y10656281D01*
X15371655Y10656282D01*
X15226999Y10774999D01*
X15108282Y10919655D01*
X15020068Y11084692D01*
X14965746Y11263768D01*
X14947404Y11450000D01*
X14965746Y11636232D01*
X15020068Y11815308D01*
X15108282Y11980345D01*
X15226999Y12125001D01*
X15371655Y12243718D01*
X15536692Y12331932D01*
X15715768Y12386254D01*
X15855334Y12400000D01*
X15948666Y12400000D01*
X16088232Y12386254D01*
X16088232Y12386254D01*
G37*
G36*
X41488232Y12386254D02*
X41667308Y12331932D01*
X41832345Y12243718D01*
X41977001Y12125001D01*
X42095718Y11980345D01*
X42183932Y11815308D01*
X42238254Y11636232D01*
X42256596Y11450000D01*
X42238254Y11263768D01*
X42183932Y11084692D01*
X42095718Y10919655D01*
X41977001Y10774999D01*
X41832345Y10656282D01*
X41832343Y10656281D01*
X41667308Y10568068D01*
X41488232Y10513746D01*
X41348666Y10500000D01*
X41255334Y10500000D01*
X41115768Y10513746D01*
X40936692Y10568068D01*
X40771657Y10656281D01*
X40771655Y10656282D01*
X40626999Y10774999D01*
X40508282Y10919655D01*
X40420068Y11084692D01*
X40365746Y11263768D01*
X40347404Y11450000D01*
X40365746Y11636232D01*
X40420068Y11815308D01*
X40508282Y11980345D01*
X40626999Y12125001D01*
X40771655Y12243718D01*
X40936692Y12331932D01*
X41115768Y12386254D01*
X41255334Y12400000D01*
X41348666Y12400000D01*
X41488232Y12386254D01*
X41488232Y12386254D01*
G37*
G36*
X38948232Y12386254D02*
X39127308Y12331932D01*
X39292345Y12243718D01*
X39437001Y12125001D01*
X39555718Y11980345D01*
X39643932Y11815308D01*
X39698254Y11636232D01*
X39716596Y11450000D01*
X39698254Y11263768D01*
X39643932Y11084692D01*
X39555718Y10919655D01*
X39437001Y10774999D01*
X39292345Y10656282D01*
X39292343Y10656281D01*
X39127308Y10568068D01*
X38948232Y10513746D01*
X38808666Y10500000D01*
X38715334Y10500000D01*
X38575768Y10513746D01*
X38396692Y10568068D01*
X38231657Y10656281D01*
X38231655Y10656282D01*
X38086999Y10774999D01*
X37968282Y10919655D01*
X37880068Y11084692D01*
X37825746Y11263768D01*
X37807404Y11450000D01*
X37825746Y11636232D01*
X37880068Y11815308D01*
X37968282Y11980345D01*
X38086999Y12125001D01*
X38231655Y12243718D01*
X38396692Y12331932D01*
X38575768Y12386254D01*
X38715334Y12400000D01*
X38808666Y12400000D01*
X38948232Y12386254D01*
X38948232Y12386254D01*
G37*
G36*
X44028232Y12386254D02*
X44207308Y12331932D01*
X44372345Y12243718D01*
X44517001Y12125001D01*
X44635718Y11980345D01*
X44723932Y11815308D01*
X44778254Y11636232D01*
X44796596Y11450000D01*
X44778254Y11263768D01*
X44723932Y11084692D01*
X44635718Y10919655D01*
X44517001Y10774999D01*
X44372345Y10656282D01*
X44372343Y10656281D01*
X44207308Y10568068D01*
X44028232Y10513746D01*
X43888666Y10500000D01*
X43795334Y10500000D01*
X43655768Y10513746D01*
X43476692Y10568068D01*
X43311657Y10656281D01*
X43311655Y10656282D01*
X43166999Y10774999D01*
X43048282Y10919655D01*
X42960068Y11084692D01*
X42905746Y11263768D01*
X42887404Y11450000D01*
X42905746Y11636232D01*
X42960068Y11815308D01*
X43048282Y11980345D01*
X43166999Y12125001D01*
X43311655Y12243718D01*
X43476692Y12331932D01*
X43655768Y12386254D01*
X43795334Y12400000D01*
X43888666Y12400000D01*
X44028232Y12386254D01*
X44028232Y12386254D01*
G37*
G36*
X21168232Y12386254D02*
X21347308Y12331932D01*
X21512345Y12243718D01*
X21657001Y12125001D01*
X21775718Y11980345D01*
X21863932Y11815308D01*
X21918254Y11636232D01*
X21936596Y11450000D01*
X21918254Y11263768D01*
X21863932Y11084692D01*
X21775718Y10919655D01*
X21657001Y10774999D01*
X21512345Y10656282D01*
X21512343Y10656281D01*
X21347308Y10568068D01*
X21168232Y10513746D01*
X21028666Y10500000D01*
X20935334Y10500000D01*
X20795768Y10513746D01*
X20616692Y10568068D01*
X20451657Y10656281D01*
X20451655Y10656282D01*
X20306999Y10774999D01*
X20188282Y10919655D01*
X20100068Y11084692D01*
X20045746Y11263768D01*
X20027404Y11450000D01*
X20045746Y11636232D01*
X20100068Y11815308D01*
X20188282Y11980345D01*
X20306999Y12125001D01*
X20451655Y12243718D01*
X20616692Y12331932D01*
X20795768Y12386254D01*
X20935334Y12400000D01*
X21028666Y12400000D01*
X21168232Y12386254D01*
X21168232Y12386254D01*
G37*
G36*
X18628232Y12386254D02*
X18807308Y12331932D01*
X18972345Y12243718D01*
X19117001Y12125001D01*
X19235718Y11980345D01*
X19323932Y11815308D01*
X19378254Y11636232D01*
X19396596Y11450000D01*
X19378254Y11263768D01*
X19323932Y11084692D01*
X19235718Y10919655D01*
X19117001Y10774999D01*
X18972345Y10656282D01*
X18972343Y10656281D01*
X18807308Y10568068D01*
X18628232Y10513746D01*
X18488666Y10500000D01*
X18395334Y10500000D01*
X18255768Y10513746D01*
X18076692Y10568068D01*
X17911657Y10656281D01*
X17911655Y10656282D01*
X17766999Y10774999D01*
X17648282Y10919655D01*
X17560068Y11084692D01*
X17505746Y11263768D01*
X17487404Y11450000D01*
X17505746Y11636232D01*
X17560068Y11815308D01*
X17648282Y11980345D01*
X17766999Y12125001D01*
X17911655Y12243718D01*
X18076692Y12331932D01*
X18255768Y12386254D01*
X18395334Y12400000D01*
X18488666Y12400000D01*
X18628232Y12386254D01*
X18628232Y12386254D01*
G37*
G36*
X54952000Y10500000D02*
X53052000Y10500000D01*
X53052000Y12400000D01*
X54952000Y12400000D01*
X54952000Y10500000D01*
X54952000Y10500000D01*
G37*
G36*
X49108232Y12386254D02*
X49287308Y12331932D01*
X49452345Y12243718D01*
X49597001Y12125001D01*
X49715718Y11980345D01*
X49803932Y11815308D01*
X49858254Y11636232D01*
X49876596Y11450000D01*
X49858254Y11263768D01*
X49803932Y11084692D01*
X49715718Y10919655D01*
X49597001Y10774999D01*
X49452345Y10656282D01*
X49452343Y10656281D01*
X49287308Y10568068D01*
X49108232Y10513746D01*
X48968666Y10500000D01*
X48875334Y10500000D01*
X48735768Y10513746D01*
X48556692Y10568068D01*
X48391657Y10656281D01*
X48391655Y10656282D01*
X48246999Y10774999D01*
X48128282Y10919655D01*
X48040068Y11084692D01*
X47985746Y11263768D01*
X47967404Y11450000D01*
X47985746Y11636232D01*
X48040068Y11815308D01*
X48128282Y11980345D01*
X48246999Y12125001D01*
X48391655Y12243718D01*
X48556692Y12331932D01*
X48735768Y12386254D01*
X48875334Y12400000D01*
X48968666Y12400000D01*
X49108232Y12386254D01*
X49108232Y12386254D01*
G37*
G36*
X46568232Y12386254D02*
X46747308Y12331932D01*
X46912345Y12243718D01*
X47057001Y12125001D01*
X47175718Y11980345D01*
X47263932Y11815308D01*
X47318254Y11636232D01*
X47336596Y11450000D01*
X47318254Y11263768D01*
X47263932Y11084692D01*
X47175718Y10919655D01*
X47057001Y10774999D01*
X46912345Y10656282D01*
X46912343Y10656281D01*
X46747308Y10568068D01*
X46568232Y10513746D01*
X46428666Y10500000D01*
X46335334Y10500000D01*
X46195768Y10513746D01*
X46016692Y10568068D01*
X45851657Y10656281D01*
X45851655Y10656282D01*
X45706999Y10774999D01*
X45588282Y10919655D01*
X45500068Y11084692D01*
X45445746Y11263768D01*
X45427404Y11450000D01*
X45445746Y11636232D01*
X45500068Y11815308D01*
X45588282Y11980345D01*
X45706999Y12125001D01*
X45851655Y12243718D01*
X46016692Y12331932D01*
X46195768Y12386254D01*
X46335334Y12400000D01*
X46428666Y12400000D01*
X46568232Y12386254D01*
X46568232Y12386254D01*
G37*
G36*
X23708232Y12386254D02*
X23887308Y12331932D01*
X24052345Y12243718D01*
X24197001Y12125001D01*
X24315718Y11980345D01*
X24403932Y11815308D01*
X24458254Y11636232D01*
X24476596Y11450000D01*
X24458254Y11263768D01*
X24403932Y11084692D01*
X24315718Y10919655D01*
X24197001Y10774999D01*
X24052345Y10656282D01*
X24052343Y10656281D01*
X23887308Y10568068D01*
X23708232Y10513746D01*
X23568666Y10500000D01*
X23475334Y10500000D01*
X23335768Y10513746D01*
X23156692Y10568068D01*
X22991657Y10656281D01*
X22991655Y10656282D01*
X22846999Y10774999D01*
X22728282Y10919655D01*
X22640068Y11084692D01*
X22585746Y11263768D01*
X22567404Y11450000D01*
X22585746Y11636232D01*
X22640068Y11815308D01*
X22728282Y11980345D01*
X22846999Y12125001D01*
X22991655Y12243718D01*
X23156692Y12331932D01*
X23335768Y12386254D01*
X23475334Y12400000D01*
X23568666Y12400000D01*
X23708232Y12386254D01*
X23708232Y12386254D01*
G37*
G36*
X51648232Y12386254D02*
X51827308Y12331932D01*
X51992345Y12243718D01*
X52137001Y12125001D01*
X52255718Y11980345D01*
X52343932Y11815308D01*
X52398254Y11636232D01*
X52416596Y11450000D01*
X52398254Y11263768D01*
X52343932Y11084692D01*
X52255718Y10919655D01*
X52137001Y10774999D01*
X51992345Y10656282D01*
X51992343Y10656281D01*
X51827308Y10568068D01*
X51648232Y10513746D01*
X51508666Y10500000D01*
X51415334Y10500000D01*
X51275768Y10513746D01*
X51096692Y10568068D01*
X50931657Y10656281D01*
X50931655Y10656282D01*
X50786999Y10774999D01*
X50668282Y10919655D01*
X50580068Y11084692D01*
X50525746Y11263768D01*
X50507404Y11450000D01*
X50525746Y11636232D01*
X50580068Y11815308D01*
X50668282Y11980345D01*
X50786999Y12125001D01*
X50931655Y12243718D01*
X51096692Y12331932D01*
X51275768Y12386254D01*
X51415334Y12400000D01*
X51508666Y12400000D01*
X51648232Y12386254D01*
X51648232Y12386254D01*
G37*
G36*
X42849490Y33900510D02*
X40650510Y33900510D01*
X40650510Y36099490D01*
X42849490Y36099490D01*
X42849490Y33900510D01*
X42849490Y33900510D01*
G37*
G36*
X37769490Y33900510D02*
X35570510Y33900510D01*
X35570510Y36099490D01*
X37769490Y36099490D01*
X37769490Y33900510D01*
X37769490Y33900510D01*
G37*
G36*
X66224772Y36689955D02*
X66404942Y36615326D01*
X66567089Y36506983D01*
X66704983Y36369089D01*
X66813326Y36206942D01*
X66887955Y36026772D01*
X66926000Y35835507D01*
X66926000Y35640493D01*
X66887955Y35449228D01*
X66813326Y35269058D01*
X66704983Y35106911D01*
X66567089Y34969017D01*
X66404942Y34860674D01*
X66224772Y34786045D01*
X66033507Y34748000D01*
X65838493Y34748000D01*
X65647228Y34786045D01*
X65467058Y34860674D01*
X65304911Y34969017D01*
X65167017Y35106911D01*
X65058674Y35269058D01*
X64984045Y35449228D01*
X64946000Y35640493D01*
X64946000Y35835507D01*
X64984045Y36026772D01*
X65058674Y36206942D01*
X65167017Y36369089D01*
X65304911Y36506983D01*
X65467058Y36615326D01*
X65647228Y36689955D01*
X65838493Y36728000D01*
X66033507Y36728000D01*
X66224772Y36689955D01*
X66224772Y36689955D01*
G37*
G36*
X68392000Y38238000D02*
X64128000Y38238000D01*
X64128000Y40438000D01*
X68392000Y40438000D01*
X68392000Y38238000D01*
X68392000Y38238000D01*
G37*
G36*
X43936232Y43136254D02*
X44115308Y43081932D01*
X44280345Y42993718D01*
X44425001Y42875001D01*
X44543718Y42730345D01*
X44631932Y42565308D01*
X44686254Y42386232D01*
X44704596Y42200000D01*
X44686254Y42013768D01*
X44631932Y41834692D01*
X44543718Y41669655D01*
X44425001Y41524999D01*
X44280345Y41406282D01*
X44280343Y41406281D01*
X44115308Y41318068D01*
X43936232Y41263746D01*
X43796666Y41250000D01*
X43703334Y41250000D01*
X43563768Y41263746D01*
X43384692Y41318068D01*
X43219657Y41406281D01*
X43219655Y41406282D01*
X43074999Y41524999D01*
X42956282Y41669655D01*
X42868068Y41834692D01*
X42813746Y42013768D01*
X42795404Y42200000D01*
X42813746Y42386232D01*
X42868068Y42565308D01*
X42956282Y42730345D01*
X43074999Y42875001D01*
X43219655Y42993718D01*
X43384692Y43081932D01*
X43563768Y43136254D01*
X43703334Y43150000D01*
X43796666Y43150000D01*
X43936232Y43136254D01*
X43936232Y43136254D01*
G37*
G36*
X54096232Y43136254D02*
X54275308Y43081932D01*
X54440345Y42993718D01*
X54585001Y42875001D01*
X54703718Y42730345D01*
X54791932Y42565308D01*
X54846254Y42386232D01*
X54864596Y42200000D01*
X54846254Y42013768D01*
X54791932Y41834692D01*
X54703718Y41669655D01*
X54585001Y41524999D01*
X54440345Y41406282D01*
X54440343Y41406281D01*
X54275308Y41318068D01*
X54096232Y41263746D01*
X53956666Y41250000D01*
X53863334Y41250000D01*
X53723768Y41263746D01*
X53544692Y41318068D01*
X53379657Y41406281D01*
X53379655Y41406282D01*
X53234999Y41524999D01*
X53116282Y41669655D01*
X53028068Y41834692D01*
X52973746Y42013768D01*
X52955404Y42200000D01*
X52973746Y42386232D01*
X53028068Y42565308D01*
X53116282Y42730345D01*
X53234999Y42875001D01*
X53379655Y42993718D01*
X53544692Y43081932D01*
X53723768Y43136254D01*
X53863334Y43150000D01*
X53956666Y43150000D01*
X54096232Y43136254D01*
X54096232Y43136254D01*
G37*
G36*
X51556232Y43136254D02*
X51735308Y43081932D01*
X51900345Y42993718D01*
X52045001Y42875001D01*
X52163718Y42730345D01*
X52251932Y42565308D01*
X52306254Y42386232D01*
X52324596Y42200000D01*
X52306254Y42013768D01*
X52251932Y41834692D01*
X52163718Y41669655D01*
X52045001Y41524999D01*
X51900345Y41406282D01*
X51900343Y41406281D01*
X51735308Y41318068D01*
X51556232Y41263746D01*
X51416666Y41250000D01*
X51323334Y41250000D01*
X51183768Y41263746D01*
X51004692Y41318068D01*
X50839657Y41406281D01*
X50839655Y41406282D01*
X50694999Y41524999D01*
X50576282Y41669655D01*
X50488068Y41834692D01*
X50433746Y42013768D01*
X50415404Y42200000D01*
X50433746Y42386232D01*
X50488068Y42565308D01*
X50576282Y42730345D01*
X50694999Y42875001D01*
X50839655Y42993718D01*
X51004692Y43081932D01*
X51183768Y43136254D01*
X51323334Y43150000D01*
X51416666Y43150000D01*
X51556232Y43136254D01*
X51556232Y43136254D01*
G37*
G36*
X46476232Y43136254D02*
X46655308Y43081932D01*
X46820345Y42993718D01*
X46965001Y42875001D01*
X47083718Y42730345D01*
X47171932Y42565308D01*
X47226254Y42386232D01*
X47244596Y42200000D01*
X47226254Y42013768D01*
X47171932Y41834692D01*
X47083718Y41669655D01*
X46965001Y41524999D01*
X46820345Y41406282D01*
X46820343Y41406281D01*
X46655308Y41318068D01*
X46476232Y41263746D01*
X46336666Y41250000D01*
X46243334Y41250000D01*
X46103768Y41263746D01*
X45924692Y41318068D01*
X45759657Y41406281D01*
X45759655Y41406282D01*
X45614999Y41524999D01*
X45496282Y41669655D01*
X45408068Y41834692D01*
X45353746Y42013768D01*
X45335404Y42200000D01*
X45353746Y42386232D01*
X45408068Y42565308D01*
X45496282Y42730345D01*
X45614999Y42875001D01*
X45759655Y42993718D01*
X45924692Y43081932D01*
X46103768Y43136254D01*
X46243334Y43150000D01*
X46336666Y43150000D01*
X46476232Y43136254D01*
X46476232Y43136254D01*
G37*
G36*
X42160000Y41250000D02*
X40260000Y41250000D01*
X40260000Y43150000D01*
X42160000Y43150000D01*
X42160000Y41250000D01*
X42160000Y41250000D01*
G37*
G36*
X49016232Y43136254D02*
X49195308Y43081932D01*
X49360345Y42993718D01*
X49505001Y42875001D01*
X49623718Y42730345D01*
X49711932Y42565308D01*
X49766254Y42386232D01*
X49784596Y42200000D01*
X49766254Y42013768D01*
X49711932Y41834692D01*
X49623718Y41669655D01*
X49505001Y41524999D01*
X49360345Y41406282D01*
X49360343Y41406281D01*
X49195308Y41318068D01*
X49016232Y41263746D01*
X48876666Y41250000D01*
X48783334Y41250000D01*
X48643768Y41263746D01*
X48464692Y41318068D01*
X48299657Y41406281D01*
X48299655Y41406282D01*
X48154999Y41524999D01*
X48036282Y41669655D01*
X47948068Y41834692D01*
X47893746Y42013768D01*
X47875404Y42200000D01*
X47893746Y42386232D01*
X47948068Y42565308D01*
X48036282Y42730345D01*
X48154999Y42875001D01*
X48299655Y42993718D01*
X48464692Y43081932D01*
X48643768Y43136254D01*
X48783334Y43150000D01*
X48876666Y43150000D01*
X49016232Y43136254D01*
X49016232Y43136254D01*
G37*
G36*
X68392000Y43762000D02*
X64128000Y43762000D01*
X64128000Y45962000D01*
X68392000Y45962000D01*
X68392000Y43762000D01*
X68392000Y43762000D01*
G37*
G36*
X43936232Y45676254D02*
X44115308Y45621932D01*
X44280345Y45533718D01*
X44425001Y45415001D01*
X44543718Y45270345D01*
X44631932Y45105308D01*
X44686254Y44926232D01*
X44704596Y44740000D01*
X44686254Y44553768D01*
X44631932Y44374692D01*
X44543718Y44209655D01*
X44425001Y44064999D01*
X44280345Y43946282D01*
X44280343Y43946281D01*
X44115308Y43858068D01*
X43936232Y43803746D01*
X43796666Y43790000D01*
X43703334Y43790000D01*
X43563768Y43803746D01*
X43384692Y43858068D01*
X43219657Y43946281D01*
X43219655Y43946282D01*
X43074999Y44064999D01*
X42956282Y44209655D01*
X42868068Y44374692D01*
X42813746Y44553768D01*
X42795404Y44740000D01*
X42813746Y44926232D01*
X42868068Y45105308D01*
X42956282Y45270345D01*
X43074999Y45415001D01*
X43219655Y45533718D01*
X43384692Y45621932D01*
X43563768Y45676254D01*
X43703334Y45690000D01*
X43796666Y45690000D01*
X43936232Y45676254D01*
X43936232Y45676254D01*
G37*
G36*
X49016232Y45676254D02*
X49195308Y45621932D01*
X49360345Y45533718D01*
X49505001Y45415001D01*
X49623718Y45270345D01*
X49711932Y45105308D01*
X49766254Y44926232D01*
X49784596Y44740000D01*
X49766254Y44553768D01*
X49711932Y44374692D01*
X49623718Y44209655D01*
X49505001Y44064999D01*
X49360345Y43946282D01*
X49360343Y43946281D01*
X49195308Y43858068D01*
X49016232Y43803746D01*
X48876666Y43790000D01*
X48783334Y43790000D01*
X48643768Y43803746D01*
X48464692Y43858068D01*
X48299657Y43946281D01*
X48299655Y43946282D01*
X48154999Y44064999D01*
X48036282Y44209655D01*
X47948068Y44374692D01*
X47893746Y44553768D01*
X47875404Y44740000D01*
X47893746Y44926232D01*
X47948068Y45105308D01*
X48036282Y45270345D01*
X48154999Y45415001D01*
X48299655Y45533718D01*
X48464692Y45621932D01*
X48643768Y45676254D01*
X48783334Y45690000D01*
X48876666Y45690000D01*
X49016232Y45676254D01*
X49016232Y45676254D01*
G37*
G36*
X46476232Y45676254D02*
X46655308Y45621932D01*
X46820345Y45533718D01*
X46965001Y45415001D01*
X47083718Y45270345D01*
X47171932Y45105308D01*
X47226254Y44926232D01*
X47244596Y44740000D01*
X47226254Y44553768D01*
X47171932Y44374692D01*
X47083718Y44209655D01*
X46965001Y44064999D01*
X46820345Y43946282D01*
X46820343Y43946281D01*
X46655308Y43858068D01*
X46476232Y43803746D01*
X46336666Y43790000D01*
X46243334Y43790000D01*
X46103768Y43803746D01*
X45924692Y43858068D01*
X45759657Y43946281D01*
X45759655Y43946282D01*
X45614999Y44064999D01*
X45496282Y44209655D01*
X45408068Y44374692D01*
X45353746Y44553768D01*
X45335404Y44740000D01*
X45353746Y44926232D01*
X45408068Y45105308D01*
X45496282Y45270345D01*
X45614999Y45415001D01*
X45759655Y45533718D01*
X45924692Y45621932D01*
X46103768Y45676254D01*
X46243334Y45690000D01*
X46336666Y45690000D01*
X46476232Y45676254D01*
X46476232Y45676254D01*
G37*
G36*
X51556232Y45676254D02*
X51735308Y45621932D01*
X51900345Y45533718D01*
X52045001Y45415001D01*
X52163718Y45270345D01*
X52251932Y45105308D01*
X52306254Y44926232D01*
X52324596Y44740000D01*
X52306254Y44553768D01*
X52251932Y44374692D01*
X52163718Y44209655D01*
X52045001Y44064999D01*
X51900345Y43946282D01*
X51900343Y43946281D01*
X51735308Y43858068D01*
X51556232Y43803746D01*
X51416666Y43790000D01*
X51323334Y43790000D01*
X51183768Y43803746D01*
X51004692Y43858068D01*
X50839657Y43946281D01*
X50839655Y43946282D01*
X50694999Y44064999D01*
X50576282Y44209655D01*
X50488068Y44374692D01*
X50433746Y44553768D01*
X50415404Y44740000D01*
X50433746Y44926232D01*
X50488068Y45105308D01*
X50576282Y45270345D01*
X50694999Y45415001D01*
X50839655Y45533718D01*
X51004692Y45621932D01*
X51183768Y45676254D01*
X51323334Y45690000D01*
X51416666Y45690000D01*
X51556232Y45676254D01*
X51556232Y45676254D01*
G37*
G36*
X54096232Y45676254D02*
X54275308Y45621932D01*
X54440345Y45533718D01*
X54585001Y45415001D01*
X54703718Y45270345D01*
X54791932Y45105308D01*
X54846254Y44926232D01*
X54864596Y44740000D01*
X54846254Y44553768D01*
X54791932Y44374692D01*
X54703718Y44209655D01*
X54585001Y44064999D01*
X54440345Y43946282D01*
X54440343Y43946281D01*
X54275308Y43858068D01*
X54096232Y43803746D01*
X53956666Y43790000D01*
X53863334Y43790000D01*
X53723768Y43803746D01*
X53544692Y43858068D01*
X53379657Y43946281D01*
X53379655Y43946282D01*
X53234999Y44064999D01*
X53116282Y44209655D01*
X53028068Y44374692D01*
X52973746Y44553768D01*
X52955404Y44740000D01*
X52973746Y44926232D01*
X53028068Y45105308D01*
X53116282Y45270345D01*
X53234999Y45415001D01*
X53379655Y45533718D01*
X53544692Y45621932D01*
X53723768Y45676254D01*
X53863334Y45690000D01*
X53956666Y45690000D01*
X54096232Y45676254D01*
X54096232Y45676254D01*
G37*
G36*
X41396232Y45676254D02*
X41575308Y45621932D01*
X41740345Y45533718D01*
X41885001Y45415001D01*
X42003718Y45270345D01*
X42091932Y45105308D01*
X42146254Y44926232D01*
X42164596Y44740000D01*
X42146254Y44553768D01*
X42091932Y44374692D01*
X42003718Y44209655D01*
X41885001Y44064999D01*
X41740345Y43946282D01*
X41740343Y43946281D01*
X41575308Y43858068D01*
X41396232Y43803746D01*
X41256666Y43790000D01*
X41163334Y43790000D01*
X41023768Y43803746D01*
X40844692Y43858068D01*
X40679657Y43946281D01*
X40679655Y43946282D01*
X40534999Y44064999D01*
X40416282Y44209655D01*
X40328068Y44374692D01*
X40273746Y44553768D01*
X40255404Y44740000D01*
X40273746Y44926232D01*
X40328068Y45105308D01*
X40416282Y45270345D01*
X40534999Y45415001D01*
X40679655Y45533718D01*
X40844692Y45621932D01*
X41023768Y45676254D01*
X41163334Y45690000D01*
X41256666Y45690000D01*
X41396232Y45676254D01*
X41396232Y45676254D01*
G37*
G36*
X36637771Y52067389D02*
X36691638Y52062084D01*
X36739897Y52047444D01*
X36898988Y51999185D01*
X37028508Y51929955D01*
X37090084Y51897042D01*
X37257581Y51759581D01*
X37395042Y51592084D01*
X37395043Y51592082D01*
X37497185Y51400988D01*
X37560084Y51193637D01*
X37581322Y50978000D01*
X37560084Y50762363D01*
X37497185Y50555012D01*
X37401637Y50376254D01*
X37395042Y50363916D01*
X37257581Y50196419D01*
X37090084Y50058958D01*
X37090082Y50058957D01*
X36898988Y49956815D01*
X36739897Y49908556D01*
X36691638Y49893916D01*
X36637771Y49888611D01*
X36530038Y49878000D01*
X36421962Y49878000D01*
X36314229Y49888611D01*
X36260362Y49893916D01*
X36212103Y49908556D01*
X36053012Y49956815D01*
X35861918Y50058957D01*
X35861916Y50058958D01*
X35694419Y50196419D01*
X35556958Y50363916D01*
X35550363Y50376254D01*
X35454815Y50555012D01*
X35391916Y50762363D01*
X35370678Y50978000D01*
X35391916Y51193637D01*
X35454815Y51400988D01*
X35556957Y51592082D01*
X35556958Y51592084D01*
X35694419Y51759581D01*
X35861916Y51897042D01*
X35923492Y51929955D01*
X36053012Y51999185D01*
X36212103Y52047444D01*
X36260362Y52062084D01*
X36314229Y52067389D01*
X36421962Y52078000D01*
X36530038Y52078000D01*
X36637771Y52067389D01*
X36637771Y52067389D01*
G37*
G36*
X61017771Y52067389D02*
X61071638Y52062084D01*
X61119897Y52047444D01*
X61278988Y51999185D01*
X61408508Y51929955D01*
X61470084Y51897042D01*
X61637581Y51759581D01*
X61775042Y51592084D01*
X61775043Y51592082D01*
X61877185Y51400988D01*
X61940084Y51193637D01*
X61961322Y50978000D01*
X61940084Y50762363D01*
X61877185Y50555012D01*
X61781637Y50376254D01*
X61775042Y50363916D01*
X61637581Y50196419D01*
X61470084Y50058958D01*
X61470082Y50058957D01*
X61278988Y49956815D01*
X61119897Y49908556D01*
X61071638Y49893916D01*
X61017771Y49888611D01*
X60910038Y49878000D01*
X60801962Y49878000D01*
X60694229Y49888611D01*
X60640362Y49893916D01*
X60592103Y49908556D01*
X60433012Y49956815D01*
X60241918Y50058957D01*
X60241916Y50058958D01*
X60074419Y50196419D01*
X59936958Y50363916D01*
X59930363Y50376254D01*
X59834815Y50555012D01*
X59771916Y50762363D01*
X59750678Y50978000D01*
X59771916Y51193637D01*
X59834815Y51400988D01*
X59936957Y51592082D01*
X59936958Y51592084D01*
X60074419Y51759581D01*
X60241916Y51897042D01*
X60303492Y51929955D01*
X60433012Y51999185D01*
X60592103Y52047444D01*
X60640362Y52062084D01*
X60694229Y52067389D01*
X60801962Y52078000D01*
X60910038Y52078000D01*
X61017771Y52067389D01*
X61017771Y52067389D01*
G37*
G36*
X29017771Y52067389D02*
X29071638Y52062084D01*
X29119897Y52047444D01*
X29278988Y51999185D01*
X29408508Y51929955D01*
X29470084Y51897042D01*
X29637581Y51759581D01*
X29775042Y51592084D01*
X29775043Y51592082D01*
X29877185Y51400988D01*
X29940084Y51193637D01*
X29961322Y50978000D01*
X29940084Y50762363D01*
X29877185Y50555012D01*
X29781637Y50376254D01*
X29775042Y50363916D01*
X29637581Y50196419D01*
X29470084Y50058958D01*
X29470082Y50058957D01*
X29278988Y49956815D01*
X29119897Y49908556D01*
X29071638Y49893916D01*
X29017771Y49888611D01*
X28910038Y49878000D01*
X28801962Y49878000D01*
X28694229Y49888611D01*
X28640362Y49893916D01*
X28592103Y49908556D01*
X28433012Y49956815D01*
X28241918Y50058957D01*
X28241916Y50058958D01*
X28074419Y50196419D01*
X27936958Y50363916D01*
X27930363Y50376254D01*
X27834815Y50555012D01*
X27771916Y50762363D01*
X27750678Y50978000D01*
X27771916Y51193637D01*
X27834815Y51400988D01*
X27936957Y51592082D01*
X27936958Y51592084D01*
X28074419Y51759581D01*
X28241916Y51897042D01*
X28303492Y51929955D01*
X28433012Y51999185D01*
X28592103Y52047444D01*
X28640362Y52062084D01*
X28694229Y52067389D01*
X28801962Y52078000D01*
X28910038Y52078000D01*
X29017771Y52067389D01*
X29017771Y52067389D01*
G37*
G36*
X23937771Y52067389D02*
X23991638Y52062084D01*
X24039897Y52047444D01*
X24198988Y51999185D01*
X24328508Y51929955D01*
X24390084Y51897042D01*
X24557581Y51759581D01*
X24695042Y51592084D01*
X24695043Y51592082D01*
X24797185Y51400988D01*
X24860084Y51193637D01*
X24881322Y50978000D01*
X24860084Y50762363D01*
X24797185Y50555012D01*
X24701637Y50376254D01*
X24695042Y50363916D01*
X24557581Y50196419D01*
X24390084Y50058958D01*
X24390082Y50058957D01*
X24198988Y49956815D01*
X24039897Y49908556D01*
X23991638Y49893916D01*
X23937771Y49888611D01*
X23830038Y49878000D01*
X23721962Y49878000D01*
X23614229Y49888611D01*
X23560362Y49893916D01*
X23512103Y49908556D01*
X23353012Y49956815D01*
X23161918Y50058957D01*
X23161916Y50058958D01*
X22994419Y50196419D01*
X22856958Y50363916D01*
X22850363Y50376254D01*
X22754815Y50555012D01*
X22691916Y50762363D01*
X22670678Y50978000D01*
X22691916Y51193637D01*
X22754815Y51400988D01*
X22856957Y51592082D01*
X22856958Y51592084D01*
X22994419Y51759581D01*
X23161916Y51897042D01*
X23223492Y51929955D01*
X23353012Y51999185D01*
X23512103Y52047444D01*
X23560362Y52062084D01*
X23614229Y52067389D01*
X23721962Y52078000D01*
X23830038Y52078000D01*
X23937771Y52067389D01*
X23937771Y52067389D01*
G37*
G36*
X26477771Y52067389D02*
X26531638Y52062084D01*
X26579897Y52047444D01*
X26738988Y51999185D01*
X26868508Y51929955D01*
X26930084Y51897042D01*
X27097581Y51759581D01*
X27235042Y51592084D01*
X27235043Y51592082D01*
X27337185Y51400988D01*
X27400084Y51193637D01*
X27421322Y50978000D01*
X27400084Y50762363D01*
X27337185Y50555012D01*
X27241637Y50376254D01*
X27235042Y50363916D01*
X27097581Y50196419D01*
X26930084Y50058958D01*
X26930082Y50058957D01*
X26738988Y49956815D01*
X26579897Y49908556D01*
X26531638Y49893916D01*
X26477771Y49888611D01*
X26370038Y49878000D01*
X26261962Y49878000D01*
X26154229Y49888611D01*
X26100362Y49893916D01*
X26052103Y49908556D01*
X25893012Y49956815D01*
X25701918Y50058957D01*
X25701916Y50058958D01*
X25534419Y50196419D01*
X25396958Y50363916D01*
X25390363Y50376254D01*
X25294815Y50555012D01*
X25231916Y50762363D01*
X25210678Y50978000D01*
X25231916Y51193637D01*
X25294815Y51400988D01*
X25396957Y51592082D01*
X25396958Y51592084D01*
X25534419Y51759581D01*
X25701916Y51897042D01*
X25763492Y51929955D01*
X25893012Y51999185D01*
X26052103Y52047444D01*
X26100362Y52062084D01*
X26154229Y52067389D01*
X26261962Y52078000D01*
X26370038Y52078000D01*
X26477771Y52067389D01*
X26477771Y52067389D01*
G37*
G36*
X63557771Y52067389D02*
X63611638Y52062084D01*
X63659897Y52047444D01*
X63818988Y51999185D01*
X63948508Y51929955D01*
X64010084Y51897042D01*
X64177581Y51759581D01*
X64315042Y51592084D01*
X64315043Y51592082D01*
X64417185Y51400988D01*
X64480084Y51193637D01*
X64501322Y50978000D01*
X64480084Y50762363D01*
X64417185Y50555012D01*
X64321637Y50376254D01*
X64315042Y50363916D01*
X64177581Y50196419D01*
X64010084Y50058958D01*
X64010082Y50058957D01*
X63818988Y49956815D01*
X63659897Y49908556D01*
X63611638Y49893916D01*
X63557771Y49888611D01*
X63450038Y49878000D01*
X63341962Y49878000D01*
X63234229Y49888611D01*
X63180362Y49893916D01*
X63132103Y49908556D01*
X62973012Y49956815D01*
X62781918Y50058957D01*
X62781916Y50058958D01*
X62614419Y50196419D01*
X62476958Y50363916D01*
X62470363Y50376254D01*
X62374815Y50555012D01*
X62311916Y50762363D01*
X62290678Y50978000D01*
X62311916Y51193637D01*
X62374815Y51400988D01*
X62476957Y51592082D01*
X62476958Y51592084D01*
X62614419Y51759581D01*
X62781916Y51897042D01*
X62843492Y51929955D01*
X62973012Y51999185D01*
X63132103Y52047444D01*
X63180362Y52062084D01*
X63234229Y52067389D01*
X63341962Y52078000D01*
X63450038Y52078000D01*
X63557771Y52067389D01*
X63557771Y52067389D01*
G37*
G36*
X41717771Y52067389D02*
X41771638Y52062084D01*
X41819897Y52047444D01*
X41978988Y51999185D01*
X42108508Y51929955D01*
X42170084Y51897042D01*
X42337581Y51759581D01*
X42475042Y51592084D01*
X42475043Y51592082D01*
X42577185Y51400988D01*
X42640084Y51193637D01*
X42661322Y50978000D01*
X42640084Y50762363D01*
X42577185Y50555012D01*
X42481637Y50376254D01*
X42475042Y50363916D01*
X42337581Y50196419D01*
X42170084Y50058958D01*
X42170082Y50058957D01*
X41978988Y49956815D01*
X41819897Y49908556D01*
X41771638Y49893916D01*
X41717771Y49888611D01*
X41610038Y49878000D01*
X41501962Y49878000D01*
X41394229Y49888611D01*
X41340362Y49893916D01*
X41292103Y49908556D01*
X41133012Y49956815D01*
X40941918Y50058957D01*
X40941916Y50058958D01*
X40774419Y50196419D01*
X40636958Y50363916D01*
X40630363Y50376254D01*
X40534815Y50555012D01*
X40471916Y50762363D01*
X40450678Y50978000D01*
X40471916Y51193637D01*
X40534815Y51400988D01*
X40636957Y51592082D01*
X40636958Y51592084D01*
X40774419Y51759581D01*
X40941916Y51897042D01*
X41003492Y51929955D01*
X41133012Y51999185D01*
X41292103Y52047444D01*
X41340362Y52062084D01*
X41394229Y52067389D01*
X41501962Y52078000D01*
X41610038Y52078000D01*
X41717771Y52067389D01*
X41717771Y52067389D01*
G37*
G36*
X45777771Y52067389D02*
X45831638Y52062084D01*
X45879897Y52047444D01*
X46038988Y51999185D01*
X46168508Y51929955D01*
X46230084Y51897042D01*
X46397581Y51759581D01*
X46535042Y51592084D01*
X46535043Y51592082D01*
X46637185Y51400988D01*
X46700084Y51193637D01*
X46721322Y50978000D01*
X46700084Y50762363D01*
X46637185Y50555012D01*
X46541637Y50376254D01*
X46535042Y50363916D01*
X46397581Y50196419D01*
X46230084Y50058958D01*
X46230082Y50058957D01*
X46038988Y49956815D01*
X45879897Y49908556D01*
X45831638Y49893916D01*
X45777771Y49888611D01*
X45670038Y49878000D01*
X45561962Y49878000D01*
X45454229Y49888611D01*
X45400362Y49893916D01*
X45352103Y49908556D01*
X45193012Y49956815D01*
X45001918Y50058957D01*
X45001916Y50058958D01*
X44834419Y50196419D01*
X44696958Y50363916D01*
X44690363Y50376254D01*
X44594815Y50555012D01*
X44531916Y50762363D01*
X44510678Y50978000D01*
X44531916Y51193637D01*
X44594815Y51400988D01*
X44696957Y51592082D01*
X44696958Y51592084D01*
X44834419Y51759581D01*
X45001916Y51897042D01*
X45063492Y51929955D01*
X45193012Y51999185D01*
X45352103Y52047444D01*
X45400362Y52062084D01*
X45454229Y52067389D01*
X45561962Y52078000D01*
X45670038Y52078000D01*
X45777771Y52067389D01*
X45777771Y52067389D01*
G37*
G36*
X39177771Y52067389D02*
X39231638Y52062084D01*
X39279897Y52047444D01*
X39438988Y51999185D01*
X39568508Y51929955D01*
X39630084Y51897042D01*
X39797581Y51759581D01*
X39935042Y51592084D01*
X39935043Y51592082D01*
X40037185Y51400988D01*
X40100084Y51193637D01*
X40121322Y50978000D01*
X40100084Y50762363D01*
X40037185Y50555012D01*
X39941637Y50376254D01*
X39935042Y50363916D01*
X39797581Y50196419D01*
X39630084Y50058958D01*
X39630082Y50058957D01*
X39438988Y49956815D01*
X39279897Y49908556D01*
X39231638Y49893916D01*
X39177771Y49888611D01*
X39070038Y49878000D01*
X38961962Y49878000D01*
X38854229Y49888611D01*
X38800362Y49893916D01*
X38752103Y49908556D01*
X38593012Y49956815D01*
X38401918Y50058957D01*
X38401916Y50058958D01*
X38234419Y50196419D01*
X38096958Y50363916D01*
X38090363Y50376254D01*
X37994815Y50555012D01*
X37931916Y50762363D01*
X37910678Y50978000D01*
X37931916Y51193637D01*
X37994815Y51400988D01*
X38096957Y51592082D01*
X38096958Y51592084D01*
X38234419Y51759581D01*
X38401916Y51897042D01*
X38463492Y51929955D01*
X38593012Y51999185D01*
X38752103Y52047444D01*
X38800362Y52062084D01*
X38854229Y52067389D01*
X38961962Y52078000D01*
X39070038Y52078000D01*
X39177771Y52067389D01*
X39177771Y52067389D01*
G37*
G36*
X48317771Y52067389D02*
X48371638Y52062084D01*
X48419897Y52047444D01*
X48578988Y51999185D01*
X48708508Y51929955D01*
X48770084Y51897042D01*
X48937581Y51759581D01*
X49075042Y51592084D01*
X49075043Y51592082D01*
X49177185Y51400988D01*
X49240084Y51193637D01*
X49261322Y50978000D01*
X49240084Y50762363D01*
X49177185Y50555012D01*
X49081637Y50376254D01*
X49075042Y50363916D01*
X48937581Y50196419D01*
X48770084Y50058958D01*
X48770082Y50058957D01*
X48578988Y49956815D01*
X48419897Y49908556D01*
X48371638Y49893916D01*
X48317771Y49888611D01*
X48210038Y49878000D01*
X48101962Y49878000D01*
X47994229Y49888611D01*
X47940362Y49893916D01*
X47892103Y49908556D01*
X47733012Y49956815D01*
X47541918Y50058957D01*
X47541916Y50058958D01*
X47374419Y50196419D01*
X47236958Y50363916D01*
X47230363Y50376254D01*
X47134815Y50555012D01*
X47071916Y50762363D01*
X47050678Y50978000D01*
X47071916Y51193637D01*
X47134815Y51400988D01*
X47236957Y51592082D01*
X47236958Y51592084D01*
X47374419Y51759581D01*
X47541916Y51897042D01*
X47603492Y51929955D01*
X47733012Y51999185D01*
X47892103Y52047444D01*
X47940362Y52062084D01*
X47994229Y52067389D01*
X48101962Y52078000D01*
X48210038Y52078000D01*
X48317771Y52067389D01*
X48317771Y52067389D01*
G37*
G36*
X53397771Y52067389D02*
X53451638Y52062084D01*
X53499897Y52047444D01*
X53658988Y51999185D01*
X53788508Y51929955D01*
X53850084Y51897042D01*
X54017581Y51759581D01*
X54155042Y51592084D01*
X54155043Y51592082D01*
X54257185Y51400988D01*
X54320084Y51193637D01*
X54341322Y50978000D01*
X54320084Y50762363D01*
X54257185Y50555012D01*
X54161637Y50376254D01*
X54155042Y50363916D01*
X54017581Y50196419D01*
X53850084Y50058958D01*
X53850082Y50058957D01*
X53658988Y49956815D01*
X53499897Y49908556D01*
X53451638Y49893916D01*
X53397771Y49888611D01*
X53290038Y49878000D01*
X53181962Y49878000D01*
X53074229Y49888611D01*
X53020362Y49893916D01*
X52972103Y49908556D01*
X52813012Y49956815D01*
X52621918Y50058957D01*
X52621916Y50058958D01*
X52454419Y50196419D01*
X52316958Y50363916D01*
X52310363Y50376254D01*
X52214815Y50555012D01*
X52151916Y50762363D01*
X52130678Y50978000D01*
X52151916Y51193637D01*
X52214815Y51400988D01*
X52316957Y51592082D01*
X52316958Y51592084D01*
X52454419Y51759581D01*
X52621916Y51897042D01*
X52683492Y51929955D01*
X52813012Y51999185D01*
X52972103Y52047444D01*
X53020362Y52062084D01*
X53074229Y52067389D01*
X53181962Y52078000D01*
X53290038Y52078000D01*
X53397771Y52067389D01*
X53397771Y52067389D01*
G37*
G36*
X34097771Y52067389D02*
X34151638Y52062084D01*
X34199897Y52047444D01*
X34358988Y51999185D01*
X34488508Y51929955D01*
X34550084Y51897042D01*
X34717581Y51759581D01*
X34855042Y51592084D01*
X34855043Y51592082D01*
X34957185Y51400988D01*
X35020084Y51193637D01*
X35041322Y50978000D01*
X35020084Y50762363D01*
X34957185Y50555012D01*
X34861637Y50376254D01*
X34855042Y50363916D01*
X34717581Y50196419D01*
X34550084Y50058958D01*
X34550082Y50058957D01*
X34358988Y49956815D01*
X34199897Y49908556D01*
X34151638Y49893916D01*
X34097771Y49888611D01*
X33990038Y49878000D01*
X33881962Y49878000D01*
X33774229Y49888611D01*
X33720362Y49893916D01*
X33672103Y49908556D01*
X33513012Y49956815D01*
X33321918Y50058957D01*
X33321916Y50058958D01*
X33154419Y50196419D01*
X33016958Y50363916D01*
X33010363Y50376254D01*
X32914815Y50555012D01*
X32851916Y50762363D01*
X32830678Y50978000D01*
X32851916Y51193637D01*
X32914815Y51400988D01*
X33016957Y51592082D01*
X33016958Y51592084D01*
X33154419Y51759581D01*
X33321916Y51897042D01*
X33383492Y51929955D01*
X33513012Y51999185D01*
X33672103Y52047444D01*
X33720362Y52062084D01*
X33774229Y52067389D01*
X33881962Y52078000D01*
X33990038Y52078000D01*
X34097771Y52067389D01*
X34097771Y52067389D01*
G37*
G36*
X55937771Y52067389D02*
X55991638Y52062084D01*
X56039897Y52047444D01*
X56198988Y51999185D01*
X56328508Y51929955D01*
X56390084Y51897042D01*
X56557581Y51759581D01*
X56695042Y51592084D01*
X56695043Y51592082D01*
X56797185Y51400988D01*
X56860084Y51193637D01*
X56881322Y50978000D01*
X56860084Y50762363D01*
X56797185Y50555012D01*
X56701637Y50376254D01*
X56695042Y50363916D01*
X56557581Y50196419D01*
X56390084Y50058958D01*
X56390082Y50058957D01*
X56198988Y49956815D01*
X56039897Y49908556D01*
X55991638Y49893916D01*
X55937771Y49888611D01*
X55830038Y49878000D01*
X55721962Y49878000D01*
X55614229Y49888611D01*
X55560362Y49893916D01*
X55512103Y49908556D01*
X55353012Y49956815D01*
X55161918Y50058957D01*
X55161916Y50058958D01*
X54994419Y50196419D01*
X54856958Y50363916D01*
X54850363Y50376254D01*
X54754815Y50555012D01*
X54691916Y50762363D01*
X54670678Y50978000D01*
X54691916Y51193637D01*
X54754815Y51400988D01*
X54856957Y51592082D01*
X54856958Y51592084D01*
X54994419Y51759581D01*
X55161916Y51897042D01*
X55223492Y51929955D01*
X55353012Y51999185D01*
X55512103Y52047444D01*
X55560362Y52062084D01*
X55614229Y52067389D01*
X55721962Y52078000D01*
X55830038Y52078000D01*
X55937771Y52067389D01*
X55937771Y52067389D01*
G37*
G36*
X58477771Y52067389D02*
X58531638Y52062084D01*
X58579897Y52047444D01*
X58738988Y51999185D01*
X58868508Y51929955D01*
X58930084Y51897042D01*
X59097581Y51759581D01*
X59235042Y51592084D01*
X59235043Y51592082D01*
X59337185Y51400988D01*
X59400084Y51193637D01*
X59421322Y50978000D01*
X59400084Y50762363D01*
X59337185Y50555012D01*
X59241637Y50376254D01*
X59235042Y50363916D01*
X59097581Y50196419D01*
X58930084Y50058958D01*
X58930082Y50058957D01*
X58738988Y49956815D01*
X58579897Y49908556D01*
X58531638Y49893916D01*
X58477771Y49888611D01*
X58370038Y49878000D01*
X58261962Y49878000D01*
X58154229Y49888611D01*
X58100362Y49893916D01*
X58052103Y49908556D01*
X57893012Y49956815D01*
X57701918Y50058957D01*
X57701916Y50058958D01*
X57534419Y50196419D01*
X57396958Y50363916D01*
X57390363Y50376254D01*
X57294815Y50555012D01*
X57231916Y50762363D01*
X57210678Y50978000D01*
X57231916Y51193637D01*
X57294815Y51400988D01*
X57396957Y51592082D01*
X57396958Y51592084D01*
X57534419Y51759581D01*
X57701916Y51897042D01*
X57763492Y51929955D01*
X57893012Y51999185D01*
X58052103Y52047444D01*
X58100362Y52062084D01*
X58154229Y52067389D01*
X58261962Y52078000D01*
X58370038Y52078000D01*
X58477771Y52067389D01*
X58477771Y52067389D01*
G37*
G36*
X21397771Y52067389D02*
X21451638Y52062084D01*
X21499897Y52047444D01*
X21658988Y51999185D01*
X21788508Y51929955D01*
X21850084Y51897042D01*
X22017581Y51759581D01*
X22155042Y51592084D01*
X22155043Y51592082D01*
X22257185Y51400988D01*
X22320084Y51193637D01*
X22341322Y50978000D01*
X22320084Y50762363D01*
X22257185Y50555012D01*
X22161637Y50376254D01*
X22155042Y50363916D01*
X22017581Y50196419D01*
X21850084Y50058958D01*
X21850082Y50058957D01*
X21658988Y49956815D01*
X21499897Y49908556D01*
X21451638Y49893916D01*
X21397771Y49888611D01*
X21290038Y49878000D01*
X21181962Y49878000D01*
X21074229Y49888611D01*
X21020362Y49893916D01*
X20972103Y49908556D01*
X20813012Y49956815D01*
X20621918Y50058957D01*
X20621916Y50058958D01*
X20454419Y50196419D01*
X20316958Y50363916D01*
X20310363Y50376254D01*
X20214815Y50555012D01*
X20151916Y50762363D01*
X20130678Y50978000D01*
X20151916Y51193637D01*
X20214815Y51400988D01*
X20316957Y51592082D01*
X20316958Y51592084D01*
X20454419Y51759581D01*
X20621916Y51897042D01*
X20683492Y51929955D01*
X20813012Y51999185D01*
X20972103Y52047444D01*
X21020362Y52062084D01*
X21074229Y52067389D01*
X21181962Y52078000D01*
X21290038Y52078000D01*
X21397771Y52067389D01*
X21397771Y52067389D01*
G37*
G36*
X31557771Y52067389D02*
X31611638Y52062084D01*
X31659897Y52047444D01*
X31818988Y51999185D01*
X31948508Y51929955D01*
X32010084Y51897042D01*
X32177581Y51759581D01*
X32315042Y51592084D01*
X32315043Y51592082D01*
X32417185Y51400988D01*
X32480084Y51193637D01*
X32501322Y50978000D01*
X32480084Y50762363D01*
X32417185Y50555012D01*
X32321637Y50376254D01*
X32315042Y50363916D01*
X32177581Y50196419D01*
X32010084Y50058958D01*
X32010082Y50058957D01*
X31818988Y49956815D01*
X31659897Y49908556D01*
X31611638Y49893916D01*
X31557771Y49888611D01*
X31450038Y49878000D01*
X31341962Y49878000D01*
X31234229Y49888611D01*
X31180362Y49893916D01*
X31132103Y49908556D01*
X30973012Y49956815D01*
X30781918Y50058957D01*
X30781916Y50058958D01*
X30614419Y50196419D01*
X30476958Y50363916D01*
X30470363Y50376254D01*
X30374815Y50555012D01*
X30311916Y50762363D01*
X30290678Y50978000D01*
X30311916Y51193637D01*
X30374815Y51400988D01*
X30476957Y51592082D01*
X30476958Y51592084D01*
X30614419Y51759581D01*
X30781916Y51897042D01*
X30843492Y51929955D01*
X30973012Y51999185D01*
X31132103Y52047444D01*
X31180362Y52062084D01*
X31234229Y52067389D01*
X31341962Y52078000D01*
X31450038Y52078000D01*
X31557771Y52067389D01*
X31557771Y52067389D01*
G37*
G36*
X18857771Y52067389D02*
X18911638Y52062084D01*
X18959897Y52047444D01*
X19118988Y51999185D01*
X19248508Y51929955D01*
X19310084Y51897042D01*
X19477581Y51759581D01*
X19615042Y51592084D01*
X19615043Y51592082D01*
X19717185Y51400988D01*
X19780084Y51193637D01*
X19801322Y50978000D01*
X19780084Y50762363D01*
X19717185Y50555012D01*
X19621637Y50376254D01*
X19615042Y50363916D01*
X19477581Y50196419D01*
X19310084Y50058958D01*
X19310082Y50058957D01*
X19118988Y49956815D01*
X18959897Y49908556D01*
X18911638Y49893916D01*
X18857771Y49888611D01*
X18750038Y49878000D01*
X18641962Y49878000D01*
X18534229Y49888611D01*
X18480362Y49893916D01*
X18432103Y49908556D01*
X18273012Y49956815D01*
X18081918Y50058957D01*
X18081916Y50058958D01*
X17914419Y50196419D01*
X17776958Y50363916D01*
X17770363Y50376254D01*
X17674815Y50555012D01*
X17611916Y50762363D01*
X17590678Y50978000D01*
X17611916Y51193637D01*
X17674815Y51400988D01*
X17776957Y51592082D01*
X17776958Y51592084D01*
X17914419Y51759581D01*
X18081916Y51897042D01*
X18143492Y51929955D01*
X18273012Y51999185D01*
X18432103Y52047444D01*
X18480362Y52062084D01*
X18534229Y52067389D01*
X18641962Y52078000D01*
X18750038Y52078000D01*
X18857771Y52067389D01*
X18857771Y52067389D01*
G37*
G36*
X50857771Y52067389D02*
X50911638Y52062084D01*
X50959897Y52047444D01*
X51118988Y51999185D01*
X51248508Y51929955D01*
X51310084Y51897042D01*
X51477581Y51759581D01*
X51615042Y51592084D01*
X51615043Y51592082D01*
X51717185Y51400988D01*
X51780084Y51193637D01*
X51801322Y50978000D01*
X51780084Y50762363D01*
X51717185Y50555012D01*
X51621637Y50376254D01*
X51615042Y50363916D01*
X51477581Y50196419D01*
X51310084Y50058958D01*
X51310082Y50058957D01*
X51118988Y49956815D01*
X50959897Y49908556D01*
X50911638Y49893916D01*
X50857771Y49888611D01*
X50750038Y49878000D01*
X50641962Y49878000D01*
X50534229Y49888611D01*
X50480362Y49893916D01*
X50432103Y49908556D01*
X50273012Y49956815D01*
X50081918Y50058957D01*
X50081916Y50058958D01*
X49914419Y50196419D01*
X49776958Y50363916D01*
X49770363Y50376254D01*
X49674815Y50555012D01*
X49611916Y50762363D01*
X49590678Y50978000D01*
X49611916Y51193637D01*
X49674815Y51400988D01*
X49776957Y51592082D01*
X49776958Y51592084D01*
X49914419Y51759581D01*
X50081916Y51897042D01*
X50143492Y51929955D01*
X50273012Y51999185D01*
X50432103Y52047444D01*
X50480362Y52062084D01*
X50534229Y52067389D01*
X50641962Y52078000D01*
X50750038Y52078000D01*
X50857771Y52067389D01*
X50857771Y52067389D01*
G37*
G36*
X15424772Y51929955D02*
X15604942Y51855326D01*
X15767089Y51746983D01*
X15904983Y51609089D01*
X16013326Y51446942D01*
X16087955Y51266772D01*
X16126000Y51075507D01*
X16126000Y50880493D01*
X16087955Y50689228D01*
X16013326Y50509058D01*
X15904983Y50346911D01*
X15767089Y50209017D01*
X15604942Y50100674D01*
X15424772Y50026045D01*
X15233507Y49988000D01*
X15038493Y49988000D01*
X14847228Y50026045D01*
X14667058Y50100674D01*
X14504911Y50209017D01*
X14367017Y50346911D01*
X14258674Y50509058D01*
X14184045Y50689228D01*
X14146000Y50880493D01*
X14146000Y51075507D01*
X14184045Y51266772D01*
X14258674Y51446942D01*
X14367017Y51609089D01*
X14504911Y51746983D01*
X14667058Y51855326D01*
X14847228Y51929955D01*
X15038493Y51968000D01*
X15233507Y51968000D01*
X15424772Y51929955D01*
X15424772Y51929955D01*
G37*
M02*
