M48
;DRILL file {KiCad (5.0.0)} date 10/04/18 08:41:45
;FORMAT={2:4/ absolute / inch / suppress leading zeros}
FMAT,2
INCH,TZ
T1C0.0130
T2C0.0157
T3C0.0394
T4C0.0433
T5C0.0701
%
G90
G05
M72
T1
X11854Y12913
X24846Y12913
X2799Y20276
X15004Y11634
X7917Y18031
X13429Y10453
X2799Y9370
X13035Y17244
X23272Y11339
X9886Y16063
X24846Y14488
X11461Y7402
X12248Y14882
X831Y18031
X8311Y16063
X23272Y5039
X2799Y7795
X14925Y15315
X24846Y9764
X23272Y8189
X2799Y6220
X3193Y1102
X8311Y7402
X23272Y14488
X4768Y9370
X21697Y8189
X2799Y16457
X24846Y3465
X23272Y16850
X13429Y11634
X831Y19606
X4768Y18031
X11461Y8976
X14610Y17244
X23272Y18425
X8705Y1102
X1618Y1102
X23272Y12913
X24846Y5039
X24846Y11339
X4768Y7795
X13646Y14862
X831Y16457
X11854Y10453
X16579Y6220
X21697Y6614
X24846Y18425
X4768Y6220
X11854Y11634
X24846Y8189
X24846Y6614
X9886Y14488
X8311Y6220
X23272Y6614
X16579Y8976
X8311Y14488
X23272Y3465
X20516Y8189
X15004Y7402
X13035Y8976
X4768Y19606
X9492Y18031
X13035Y7402
X13429Y12913
X15004Y8976
X20516Y6614
X23272Y9764
X15004Y10453
X7130Y1102
X8311Y8976
X2799Y18031
T2
X3114Y10768
X3685Y16024
X3921Y12343
X4236Y16752
X4394Y15079
X4433Y11555
X4709Y14803
X4866Y9980
X5024Y14606
X6500Y17795
X7268Y15984
X7268Y9193
X9276Y5866
X9768Y9980
X9787Y16752
X10083Y10768
X10240Y15728
X10358Y15059
X10378Y12343
X10693Y11555
X10713Y17717
X11402Y14764
X16736Y14606
X17366Y5945
X17957Y10768
X19354Y14311
X20634Y9980
X20654Y12343
X21303Y9193
T3
X2261Y4508
X2261Y3508
X3261Y4508
X3261Y3508
X4261Y4508
X4261Y3508
X5261Y4508
X5261Y3508
X6261Y4508
X6261Y3508
X7261Y4508
X7261Y3508
X8261Y4508
X8261Y3508
X9261Y4508
X9261Y3508
X10261Y4508
X10261Y3508
X11261Y4508
X11261Y3508
X12261Y4508
X12261Y3508
X13261Y4508
X13261Y3508
X14261Y4508
X14261Y3508
X15261Y4508
X15261Y3508
X16261Y4508
X16261Y3508
X17261Y4508
X17261Y3508
X18261Y4508
X18261Y3508
X19261Y4508
X19261Y3508
X20261Y4508
X20261Y3508
X21261Y4508
X21261Y3508
X16224Y17614
X16224Y16614
X17224Y17614
X17224Y16614
X18224Y17614
X18224Y16614
X19224Y17614
X19224Y16614
X20224Y17614
X20224Y16614
X21224Y17614
X21224Y16614
T4
X7361Y20070
X8361Y20070
X9361Y20070
X10361Y20070
X10959Y1070
X11361Y20070
X11959Y1070
X12361Y20070
X12959Y1070
X13361Y20070
X13959Y1070
X14361Y20070
X14959Y1070
X15361Y20070
X15959Y1070
X16361Y20070
X16959Y1070
X17959Y20070
X17959Y1070
X18959Y20070
X19959Y20070
X19959Y1070
X20959Y20070
X20959Y1070
X21959Y20070
X21959Y1070
X22959Y20070
X22959Y1070
X23959Y20070
X23959Y1070
X24959Y20070
X24959Y1070
T5
X5459Y1070
X5959Y20070
X25959Y14070
X25959Y3070
T0
M30
